<svg version="1.1" id="Layer_1" xmlns="http://www.w3.org/2000/svg"
     xmlns:xlink="http://www.w3.org/1999/xlink" x="0px" y="0px"
     width="64" height="64"
     viewBox="0 0 595.3 841.9" style="enable-background:new 0 0 595.3 841.9;" xml:space="preserve">
  <style type="text/css">
    .st0{fill-rule:evenodd;clip-rule:evenodd;fill:#541D1D;}
    .st1{fill:#541D1D;}
    .st2{fill:#FFFFFF;}
  </style>
  <g>
    <path class="st0" d="M325.5,373.9l-27.4-27.4l-27.4,27.4c-7.3,7.3-11.3,17-11.3,27.4s4,20.1,11.3,27.4c15.1,15.1,39.7,15.1,54.8,0
      c7.3-7.3,11.3-17,11.3-27.4S332.8,381.2,325.5,373.9z M298.1,425.5c-9.7,0-17.7-7.9-17.7-17.6s7.9-17.7,17.7-17.7
      c9.7,0,17.7,7.9,17.7,17.7C315.8,417.6,307.8,425.5,298.1,425.5z"/>
    <path class="st1" d="M375,463.3c3,7-0.9,17.9-8.9,24.9C348,504,322.2,512,296.9,512c-23.7,0-47.1-7-63.7-21.1
      c-15.6-13.2-13.9-22-11.5-26.1c5.3-9.1,22.9-11.1,39.9-4.7c8,3,11.2,5.7,17.2,10.7l5.1,4.3l-5.2-1.8c-1.5-0.5-3-1.1-4.6-1.7
      c-10.1-3.7-20.4-7.6-30.9-4.3c-3.8,1.2-5.8,2.8-6.1,4.9c-0.5,3.7,4.4,8.8,9.5,12.1c6.8,4.4,13.8,8.1,21,10.8
      c21.7,8.4,44.7,9.1,64.5,1.5c13.8-5.3,23.8-14,26.1-22.8c0.8-2.9,0.8-4.6,0.1-5.4c-0.9-1-3.3-0.9-6.8-0.5
      c-8.9,1.1-19.1,6-29.9,11.1c-17.8,8.5-36.3,17.3-52,11l-4.1-1.6l4.4-0.3c22.4-1.4,36-9.7,49.2-17.7c11.3-6.9,21.9-13.3,37.1-14.8
      C368.6,454.6,373.3,459.2,375,463.3z"/>
    <path class="st2" d="M358.4,468.5c0.7,0.8,0.7,2.6-0.1,5.4c-2.3,8.8-12.3,17.6-26.1,22.8c-19.8,7.6-42.7,6.9-64.5-1.5l1.9-5.1
      c15.8,6.3,34.2-2.5,52-11c10.8-5.2,21.1-10,29.9-11.1C355.2,467.6,357.6,467.5,358.4,468.5z"/>
  </g>
</svg>
