<?xml version="1.0" encoding="utf-8"?>
<!-- Generator: Adobe Illustrator 24.0.1, SVG Export Plug-In . SVG Version: 6.00 Build 0)  -->
<svg version="1.1" id="Layer_1" xmlns="http://www.w3.org/2000/svg" xmlns:xlink="http://www.w3.org/1999/xlink" x="0px" y="0px"
	 viewBox="0 0 141.7 200.4" style="enable-background:new 0 0 141.7 200.4;" xml:space="preserve">
<style type="text/css">
	.st0{fill:#FFFFFF;}
	.st1{fill:#541D1D;}
</style>
<g>
	<path class="st0" d="M13.6,141.8c1.8,6.7,7.2,9.2,13.2,10.8c3.7,1,7.6,1.3,11.4,1.9c0.4,0.1,0.7,0.1,1.1,0.2c-8.5,0-17,0-25.6,0
		C13.6,150.3,13.6,146.1,13.6,141.8z"/>
</g>
<g>
	<path class="st1" d="M120,101.2c0,0.3,0,0.7,0,1.1c0,5.7-0.1,11.3,0,17c0,2.5-0.9,4.3-2.8,5.8c-2.7,2.3-5.9,3.7-9.2,4.9
		c-6.4,2.3-13.1,3.6-19.8,4.4c-9.4,1.1-18.8,1.3-28.2,0.6c-9.6-0.7-19-2.2-27.9-5.7c-2.7-1.1-5.3-2.3-7.5-4.2
		c-1.9-1.5-2.9-3.4-2.8-5.9c0.1-5.6,0-11.2,0-16.8c0-0.4,0-0.9,0-1.3c0.2,0,0.3-0.1,0.3-0.1c4.7,3.9,10.2,5.9,16,7.5
		c8.7,2.4,17.7,3.4,26.7,3.8c7.3,0.3,14.5,0.1,21.8-0.7c9.1-1,18.1-2.5,26.4-6.4C115.4,104.1,117.6,102.6,120,101.2z M42.1,120.4
		c0-3.5-2.9-7-6.4-7.5c-3-0.4-5.4,1.3-5.9,4.3c-0.6,3.8,3,8.1,6.9,8.3C39.9,125.6,42.1,123.5,42.1,120.4z"/>
	<path class="st1" d="M49.6,80.8c0.2,3.3,1.9,5.4,4.6,7c-1,1.5-2,2.9-2.9,4.3c-0.8,1.1-0.7,2,0.2,2.6c0.8,0.6,1.7,0.3,2.5-0.8
		c0.9-1.4,1.9-2.7,2.9-4.2c1.9,1.3,3.7,2.5,5.6,3.8c-1,1.5-2,2.9-2.9,4.3c-0.7,1.1-0.7,2.1,0.2,2.6c0.9,0.6,1.7,0.3,2.5-0.8
		c1-1.4,1.9-2.8,2.9-4.2c1.9,1.3,3.7,2.5,5.6,3.8c-1,1.5-2,2.8-2.9,4.2c-0.8,1.1-0.7,2,0.1,2.6c0.8,0.6,1.8,0.3,2.5-0.8
		c1-1.4,1.9-2.8,2.9-4.3c2,1.7,4.3,2.6,6.9,2.1c2.6-0.5,4.4-2.1,5.8-4.5c1.2,0.8,2.4,1.6,3.6,2.4c0.4,0.2,0.7,0.5,1.1,0.7
		c0.9,0.5,1.7,0.3,2.2-0.4c0.5-0.7,0.3-1.6-0.5-2.2c-1.5-1-3-2.1-4.6-3.2c1.3-1.9,2.5-3.7,3.8-5.6c1.5,1,2.9,1.9,4.3,2.9
		c1.1,0.8,2,0.7,2.6-0.1c0.6-0.8,0.3-1.7-0.8-2.5c-1.4-1-2.8-1.9-4.3-2.9c1.3-1.9,2.5-3.7,3.8-5.6c1.4,1,2.8,1.9,4.1,2.8
		c1.6,1.1,2.7,0.7,3.1-1.3c4.9,1.6,9.7,3.2,13.5,7c0.1,0.1,0.1,0.2,0.2,0.2c2.1,2.5,2,4.9-0.2,7.2c-2.1,2.1-4.6,3.5-7.3,4.7
		c-6.4,2.8-13.1,4.2-19.9,5.2c-7.7,1.1-15.5,1.5-23.3,1.3c-10.7-0.3-21.3-1.4-31.5-4.6c-3.4-1.1-6.7-2.3-9.7-4.3
		c-1.1-0.7-2.1-1.5-3-2.5c-2.2-2.3-2.2-4.9,0-7.3c1.8-1.9,4-3.2,6.4-4.3C36.1,83.4,42.7,81.9,49.6,80.8z"/>
	<path class="st1" d="M62,66c1.3-1.9,2.5-3.7,3.8-5.6c-2.2-1.5-4.3-2.9-6.5-4.3c-0.3-0.2-0.6-0.4-0.8-0.6c-0.8-0.6-1-1.5-0.5-2.2
		c0.5-0.7,1.4-0.9,2.2-0.4c1.1,0.7,2.1,1.4,3.1,2.1c1.4,0.9,2.8,1.8,4.2,2.8c0.9-1.4,1.9-2.7,3.6-3c1.8-0.3,3.1,0.5,4.5,1.6
		c1.4-2,2.7-3.9,4.1-5.8c0.3-0.5,0.6-0.9,1-1.4c0.6-0.8,1.5-1,2.2-0.5c0.8,0.5,0.9,1.5,0.4,2.3C82,53,80.6,55,79.1,57.1
		c-0.2,0.3-0.4,0.6-0.6,1c1.9,1.3,3.7,2.5,5.6,3.8c1.4-2.1,2.9-4.1,4.3-6.1c0.2-0.3,0.4-0.6,0.6-0.9c0.7-0.9,1.6-1.2,2.4-0.6
		c0.8,0.5,0.9,1.5,0.3,2.4c-1.4,2-2.8,4.1-4.2,6.1c-0.2,0.3-0.4,0.6-0.6,1c1.9,1.3,3.7,2.5,5.6,3.8c1.5-2.1,2.9-4.2,4.3-6.2
		c0.2-0.3,0.4-0.7,0.7-1c0.6-0.8,1.5-1,2.2-0.5c0.8,0.5,1,1.4,0.4,2.3c-1.3,1.9-2.6,3.8-3.9,5.6c-0.3,0.5-0.7,1-1,1.5
		c0.4,0.3,0.7,0.5,1.1,0.8c2.3,1.7,2.8,4.1,1.2,6.4c-2.6,3.8-5.2,7.5-7.7,11.3c-2.2,3.3-4.5,6.6-6.7,9.8c-1.7,2.5-4.1,3-6.7,1.3
		c-6.9-4.7-13.7-9.3-20.6-14c-3.2-2.2-3.6-4.3-1.5-7.4c0.1-0.2,0.2-0.3,0.4-0.6c-0.8-0.5-1.6-1.1-2.3-1.6c-1.6-1-3.1-2.1-4.7-3.1
		c-1-0.7-1.3-1.5-0.8-2.3c0.5-0.9,1.5-1,2.5-0.3c2.1,1.4,4.1,2.7,6.2,4.1c0.3,0.2,0.6,0.4,1,0.6c1.3-1.9,2.5-3.7,3.8-5.6
		c-2.1-1.4-4.2-2.8-6.2-4.2c-0.3-0.2-0.6-0.4-0.8-0.6c-1-0.7-1.3-1.6-0.7-2.4c0.6-0.8,1.5-0.9,2.5-0.2c2,1.3,4,2.7,6,4
		C61.3,65.5,61.6,65.7,62,66z M71.3,76.9c-1.1,1.6-2.1,3-3.1,4.5c-0.6,0.9-0.4,1.8,0.4,2.3c0.7,0.5,1.6,0.3,2.2-0.5
		c2.2-3.1,4.4-6.2,6.4-9.4c1.7-2.7,0.8-6.2-1.7-7.9c-2.6-1.8-6.2-1.2-8,1.3c-2.2,3-4.3,6.2-6.4,9.3c-0.5,0.7-0.5,1.5,0.1,2.1
		c0.7,0.8,1.8,0.7,2.5-0.3c1-1.5,2-3,3.1-4.5C68.4,74.9,69.8,75.9,71.3,76.9z M86.1,78.1c0.5,0.3,0.8,0.6,1.2,0.8
		c0.9,0.5,1.7,0.3,2.3-0.4c0.5-0.7,0.4-1.6-0.4-2.2c-1.7-1.2-3.4-2.4-5.1-3.5c-0.8-0.5-1.6-0.4-2.2,0.4c-0.6,0.7-0.4,1.6,0.4,2.2
		c0.4,0.3,0.7,0.6,1.2,0.9c-2,2.9-4,5.8-6,8.7c-0.5-0.3-0.9-0.6-1.3-0.8c-0.8-0.4-1.6-0.3-2.1,0.5c-0.5,0.8-0.4,1.6,0.4,2.1
		c1.7,1.2,3.4,2.4,5.2,3.6c0.8,0.5,1.6,0.3,2.1-0.4c0.5-0.8,0.4-1.5-0.3-2.2c-0.4-0.3-0.8-0.6-1.3-0.9
		C82.2,83.9,84.1,81.1,86.1,78.1z"/>
	<path class="st1" d="M105,134.6c0,1,0.2,2.2-0.1,3.2c-0.3,1-0.8,2.1-1.6,2.6c-1.9,1.3-4,2.5-6.2,3.4c-5.4,2.1-11,3-16.7,3.5
		c-6.5,0.6-13,0.6-19.5,0c-6.3-0.6-12.5-1.7-18.4-4.2c-1.2-0.5-2.4-1.3-3.6-2c-1.6-1.1-2.6-2.6-2.3-4.7c0.1-0.6,0-1.2,0-1.8
		C59.5,140.1,82.2,140.1,105,134.6z"/>
	<path class="st0" d="M42.1,120.4c0,3.1-2.2,5.2-5.4,5.1c-4-0.2-7.6-4.5-6.9-8.3c0.5-3,2.9-4.7,5.9-4.3
		C39.2,113.4,42.1,116.8,42.1,120.4z M34.8,116c-1,0-1.7,0.6-1.9,1.6c-0.2,2.1,1.8,4.5,3.9,4.6c1.2,0.1,2-0.6,2.1-1.8
		C39.1,118.5,36.9,116,34.8,116z"/>
	<path class="st0" d="M71.3,76.9c-1.6-1.1-3-2-4.5-3.1c-1.1,1.5-2.1,3-3.1,4.5c-0.7,1-1.8,1.1-2.5,0.3c-0.6-0.7-0.6-1.4-0.1-2.1
		c2.1-3.1,4.2-6.2,6.4-9.3c1.9-2.6,5.4-3.1,8-1.3c2.6,1.7,3.4,5.2,1.7,7.9c-2,3.2-4.2,6.3-6.4,9.4c-0.6,0.8-1.5,1-2.2,0.5
		c-0.8-0.5-1-1.5-0.4-2.3C69.2,80,70.3,78.5,71.3,76.9z M68.7,71.2c1.5,1,3,2,4.5,3.1c0.5-0.8,1-1.4,1.4-2.1
		c0.7-1.2,0.3-2.7-0.9-3.5c-1.2-0.8-2.7-0.6-3.6,0.5C69.6,69.8,69.2,70.5,68.7,71.2z"/>
	<path class="st0" d="M86.1,78.1c-2,3-4,5.8-6,8.7c0.4,0.3,0.9,0.6,1.3,0.9c0.7,0.6,0.9,1.4,0.3,2.2c-0.5,0.8-1.3,0.9-2.1,0.4
		c-1.8-1.1-3.5-2.3-5.2-3.6c-0.8-0.5-0.9-1.4-0.4-2.1c0.5-0.8,1.3-0.9,2.1-0.5c0.4,0.2,0.8,0.5,1.3,0.8c2-2.9,3.9-5.8,6-8.7
		c-0.4-0.3-0.8-0.6-1.2-0.9c-0.8-0.6-1-1.5-0.4-2.2c0.6-0.8,1.4-0.9,2.2-0.4c1.7,1.1,3.4,2.3,5.1,3.5c0.8,0.6,1,1.5,0.4,2.2
		c-0.5,0.7-1.4,0.9-2.3,0.4C87,78.7,86.6,78.4,86.1,78.1z"/>
	<path class="st1" d="M34.8,116c2,0,4.2,2.5,4.1,4.5c-0.1,1.2-0.9,1.9-2.1,1.8c-2.1-0.2-4.1-2.6-3.9-4.6
		C33.1,116.6,33.8,116,34.8,116z"/>
	<path class="st1" d="M68.7,71.2c0.5-0.7,0.9-1.4,1.5-2.1c0.9-1.1,2.4-1.3,3.6-0.5c1.2,0.8,1.6,2.3,0.9,3.5
		c-0.4,0.7-0.9,1.3-1.4,2.1C71.6,73.2,70.2,72.2,68.7,71.2z"/>
</g>
</svg>
