<?xml version="1.0" encoding="utf-8"?>
<!-- Generator: Adobe Illustrator 24.0.1, SVG Export Plug-In . SVG Version: 6.00 Build 0)  -->
<svg version="1.1" id="Layer_1" xmlns="http://www.w3.org/2000/svg" xmlns:xlink="http://www.w3.org/1999/xlink" x="0px" y="0px"
	 viewBox="0 0 141.7 200.4" style="enable-background:new 0 0 141.7 200.4;" xml:space="preserve">
<style type="text/css">
	.st0{fill:#FFFFFF;}
	.st1{fill:#541D1D;}
</style>
<g>
	<path class="st0" d="M62,108.9c-5.8,0-11.5,0-17.2,0c-0.5,0-1,0-1.5,0c-1.3-0.1-2.1-0.9-2.1-2.1c0-4.5,0-8.9,0-13.4
		c0-1.4,0.9-2.1,2.5-2.1c4.5,0,8.9,0,13.4,0c1.6,0,3.2,0,4.9,0c0-0.4,0-0.8,0-1.2c0-5.6,0-11.3,0-16.9c0-2,0.7-2.7,2.7-2.7
		c4.1,0,8.2,0,12.3,0c1.9,0,2.7,0.7,2.7,2.7c0,5.6,0,11.2,0,16.8c0,0.4,0,0.8,0,1.4c0.4,0,0.8,0,1.2,0c5.6,0,11.3,0,16.9,0
		c2,0,2.7,0.7,2.7,2.7c0,4.1,0,8.1,0,12.2c0,2.1-0.7,2.8-2.8,2.8c-5.6,0-11.1,0-16.7,0c-0.4,0-0.8,0-1.3,0c0,0.5,0,0.9,0,1.2
		c0,5.6,0,11.2,0,16.8c0,2.1-0.7,2.8-2.8,2.8c-4.1,0-8.2,0-12.3,0c-1.9,0-2.6-0.8-2.6-2.6c0-5.6,0-11.3,0-16.9
		C62,109.9,62,109.5,62,108.9z"/>
</g>
<g>
	<path class="st1" d="M38.3,94.5c-1.2-2.2-2.2-4.4-3.3-6.5c-0.2-0.3-0.5-0.7-0.8-0.7c-4.1-0.6-6.2-2.7-6.9-6.8
		c-0.3-1.6-0.4-3.1,0.4-4.5c0.5-0.9,1.4-1.7,2.2-2.7c-0.9-2.4-1.4-5.1-1.3-7.9c0.1-3.6,1-6.9,2.8-10c2.2-3.8,5.8-5.8,10-7
		c2.8-0.8,5.6-1.1,8.4-0.9c3.2,0.1,6.5,0.1,9.7,0.6c2.1,0.3,4.3,1.1,6.2,2.1c4.8,2.4,7,6.7,8,11.7c0.8,4,0.5,7.9-1,11.8
		c1.9,1,2.8,2.6,2.9,4.6c0.1,2.5-0.5,4.8-2.1,6.7c-1.2,1.5-2.8,2.1-4.6,2.4c-0.3,0-0.8,0.3-0.9,0.6C67,90,66,92.1,64.9,94.4
		c4.8,2.9,8.9,6.8,12,11.7c13.1-10.5,32-6.6,40,7.5c7.5,13.2,2.3,30.2-11.4,36.9c-15.1,7.3-33.1-0.8-37.5-17
		c-1.9,0.3-3.8,0.6-5.8,0.7c-10.9,1-21.8,0.8-32.4-2.1c-2-0.6-3.9-1.4-5.9-2.3c-1.7-0.7-2.6-2.2-2.6-4c-0.1-13.1,5.1-23.6,16.2-30.9
		C37.8,94.8,38.1,94.6,38.3,94.5z M116.8,126.7c0-12.6-10.3-23-22.9-23c-12.8-0.1-23.1,10.1-23.2,22.9
		c-0.1,12.7,10.2,23.1,22.9,23.1C106.4,149.7,116.8,139.4,116.8,126.7z M74.3,108.6c-2.9-4.7-6.7-8.5-11.5-11.3
		c-0.3,2.1-0.6,4-0.7,5.9c-0.6,7.6-1.1,15.2-1.7,22.8c-0.1,1.4-0.7,2.2-1.9,2.1c-1.1,0-1.7-0.8-1.7-2.2c0.1-3.4,0.3-6.8,0.5-10.2
		c0.1-2.2,0.3-4.4,0.5-6.9c-4.2,2.5-8.2,2.4-12.3,0c0,0.4,0,0.6,0,0.8c0.3,5.5,0.7,11,1,16.4c0.1,1.2-0.7,2-1.7,2
		c-1.1,0-1.7-0.7-1.8-1.9c-0.6-8-1.2-16-1.8-24c-0.1-1.5-0.4-3.1-0.6-4.8c-0.5,0.3-0.8,0.5-1.1,0.7c-9.9,6.5-14.5,15.8-14.5,27.5
		c0,0.7,0.3,1.1,1,1.4c3.6,1.7,7.3,2.7,11.2,3.3c8.1,1.3,16.2,1.4,24.4,0.6c2-0.2,3.9-0.5,5.9-0.8C66.6,121.8,68.8,114.7,74.3,108.6
		z M36,74.8c0.1,1,0.2,2.2,0.3,3.3c0.5,3.9,1.2,7.8,3.2,11.3c3.3,5.9,8.4,8.1,14.9,6.5c1-0.3,2,0.2,2.3,1.1c0.3,1-0.1,2-1.2,2.3
		c-1.9,0.4-3.9,0.8-5.9,0.8c-1.7,0-3.4-0.6-5.5-1c0.4,1.5,0.6,3.1,1.3,4.4c1.5,2.8,4.7,4.1,7.8,3.4c3.1-0.7,5-3,5.4-6.3
		c0.1-0.9,0.3-1.7,0.3-2.6c0.1-2.2,0.9-3.8,2.3-5.5c2.9-3.4,4.2-7.7,5-12.1c0.3-1.7,0.4-3.5,0.7-5.2c-0.4-0.1-0.5-0.1-0.7-0.1
		c-6.1-0.1-11.5-2.1-16.3-5.8c-0.2-0.2-0.8-0.2-1.1,0c-1.3,0.7-2.5,1.6-3.9,2.1C42.2,72.7,39.2,73.7,36,74.8z M52.6,66.8
		C52.6,66.7,52.6,66.8,52.6,66.8c4.9,3.8,10.5,5.1,16.5,4.8c0.3,0,0.7-0.5,0.8-0.8c0.7-2.4,0.9-4.9,0.5-7.4c-1.2-6.9-4-10.1-10-11.6
		c-5.9-1.4-12-1.3-18,0c-3.2,0.7-6,2.2-7.8,5.1c-2.5,4.3-3.2,8.9-1.9,13.7c0.2,0.7,0.4,0.9,1.1,0.8c8.8-1.5,16.1-5.2,20.8-13
		c0.8-1.3,1.8-1.5,2.8-0.9c0.9,0.6,1,1.6,0.2,2.8C56,62.4,54.3,64.5,52.6,66.8z M33.6,83.9c-0.3-2.3-0.6-4.3-0.9-6.2
		c0-0.3-0.3-0.8-0.5-0.8c-0.4,0-0.9,0.2-1.3,0.4c-0.2,0.2-0.3,0.6-0.3,0.9c-0.1,1.6,0.2,3.2,1.2,4.5C32.2,83.1,32.8,83.4,33.6,83.9z
		 M70.6,76.6c-0.4,2.5-0.7,4.7-1.1,6.9c1.8-0.7,3.3-4.4,2.3-6C71.7,77.1,71.1,77,70.6,76.6z"/>
	<path class="st1" d="M105.6,72.5c1.9,0,3.7,0,5.5,0c1.6,0,2.2,0.6,2.2,2.2c0,2.8,0,5.7,0,8.5c0,1.5-0.6,2.1-2.2,2.1
		c-1.8,0-3.6,0-5.6,0c0,0.7,0,1.4,0,2.1c0,1.3,0,2.5,0,3.8c0,1.2-0.6,1.9-1.7,1.9c-3.1,0-6.3,0-9.4,0c-1.1,0-1.7-0.7-1.7-1.9
		c0-1.9,0-3.8-0.1-5.6c0,0,0-0.1-0.2-0.2c-1.7,0-3.5,0-5.3,0c-1.7,0-2.3-0.6-2.3-2.2c0-2.8,0-5.6,0-8.4c0-1.6,0.6-2.2,2.2-2.2
		c1.8,0,3.6,0,5.6,0c0-1.8,0-3.6,0-5.3c0-1.9,0.5-2.4,2.4-2.4c2.7,0,5.5,0,8.2,0c1.6,0,2.2,0.6,2.3,2.3
		C105.6,68.8,105.6,70.5,105.6,72.5z M102.1,89.5c0-1.9,0-3.6,0-5.3c0-1.8,0.6-2.4,2.4-2.4c1.8,0,3.5,0,5.3,0c0-2,0-3.8,0-5.8
		c-1.8,0-3.5,0-5.2,0c-1.9,0-2.4-0.5-2.4-2.4c0-1.8,0-3.5,0-5.3c-2,0-3.9,0-5.7,0c0,0.1-0.1,0.2-0.1,0.3c0,1.5,0,2.9,0,4.4
		c0,2.6-0.4,3-2.9,3c-1.6,0-3.2,0-4.8,0c0,2,0,3.8,0,5.6c0.1,0.1,0.2,0.1,0.3,0.1c1.5,0,3.1,0,4.6,0c2.3,0,2.8,0.5,2.8,2.8
		c0,1.6,0,3.3,0,4.9C98.3,89.5,100.1,89.5,102.1,89.5z"/>
	<path class="st0" d="M116.8,126.7c0,12.7-10.4,23-23.2,23c-12.7,0-23-10.4-22.9-23.1c0.1-12.8,10.4-23,23.2-22.9
		C106.6,103.7,116.9,114.1,116.8,126.7z M91.9,128.5c0.2,2,0.7,2.7,1.8,2.8c1.1,0,1.6-0.7,1.9-2.8c0.4,0,0.8,0,1.2,0
		c2.4,0,4.9,0,7.3,0c1.1,0,1.9-0.8,1.9-1.8c0-1-0.8-1.7-1.9-1.8c-0.6,0-1.1,0-1.7,0c-2.3,0-4.6,0-6.9,0c0-0.5,0-0.9,0-1.3
		c0-3.9,0-7.9,0-11.8c0-0.4,0-0.8-0.1-1.2c-0.2-0.9-0.8-1.4-1.7-1.4c-0.9,0-1.5,0.5-1.7,1.5c-0.1,0.4,0,0.8-0.1,1.2
		c0,3.9,0,7.9,0,11.8c0,0.4,0,0.8-0.1,1.1c-3,0.2-3.6,0.5-3.6,1.8C88.3,127.8,88.9,128.1,91.9,128.5z"/>
	<path class="st0" d="M74.3,108.6c-5.4,6.1-7.7,13.2-6.9,21.4c-2,0.3-4,0.6-5.9,0.8c-8.2,0.7-16.3,0.7-24.4-0.6
		c-3.9-0.6-7.7-1.6-11.2-3.3c-0.6-0.3-1-0.7-1-1.4c0-11.7,4.6-21,14.5-27.5c0.3-0.2,0.6-0.4,1.1-0.7c0.2,1.7,0.5,3.2,0.6,4.8
		c0.6,8,1.2,16,1.8,24c0.1,1.2,0.7,1.9,1.8,1.9c1.1,0,1.8-0.8,1.7-2c-0.3-5.5-0.6-11-1-16.4c0-0.2,0-0.4,0-0.8
		c4.1,2.5,8.2,2.6,12.3,0c-0.2,2.4-0.4,4.6-0.5,6.9c-0.2,3.4-0.3,6.8-0.5,10.2c0,1.4,0.6,2.1,1.7,2.2c1.1,0,1.8-0.7,1.9-2.1
		c0.5-7.6,1.1-15.2,1.7-22.8c0.1-1.9,0.5-3.8,0.7-5.9C67.6,100.1,71.4,103.8,74.3,108.6z"/>
	<path class="st0" d="M36,74.8c3.2-1.1,6.2-2.1,9.2-3.3c1.4-0.5,2.6-1.5,3.9-2.1c0.3-0.2,0.9-0.2,1.1,0c4.8,3.7,10.2,5.7,16.3,5.8
		c0.1,0,0.3,0,0.7,0.1c-0.2,1.8-0.3,3.5-0.7,5.2c-0.8,4.4-2.1,8.6-5,12.1c-1.4,1.7-2.3,3.3-2.3,5.5c0,0.9-0.2,1.7-0.3,2.6
		c-0.4,3.3-2.4,5.6-5.4,6.3c-3.1,0.7-6.3-0.6-7.8-3.4c-0.7-1.3-0.9-2.9-1.3-4.4c2,0.4,3.7,1,5.5,1c2,0,3.9-0.4,5.9-0.8
		c1.1-0.2,1.5-1.3,1.2-2.3c-0.3-0.9-1.2-1.3-2.3-1.1c-6.6,1.6-11.7-0.6-14.9-6.5c-1.9-3.5-2.7-7.4-3.2-11.3
		C36.2,77,36.1,75.8,36,74.8z"/>
	<path class="st0" d="M52.6,66.8c1.7-2.2,3.4-4.4,5-6.6c0.8-1.2,0.7-2.2-0.2-2.8c-0.9-0.6-2-0.4-2.8,0.9c-4.8,7.8-12.1,11.6-20.8,13
		c-0.7,0.1-1-0.1-1.1-0.8c-1.2-4.8-0.6-9.4,1.9-13.7c1.7-2.9,4.6-4.4,7.8-5.1c6-1.3,12-1.4,18,0c6,1.5,8.8,4.7,10,11.6
		c0.4,2.5,0.2,5-0.5,7.4c-0.1,0.3-0.5,0.8-0.8,0.8C63.1,71.9,57.5,70.6,52.6,66.8C52.6,66.8,52.6,66.7,52.6,66.8z"/>
	<path class="st0" d="M33.6,83.9c-0.7-0.5-1.4-0.8-1.7-1.3c-1-1.3-1.3-2.8-1.2-4.5c0-0.3,0.1-0.7,0.3-0.9c0.4-0.2,0.8-0.4,1.3-0.4
		c0.2,0,0.4,0.5,0.5,0.8C33,79.6,33.2,81.5,33.6,83.9z"/>
	<path class="st0" d="M70.6,76.6c0.5,0.3,1,0.5,1.2,0.8c1,1.6-0.5,5.3-2.3,6C69.9,81.3,70.2,79.1,70.6,76.6z"/>
	<path class="st0" d="M102.1,89.5c-2,0-3.8,0-5.8,0c0-1.6,0-3.3,0-4.9c0-2.3-0.5-2.8-2.8-2.8c-1.5,0-3.1,0-4.6,0
		c-0.1,0-0.1-0.1-0.3-0.1c0-1.8,0-3.7,0-5.6c1.6,0,3.2,0,4.8,0c2.5,0,2.9-0.4,2.9-3c0-1.5,0-2.9,0-4.4c0-0.1,0-0.1,0.1-0.3
		c1.8,0,3.7,0,5.7,0c0,1.7,0,3.5,0,5.3c0,1.9,0.6,2.4,2.4,2.4c1.7,0,3.5,0,5.2,0c0,1.9,0,3.8,0,5.8c-1.8,0-3.5,0-5.3,0
		c-1.8,0-2.4,0.6-2.4,2.4C102.1,85.9,102.1,87.6,102.1,89.5z"/>
	<path class="st1" d="M91.9,128.5c-3-0.3-3.6-0.7-3.6-1.9c0.1-1.2,0.7-1.5,3.6-1.8c0-0.4,0.1-0.8,0.1-1.1c0-3.9,0-7.9,0-11.8
		c0-0.4,0-0.8,0.1-1.2c0.2-0.9,0.7-1.4,1.7-1.5c0.9,0,1.5,0.5,1.7,1.4c0.1,0.4,0.1,0.8,0.1,1.2c0,3.9,0,7.9,0,11.8
		c0,0.4,0,0.8,0,1.3c2.4,0,4.7,0,6.9,0c0.6,0,1.1,0,1.7,0c1.1,0,1.9,0.8,1.9,1.8c0,1-0.8,1.7-1.9,1.8c-2.4,0-4.9,0-7.3,0
		c-0.4,0-0.8,0-1.2,0c-0.3,2.1-0.8,2.9-1.9,2.8C92.7,131.2,92.2,130.5,91.9,128.5z"/>
</g>
</svg>
