<?xml version="1.0" encoding="utf-8"?>
<!-- Generator: Adobe Illustrator 24.0.1, SVG Export Plug-In . SVG Version: 6.00 Build 0)  -->
<svg version="1.1" id="Layer_1" xmlns="http://www.w3.org/2000/svg" xmlns:xlink="http://www.w3.org/1999/xlink" x="0px" y="0px"
	 viewBox="0 0 141.7 200.4" style="enable-background:new 0 0 141.7 200.4;" xml:space="preserve">
<style type="text/css">
	.st0{fill:#541D1D;}
</style>
<g>
	<path class="st0" d="M73.1,43.5c1,0.2,2,0.4,3,0.7c10.7,2.7,17.7,12.1,17.1,23C92.5,80.9,79,90.9,65.7,87.5
		c-15.2-3.8-22-20.9-13.4-34c3.6-5.6,8.9-8.8,15.5-9.8c0.3-0.1,0.6-0.2,0.9-0.2C70.1,43.5,71.6,43.5,73.1,43.5z"/>
	<path class="st0" d="M70.8,156.7c-11.6,0-23.2,0-34.8,0c-4.3,0-7.4-2.3-8.5-6.2c-0.2-0.9-0.3-1.8-0.3-2.7c0-9.9-0.1-19.7,0-29.6
		c0.1-7.2,2.8-13.1,8.9-17.2c2.8-1.8,6-2.3,9.2-2.8c2.3-0.4,4.5-0.7,6.8-1c1.9-0.3,2.5,0,3.2,1.8c4.3,11.7,8.5,23.3,12.8,35
		c0.1,0.4,0.3,0.8,0.4,1.1c0.4,1,1.2,1.5,2.2,1.5c1.1,0,1.8-0.5,2.2-1.5c0.6-1.5,1.2-3.1,1.7-4.7c3.8-10.5,7.6-20.9,11.5-31.4
		c0.7-1.9,1.3-2.2,3.2-1.9c3.2,0.5,6.4,0.9,9.5,1.5c6.9,1.4,11.5,5.7,14.1,12.1c0.9,2.3,1.3,4.7,1.3,7.2c0,9.9,0,19.9,0,29.8
		c0,5.4-3.5,8.9-9,8.9C93.9,156.7,82.4,156.7,70.8,156.7z"/>
	<path class="st0" d="M70.8,95.5c1,0,1.9,0,2.9,0c1.1,0,2,0.4,2.6,1.4c0.6,1,0.4,2.1-0.2,3c-0.8,1.3-1.7,2.5-2.5,3.8
		c-0.2,0.4-0.4,1-0.3,1.4c0.4,3.7,0.9,7.4,1.3,11.1c0,0.4,0,0.8-0.2,1.2c-0.8,2.2-1.6,4.4-2.5,6.6c-0.2,0.4-0.7,0.7-1,1.1
		c-0.3-0.4-0.8-0.7-1-1.2c-0.9-2.1-1.7-4.3-2.5-6.5c-0.1-0.4-0.2-0.9-0.2-1.3c0.4-3.6,0.9-7.2,1.2-10.9c0.1-0.6-0.1-1.3-0.4-1.8
		c-0.7-1.1-1.4-2.2-2.2-3.3c-0.7-1-1-2.1-0.4-3.2c0.6-1.1,1.6-1.5,2.9-1.5C69.1,95.5,70,95.5,70.8,95.5z"/>
</g>
</svg>
