<?xml version="1.0" encoding="utf-8"?>
<!-- Generator: Adobe Illustrator 24.0.1, SVG Export Plug-In . SVG Version: 6.00 Build 0)  -->
<svg version="1.1" id="Layer_1" xmlns="http://www.w3.org/2000/svg" xmlns:xlink="http://www.w3.org/1999/xlink" x="0px" y="0px"
	 viewBox="0 0 141.7 200.4" style="enable-background:new 0 0 141.7 200.4;" xml:space="preserve">
<style type="text/css">
	.st0{fill:#541D1D;}
</style>
<g>
	<path class="st0" d="M81.8,126.8c6.1-7.6,3.4-16.4-1.9-20.7c-5.5-4.4-13.4-4.2-18.7,0.6c-5.1,4.6-6.9,13.1-1.2,20.1
		c-0.7,0.3-1.5,0.6-2.2,1c-2,1.4-4,2.9-6,4.3c-0.4,0.3-1,0.6-1.5,0.6c-4.4,0-8.7,0-13.1,0c-2.3,0-3.3-1.3-2.7-3.5
		c3.9-14.7,7.7-29.4,11.6-44.1c0.4-1.6,1.2-2.2,2.9-2.2c14.6,0,29.2,0,43.7,0c1.8,0,2.5,0.6,2.9,2.2c3.8,14.6,7.7,29.2,11.5,43.9
		c0.6,2.4-0.4,3.7-2.9,3.7c-4.3,0-8.6,0-12.8,0c-0.5,0-1.2-0.3-1.6-0.7c-2.1-2.1-4.5-3.7-7.2-4.9C82.4,127.1,82.1,127,81.8,126.8z"
		/>
	<path class="st0" d="M70.9,153.7c-6.2,0-12.5,0-18.7,0c-2.1,0-2.6-0.5-2.7-2.7c0-3.5-0.1-7.1,1.4-10.4c3.2-7,8.7-10.8,16.4-11.1
		c3.2-0.1,6.5-0.2,9.7,0.3c8.1,1,14.6,8.3,15.1,16.4c0.1,1.8,0.1,3.5,0.1,5.3c0,1.6-0.7,2.2-2.3,2.2
		C83.6,153.8,77.2,153.7,70.9,153.7z"/>
	<path class="st0" d="M123.4,105.7c0,2.8,0.2,5.6,0,8.4c-0.6,6.1-6.4,10.8-12.6,10.6c-0.8,0-0.8-0.5-0.9-1
		c-1.6-5.9-3.1-11.8-4.7-17.7c-0.9-3.3-1.8-6.7-2.6-10c-0.1-0.6-0.1-1.4,0.2-2c2.2-4.5,7.3-6.9,12.2-5.8c4.9,1.1,8.4,5.4,8.5,10.6
		c0.1,2.3,0,4.6,0,6.8C123.5,105.7,123.5,105.7,123.4,105.7z"/>
	<path class="st0" d="M18.3,105.7c0-2.8-0.2-5.6,0-8.4c0.5-4.8,4.5-8.6,9.4-9.3c4.6-0.6,9.5,2.1,11.3,6.4c0.2,0.4,0.2,0.9,0.1,1.3
		c-2.4,9.4-4.9,18.8-7.4,28.2c-0.2,0.7-0.6,0.9-1.2,0.9c-7.1-0.1-12.3-5.4-12.4-12.4c0-2.2,0-4.3,0-6.5
		C18.2,105.7,18.3,105.7,18.3,105.7z"/>
	<path class="st0" d="M53.3,79c0.2-3.6,1.6-6.6,4-9.2c3-3.2,6.7-4.8,11-4.8c2.8,0,5.6-0.1,8.4,0.4c6,1.1,10.8,6.4,11.6,12.4
		c0.1,0.4,0.1,0.7,0.1,1.2C76.7,79,65.1,79,53.3,79z"/>
	<path class="st0" d="M70.9,107c5.7,0,10.3,4.7,10.3,10.4c0,5.7-4.8,10.4-10.5,10.4c-5.7,0-10.3-4.7-10.3-10.4
		C60.5,111.6,65.2,106.9,70.9,107z"/>
	<path class="st0" d="M29.2,86.7c-4.9,0-8.8-3.9-8.9-8.7c0-4.9,3.9-8.8,8.7-8.8c4.9,0,8.9,3.9,8.9,8.8C38,82.7,34.1,86.7,29.2,86.7z
		"/>
	<path class="st0" d="M112.6,86.7c-4.9,0-8.8-3.9-8.8-8.7c0-4.9,4-8.8,8.9-8.8c4.9,0,8.8,3.9,8.8,8.8
		C121.4,82.8,117.5,86.7,112.6,86.7z"/>
	<path class="st0" d="M62.3,55c0-4.6,3.8-8.5,8.5-8.6c4.7-0.1,8.6,3.8,8.7,8.5c0,4.7-3.9,8.6-8.6,8.6C66.2,63.5,62.4,59.7,62.3,55z"
		/>
</g>
</svg>
