<?xml version="1.0" encoding="utf-8"?>
<!-- Generator: Adobe Illustrator 24.0.1, SVG Export Plug-In . SVG Version: 6.00 Build 0)  -->
<svg version="1.1" id="Layer_1" xmlns="http://www.w3.org/2000/svg" xmlns:xlink="http://www.w3.org/1999/xlink" x="0px" y="0px"
	 viewBox="0 0 141.7 200.4" style="enable-background:new 0 0 141.7 200.4;" xml:space="preserve">
<style type="text/css">
	.st0{fill:#541D1D;}
	.st1{fill:#FFFFFF;}
</style>
<g>
	<path class="st0" d="M127.6,80.5c-0.4,2.1-0.6,4.2-1.1,6.3c-3.9,13.9-13,22.8-26.9,26.6c-0.6,0.2-0.9,0-1.3-0.5
		c-2.7-3.5-6.2-5.2-10.6-5.2c-3.7,0-7.5,0-11.2,0c-1.1,0-1.9-0.3-2.7-1c-3-2.5-6.4-4.4-10.1-5.6c-0.5-0.2-1-0.6-1.4-1
		c-14-17.7-8.2-44.3,11.9-54.6c21.7-11.1,47.6,1.2,52.7,25c0.3,1.5,0.5,3.1,0.7,4.7C127.6,77,127.6,78.8,127.6,80.5z M94.3,93.9
		c0.5-0.2,0.9-0.4,1.3-0.6c3.8-2,5.9-6.2,5.3-10.2c-0.9-5-4.6-8.3-9.8-8.5c-1.5-0.1-2.6-0.7-3.2-2.1c-0.5-1.3-0.2-2.5,0.7-3.5
		c1.1-1.1,2.4-1.3,3.8-0.7c0.8,0.4,1.5,0.9,2.2,1.4c1.6,1.2,3.6,1.2,4.8-0.2c1.3-1.4,1.2-3.5-0.4-4.8c-1.2-1-2.6-1.7-3.9-2.4
		c-0.5-0.3-0.8-0.5-0.8-1.1c0.1-1,0-2.1,0-3.1c0-2-1.5-3.4-3.3-3.4c-1.9,0-3.3,1.4-3.3,3.4c0,1.3,0,2.5,0,3.8
		c-0.2,0.1-0.3,0.1-0.4,0.2c-4.5,2-6.9,6.3-6,11.1c0.8,4.6,4.8,7.8,9.6,8c1.6,0.1,2.8,0.8,3.2,2.2c0.5,1.3,0.2,2.5-0.8,3.5
		c-1,1-2.5,1.3-3.9,0.6c-1.1-0.6-2-1.5-2.9-2.3c-1.3-1.2-3.2-1.3-4.5-0.2c-1.4,1.2-1.6,3.2-0.4,4.5c1,1.1,2.2,2.1,3.3,3
		c0.8,0.7,2.2,0.9,2.6,1.7c0.5,0.9,0.1,2.2,0.1,3.4c0,2,1.4,3.5,3.4,3.5c1.9,0,3.3-1.4,3.3-3.4C94.4,96.5,94.3,95.2,94.3,93.9z"/>
	<path class="st0" d="M57.4,154.6c-2-0.2-4-0.3-6-0.7c-3.4-0.6-6.9-1.2-10.4-1.9c0-0.6,0-0.9,0-1.3c0-12.9,0-25.7,0-38.6
		c0-0.9,0.3-1.3,1-1.7c8.5-5.3,19.4-4.6,27.2,1.8c2.2,1.8,4.5,2.7,7.3,2.6c3.7-0.1,7.3,0,11,0c4,0,6.9,2.8,7,6.6
		c0,3.8-3,6.6-6.9,6.6c-6.6,0-13.3,0-19.9,0c-1.9,0-3.3,1.1-3.5,2.8c-0.3,2.1,1.2,3.8,3.4,3.8c4.2,0,8.3,0,12.5,0c4.3,0,8.6,0,13,0
		c3.3,0,6-1.2,8.2-3.7c4.8-5.6,9.7-11.1,14.5-16.7c1.8-2.1,4-3.2,6.8-2.6c2.8,0.6,4.5,2.4,5.1,5.2c0,0.1,0.1,0.1,0.1,0.2
		c0,0.8,0,1.6,0,2.4c-0.7,1.5-1.1,3.3-2,4.6c-5.3,7.2-10.7,14.4-16.2,21.6c-3.4,4.5-8,7.2-13.5,8.5c-0.9,0.2-1.8,0.4-2.7,0.5
		C81.3,154.6,69.3,154.6,57.4,154.6z"/>
	<path class="st0" d="M14.2,110.6c0.9-1.9,2.4-2.6,4.5-2.5c2.5,0.2,5-0.1,7.5,0.3c4.6,0.6,8.1,4.7,8.2,9.4c0.1,9.1,0.1,18.1,0,27.2
		c0,4.5-3.3,8.4-7.8,9.4c-0.3,0.1-0.6,0.2-0.8,0.2c-3,0-6.1,0-9.1,0c-1.1-0.5-1.9-1.3-2.4-2.4C14.2,138.3,14.2,124.5,14.2,110.6z"/>
	<path class="st1" d="M93.2,154.6c0.9-0.2,1.8-0.3,2.7-0.5c5.5-1.2,10-4,13.5-8.5c5.5-7.1,10.9-14.3,16.2-21.6c1-1.3,1.4-3,2-4.6
		c0,11.7,0,23.4,0,35.1C116.1,154.6,104.7,154.6,93.2,154.6z"/>
	<path class="st1" d="M14.2,152.2c0.5,1.1,1.3,1.9,2.4,2.4c-0.8,0-1.6,0-2.4,0C14.2,153.8,14.2,153,14.2,152.2z"/>
</g>
</svg>
