<?xml version="1.0" encoding="utf-8"?>
<!-- Generator: Adobe Illustrator 24.0.1, SVG Export Plug-In . SVG Version: 6.00 Build 0)  -->
<svg version="1.1" id="Layer_1" xmlns="http://www.w3.org/2000/svg" xmlns:xlink="http://www.w3.org/1999/xlink" x="0px" y="0px"
	 viewBox="0 0 141.7 200.4" style="enable-background:new 0 0 141.7 200.4;" xml:space="preserve">
<style type="text/css">
	.st0{fill:#541D1D;}
</style>
<g>
	<path class="st0" d="M50.3,43.5c0.7,0.2,1.3,0.4,2,0.6c5,1.8,8,6.8,7.1,12.1c-0.9,5-5.4,8.8-10.6,8.8c-5.2,0-9.7-3.8-10.6-9
		c-0.9-5.4,2.5-10.6,7.8-12c0.4-0.1,0.8-0.3,1.2-0.4C48.2,43.5,49.2,43.5,50.3,43.5z M46.4,58.2c1.5,1.7,3.1,2.9,5.5,2.5
		c1.8-0.3,3.8-2.2,4.5-4.2C53.2,58.3,49.8,58.3,46.4,58.2z"/>
	<path class="st0" d="M49.8,107.7c-0.8,0-1.4,0-2.2,0c0,0.5,0,0.9,0,1.3c0,13.7,0,27.5,0,41.2c0,3.3-1.9,5.6-4.9,6.1
		c-3.3,0.6-6.6-1.9-6.8-5.3c0-0.5,0-1,0-1.5c0-22.9,0-45.7,0-68.6c0-0.4,0-0.8,0-1.2c-0.1,0-0.1,0-0.2-0.1c-0.2,0.3-0.3,0.7-0.5,1
		c-1.6,4.2-2.3,8.5-2.4,13c-0.2,5.2,0,10.4,0,15.6c0,2.5-1.7,4.2-4.2,4c-1.7-0.1-3.3-1.5-3.4-3.3c-0.5-7.1-0.5-14.2,0.3-21.3
		c0.5-4.1,1.3-8.1,3-11.8c0.5-1.1,1.1-2.3,1.8-3.3c2.9-4.4,6.9-6.5,12.3-5.7c1.5,6.8,2.1,13.9,5.9,20c0.1,0,0.3,0,0.4,0.1
		c0.6-1.1,1.3-2.1,1.7-3.2c1.8-4.3,2.7-8.9,3.6-13.5c0.1-0.7,0.4-1.4,0.4-2.1c0-1.2,0.6-1.5,1.7-1.3c1.7,0.3,3.4,0.3,5,0.8
		c9.3,2.7,18.6,5.5,27.8,8.3c0.2,0.1,0.4,0.1,0.8,0c-0.5-0.3-0.9-0.7-1.4-1c-0.9-0.7-1.8-1.5-2.7-2.3c-0.2-0.2-0.5-0.8-0.3-1.1
		c0.2-0.3,0.7-0.6,1.1-0.5c1,0.1,2,0.3,2.9,0.5c0.9,0.2,1.8,0.5,2.8,0.8c0.5,0.1,1.1,0.1,1.6,0.1c0-0.3,0-0.5,0-0.6
		c-0.5-1.5-0.2-2.1,1.4-1.8c1.6,0.3,3.3,0.8,4.8,1.5c1.5,0.7,1.6,1.5,0.4,2.8c-0.7,0.8-1.6,1.4-2.4,2.1c-0.6,0.5-1.2,1.1-1.9,1.7
		c1.7,1.1,2.4,2.5,2.2,4.4c0,0.2,0.3,0.6,0.6,0.8c1.4,0.9,2.9,1.7,4.2,2.7c5.2,4,6.7,8.5,4.9,14.8c-0.3,1.1-0.8,2.2-1.1,3.3
		c-0.1,0.4-0.2,0.9-0.3,1.4c-8.5,0-17.2,0-25.7,0c0-0.7,0-1.3-0.1-1.9c-0.2-2.4-0.6-4.7-0.8-7.1c-0.3-3.5,1.3-6.4,3.8-8.7
		c1.4-1.4,3-2.6,4.6-4.1c-8.9-2.7-17.7-5.3-26.8-8c0,0.6,0,1.1,0,1.6c0,23.9,0,47.8,0,71.7c0,1.6-0.2,3.2-1.3,4.5
		c-1.5,1.9-4.1,2.7-6.4,1.9c-2.3-0.7-4-2.9-4.1-5.3c0-0.4,0-0.8,0-1.2c0-13.5,0-27,0-40.6C49.8,108.6,49.8,108.2,49.8,107.7z
		 M94.8,102.5c0.8-0.3,1.6-0.4,2.2-0.8c1.5-0.8,2.1-2.6,1.1-3.9c-0.5-0.7-1.2-1.2-2-1.7c-0.9-0.6-2-0.9-2.9-1.6
		c-0.4-0.3-0.9-1.1-0.8-1.6c0.1-0.4,0.9-1,1.5-1c0.9,0,1.7,0.3,2.6,0.5c0,0.1,0,0.2,0,0.3c0.5-0.4,1.1-0.7,1.9-1.3
		c-1.3-0.5-2.4-0.9-3.6-1.4c0-0.2-0.1-0.5-0.1-0.8c-0.4,0-0.8,0-1.2,0c0.1,0.1,0.1,0.2,0.2,0.4c-0.4,0.3-0.7,0.7-1.2,0.8
		c-1.3,0.5-2.4,1.1-2.6,2.5c-0.2,1.5,0.6,2.4,1.7,3.1c0.9,0.5,1.8,1,2.7,1.5c0.4,0.2,0.9,0.4,1.1,0.8c0.3,0.5,0.6,1.1,0.4,1.6
		c-0.1,0.4-0.8,0.9-1.3,0.9c-0.7,0.1-1.5,0-2-0.4c-1.2-1-1.9-0.5-3,0.6c1.3,0.6,2.5,1.1,3.8,1.7c0,0.2,0.1,0.6,0.1,1
		c0.4,0,0.8,0,1.2,0C94.8,103.2,94.8,102.9,94.8,102.5z"/>
	<path class="st0" d="M79,149.9c0,2.3,0,4.5,0,6.7c-1.4,0-2.7,0-4.1,0c0-2.3,0-4.5,0-6.8c-0.7,0-1.3-0.1-2-0.1c0-0.5,0-0.9,0-1.3
		c0-11.9,0-23.7,0-35.6c0-0.6,0-1.1-0.7-1.5c-0.8-0.4-1.1-1.2-0.8-2c0.3-0.6,0.9-1,1.5-1.5c0.2-0.2,0.6-0.1,1-0.1
		c13.5,0,26.9,0,40.4,0c0.3,0,0.6,0,0.9,0c0.9,0.2,1.5,0.6,1.7,1.6c0.2,0.8-0.1,1.6-0.9,2c-0.7,0.3-0.7,0.8-0.7,1.4
		c0,11.9,0,23.7,0,35.6c0,0.4,0,0.9,0,1.3c-0.7,0-1.3,0.1-2,0.1c0,2.2,0,4.5,0,6.8c-1.4,0-2.6,0-4.1,0c0-2.2,0-4.4,0-6.7
		C99.1,149.9,89.1,149.9,79,149.9z M94.1,137.5c1.4-1.1,2.8-2,4.1-3.1c1-0.8,2.1-1.7,2.9-2.7c1-1.2,2-2.5,2.6-3.9
		c1.6-3.7-1-7.5-5.1-7.6c-2,0-3.5,0.9-4.6,2.5c-0.2-0.2-0.2-0.3-0.3-0.4c-1.5-1.9-3.7-2.6-6-1.7c-2.5,0.9-3.9,2.9-3.8,5.3
		c0.1,1.8,1,3.2,2,4.6C88.1,133.3,91,135.4,94.1,137.5z"/>
	<path class="st0" d="M45,67.9c1.2,0.7,2.3,1.3,3.7,2.1c-1.4,0.8-2.5,1.4-3.7,2.1C45,70.6,45,69.4,45,67.9z"/>
	<path class="st0" d="M52.5,67.9c0,1.5,0,2.7,0,4.2c-1.2-0.7-2.2-1.3-3.6-2C50.2,69.2,51.3,68.6,52.5,67.9z"/>
	<path class="st0" d="M50.1,80.9c-0.6,0.4-1,0.9-1.3,0.9c-0.3,0-0.6-0.5-1-0.8c0.3-0.3,0.6-0.8,0.9-0.9C49,80,49.5,80.5,50.1,80.9z"
		/>
	<path class="st0" d="M47.4,77.1c0.6-0.4,1-0.9,1.3-0.9c0.3,0,0.6,0.5,0.9,0.8c-0.3,0.3-0.6,0.8-1,0.9C48.4,78,48,77.6,47.4,77.1z"
		/>
	<path class="st0" d="M48.8,72.5c0.4,0.6,0.8,1,0.8,1.3c0,0.3-0.5,0.6-0.8,0.9c-0.3-0.3-0.8-0.6-0.9-1
		C47.8,73.4,48.3,73.1,48.8,72.5z"/>
</g>
</svg>
