<?xml version="1.0" encoding="utf-8"?>
<!-- Generator: Adobe Illustrator 24.0.1, SVG Export Plug-In . SVG Version: 6.00 Build 0)  -->
<svg version="1.1" id="Layer_1" xmlns="http://www.w3.org/2000/svg" xmlns:xlink="http://www.w3.org/1999/xlink" x="0px" y="0px"
	 viewBox="0 0 141.7 200.4" style="enable-background:new 0 0 141.7 200.4;" xml:space="preserve">
<style type="text/css">
	.st0{fill:#541D1D;}
</style>
<g>
	<path class="st0" d="M41,134.9c0-6,0-11.7,0-17.4c0.1-0.1,0.2-0.1,0.3-0.1c2,0.4,3.4-0.7,4.6-2.1c3-3.5,6.2-6.9,9.3-10.4
		c0.8-0.8,1.5-1.8,2.5-2.3c0.9-0.5,2-0.9,3-0.9c1.5-0.1,2.3,1.1,1.8,2.5c-0.4,1.2-1,2.3-1.6,3.4c-1.2,2.1-2.5,4.1-3,6.5
		c-0.6,3.1,0.6,5.7,3.6,6.9c4.4,1.8,9,1.7,13.3-0.3c2.9-1.3,5.6-3,8.4-4.5c0.5-0.3,0.9-0.7,1.3-1.2c2-2.7,3.9-5.5,5.9-8.3
		c0.4-0.6,0.9-1.1,1.4-1.5c0.8-0.6,1.8-0.8,2.8-0.3c1,0.5,1.5,1.4,1.5,2.5c0,0.7-0.2,1.5-0.5,2.1c-2.3,4.4-4.6,8.7-7.9,12.5
		c-4.1,4.8-9.1,8.6-14.7,11.5c-2.1,1.1-4.7,1.5-7.1,1.5c-6.6,0.2-13.1,0-19.7,0C44.6,134.9,42.9,134.9,41,134.9z"/>
	<path class="st0" d="M56.2,100.2c0.5-4.6,2.6-8.2,6.1-10.9c5.2-4.1,12.6-4.4,18.2-0.7c5.7,3.7,8.4,10.6,6.8,17
		c-0.2,0.7-0.6,1.4-0.9,2.1c-0.2,0.4-0.5,0.6-0.7,1c-2.1,3.9-5.3,6.5-9.4,8.2c-2.4,1-4.8,0.9-7.3,0.5c-2.7-0.5-5.2-1.7-7.3-3.5
		c-0.6-0.5-0.8-1-0.4-1.7c0.8-1.4,1.8-2.8,2.5-4.3c0.6-1.3,1.3-2.6,1.4-4c0.4-3.4-2.8-5.7-6.5-4.7C58,99.4,57.2,99.8,56.2,100.2z
		 M73.4,110.6c0.3-0.1,0.6-0.2,0.9-0.4c2-1,3-3,2.8-5.5c-0.2-2.1-1.3-3.2-3.6-3.9c-0.8-0.2-1.6-0.4-2.4-0.7
		c-1.2-0.4-1.7-1.3-1.5-2.6c0.2-1.1,1.2-2,2.3-2c1.2-0.1,2.3,0.7,2.6,1.8c0.1,0.2,0,0.5,0.1,0.8c0.2,0.8,0.6,1.3,1.5,1.1
		c0.8-0.1,1.2-0.6,1.1-1.4c0-0.4-0.1-0.9-0.2-1.3c-0.5-1.9-1.8-3-3.5-3.6c-0.2-2.1-0.4-2.6-1.3-2.7c-0.9-0.1-1.2,0.4-1.5,2.7
		c-0.3,0.2-0.7,0.3-1,0.5c-2,1-2.9,3-2.7,5.5c0.2,2,1.3,3.2,3.5,3.8c0.8,0.2,1.6,0.4,2.4,0.7c1.3,0.5,1.8,1.3,1.5,2.7
		c-0.2,1.1-1.2,2-2.3,2c-1.2,0-2.3-0.8-2.5-1.9c-0.1-0.3,0-0.8-0.2-1c-0.4-0.4-1-0.9-1.4-0.8c-0.4,0-0.9,0.7-1,1.2
		c-0.1,0.4,0,1,0.2,1.5c0.5,1.8,1.8,2.9,3.5,3.6c0.1,2.1,0.4,2.6,1.4,2.7C72.9,113.3,73.2,112.7,73.4,110.6z"/>
	<path class="st0" d="M38.3,125.9c0,3.4,0,6.8,0,10.2c0,1.6-0.5,2.1-2.1,2.1c-1.8,0-3.7,0-5.5,0c-1.4,0-2-0.6-2-1.9
		c0-6.9,0-13.8,0-20.8c0-1.3,0.6-1.9,1.9-1.9c2,0,3.9,0,5.9,0c1.3,0,1.9,0.6,1.9,1.9C38.3,118.9,38.3,122.4,38.3,125.9z"/>
	<path class="st0" d="M29.3,90.1c3.1-2.2,6.1-4.2,9.1-6.3c0.1,0.3,0.1,0.4,0.1,0.6c0.1,2.5,0.1,2.5,2.6,2.5c2.6,0,5.2,0,7.8,0
		c0,1.8,0,3.6,0,5.5c-2.8,0-5.7,0-8.5,0c-0.9,0-1.7,0.3-1.8,1.4c0,0.3,0,0.5,0,0.8c0,0.3,0,0.6,0,1.2C35.5,93.8,32.5,92,29.3,90.1z"
		/>
	<path class="st0" d="M103.7,95.7c0-0.5,0-0.9,0-1.2c0-1.8-0.3-2.2-2.2-2.2c-2.3,0-4.6,0-6.9,0c-0.4,0-0.8,0-1.3,0
		c0-1.8,0-3.6,0-5.5c1,0,2.1,0,3.1,0c1.8,0,3.6,0,5.4,0c1.6,0,2-0.4,2-2c0-0.3,0-0.6,0-1.1c3.1,2.2,6.1,4.2,9.2,6.4
		C109.9,92,106.9,93.8,103.7,95.7z"/>
	<path class="st0" d="M77.6,77.5c1.4-2.4,2.7-4.7,4.1-7.1c1.1-1.9,1-2.1-0.8-3.2c-0.2-0.1-0.4-0.2-0.7-0.5c3.3-1.6,6.6-3.1,10.1-4.7
		c0,3.7,0,7.2,0,10.7c-0.4-0.2-0.7-0.4-1.1-0.6c-1.2-0.7-1.7-0.5-2.4,0.6c-1.3,2.2-2.6,4.4-3.9,6.6c-0.1,0.3-0.3,0.5-0.5,0.8
		C80.7,79.3,79.2,78.4,77.6,77.5z"/>
	<path class="st0" d="M64.8,77.5c-0.2,0.2-0.4,0.3-0.5,0.4c-1.4,0.8-2.7,1.6-4.2,2.4c-1.4-2.3-2.7-4.5-4-6.8c-1.2-2-1.4-2.1-3.4-0.9
		c-0.2,0.1-0.3,0.2-0.6,0.3c0-3.6,0-7.1,0-10.8c3.5,1.6,6.7,3.1,10.1,4.7c-0.4,0.3-0.7,0.4-0.9,0.6c-1.5,0.9-1.6,1.3-0.7,2.8
		C62,72.6,63.4,75,64.8,77.5z"/>
</g>
</svg>
