<?xml version="1.0" encoding="utf-8"?>
<!-- Generator: Adobe Illustrator 24.0.1, SVG Export Plug-In . SVG Version: 6.00 Build 0)  -->
<svg version="1.1" id="Layer_1" xmlns="http://www.w3.org/2000/svg" xmlns:xlink="http://www.w3.org/1999/xlink" x="0px" y="0px"
	 viewBox="0 0 141.7 200.4" style="enable-background:new 0 0 141.7 200.4;" xml:space="preserve">
<style type="text/css">
	.st0{fill:#541D1D;}
</style>
<g>
	<path class="st0" d="M14.2,48.5c0.2-0.6,0.4-1.3,0.6-1.9c1.5-3.3,4-5.1,7.6-5.2c4.9-0.1,9.7-0.1,14.6,0c4.5,0,8.1,3.6,8.2,8.1
		c0.1,4.9,0.1,9.8,0,14.7c-0.1,4.5-3.5,8-8.1,8.1c-4.8,0.1-9.7,0.1-14.5,0c-4.2,0-7.1-2.4-8.2-6.5c0-0.1-0.1-0.2-0.2-0.4
		C14.2,59.9,14.2,54.2,14.2,48.5z M42.1,56.9c0-2.4,0-4.7,0-7.1c0-3.2-2.2-5.3-5.4-5.4c-4.7,0-9.4,0-14.1,0c-3.3,0-5.4,2.2-5.4,5.5
		c0,4.6,0,9.2,0,13.8c0,3.4,2.1,5.5,5.5,5.5c4.6,0,9.2,0,13.8,0c3.4,0,5.5-2.2,5.5-5.6C42.1,61.5,42.1,59.2,42.1,56.9z"/>
	<path class="st0" d="M103.4,154.6c-0.2-0.1-0.4-0.2-0.6-0.2c-3.8-1-6.3-4.1-6.3-8.1c0-4.8-0.1-9.6,0-14.5c0.1-4.6,3.5-8.1,8.1-8.2
		c4.8-0.1,9.7-0.1,14.5,0c4.1,0,7.1,2.5,8.2,6.4c0,0.2,0.1,0.3,0.2,0.5c0,5.7,0,11.3,0,17c-0.7,1.4-1.3,3-2.2,4.2
		c-1.2,1.7-3,2.3-4.9,2.8C114.8,154.6,109.1,154.6,103.4,154.6z M99.6,139.1c0,2.3,0,4.6,0,7c0,3.2,2.2,5.4,5.4,5.4
		c4.7,0,9.4,0,14.1,0c3.2,0,5.4-2.2,5.4-5.4c0-4.6,0-9.3,0-13.9c0-3.3-2.1-5.4-5.4-5.5c-4.7,0-9.4,0-14.2,0c-3.2,0-5.3,2.2-5.3,5.4
		C99.6,134.4,99.6,136.8,99.6,139.1z"/>
	<path class="st0" d="M14.2,130.5c0.1-0.2,0.2-0.4,0.2-0.6c1-3.8,4.1-6.2,8-6.3c4.9-0.1,9.8-0.1,14.7,0c4.6,0.1,8.1,3.6,8.1,8.2
		c0.1,4.7,0,9.5,0,14.2c0,4.2-2.4,7.2-6.5,8.3c-0.1,0-0.2,0.1-0.4,0.2c-5.7,0-11.4,0-17.1,0c-1.9-0.5-3.8-1.2-5-2.9
		c-0.9-1.3-1.4-2.8-2.1-4.2C14.2,141.9,14.2,136.2,14.2,130.5z M17.3,139.1c0,2.4,0,4.7,0,7.1c0,3.1,2.2,5.4,5.4,5.4
		c4.7,0,9.4,0,14.2,0c3.1,0,5.3-2.1,5.4-5.3c0.1-4.8,0-9.6,0-14.5c0-2.9-2.2-5.1-5.2-5.1c-4.8-0.1-9.7-0.1-14.5,0
		c-3,0-5.2,2.3-5.2,5.3C17.2,134.4,17.3,136.7,17.3,139.1z"/>
	<path class="st0" d="M127.6,65.5c-0.1,0.3-0.3,0.7-0.4,1c-1.1,3.4-4,5.8-7.6,5.9c-5,0.1-10,0.1-15.1,0c-4.4-0.1-7.9-3.6-8-8
		c-0.1-5-0.1-9.9,0-14.9c0.1-4.5,3.7-8,8.2-8c4.8,0,9.6,0,14.4,0c4,0,7.2,2.6,8.2,6.4c0.1,0.2,0.1,0.4,0.2,0.6
		C127.6,54.2,127.6,59.9,127.6,65.5z M99.6,56.9c0,2.3,0,4.6,0,6.8c0,0.1,0,0.1,0,0.2c0.1,3.2,2.1,5.3,5.4,5.4c4.7,0,9.4,0,14.2,0
		c3.2,0,5.3-2.2,5.4-5.4c0-4.7,0-9.4,0-14c0-3.2-2.2-5.4-5.4-5.4c-4.7,0-9.4,0-14.1,0c-3.2,0-5.4,2.2-5.4,5.4
		C99.6,52.3,99.6,54.6,99.6,56.9z"/>
	<path class="st0" d="M89.1,99.1c0,2.4,0,4.4,0,6.5c0,5,0,10,0,15c0,1.4-0.5,1.9-1.9,1.9c-10.8,0-21.7,0-32.5,0c-1.5,0-2-0.5-2-2
		c0-6.7,0-13.3,0-20c0-0.4,0-0.8,0-1.4c-0.7,0.4-1.1,0.8-1.6,1.1c-2.6,1.7-6,1.2-7.6-1.3c-1.7-2.5-1.1-5.8,1.5-7.6
		c8.2-5.8,16.5-11.5,24.7-17.3c0.9-0.6,1.6-0.6,2.5,0c8.2,5.8,16.4,11.5,24.6,17.2c2.7,1.9,3.3,5.1,1.5,7.7c-1.7,2.5-5.1,3-7.7,1.2
		C90.1,99.8,89.7,99.5,89.1,99.1z M86,119.4c0-0.2,0.1-0.3,0.1-0.5c0-7.1,0-14.2,0-21.3c0-0.4-0.4-0.9-0.8-1.2
		c-4.5-3.2-9.1-6.3-13.6-9.5c-0.6-0.4-1-0.5-1.6,0c-4.5,3.2-9,6.3-13.5,9.4c-0.6,0.4-0.9,0.9-0.9,1.7c0,6.7,0,13.5,0,20.2
		c0,0.4,0,0.8,0.1,1.1c2.9,0,5.7,0,8.5,0c0-5.5,0-10.8,0-16.2c0-1.6,0.5-2.1,2.1-2.1c3,0,6,0,9,0c1.8,0,2.2,0.4,2.2,2.2
		c0,5,0,9.9,0,14.9c0,0.4,0,0.8,0,1.2C80.4,119.4,83.2,119.4,86,119.4z M70.8,82.8c0.6,0.3,1.1,0.6,1.6,0.9
		c6.5,4.5,12.9,9,19.4,13.5c0.4,0.3,0.7,0.5,1.1,0.7c1,0.4,1.9,0.3,2.6-0.5c0.7-0.8,0.9-1.7,0.4-2.6c-0.3-0.5-0.8-0.9-1.2-1.2
		c-7.7-5.4-15.3-10.7-23-16.1c-0.7-0.5-1.1-0.4-1.7,0c-7.6,5.4-15.3,10.7-22.9,16c-0.3,0.2-0.6,0.4-0.9,0.7c-0.7,0.7-1,1.5-0.5,2.3
		c0.3,0.6,1,1.4,1.7,1.5c0.7,0.1,1.7-0.2,2.3-0.6c6.6-4.6,13.2-9.2,19.8-13.8C69.9,83.3,70.3,83.1,70.8,82.8z M74.3,119.4
		c0-5.2,0-10.2,0-15.3c-2.4,0-4.7,0-6.9,0c0,5.2,0,10.2,0,15.3c2.1,0,4.2,0,6.3,0C73.9,119.5,74.1,119.5,74.3,119.4z"/>
	<path class="st0" d="M57.4,140.6c-2.8,0-5.7,0-8.5,0c-1.3,0-2-0.6-2-1.5c0-1,0.7-1.5,2-1.5c5.5,0,11,0,16.5,0
		c2.6,0,3.9-1.3,3.9-3.9c0-2.2,0-4.4,0-6.6c0-1.2,0.6-1.9,1.5-1.9c1,0,1.5,0.7,1.6,1.9c0,2.3,0,4.6,0,7c0,3.8-2.8,6.6-6.7,6.6
		C63,140.7,60.2,140.6,57.4,140.6z"/>
	<path class="st0" d="M84.4,58.5c-2.8,0-5.5,0-8.3,0c-2.3,0-3.7,1.4-3.7,3.7c0,1.9,0,3.8,0,5.7c0,1.2-0.6,1.8-1.6,1.9
		c-1,0-1.5-0.6-1.5-1.9c0-2,0-4,0-6c0-3.7,2.7-6.5,6.4-6.5c5.8-0.1,11.5,0,17.3,0c1.1,0,1.8,0.6,1.8,1.5c0,1-0.6,1.5-1.9,1.5
		C90.1,58.5,87.3,58.5,84.4,58.5z"/>
	<path class="st0" d="M31.2,84.5c0,2.8,0,5.5,0,8.3c0,2.3,1.4,3.7,3.7,3.7c1.1,0,2.3,0,3.4,0c0.9,0,1.5,0.5,1.5,1.4
		c0.1,0.9-0.5,1.6-1.4,1.6c-1.6,0-3.3,0.1-4.9-0.1c-3.2-0.4-5.4-3-5.4-6.2c-0.1-5.8,0-11.6,0-17.3c0-1.1,0.6-1.8,1.5-1.8
		c1,0,1.5,0.6,1.6,1.9C31.2,78.8,31.2,81.6,31.2,84.5z"/>
	<path class="st0" d="M113.6,111.4c0,2.8,0,5.7,0,8.5c0,1.3-0.5,2-1.5,2c-1,0-1.5-0.7-1.5-2c0-5.5,0-11,0-16.4
		c0-2.6-1.3-3.9-3.9-3.9c-1.1,0-2.1,0-3.2,0c-0.9,0-1.4-0.5-1.5-1.4c-0.1-0.9,0.5-1.6,1.5-1.6c1.5,0,3-0.1,4.5,0.1
		c3.4,0.4,5.7,3,5.8,6.5C113.6,105.8,113.6,108.6,113.6,111.4z"/>
	<path class="st0" d="M21.9,56.7c0-1,0-2.1,0-3.1c0.1-2.5,1.9-4.4,4.4-4.5c2.1,0,4.3,0,6.4,0c1,0,1.7,0.6,1.7,1.5
		c0,0.9-0.7,1.6-1.8,1.6c-1.8,0-3.6,0-5.4,0c-2,0-2.3,0.3-2.3,2.4c0,1.7,0,3.5,0,5.2c0,1.2-0.6,1.9-1.5,1.9c-0.9,0-1.5-0.7-1.5-1.9
		C21.9,58.8,21.9,57.7,21.9,56.7C21.9,56.7,21.9,56.7,21.9,56.7z"/>
	<path class="st0" d="M111.9,131.3c1.1,0,2.1,0,3.2,0c1.1,0,1.7,0.6,1.7,1.5c0,0.9-0.6,1.5-1.7,1.5c-2,0-3.9,0-5.9,0
		c-1.5,0-2,0.5-2,2c0,1.9,0,3.8,0,5.6c0,1.2-0.6,1.9-1.5,1.9c-0.9,0-1.5-0.6-1.5-1.8c0-2,0-4,0-6.1c0.1-2.8,1.9-4.6,4.8-4.7
		C110,131.3,110.9,131.3,111.9,131.3z"/>
	<path class="st0" d="M21.9,138.8c0-1,0-2,0-3c0.1-2.5,1.8-4.4,4.3-4.5c2.2-0.1,4.3,0,6.5,0c1,0,1.7,0.6,1.7,1.5
		c0,0.9-0.7,1.5-1.7,1.5c-1.8,0-3.6,0-5.4,0c-2.1,0-2.4,0.4-2.4,2.5c0,1.6,0,3.2,0,4.9c0,0.3,0,0.6,0,0.9c-0.2,0.9-0.7,1.4-1.6,1.3
		c-0.9-0.1-1.3-0.6-1.4-1.5C21.9,141.2,21.9,140,21.9,138.8C21.9,138.8,21.9,138.8,21.9,138.8z"/>
	<path class="st0" d="M104.2,56.7c0-1.1-0.1-2.2,0-3.3c0.2-2.5,2-4.2,4.5-4.3c2.1,0,4.2,0,6.3,0c1.1,0,1.7,0.5,1.7,1.4
		c0,0.9-0.6,1.6-1.7,1.6c-2,0-3.9,0-5.9,0c-1.4,0-1.9,0.5-2,1.9c0,1.9,0,3.8,0,5.6c0,1.2-0.6,1.9-1.5,2c-1,0-1.5-0.7-1.6-2
		C104.2,58.7,104.2,57.7,104.2,56.7C104.2,56.7,104.2,56.7,104.2,56.7z"/>
</g>
</svg>
