<?xml version="1.0" encoding="utf-8"?>
<!-- Generator: Adobe Illustrator 24.0.1, SVG Export Plug-In . SVG Version: 6.00 Build 0)  -->
<svg version="1.1" id="Layer_1" xmlns="http://www.w3.org/2000/svg" xmlns:xlink="http://www.w3.org/1999/xlink" x="0px" y="0px"
	 viewBox="0 0 141.7 200.4" style="enable-background:new 0 0 141.7 200.4;" xml:space="preserve">
<style type="text/css">
	.st0{fill:#541D1D;}
	.st1{fill:#FFFFFF;}
</style>
<g>
	<path class="st0" d="M53.2,82.4c0,1.2,0,2.2,0,3.3c0,4.8,0,9.5,0,14.3c0,10.1,8.1,18,18.2,17.8c8.9-0.2,16.6-7.1,17.1-16.2
		c0.4-6.3,0.1-12.7,0.1-19.1c-2.3,0-4.6,0-6.8,0c-1.5,0-2.6-0.6-3.3-1.9c-1.3-2.2,0.3-5.1,2.8-5.2c3.7-0.1,7.4-0.1,11.1,0
		c1.8,0,3.3,1.5,3.3,3.2c0,8.1,0.3,16.2-0.3,24.3c-0.8,10.7-9.4,19.6-20,21.5c-0.3,0.1-0.6,0.1-1,0.2c-0.1,4.7,1.2,9,4.5,12.3
		c2.4,2.4,5.7,2.8,9,2.3c7.8-1.2,13.6-5.6,17.6-12.1c8.6-14.1,10.9-29,4-44.4C102.9,67.9,91.1,59.7,75,57.9
		c-8-0.9-15.6,0.6-22.9,4.1c-1.6,0.8-3.1,0.6-4.2-0.5c-1.1-1-1.5-2.6-0.8-3.9c0.4-0.7,1.1-1.5,1.8-1.8c8.1-4,16.7-5.9,25.7-5
		c19.6,1.9,33.5,11.9,41.8,29.6c3.5,7.4,4.6,15.4,4,23.6c-0.6,8.9-3,17.3-7.6,25c-4.2,7-9.7,12.6-17.6,15.4c-4.4,1.6-9,2.2-13.6,1.3
		c-6.7-1.3-10.8-5.7-12.6-12.1c-0.8-2.7-1.1-5.5-1.5-8.2c-0.1-0.6-0.3-0.9-0.9-1.1c-11.8-2.1-20.3-12.3-20.4-24.2c0-7,0-14,0-21
		c0-2.4,1.4-3.8,3.9-3.8c3.3,0,6.6,0,10,0c2.3,0,3.9,1.5,3.9,3.5c0,2.1-1.6,3.6-3.9,3.6C57.7,82.4,55.5,82.4,53.2,82.4z"/>
	<path class="st0" d="M53.2,135.5c0,7.5-5.9,13.7-13.3,14.1c-7.7,0.4-14.2-5.2-14.9-12.7c-0.4-3.8,0.6-7.2,3-10.2
		c0.5-0.6,0.4-0.9,0.1-1.5c-5.4-9.3-7.7-19.3-6.6-30c1.2-11.3,5.8-21.1,13.7-29.4c1.5-1.5,3.6-1.6,5.1-0.2c1.5,1.4,1.5,3.5,0,5.1
		c-5.8,6.1-9.6,13.2-11.1,21.5c-1.9,10.3-0.3,20.1,4.9,29.2c0.4,0.6,0.7,0.7,1.4,0.5C44.6,119.5,53.2,126.2,53.2,135.5z M46.1,135.4
		c0-3.9-3.2-7.1-7.1-7c-3.9,0-7,3.2-7,7c0,3.9,3.2,7.1,7.1,7.1C42.9,142.5,46.1,139.4,46.1,135.4z"/>
	<path class="st1" d="M46.1,135.4c0,3.9-3.2,7.1-7.1,7.1c-3.9,0-7.1-3.2-7.1-7.1c0-3.9,3.2-7,7-7C42.9,128.4,46.1,131.6,46.1,135.4z
		"/>
</g>
</svg>
