<?xml version="1.0" encoding="utf-8"?>
<!-- Generator: Adobe Illustrator 24.0.1, SVG Export Plug-In . SVG Version: 6.00 Build 0)  -->
<svg version="1.1" id="Layer_1" xmlns="http://www.w3.org/2000/svg" xmlns:xlink="http://www.w3.org/1999/xlink" x="0px" y="0px"
	 viewBox="0 0 141.7 200.4" style="enable-background:new 0 0 141.7 200.4;" xml:space="preserve">
<style type="text/css">
	.st0{fill:#541D1D;}
	.st1{fill:#FFFFFF;}
</style>
<g>
	<path class="st0" d="M40.2,130.1c-0.1-0.1-0.2-0.1-0.2-0.2c-1.9-2.6-4.7-4.1-7.5-5.4c-2.2-1.1-4.3-2.2-6.5-3.3
		c-0.6-0.3-0.9-0.6-0.8-1.3c0.5-9.3,4.2-17,11.1-23.1c0.2-0.2,0.9-0.3,1.1-0.2c6.2,3.9,13,4.3,20.1,3.4c3-0.4,5.9-0.2,8.8,1.3
		c-0.3,0.2-0.6,0.4-0.8,0.6c-3.6,2.2-7.2,4.5-10.8,6.7c-3.8,2.4-4,6.5-0.5,9.3c2.8,2.2,6,2.8,9.4,1.6c2.2-0.8,4.4-1.9,6.6-2.9
		c2.7-1.2,5.4-2.2,8.3-1.6c1.8,0.4,3.6,1,5.3,1.9c5.6,3.1,11.1,6.3,16.7,9.6c1.3,0.8,2.2,1.9,2,3.5c-0.2,1.3-1,2.3-2.3,2.5
		c-0.9,0.1-2-0.1-2.8-0.5c-3.1-1.7-6.1-3.5-9.2-5.3c-0.4-0.2-1-0.5-1.3-0.4c-0.6,0.2-1.2,0.6-1.4,1.1c-0.4,0.8,0.1,1.5,0.8,1.9
		c2.3,1.3,4.5,2.6,6.8,3.9c0.5,0.3,1,0.6,1.5,0.9c1.7,1,2.2,2.9,1.2,4.5c-0.9,1.5-2.8,2-4.5,1.1c-3.1-1.8-6.3-3.6-9.4-5.4
		c-0.3-0.2-0.6-0.4-0.9-0.5c-0.8-0.3-1.6-0.1-2,0.7c-0.4,0.8-0.3,1.5,0.4,2.1c0.6,0.4,1.2,0.7,1.8,1.1c2.2,1.3,4.4,2.5,6.6,3.8
		c1.8,1,2.4,2.7,1.5,4.2c-0.9,1.5-2.6,1.8-4.4,0.8c-2-1.2-4-2.3-6-3.5c-0.3-0.2-0.6-0.4-0.8-0.7c-1.7-3.1-4.3-4-7.8-3.3
		c-0.5-1.8-1.4-3.2-3-4.1c-1.6-0.9-3.3-1.1-5.2-0.6c-1.4-4-4.2-5.6-8.4-4.8c-0.5-1.8-1.5-3.3-3.2-4.2c-2.9-1.6-6.6-0.7-8.5,2.1
		C41.3,128.2,40.8,129.2,40.2,130.1z"/>
	<path class="st0" d="M70.9,92.4c-12.8,0-23.2-10.4-23.3-23.2C47.6,56.4,58,46,70.8,46c12.8,0,23.3,10.4,23.3,23.2
		C94.1,81.9,83.7,92.4,70.9,92.4z M66.3,72.1c-0.3-0.4-0.5-0.7-0.7-1c-1-1.7-1.9-3.3-2.9-5c-0.7-1.1-1.7-1.7-3.1-1.5
		c-1.3,0.1-2.2,0.9-2.6,2.1c-0.4,1.1-0.1,2.1,0.4,3.1c1.6,2.8,3.2,5.6,4.9,8.4c1.6,2.8,3.9,3.1,6.2,0.8c5-4.9,9.9-9.9,14.9-14.8
		c0.3-0.3,0.6-0.6,0.9-1c0.8-1.1,0.8-2.3,0.2-3.4c-0.7-1.2-1.7-1.8-3-1.5c-0.8,0.2-1.7,0.7-2.3,1.3C74.8,63.5,70.6,67.8,66.3,72.1z"
		/>
	<path class="st0" d="M105,125.9c-1.5-1.1-2.7-2.1-4-2.9c-5.2-3.1-10.5-6-15.7-9c-2.9-1.6-5.9-2.6-9.3-2.4c-2.6,0.2-5,1.1-7.4,2.1
		c-2,0.9-3.9,1.8-6,2.6c-2.3,0.9-4.6,0.5-6.5-1.1c-1.6-1.4-1.6-2.7,0.2-3.9c5.3-3.3,10.6-6.6,15.9-9.8c3.4-2.1,7.1-3.4,11.2-2.9
		c1.9,0.2,3.6,0.9,5.5,1.2c4.7,0.9,9.2,0.2,13.3-2.2c2.7-1.5,2.7-1.5,4.9,0.7c5.8,5.9,8.8,12.9,9.3,21.1c0,0.7-0.1,1.1-0.8,1.4
		C112,122.6,108.4,124.3,105,125.9z"/>
	<path class="st0" d="M21.9,121.8c-1.8-0.8-3.5-1.5-5.2-2.3c-0.3-0.2-0.5-0.8-0.6-1.2c-1-6,0.2-11.7,2.8-17.1
		c2-4.2,4.8-7.8,8.4-10.8c0.7-0.6,1.4-0.7,2.2-0.2c1.8,1.1,3.7,2.1,5.7,3.2C26.5,100.7,22,110.1,21.9,121.8z"/>
	<path class="st0" d="M119.9,121.7c-0.2-11.6-4.6-21-13.4-28.5c0.3-0.2,0.6-0.4,0.9-0.6c1.6-0.9,3.2-1.8,4.8-2.7
		c0.8-0.5,1.4-0.4,2.1,0.2c6.1,5.2,9.9,11.8,11.3,19.7c0.5,2.8,0.5,5.6,0,8.5c-0.1,0.7-0.4,1.2-1.1,1.5
		C123,120.4,121.5,121,119.9,121.7z"/>
	<path class="st0" d="M58.9,135.6c-0.2,0.6-0.4,1.3-0.7,1.8c-1.7,3-3.5,6.1-5.2,9.1c-1,1.8-2.8,2.3-4.4,1.5
		c-1.6-0.9-2.1-2.8-1.1-4.6c1.8-3.1,3.6-6.3,5.4-9.4c0.8-1.4,2.2-1.9,3.6-1.5C57.8,132.9,58.7,134.1,58.9,135.6z"/>
	<path class="st0" d="M59.2,151.4c-2.2,0-3.8-2.4-2.8-4.4c1.5-2.9,3.2-5.7,4.9-8.5c0.8-1.4,2.6-1.7,4-1c1.4,0.8,2.2,2.5,1.4,4
		c-1.6,2.9-3.2,5.9-5,8.7c-0.5,0.7-1.6,1-2.4,1.5C59.3,151.6,59.3,151.5,59.2,151.4z"/>
	<path class="st0" d="M44.1,140.1c-2.4-0.2-4.1-2.5-3.1-4.5c1.1-2.3,2.5-4.5,3.8-6.7c0.9-1.3,2.7-1.6,4-0.9c1.4,0.8,2.1,2.5,1.3,4
		c-1.2,2.2-2.4,4.5-3.8,6.6C45.9,139.3,44.8,139.6,44.1,140.1z"/>
	<path class="st0" d="M75.4,145.2c-0.2,0.5-0.3,1.1-0.6,1.6c-1,1.9-2.1,3.7-3.2,5.5c-1,1.7-2.8,2.3-4.4,1.5
		c-1.6-0.9-2.1-2.8-1.1-4.6c1.1-2,2.2-3.9,3.4-5.8c0.8-1.3,2.3-1.8,3.7-1.3C74.5,142.6,75.3,143.8,75.4,145.2z"/>
	<path class="st0" d="M96.3,54.5c4.5-1,7-3.7,8.1-8c1,4.4,3.5,7,8,8c-4.3,1.1-7,3.7-8,8.1C103.4,58.2,100.8,55.6,96.3,54.5z"/>
	<path class="st0" d="M29.5,75.7c3.6-0.9,5.7-2.9,6.6-6.5c0.9,3.5,3,5.7,6.6,6.5c-3.6,0.8-5.7,2.9-6.6,6.5
		C35.1,78.6,33,76.5,29.5,75.7z"/>
	<path class="st0" d="M76,151.5c1-1.8,1.8-3.3,2.6-4.8c0.8,0.5,1.8,1,2.7,1.6c1,0.7,1.3,1.7,0.9,2.8c-0.4,1.1-1.3,1.9-2.6,1.6
		C78.4,152.5,77.3,151.9,76,151.5z"/>
	<path class="st1" d="M66.3,72.1c4.3-4.3,8.5-8.6,12.8-12.7c0.6-0.6,1.5-1.1,2.3-1.3c1.3-0.3,2.4,0.3,3,1.5c0.6,1.2,0.6,2.3-0.2,3.4
		c-0.3,0.4-0.6,0.7-0.9,1c-5,4.9-9.9,9.9-14.9,14.8c-2.3,2.3-4.6,2-6.2-0.8c-1.6-2.8-3.2-5.6-4.9-8.4c-0.6-1-0.8-2-0.4-3.1
		c0.4-1.2,1.4-1.9,2.6-2.1c1.3-0.1,2.4,0.4,3.1,1.5c1,1.6,1.9,3.3,2.9,5C65.8,71.4,66,71.7,66.3,72.1z"/>
</g>
</svg>
