<?xml version="1.0" encoding="utf-8"?>
<!-- Generator: Adobe Illustrator 24.0.1, SVG Export Plug-In . SVG Version: 6.00 Build 0)  -->
<svg version="1.1" id="Layer_1" xmlns="http://www.w3.org/2000/svg" xmlns:xlink="http://www.w3.org/1999/xlink" x="0px" y="0px"
	 viewBox="0 0 141.7 200.4" style="enable-background:new 0 0 141.7 200.4;" xml:space="preserve">
<style type="text/css">
	.st0{fill:#FFFFFF;}
	.st1{fill:#541D1D;}
</style>
<g>
	<path class="st0" d="M13.6,141.8c1.8,6.7,7.2,9.2,13.2,10.8c3.7,1,7.6,1.3,11.4,1.9c0.4,0.1,0.7,0.1,1.1,0.2c-8.5,0-17,0-25.6,0
		C13.6,150.3,13.6,146.1,13.6,141.8z"/>
</g>
<g>
	<path class="st0" d="M42.1,120.4c0,3.1-2.2,5.2-5.4,5.1c-4-0.2-7.6-4.5-6.9-8.3c0.5-3,2.9-4.7,5.9-4.3
		C39.2,113.4,42.1,116.8,42.1,120.4z M34.8,116c-1,0-1.7,0.6-1.9,1.6c-0.2,2.1,1.8,4.5,3.9,4.6c1.2,0.1,2-0.6,2.1-1.8
		C39.1,118.5,36.9,116,34.8,116z"/>
	<path class="st0" d="M71.3,76.9c-1.6-1.1-3-2-4.5-3.1c-1.1,1.5-2.1,3-3.1,4.5c-0.7,1-1.8,1.1-2.5,0.3c-0.6-0.7-0.6-1.4-0.1-2.1
		c2.1-3.1,4.2-6.2,6.4-9.3c1.9-2.6,5.4-3.1,8-1.3c2.6,1.7,3.4,5.2,1.7,7.9c-2,3.2-4.2,6.3-6.4,9.4c-0.6,0.8-1.5,1-2.2,0.5
		c-0.8-0.5-1-1.5-0.4-2.3C69.2,80,70.3,78.5,71.3,76.9z M68.7,71.2c1.5,1,3,2,4.5,3.1c0.5-0.8,1-1.4,1.4-2.1
		c0.7-1.2,0.3-2.7-0.9-3.5c-1.2-0.8-2.7-0.6-3.6,0.5C69.6,69.8,69.2,70.5,68.7,71.2z"/>
	<path class="st0" d="M86.1,78.1c-2,3-4,5.8-6,8.7c0.4,0.3,0.9,0.6,1.3,0.9c0.7,0.6,0.9,1.4,0.3,2.2c-0.5,0.8-1.3,0.9-2.1,0.4
		c-1.8-1.1-3.5-2.3-5.2-3.6c-0.8-0.5-0.9-1.4-0.4-2.1c0.5-0.8,1.3-0.9,2.1-0.5c0.4,0.2,0.8,0.5,1.3,0.8c2-2.9,3.9-5.8,6-8.7
		c-0.4-0.3-0.8-0.6-1.2-0.9c-0.8-0.6-1-1.5-0.4-2.2c0.6-0.8,1.4-0.9,2.2-0.4c1.7,1.1,3.4,2.3,5.1,3.5c0.8,0.6,1,1.5,0.4,2.2
		c-0.5,0.7-1.4,0.9-2.3,0.4C87,78.7,86.6,78.4,86.1,78.1z"/>
</g>
<g>
	<path class="st1" d="M82.9,89.3c0-1.8,0-3.4,0-5.1c2.9,0,5.8,0,8.7,0c0.1,0.2,0.2,0.5,0.3,0.8c1.2,2.9,4.3,4.5,7.2,3.8
		c3-0.6,5.2-3.3,5.2-6.3c0-3.1-2.1-5.7-5.1-6.4c-3-0.6-6,0.9-7.2,3.8c-0.3,0.8-0.7,1-1.5,1c-2.4-0.1-4.9,0-7.3,0
		c-0.1,0-0.1-0.1-0.3-0.1c0-1.6,0-3.2,0-5c1.8,0,3.5,0,5.3,0c0.7,0,1.3,0,2-0.1c1.5-0.2,2.7-1.6,2.9-3.1c0-0.3,0-0.6,0-0.9
		c-0.1-1.6,0-2.9,1.8-3.9c2.3-1.3,2.9-4.3,1.8-6.8c-1-2.5-3.5-3.9-6.2-3.6c-2.5,0.3-4.6,2.3-5.1,4.8c-0.5,2.5,0.8,5.2,3.1,6.2
		c1.2,0.5,1.5,1.2,1.4,2.4c-0.1,2.1,0,1.7-1.8,1.8c-1.7,0-3.4,0-5,0c-0.1-0.1-0.2-0.2-0.2-0.2c-0.3-3.5-1.8-4.8-5.3-4.8
		c-2.9,0-5.8,0-8.9,0c0-0.4,0-0.8,0-1.2c0-2.1,0-4.1,0-6.2c0-2.7-0.7-4.3-3.1-7.8c1.9-0.4,3.6-1,5.4-1.3
		c13.3-2.1,24.6,1.6,32.9,12.4c13.3,17.2,6.1,42.2-14.2,49.9c-4.4,1.7-7.3,4.6-8.5,9.2c-0.1,0.3-0.5,0.7-0.7,0.7
		c-3.4,0-6.8,0-10.3,0c-0.5-4.1-2.5-7.3-5.8-9.7c3.1-2.7,4.3-6,4.1-9.9c-0.1-2,0-4,0-6.2c0.6,0,1.1,0,1.6,0c2.4,0,4.8,0,7.2,0
		c3.8,0,5.1-1.2,5.5-5c2.1,0,4.3,0,6.4,0c0.1,0,0.3,0,0.4,0.1c0.5,0.5,0.1,3.1-0.6,3.4c-2.3,1.1-3.6,2.9-3.6,5.5c0,3,2.1,5.5,5.1,6
		c2.8,0.4,5.7-1.3,6.6-4.1c0.9-2.8-0.3-5.9-3-7.2c-1-0.5-1.2-1-1.1-1.9c0-0.4,0-0.9,0-1.3c0-2.2-1.4-3.6-3.7-3.7
		c-1.7-0.1-3.5,0-5.2,0C83.8,89.3,83.4,89.3,82.9,89.3z"/>
	<path class="st1" d="M65.2,97.6c0,3,0.2,5.9-0.1,8.7c-0.4,3.5-3.2,6.2-6.6,6.8c-3.4,0.7-6.9-0.9-8.8-3.9c-1.8-3-1.6-6.8,0.5-9.5
		c0.2-0.2,0.4-0.4,0.6-0.7c0.6-0.8,0.5-1.7-0.1-2.3c-0.7-0.6-1.6-0.5-2.3,0.2c-1.7,1.8-2.7,4-3,6.5c0,0.4-0.1,0.8-0.1,1.2
		c-3.3,0.1-6.7-2.9-7.4-6.4c-1-5.1,2.4-9.7,7.7-10.2c0.3,0,0.5,0,0.8-0.1c0.9-0.2,1.5-0.7,1.4-1.7c-0.1-0.9-0.6-1.5-1.6-1.5
		c-4,0-7.1,1.7-9.5,4.8c-0.4,0.6-0.8,1.2-1.2,1.9c-2.4-1.4-3.9-3.5-4.2-6.2c-0.4-3,0.7-5.5,2.8-7.4c1.3,0.9,2.5,1.9,3.7,2.7
		c1.1,0.7,2.1,0.4,2.6-0.4c0.5-0.9,0.1-1.7-1.1-2.4C36,76,34.3,72.6,34.8,69c0.6-3.6,3.3-6.4,7-7.1c0.5-0.1,1.1-0.1,1.7-0.1
		c1.8,0,1.9,0.2,2.4,1.8c0.3,1,0.8,1.9,1.2,2.8c0.6,1.2,1.6,1.5,2.4,1c0.9-0.5,1-1.4,0.3-2.6c-2.4-4-1.3-9,2.6-11.5
		c2.7-1.7,5.6-1.9,8.4-0.4c2.8,1.4,4.4,3.8,4.5,7c0.1,2.5,0,5.1,0,7.7c-2.8,0-5.5,0-8.2,0c-2.2,0-3.9,1.2-4.4,3.2
		c-0.1,0.5-0.1,0.9-0.1,1.4c0,6.9,0,13.9,0,20.8c0,2.8,1.7,4.5,4.6,4.6C59.9,97.6,62.6,97.6,65.2,97.6z"/>
	<path class="st1" d="M61.8,129.7c0-0.8,0.1-1.4,0-2c-0.1-0.9,0.3-1.1,1.1-1.1c8.4,0,16.8,0,25.3,0c0.9,0,1.2,0.3,1.1,1.1
		c-0.1,0.6,0,1.2,0,2c2,0,4,0,5.9,0c0.9,0,1.6,0.3,1.8,1.2c0.3,1.1-0.4,1.9-1.7,1.9c-1.6,0-3.2,0-4.8,0c-0.4,0-0.8,0-1.3,0
		c0,1.1,0,2.1,0,3.2c1.9,0,3.8-0.1,5.7,0c0.6,0,1.3,0.3,1.6,0.7c0.3,0.3,0.4,1.2,0.2,1.5c-0.3,0.5-1,0.9-1.6,1
		c-1.7,0.1-3.5,0.1-5.2,0c-0.6,0-1,0.2-1.2,0.8c-0.6,1.5-1.8,2.3-3.5,2.3c-6.6,0-13.3,0-19.9,0c-1.6,0-2.8-0.8-3.4-2.4
		c-0.2-0.6-0.5-0.8-1.1-0.8c-1.7,0-3.3,0-5,0c-1.3,0-2-0.6-2-1.6c0-1,0.7-1.6,2-1.7c1.9,0,3.8,0,5.7,0c0-1.1,0-2.1,0-3.2
		c-1.6,0-3.2,0-4.9,0c-0.4,0-0.9,0-1.3,0c-0.9-0.1-1.5-0.6-1.5-1.5c0-0.9,0.6-1.6,1.6-1.6c1.6,0,3.2,0,4.9,0
		C60.9,129.7,61.3,129.7,61.8,129.7z"/>
	<path class="st1" d="M67.8,70.9c3.4,0,6.8,0,10.2,0c1.4,0,1.6,0.2,1.6,1.5c0,6.8,0,13.6,0,20.4c0,1.3-0.2,1.5-1.6,1.5
		c-6.8,0-13.7,0-20.5,0c-1.3,0-1.6-0.3-1.6-1.6c0-6.7,0-13.5,0-20.2c0-1.4,0.2-1.6,1.7-1.6C61,70.9,64.4,70.9,67.8,70.9z M66.9,85.7
		c0,1.1,0,2.2,0,3.3c0,1.3,0.6,2,1.6,2c1,0,1.6-0.6,1.6-1.9c0-2.6,0-5.3,0-7.9c-0.1-3.2-2.4-5.6-5.5-5.6c-3.1,0-5.4,2.4-5.4,5.7
		c0,2.6,0,5.2,0,7.7c0,1.3,0.6,2.1,1.6,2.1c1,0,1.6-0.7,1.6-2.1c0-1.1,0-2.2,0-3.3C64,85.7,65.4,85.7,66.9,85.7z M73.2,83.2
		c0,1.8,0,3.5,0,5.3c0,1.3,0.6,2,1.6,2c1,0,1.6-0.7,1.6-1.9c0-3.5,0-7.1,0-10.6c0-1.3-0.6-2-1.5-2c-1,0-1.7,0.7-1.7,2
		C73.2,79.7,73.2,81.4,73.2,83.2z"/>
	<path class="st1" d="M94.6,82.6c0-1.8,1.6-3.3,3.3-3.3c1.7,0,3.2,1.5,3.2,3.3c0,1.8-1.6,3.3-3.3,3.3C96.1,85.8,94.6,84.3,94.6,82.6
		z"/>
	<path class="st1" d="M69.8,145.7c3.5,0,6.9,0,10.3,0c-0.1,1.9-2.3,3.7-4.5,3.9C72.9,149.9,70.4,148.3,69.8,145.7z"/>
	<path class="st1" d="M91.4,104.4c-1.5,0-2.8-1.3-2.8-2.9c0-1.5,1.3-2.7,2.8-2.8c1.5,0,2.8,1.3,2.8,2.8
		C94.2,103.2,93,104.4,91.4,104.4z"/>
	<path class="st1" d="M91.1,66c-1.5,0-2.7-1.3-2.7-2.8c0-1.4,1.3-2.7,2.7-2.7c1.5,0,2.7,1.3,2.7,2.7C93.9,64.8,92.6,66.1,91.1,66z"
		/>
	<path class="st0" d="M66.9,85.7c-1.5,0-2.9,0-4.5,0c0,1.1,0,2.2,0,3.3c0,1.3-0.6,2.1-1.6,2.1c-1,0-1.6-0.7-1.6-2.1
		c0-2.6,0-5.2,0-7.7c0-3.2,2.4-5.6,5.4-5.7c3.1,0,5.4,2.3,5.5,5.6c0.1,2.6,0,5.3,0,7.9c0,1.3-0.6,1.9-1.6,1.9c-1,0-1.6-0.7-1.6-2
		C66.9,87.9,66.9,86.9,66.9,85.7z M66.8,82.4c0.1-1.3,0.2-2.5-1.1-3.3c-0.8-0.5-1.6-0.4-2.4,0.1c-1.1,0.8-1,2-0.9,3.2
		C64,82.4,65.3,82.4,66.8,82.4z"/>
	<path class="st0" d="M73.2,83.2c0-1.8,0-3.5,0-5.3c0-1.3,0.7-2.1,1.7-2c1,0,1.5,0.8,1.5,2c0,3.5,0,7.1,0,10.6
		c0,1.2-0.6,1.9-1.6,1.9c-1,0-1.6-0.7-1.6-2C73.2,86.7,73.2,85,73.2,83.2z"/>
	<path class="st1" d="M66.8,82.4c-1.5,0-2.9,0-4.3,0c-0.1-1.2-0.3-2.4,0.9-3.2c0.8-0.5,1.6-0.6,2.4-0.1C67,79.9,67,81.1,66.8,82.4z"
		/>
</g>
</svg>
