<?xml version="1.0" encoding="utf-8"?>
<!-- Generator: Adobe Illustrator 24.0.1, SVG Export Plug-In . SVG Version: 6.00 Build 0)  -->
<svg version="1.1" id="Layer_1" xmlns="http://www.w3.org/2000/svg" xmlns:xlink="http://www.w3.org/1999/xlink" x="0px" y="0px"
	 viewBox="0 0 141.7 200.4" style="enable-background:new 0 0 141.7 200.4;" xml:space="preserve">
<style type="text/css">
	.st0{fill:#FFFFFF;}
	.st1{fill:#541D1D;}
</style>
<g>
	<path class="st0" d="M13.6,141.8c1.8,6.7,7.2,9.2,13.2,10.8c3.7,1,7.6,1.3,11.4,1.9c0.4,0.1,0.7,0.1,1.1,0.2c-8.5,0-17,0-25.6,0
		C13.6,150.3,13.6,146.1,13.6,141.8z"/>
</g>
<g>
	<path class="st0" d="M42.1,120.4c0,3.1-2.2,5.2-5.4,5.1c-4-0.2-7.6-4.5-6.9-8.3c0.5-3,2.9-4.7,5.9-4.3
		C39.2,113.4,42.1,116.8,42.1,120.4z M34.8,116c-1,0-1.7,0.6-1.9,1.6c-0.2,2.1,1.8,4.5,3.9,4.6c1.2,0.1,2-0.6,2.1-1.8
		C39.1,118.5,36.9,116,34.8,116z"/>
	<path class="st0" d="M71.3,76.9c-1.6-1.1-3-2-4.5-3.1c-1.1,1.5-2.1,3-3.1,4.5c-0.7,1-1.8,1.1-2.5,0.3c-0.6-0.7-0.6-1.4-0.1-2.1
		c2.1-3.1,4.2-6.2,6.4-9.3c1.9-2.6,5.4-3.1,8-1.3c2.6,1.7,3.4,5.2,1.7,7.9c-2,3.2-4.2,6.3-6.4,9.4c-0.6,0.8-1.5,1-2.2,0.5
		c-0.8-0.5-1-1.5-0.4-2.3C69.2,80,70.3,78.5,71.3,76.9z M68.7,71.2c1.5,1,3,2,4.5,3.1c0.5-0.8,1-1.4,1.4-2.1
		c0.7-1.2,0.3-2.7-0.9-3.5c-1.2-0.8-2.7-0.6-3.6,0.5C69.6,69.8,69.2,70.5,68.7,71.2z"/>
	<path class="st0" d="M86.1,78.1c-2,3-4,5.8-6,8.7c0.4,0.3,0.9,0.6,1.3,0.9c0.7,0.6,0.9,1.4,0.3,2.2c-0.5,0.8-1.3,0.9-2.1,0.4
		c-1.8-1.1-3.5-2.3-5.2-3.6c-0.8-0.5-0.9-1.4-0.4-2.1c0.5-0.8,1.3-0.9,2.1-0.5c0.4,0.2,0.8,0.5,1.3,0.8c2-2.9,3.9-5.8,6-8.7
		c-0.4-0.3-0.8-0.6-1.2-0.9c-0.8-0.6-1-1.5-0.4-2.2c0.6-0.8,1.4-0.9,2.2-0.4c1.7,1.1,3.4,2.3,5.1,3.5c0.8,0.6,1,1.5,0.4,2.2
		c-0.5,0.7-1.4,0.9-2.3,0.4C87,78.7,86.6,78.4,86.1,78.1z"/>
</g>
<g>
	<path class="st0" d="M66.9,85.7c-1.5,0-2.9,0-4.5,0c0,1.1,0,2.2,0,3.3c0,1.3-0.6,2.1-1.6,2.1c-1,0-1.6-0.7-1.6-2.1
		c0-2.6,0-5.2,0-7.7c0-3.2,2.4-5.6,5.4-5.7c3.1,0,5.4,2.3,5.5,5.6c0.1,2.6,0,5.3,0,7.9c0,1.3-0.6,1.9-1.6,1.9c-1,0-1.6-0.7-1.6-2
		C66.9,87.9,66.9,86.9,66.9,85.7z M66.8,82.4c0.1-1.3,0.2-2.5-1.1-3.3c-0.8-0.5-1.6-0.4-2.4,0.1c-1.1,0.8-1,2-0.9,3.2
		C64,82.4,65.3,82.4,66.8,82.4z"/>
	<path class="st0" d="M73.2,83.2c0-1.8,0-3.5,0-5.3c0-1.3,0.7-2.1,1.7-2c1,0,1.5,0.8,1.5,2c0,3.5,0,7.1,0,10.6
		c0,1.2-0.6,1.9-1.6,1.9c-1,0-1.6-0.7-1.6-2C73.2,86.7,73.2,85,73.2,83.2z"/>
</g>
<g>
	<path class="st0" d="M99.7,43.5c-0.9,0.5-1.5,1.3-1.8,2.4c-0.5,1.5-1.1,3-1.6,4.5c-6.3-1.9-11.7-5.9-18.3-6.8
		C85.2,43.5,92.4,43.5,99.7,43.5z"/>
	<path class="st0" d="M74.2,43.5c-2.3,0.6-4.3,1.7-5.7,3.9c-1.3-2.2-3.3-3.3-5.6-3.9C66.7,43.5,70.4,43.5,74.2,43.5z"/>
	<path class="st0" d="M70.9,135.4c0,3.6,0,7.2,0,10.8c0,0.4,0,0.7,0,1.1c-0.1,1.3-1.1,2.3-2.3,2.4c-1.3,0-2.4-1-2.4-2.4
		c0-3.5,0-7.1,0-10.6c0-0.4,0-0.8,0-1.3c-0.4,0.2-0.6,0.4-0.8,0.5c-3,2.6-6.6,3.5-10.5,3.1c-1.2-0.1-2.5-0.2-3.7-0.4
		c-2.5-0.5-4.6,0.4-6.3,2.2c-0.6,0.7-1.2,1.5-1.8,2.2c-0.8,0.9-2.1,1-3.1,0.3c-1-0.7-1.4-2-0.7-2.9c2.2-3.3,4.8-6.1,9-6.5
		c1.7-0.2,3.5,0.1,5.3,0.2c1.2,0.1,2.4,0.3,3.6,0.2c4.1-0.3,7.1-2.9,8.3-7.2c1-3.6,0.8-7.2,0-10.8c-0.4-1.6-0.9-2-2.6-1.9
		c-2.2,0-3.1-1.5-2.4-3.6c0.8-2.3,1.3-4.6,2-7c0-0.1,0-0.3,0.1-0.4c0.4-4-1.4-5.7-5.4-5.4c-3.4,0.3-6.1,1.7-8,4.7
		c-0.8,1.2-2.1,1.5-3.3,0.9c-1.1-0.7-1.5-2-0.8-3.3c1.4-2.5,3.5-4.3,6.3-5.7c-0.5-0.4-1-0.8-1.4-1.2c-2.3-2.4-4.3-5-5.9-8
		c-1-1.8-2-2.2-3.9-1.4c-0.5,0.2-1,0.5-1.5,0.7c-1.2,0.5-2.5,0.1-3.1-0.9c-0.6-1.1-0.3-2.4,0.7-3.1c1.8-1.2,3.8-1.9,6.1-1.8
		c2.6,0.1,4.3,1.5,5.5,3.7c1.7,3.1,3.7,5.9,6.3,8.3c2.5,2.4,5.3,3,8.4,1.8c1.1-0.4,2.1-0.4,2.9,0.5c0.8,0.9,0.8,1.9,0.1,3
		c-0.1,0.2-0.2,0.5-0.1,0.7c2.2,3.7,1.6,7.5,0.6,11.3c-0.2,0.6-0.3,1.2-0.5,1.8c0.9,0.6,1.7,1.2,2.5,1.8c0.8-0.6,1.6-1.1,2.5-1.7
		c-0.4-1.6-0.8-3.2-1.1-4.9c-0.2-1.2-0.2-2.5-0.2-3.7c0-1.4,1-2.3,2.4-2.2c1.3,0,2.3,1,2.3,2.3c-0.1,3.3,0.8,6.4,2.1,9.4
		c0.8,2-0.2,3.6-2.4,3.5c-1.7,0-2.2,0.3-2.6,1.9c-0.8,3.7-1.1,7.5,0.1,11.1c1.4,4.3,4.6,7.9,11.6,6.8c0.8-0.1,1.6-0.2,2.4-0.3
		c3.6-0.4,6.8,0.6,9.4,3.2c0.9,0.9,1.7,1.9,2.5,2.9c0.9,1.1,0.6,2.5-0.5,3.3c-1,0.7-2.4,0.6-3.3-0.5c-0.7-0.8-1.4-1.7-2.2-2.5
		c-1.5-1.6-3.4-2.1-5.6-1.8c-1.9,0.3-3.8,0.5-5.7,0.5c-3.2,0.1-6.1-1-8.6-3c-0.2-0.2-0.5-0.4-0.7-0.6
		C71.1,135.4,71.1,135.4,70.9,135.4z"/>
	<path class="st0" d="M42.9,129.3c-0.1,0.1-0.1,0.1-0.1,0.1c-0.3,5.9-8,6.8-11.1,4.2c-1.8-1.5-3.1-3.4-3.8-5.6
		c-0.6-1.9-1.1-3.9-1.7-5.9c-0.4,0-0.9,0.1-1.3,0.1c-1.3,0-2.3-0.9-2.4-2.1c-0.1-1.2,0.6-2.3,1.9-2.5c1.6-0.2,2.5-0.9,3.4-2.3
		c0.9-1.4,2.1-2.6,3.3-3.9c-0.3-0.1-0.6-0.2-0.9-0.3c-3.1-1-4.9-3.7-4.5-7c0.1-0.5,0.1-1,0.2-1.5c0.4-1.4,0.1-2.5-1.2-3.3
		c-1-0.7-1.1-2.1-0.5-3.1c0.7-1,1.9-1.3,3-0.8c2.6,1.2,3.8,3.7,3.4,7c-0.1,0.7-0.2,1.3-0.2,2c-0.2,1.3,0.4,2.2,1.7,2.3
		c1.7,0.1,3.5,0.1,5.2,0c4.6-0.3,9.1-0.6,13.7-1c0.4,0,0.8-0.2,1-0.5c0.9-1.1,1.8-2.1,2.6-3.3c0.9-1.3,2.2-1.8,3.4-1.1
		c1.2,0.7,1.5,2,0.8,3.4c-1.1,2.1-2.6,3.9-4.5,5.4c-0.9,0.7-1.9,1-3.1,0.9c-5.1-0.3-10.1,0.5-14.6,3.1c-2.2,1.2-3.9,2.9-5.2,5
		c-0.2,0.3-0.4,0.7-0.4,1.1c0.3,2.7,0.8,5.4,2,7.9c0.3,0.6,0.7,1.2,1.2,1.7c0.9,1,2.4,1.2,3.5,0.5c0.3-0.2,0.6-0.8,0.5-1.2
		c-0.4-2.2-0.8-4.4-1.3-6.6c-0.3-1.4,0.2-2.6,1.4-3.1c1.2-0.4,2.4,0.1,3,1.4c0.2,0.3,0.3,0.7,0.5,1c1.5,2.8,3.8,4.3,6.9,4.4
		c2.9,0.1,4.6-1.7,4.1-4.5c-0.3-1.7-1-3.3-1.6-4.9c-0.3-0.9-0.4-1.7,0.2-2.5c0.5-0.7,1.3-1.1,2.2-0.9c0.6,0.2,1.3,0.5,1.6,1
		c1.6,2.8,2.7,5.8,2.3,9.1c-0.5,4.1-3.6,7-7.8,7.3c-2.1,0.1-4-0.2-5.9-1C43.4,129.5,43.2,129.4,42.9,129.3z"/>
	<path class="st0" d="M106.1,111.6c1.4,1.8,2.6,3.6,4.1,5.2c0.5,0.6,1.4,0.8,2.2,1c1.1,0.3,1.8,0.8,2,1.9c0.3,1.5-0.8,2.8-2.4,2.8
		c-0.5,0-0.9-0.1-1.4-0.1c-0.4,1.7-0.8,3.4-1.3,5c-0.6,2-1.6,3.9-3,5.4c-2.9,3-6.9,2.8-9.9,1c-1.2-0.7-1.8-1.9-2.1-3.3
		c-0.1-0.4-0.1-0.7-0.2-0.9c-1.7,0.4-3.3,1-4.9,1.1c-6.8,0.4-11-4.5-9.4-11.1c0.4-1.7,1.1-3.3,1.9-4.9c0.6-1.4,2-1.8,3.2-1.2
		c1.2,0.6,1.5,1.9,1,3.3c-0.6,1.4-1.2,2.7-1.5,4.1c-0.8,3.5,1.5,5.7,5.1,5.1c3-0.6,5-2.3,6.2-5.1c0.6-1.3,1.5-2,2.6-1.8
		c1.6,0.2,2.4,1.6,1.9,3.3c-0.5,1.9-0.9,3.8-1.2,5.7c-0.1,0.6,0.1,1.6,0.5,1.9c0.9,0.7,2.1,0.7,3-0.1c0.6-0.5,1.1-1.1,1.5-1.8
		c1.4-2.6,2-5.4,2.2-8.4c0-0.4-0.2-0.8-0.5-1.2c-2.5-3.7-6.1-5.8-10.3-6.9c-2.9-0.8-5.9-1.1-9-1c-0.4,0-0.9,0.1-1.3,0
		c-1.3,0-2.3-1-2.3-2.2c-0.1-1.2,0.8-2.4,2.1-2.4c2.4-0.1,4.8,0,7.2,0.1c3.6,0.2,7.2,0.6,10.8,0.9c0.1,0,0.2,0,0.3,0
		c3-0.1,4.2-0.4,3.5-3.9c-0.5-3,0.1-5.6,2.9-7.3c1.3-0.8,2.7-0.6,3.4,0.5c0.8,1.1,0.5,2.5-0.8,3.3c-0.9,0.6-1.1,1.5-1,2.5
		c0.1,0.8,0.2,1.7,0.3,2.5c0.2,3.1-1.5,5.5-4.4,6.5C106.7,111.4,106.4,111.5,106.1,111.6z"/>
	<path class="st0" d="M66.2,68.3c-1.9-0.4-3.6-0.7-5.2-1.2c-1-0.3-1.5-1.1-1.9-2.1c-0.4-1.2-0.9-2.5-1.6-3.6c-1.1-1.8-2.8-2.6-5-2.6
		c-1.7,0-2.8-0.8-2.8-2.2c0-1.4,1-2.4,2.8-2.4c5-0.1,8.7,2.6,10.7,8c0.2,0.6,0.4,1.1,1.1,1.1c1.8,0.1,1.9,0.1,1.9-1.8
		c0-1.6,0-3.2,0-4.8c0-1.5,1-2.5,2.3-2.5c1.4,0,2.4,1,2.4,2.6c0.1,4.9,0.1,9.9,0.2,14.8c0,2.1,0.4,4.2,1.7,6c0.7,1,0.4,2.3-0.5,3.1
		c-1,0.7-2.2,0.7-3.1-0.2c-0.2-0.2-0.3-0.4-0.6-0.6c-0.6,0.6-1.1,1.1-1.1,2.1c-0.1,1.8-2,2.7-3.6,1.8c-1.2-0.7-2.3-1.4-3.6-1.9
		c-4.7-2.2-7.7-5.7-8.9-10.9c-0.3,0.3-0.5,0.6-0.7,0.8c-3.3,4.3-11.7,5.8-15.1-2.1c-0.6-1.3-0.1-2.6,1-3.2c1.2-0.6,2.5-0.2,3.2,1.2
		c0.7,1.4,1.5,2.8,3.3,2.9c2.9,0.2,5.1-2.4,4.5-5.3c-0.1-0.3-0.2-0.6-0.2-0.9c-0.2-1,0.1-1.9,1-2.5c0.9-0.6,1.8-0.6,2.7,0
		c2.3,1.8,4.1,3.9,4.6,6.9c0.8,4.3,3.2,7.3,7.2,9.1c0.8,0.3,1.3,0.2,1.6-0.5c0.5-1.2,1.1-2.4,1.3-3.6C66,71.8,66,69.9,66.2,68.3z"/>
	<path class="st0" d="M100.4,83.9c-1.2-3.4-2.4-6.4-3.5-9.5c-0.5-1.3-1.2-2.1-2.6-2.6c-2.8-0.9-5.5-2-8.3-3
		c-0.3-0.1-0.6-0.2-1.1-0.4c0.4-0.2,0.7-0.3,1-0.5c2.9-1.1,5.8-2.2,8.7-3.2c1.1-0.4,1.7-1,2.1-2.1c1-2.8,2.1-5.7,3.1-8.5
		c0.1-0.4,0.3-0.7,0.5-1.3c1.1,3,2.3,5.8,3.2,8.6c0.6,2,1.7,3.1,3.7,3.7c2.8,0.9,5.6,2,8.6,3.2c-0.7,0.3-1.1,0.5-1.5,0.6
		c-2.8,1-5.5,2.1-8.3,3c-1.1,0.4-1.7,1-2.1,2.1C102.9,77.2,101.7,80.4,100.4,83.9z"/>
	<path class="st0" d="M41.3,95.2c-0.1,2.4-1.2,5-2.7,7.5c-0.7,1.1-2.1,1.3-3.1,0.7c-1.1-0.6-1.4-1.9-0.9-3.1
		c0.6-1.4,1.3-2.9,1.9-4.3c0.2-0.4,0.2-0.9,0.2-1.3c0.1-1-0.4-1.7-1.4-1.7c-1.2,0-2.5,0-3.7,0.2c-2.1,0.4-4,0.4-5.9-0.8
		c-1.4-0.9-1.7-2.2-1-3.4c0.7-1.2,2-1.4,3.6-0.6c0.7,0.3,1.6,0.2,2.4,0.2c1.8,0,3.7-0.3,5.5-0.1C39.4,88.7,41.3,91.2,41.3,95.2z"/>
	<path class="st0" d="M80.4,76.6c0.9,2.4,1.7,4.5,2.4,6.6c0.3,0.8,0.7,1.3,1.5,1.5c2.2,0.7,4.3,1.6,6.7,2.4
		c-2.4,0.9-4.6,1.7-6.8,2.5c-0.7,0.2-1.1,0.6-1.3,1.3c-0.8,2.2-1.6,4.3-2.5,6.8c-0.9-2.5-1.7-4.6-2.5-6.8c-0.2-0.7-0.6-1.1-1.3-1.3
		c-2.2-0.8-4.3-1.6-6.8-2.5c1.4-0.5,2.5-0.9,3.6-1.4c1.3-0.5,3-0.7,3.9-1.6c0.9-0.9,1.1-2.5,1.6-3.8C79.4,79.2,79.8,78,80.4,76.6z"
		/>
	<path class="st0" d="M50.6,141.4c1.8,0,3,1.5,2.4,2.9c-0.6,1.4-1.4,2.8-2.3,4.1c-0.7,1-2.2,1.1-3.2,0.3c-0.9-0.7-1.2-2-0.6-3.1
		c0.6-1,1.1-2,1.7-3C49.1,141.8,49.8,141.4,50.6,141.4z"/>
	<path class="st0" d="M90.2,146.6c0,1-0.4,1.8-1.4,2.2c-1,0.4-2,0.3-2.6-0.5c-0.9-1.3-1.6-2.6-2.2-4c-0.4-1,0.2-2.1,1.2-2.6
		c0.9-0.5,2.2-0.4,2.8,0.5c0.8,1.2,1.5,2.6,2.2,3.9C90.2,146.2,90.2,146.4,90.2,146.6z"/>
</g>
<g>
	<path class="st1" d="M70.9,79.6c-15.1,0-30.1,0-45.2,0c-2.6,0-3.1-0.6-3.1-3.1c0-1.5,0-2.9,0-4.4c0-1.1,0.4-1.8,1.3-2.3
		c14.9-8.1,29.8-16.2,44.8-24.4c1.7-0.9,3.3-0.7,4.9,0.2c11.2,6.1,22.4,12.2,33.6,18.3c3.5,1.9,6.9,3.8,10.4,5.6
		c1.1,0.6,1.7,1.4,1.6,2.7c-0.1,1.7,0,3.3,0,5c0,1.5-0.8,2.2-2.2,2.3c-0.4,0-0.7,0-1.1,0C100.9,79.6,85.9,79.6,70.9,79.6z
		 M70.9,56.7c-3.8,0-6.8,3.1-6.8,6.8c0,3.7,3.1,6.8,6.8,6.9c3.8,0,6.9-3.1,6.9-6.9C77.7,59.7,74.6,56.6,70.9,56.7z"/>
	<path class="st1" d="M70.8,151.3c-16.5,0-33.1,0-49.6,0c-2.3,0-3-0.6-3-3c0-0.9,0-1.8,0-2.7c0.1-1.5,0.8-2.3,2.4-2.3
		c0.3,0,0.5,0,0.8,0c33,0,66,0,99,0c2.5,0,3.1,0.6,3.1,3.1c0,0.8,0,1.5,0,2.3c0,1.7-0.8,2.5-2.5,2.5c-8.6,0-17.1,0-25.7,0
		C87.1,151.3,79,151.3,70.8,151.3z"/>
	<path class="st1" d="M65,89.4c-0.8,0-1.5,0-2.2,0c-1.1-0.1-1.8-0.7-1.8-1.7c-0.1-1.5,0-3,0-4.6c6.6,0,13,0,19.6,0
		c0,1.7,0.1,3.4,0,5.1c-0.1,0.9-0.9,1.2-1.7,1.2c-0.7,0-1.4,0-2.1,0c0,11.5,0,22.8,0,34.3c0.7,0,1.5,0,2.2,0c1,0,1.7,0.5,1.8,1.6
		c0.1,1.5,0,3.1,0,4.7c-6.6,0-13,0-19.6,0c0-1.7-0.1-3.4,0.1-5.1c0-0.4,0.9-1,1.5-1.1c0.7-0.2,1.5,0,2.3,0
		C65,112.2,65,100.9,65,89.4z"/>
	<path class="st1" d="M30.2,129.9c0-1.6-0.1-3.2,0-4.7c0.1-1,0.7-1.6,1.8-1.6c0.7,0,1.4,0,2.2,0c0-11.4,0-22.8,0-34.3
		c-0.7,0-1.4,0-2.1,0c-1.1,0-1.8-0.6-1.9-1.6c-0.1-1.5,0-3.1,0-4.7c6.6,0,13,0,19.6,0c0,1.7,0.1,3.3,0,5c-0.1,0.9-0.8,1.3-1.7,1.3
		c-0.7,0-1.4,0-2.2,0c0,11.4,0,22.8,0,34.3c0.7,0,1.4,0,2.1,0c1.2,0,1.9,0.6,1.9,1.8c0,1.5,0,2.9,0,4.5
		C43.3,129.9,36.8,129.9,30.2,129.9z"/>
	<path class="st1" d="M107.5,89.4c0,11.5,0,22.8,0,34.3c0.8,0,1.5,0,2.2,0c1.1,0,1.7,0.6,1.8,1.6c0.1,1.5,0,3.1,0,4.7
		c-6.6,0-13,0-19.6,0c0-1.7-0.1-3.4,0.1-5.1c0-0.4,0.9-1,1.5-1.1c0.7-0.2,1.5,0,2.3,0c0-11.4,0-22.8,0-34.3c-0.6,0-1.3,0-2,0
		c-1.3,0-2-0.6-2-2c0-1.4,0-2.9,0-4.4c6.6,0,13.1,0,19.6,0c0,1.7,0.1,3.3,0,5c-0.1,0.9-0.8,1.3-1.7,1.3
		C109.1,89.4,108.4,89.4,107.5,89.4z"/>
	<path class="st1" d="M24.3,139.9c0-1.6,0-3.1,0-4.6c0-1,0.8-1.7,1.9-1.9c0.4-0.1,0.8,0,1.2,0c29,0,58,0,86.9,0c2.5,0,3.1,0.6,3.1,3
		c0,1.1,0,2.3,0,3.5C86.4,139.9,55.4,139.9,24.3,139.9z"/>
	<path class="st0" d="M70.9,56.7c3.8,0,6.8,3,6.9,6.8c0,3.8-3.1,6.9-6.9,6.9c-3.7,0-6.8-3.1-6.8-6.9C64,59.7,67.1,56.7,70.9,56.7z"
		/>
</g>
</svg>
