<?xml version="1.0" encoding="utf-8"?>
<!-- Generator: Adobe Illustrator 24.0.1, SVG Export Plug-In . SVG Version: 6.00 Build 0)  -->
<svg version="1.1" id="Layer_1" xmlns="http://www.w3.org/2000/svg" xmlns:xlink="http://www.w3.org/1999/xlink" x="0px" y="0px"
	 viewBox="0 0 141.7 200.4" style="enable-background:new 0 0 141.7 200.4;" xml:space="preserve">
<style type="text/css">
	.st0{fill:#FFFFFF;}
	.st1{fill:#541D1D;}
</style>
<g>
	<path class="st0" d="M13.6,141.8c1.8,6.7,7.2,9.2,13.2,10.8c3.7,1,7.6,1.3,11.4,1.9c0.4,0.1,0.7,0.1,1.1,0.2c-8.5,0-17,0-25.6,0
		C13.6,150.3,13.6,146.1,13.6,141.8z"/>
</g>
<g>
	<path class="st0" d="M42.1,120.4c0,3.1-2.2,5.2-5.4,5.1c-4-0.2-7.6-4.5-6.9-8.3c0.5-3,2.9-4.7,5.9-4.3
		C39.2,113.4,42.1,116.8,42.1,120.4z M34.8,116c-1,0-1.7,0.6-1.9,1.6c-0.2,2.1,1.8,4.5,3.9,4.6c1.2,0.1,2-0.6,2.1-1.8
		C39.1,118.5,36.9,116,34.8,116z"/>
	<path class="st0" d="M71.3,76.9c-1.6-1.1-3-2-4.5-3.1c-1.1,1.5-2.1,3-3.1,4.5c-0.7,1-1.8,1.1-2.5,0.3c-0.6-0.7-0.6-1.4-0.1-2.1
		c2.1-3.1,4.2-6.2,6.4-9.3c1.9-2.6,5.4-3.1,8-1.3c2.6,1.7,3.4,5.2,1.7,7.9c-2,3.2-4.2,6.3-6.4,9.4c-0.6,0.8-1.5,1-2.2,0.5
		c-0.8-0.5-1-1.5-0.4-2.3C69.2,80,70.3,78.5,71.3,76.9z M68.7,71.2c1.5,1,3,2,4.5,3.1c0.5-0.8,1-1.4,1.4-2.1
		c0.7-1.2,0.3-2.7-0.9-3.5c-1.2-0.8-2.7-0.6-3.6,0.5C69.6,69.8,69.2,70.5,68.7,71.2z"/>
	<path class="st0" d="M86.1,78.1c-2,3-4,5.8-6,8.7c0.4,0.3,0.9,0.6,1.3,0.9c0.7,0.6,0.9,1.4,0.3,2.2c-0.5,0.8-1.3,0.9-2.1,0.4
		c-1.8-1.1-3.5-2.3-5.2-3.6c-0.8-0.5-0.9-1.4-0.4-2.1c0.5-0.8,1.3-0.9,2.1-0.5c0.4,0.2,0.8,0.5,1.3,0.8c2-2.9,3.9-5.8,6-8.7
		c-0.4-0.3-0.8-0.6-1.2-0.9c-0.8-0.6-1-1.5-0.4-2.2c0.6-0.8,1.4-0.9,2.2-0.4c1.7,1.1,3.4,2.3,5.1,3.5c0.8,0.6,1,1.5,0.4,2.2
		c-0.5,0.7-1.4,0.9-2.3,0.4C87,78.7,86.6,78.4,86.1,78.1z"/>
</g>
<g>
	<path class="st0" d="M66.9,85.7c-1.5,0-2.9,0-4.5,0c0,1.1,0,2.2,0,3.3c0,1.3-0.6,2.1-1.6,2.1c-1,0-1.6-0.7-1.6-2.1
		c0-2.6,0-5.2,0-7.7c0-3.2,2.4-5.6,5.4-5.7c3.1,0,5.4,2.3,5.5,5.6c0.1,2.6,0,5.3,0,7.9c0,1.3-0.6,1.9-1.6,1.9c-1,0-1.6-0.7-1.6-2
		C66.9,87.9,66.9,86.9,66.9,85.7z M66.8,82.4c0.1-1.3,0.2-2.5-1.1-3.3c-0.8-0.5-1.6-0.4-2.4,0.1c-1.1,0.8-1,2-0.9,3.2
		C64,82.4,65.3,82.4,66.8,82.4z"/>
	<path class="st0" d="M73.2,83.2c0-1.8,0-3.5,0-5.3c0-1.3,0.7-2.1,1.7-2c1,0,1.5,0.8,1.5,2c0,3.5,0,7.1,0,10.6
		c0,1.2-0.6,1.9-1.6,1.9c-1,0-1.6-0.7-1.6-2C73.2,86.7,73.2,85,73.2,83.2z"/>
</g>
<g>
	<path class="st0" d="M99.7,43.5c-0.9,0.5-1.5,1.3-1.8,2.4c-0.5,1.5-1.1,3-1.6,4.5c-6.3-1.9-11.7-5.9-18.3-6.8
		C85.2,43.5,92.4,43.5,99.7,43.5z"/>
	<path class="st0" d="M74.2,43.5c-2.3,0.6-4.3,1.7-5.7,3.9c-1.3-2.2-3.3-3.3-5.6-3.9C66.7,43.5,70.4,43.5,74.2,43.5z"/>
	<path class="st0" d="M70.9,135.4c0,3.6,0,7.2,0,10.8c0,0.4,0,0.7,0,1.1c-0.1,1.3-1.1,2.3-2.3,2.4c-1.3,0-2.4-1-2.4-2.4
		c0-3.5,0-7.1,0-10.6c0-0.4,0-0.8,0-1.3c-0.4,0.2-0.6,0.4-0.8,0.5c-3,2.6-6.6,3.5-10.5,3.1c-1.2-0.1-2.5-0.2-3.7-0.4
		c-2.5-0.5-4.6,0.4-6.3,2.2c-0.6,0.7-1.2,1.5-1.8,2.2c-0.8,0.9-2.1,1-3.1,0.3c-1-0.7-1.4-2-0.7-2.9c2.2-3.3,4.8-6.1,9-6.5
		c1.7-0.2,3.5,0.1,5.3,0.2c1.2,0.1,2.4,0.3,3.6,0.2c4.1-0.3,7.1-2.9,8.3-7.2c1-3.6,0.8-7.2,0-10.8c-0.4-1.6-0.9-2-2.6-1.9
		c-2.2,0-3.1-1.5-2.4-3.6c0.8-2.3,1.3-4.6,2-7c0-0.1,0-0.3,0.1-0.4c0.4-4-1.4-5.7-5.4-5.4c-3.4,0.3-6.1,1.7-8,4.7
		c-0.8,1.2-2.1,1.5-3.3,0.9c-1.1-0.7-1.5-2-0.8-3.3c1.4-2.5,3.5-4.3,6.3-5.7c-0.5-0.4-1-0.8-1.4-1.2c-2.3-2.4-4.3-5-5.9-8
		c-1-1.8-2-2.2-3.9-1.4c-0.5,0.2-1,0.5-1.5,0.7c-1.2,0.5-2.5,0.1-3.1-0.9c-0.6-1.1-0.3-2.4,0.7-3.1c1.8-1.2,3.8-1.9,6.1-1.8
		c2.6,0.1,4.3,1.5,5.5,3.7c1.7,3.1,3.7,5.9,6.3,8.3c2.5,2.4,5.3,3,8.4,1.8c1.1-0.4,2.1-0.4,2.9,0.5c0.8,0.9,0.8,1.9,0.1,3
		c-0.1,0.2-0.2,0.5-0.1,0.7c2.2,3.7,1.6,7.5,0.6,11.3c-0.2,0.6-0.3,1.2-0.5,1.8c0.9,0.6,1.7,1.2,2.5,1.8c0.8-0.6,1.6-1.1,2.5-1.7
		c-0.4-1.6-0.8-3.2-1.1-4.9c-0.2-1.2-0.2-2.5-0.2-3.7c0-1.4,1-2.3,2.4-2.2c1.3,0,2.3,1,2.3,2.3c-0.1,3.3,0.8,6.4,2.1,9.4
		c0.8,2-0.2,3.6-2.4,3.5c-1.7,0-2.2,0.3-2.6,1.9c-0.8,3.7-1.1,7.5,0.1,11.1c1.4,4.3,4.6,7.9,11.6,6.8c0.8-0.1,1.6-0.2,2.4-0.3
		c3.6-0.4,6.8,0.6,9.4,3.2c0.9,0.9,1.7,1.9,2.5,2.9c0.9,1.1,0.6,2.5-0.5,3.3c-1,0.7-2.4,0.6-3.3-0.5c-0.7-0.8-1.4-1.7-2.2-2.5
		c-1.5-1.6-3.4-2.1-5.6-1.8c-1.9,0.3-3.8,0.5-5.7,0.5c-3.2,0.1-6.1-1-8.6-3c-0.2-0.2-0.5-0.4-0.7-0.6
		C71.1,135.4,71.1,135.4,70.9,135.4z"/>
	<path class="st0" d="M42.9,129.3c-0.1,0.1-0.1,0.1-0.1,0.1c-0.3,5.9-8,6.8-11.1,4.2c-1.8-1.5-3.1-3.4-3.8-5.6
		c-0.6-1.9-1.1-3.9-1.7-5.9c-0.4,0-0.9,0.1-1.3,0.1c-1.3,0-2.3-0.9-2.4-2.1c-0.1-1.2,0.6-2.3,1.9-2.5c1.6-0.2,2.5-0.9,3.4-2.3
		c0.9-1.4,2.1-2.6,3.3-3.9c-0.3-0.1-0.6-0.2-0.9-0.3c-3.1-1-4.9-3.7-4.5-7c0.1-0.5,0.1-1,0.2-1.5c0.4-1.4,0.1-2.5-1.2-3.3
		c-1-0.7-1.1-2.1-0.5-3.1c0.7-1,1.9-1.3,3-0.8c2.6,1.2,3.8,3.7,3.4,7c-0.1,0.7-0.2,1.3-0.2,2c-0.2,1.3,0.4,2.2,1.7,2.3
		c1.7,0.1,3.5,0.1,5.2,0c4.6-0.3,9.1-0.6,13.7-1c0.4,0,0.8-0.2,1-0.5c0.9-1.1,1.8-2.1,2.6-3.3c0.9-1.3,2.2-1.8,3.4-1.1
		c1.2,0.7,1.5,2,0.8,3.4c-1.1,2.1-2.6,3.9-4.5,5.4c-0.9,0.7-1.9,1-3.1,0.9c-5.1-0.3-10.1,0.5-14.6,3.1c-2.2,1.2-3.9,2.9-5.2,5
		c-0.2,0.3-0.4,0.7-0.4,1.1c0.3,2.7,0.8,5.4,2,7.9c0.3,0.6,0.7,1.2,1.2,1.7c0.9,1,2.4,1.2,3.5,0.5c0.3-0.2,0.6-0.8,0.5-1.2
		c-0.4-2.2-0.8-4.4-1.3-6.6c-0.3-1.4,0.2-2.6,1.4-3.1c1.2-0.4,2.4,0.1,3,1.4c0.2,0.3,0.3,0.7,0.5,1c1.5,2.8,3.8,4.3,6.9,4.4
		c2.9,0.1,4.6-1.7,4.1-4.5c-0.3-1.7-1-3.3-1.6-4.9c-0.3-0.9-0.4-1.7,0.2-2.5c0.5-0.7,1.3-1.1,2.2-0.9c0.6,0.2,1.3,0.5,1.6,1
		c1.6,2.8,2.7,5.8,2.3,9.1c-0.5,4.1-3.6,7-7.8,7.3c-2.1,0.1-4-0.2-5.9-1C43.4,129.5,43.2,129.4,42.9,129.3z"/>
	<path class="st0" d="M106.1,111.6c1.4,1.8,2.6,3.6,4.1,5.2c0.5,0.6,1.4,0.8,2.2,1c1.1,0.3,1.8,0.8,2,1.9c0.3,1.5-0.8,2.8-2.4,2.8
		c-0.5,0-0.9-0.1-1.4-0.1c-0.4,1.7-0.8,3.4-1.3,5c-0.6,2-1.6,3.9-3,5.4c-2.9,3-6.9,2.8-9.9,1c-1.2-0.7-1.8-1.9-2.1-3.3
		c-0.1-0.4-0.1-0.7-0.2-0.9c-1.7,0.4-3.3,1-4.9,1.1c-6.8,0.4-11-4.5-9.4-11.1c0.4-1.7,1.1-3.3,1.9-4.9c0.6-1.4,2-1.8,3.2-1.2
		c1.2,0.6,1.5,1.9,1,3.3c-0.6,1.4-1.2,2.7-1.5,4.1c-0.8,3.5,1.5,5.7,5.1,5.1c3-0.6,5-2.3,6.2-5.1c0.6-1.3,1.5-2,2.6-1.8
		c1.6,0.2,2.4,1.6,1.9,3.3c-0.5,1.9-0.9,3.8-1.2,5.7c-0.1,0.6,0.1,1.6,0.5,1.9c0.9,0.7,2.1,0.7,3-0.1c0.6-0.5,1.1-1.1,1.5-1.8
		c1.4-2.6,2-5.4,2.2-8.4c0-0.4-0.2-0.8-0.5-1.2c-2.5-3.7-6.1-5.8-10.3-6.9c-2.9-0.8-5.9-1.1-9-1c-0.4,0-0.9,0.1-1.3,0
		c-1.3,0-2.3-1-2.3-2.2c-0.1-1.2,0.8-2.4,2.1-2.4c2.4-0.1,4.8,0,7.2,0.1c3.6,0.2,7.2,0.6,10.8,0.9c0.1,0,0.2,0,0.3,0
		c3-0.1,4.2-0.4,3.5-3.9c-0.5-3,0.1-5.6,2.9-7.3c1.3-0.8,2.7-0.6,3.4,0.5c0.8,1.1,0.5,2.5-0.8,3.3c-0.9,0.6-1.1,1.5-1,2.5
		c0.1,0.8,0.2,1.7,0.3,2.5c0.2,3.1-1.5,5.5-4.4,6.5C106.7,111.4,106.4,111.5,106.1,111.6z"/>
	<path class="st0" d="M66.2,68.3c-1.9-0.4-3.6-0.7-5.2-1.2c-1-0.3-1.5-1.1-1.9-2.1c-0.4-1.2-0.9-2.5-1.6-3.6c-1.1-1.8-2.8-2.6-5-2.6
		c-1.7,0-2.8-0.8-2.8-2.2c0-1.4,1-2.4,2.8-2.4c5-0.1,8.7,2.6,10.7,8c0.2,0.6,0.4,1.1,1.1,1.1c1.8,0.1,1.9,0.1,1.9-1.8
		c0-1.6,0-3.2,0-4.8c0-1.5,1-2.5,2.3-2.5c1.4,0,2.4,1,2.4,2.6c0.1,4.9,0.1,9.9,0.2,14.8c0,2.1,0.4,4.2,1.7,6c0.7,1,0.4,2.3-0.5,3.1
		c-1,0.7-2.2,0.7-3.1-0.2c-0.2-0.2-0.3-0.4-0.6-0.6c-0.6,0.6-1.1,1.1-1.1,2.1c-0.1,1.8-2,2.7-3.6,1.8c-1.2-0.7-2.3-1.4-3.6-1.9
		c-4.7-2.2-7.7-5.7-8.9-10.9c-0.3,0.3-0.5,0.6-0.7,0.8c-3.3,4.3-11.7,5.8-15.1-2.1c-0.6-1.3-0.1-2.6,1-3.2c1.2-0.6,2.5-0.2,3.2,1.2
		c0.7,1.4,1.5,2.8,3.3,2.9c2.9,0.2,5.1-2.4,4.5-5.3c-0.1-0.3-0.2-0.6-0.2-0.9c-0.2-1,0.1-1.9,1-2.5c0.9-0.6,1.8-0.6,2.7,0
		c2.3,1.8,4.1,3.9,4.6,6.9c0.8,4.3,3.2,7.3,7.2,9.1c0.8,0.3,1.3,0.2,1.6-0.5c0.5-1.2,1.1-2.4,1.3-3.6C66,71.8,66,69.9,66.2,68.3z"/>
	<path class="st0" d="M100.4,83.9c-1.2-3.4-2.4-6.4-3.5-9.5c-0.5-1.3-1.2-2.1-2.6-2.6c-2.8-0.9-5.5-2-8.3-3
		c-0.3-0.1-0.6-0.2-1.1-0.4c0.4-0.2,0.7-0.3,1-0.5c2.9-1.1,5.8-2.2,8.7-3.2c1.1-0.4,1.7-1,2.1-2.1c1-2.8,2.1-5.7,3.1-8.5
		c0.1-0.4,0.3-0.7,0.5-1.3c1.1,3,2.3,5.8,3.2,8.6c0.6,2,1.7,3.1,3.7,3.7c2.8,0.9,5.6,2,8.6,3.2c-0.7,0.3-1.1,0.5-1.5,0.6
		c-2.8,1-5.5,2.1-8.3,3c-1.1,0.4-1.7,1-2.1,2.1C102.9,77.2,101.7,80.4,100.4,83.9z"/>
	<path class="st0" d="M41.3,95.2c-0.1,2.4-1.2,5-2.7,7.5c-0.7,1.1-2.1,1.3-3.1,0.7c-1.1-0.6-1.4-1.9-0.9-3.1
		c0.6-1.4,1.3-2.9,1.9-4.3c0.2-0.4,0.2-0.9,0.2-1.3c0.1-1-0.4-1.7-1.4-1.7c-1.2,0-2.5,0-3.7,0.2c-2.1,0.4-4,0.4-5.9-0.8
		c-1.4-0.9-1.7-2.2-1-3.4c0.7-1.2,2-1.4,3.6-0.6c0.7,0.3,1.6,0.2,2.4,0.2c1.8,0,3.7-0.3,5.5-0.1C39.4,88.7,41.3,91.2,41.3,95.2z"/>
	<path class="st0" d="M80.4,76.6c0.9,2.4,1.7,4.5,2.4,6.6c0.3,0.8,0.7,1.3,1.5,1.5c2.2,0.7,4.3,1.6,6.7,2.4
		c-2.4,0.9-4.6,1.7-6.8,2.5c-0.7,0.2-1.1,0.6-1.3,1.3c-0.8,2.2-1.6,4.3-2.5,6.8c-0.9-2.5-1.7-4.6-2.5-6.8c-0.2-0.7-0.6-1.1-1.3-1.3
		c-2.2-0.8-4.3-1.6-6.8-2.5c1.4-0.5,2.5-0.9,3.6-1.4c1.3-0.5,3-0.7,3.9-1.6c0.9-0.9,1.1-2.5,1.6-3.8C79.4,79.2,79.8,78,80.4,76.6z"
		/>
	<path class="st0" d="M50.6,141.4c1.8,0,3,1.5,2.4,2.9c-0.6,1.4-1.4,2.8-2.3,4.1c-0.7,1-2.2,1.1-3.2,0.3c-0.9-0.7-1.2-2-0.6-3.1
		c0.6-1,1.1-2,1.7-3C49.1,141.8,49.8,141.4,50.6,141.4z"/>
	<path class="st0" d="M90.2,146.6c0,1-0.4,1.8-1.4,2.2c-1,0.4-2,0.3-2.6-0.5c-0.9-1.3-1.6-2.6-2.2-4c-0.4-1,0.2-2.1,1.2-2.6
		c0.9-0.5,2.2-0.4,2.8,0.5c0.8,1.2,1.5,2.6,2.2,3.9C90.2,146.2,90.2,146.4,90.2,146.6z"/>
</g>
<g>
	<path class="st0" d="M70.9,56.7c3.8,0,6.8,3,6.9,6.8c0,3.8-3.1,6.9-6.9,6.9c-3.7,0-6.8-3.1-6.8-6.9C64,59.7,67.1,56.7,70.9,56.7z"
		/>
</g>
<g>
	<path class="st1" d="M80.6,55.1c0-2.4,0-4.6,0-6.8c0-1.8,0.6-2.3,2.3-2.3c8.3,0,16.7,0,25,0c1.7,0,2.2,0.6,2.2,2.3
		c0,2.2,0,4.4,0,6.8c0.4,0,0.8,0,1.1,0c2.5,0,4.9,0,7.4,0c1.7,0,2.3,0.6,2.3,2.2c0,4.2,0,8.3,0,12.5c0,7.5,0,14.9,0,22.4
		c0,8.2,0,16.5,0,24.7c0,9.4,0,18.7,0,28.1c0,0.4,0,0.9,0,1.5c1,0,1.9,0,2.8,0c1.3,0,2,0.7,1.9,1.8c0,1-0.7,1.6-1.9,1.6
		c-0.2,0-0.4,0-0.7,0c-34.9,0-69.7,0-104.6,0c-0.3,0-0.5,0-0.8,0c-1.2,0-1.9-0.7-1.9-1.7c0-1,0.7-1.7,1.9-1.7c0.8,0,1.6,0,2.5,0
		c0-0.5,0-1,0-1.4c0-19.3,0-38.5,0-57.8c0-2.1,0.1-2.3,2.1-2.9C38,79.2,53.5,74,69.1,68.8c0.7-0.2,1-0.5,1-1.3c0-3.4,0-6.8,0-10.2
		c0-1.6,0.6-2.2,2.2-2.2C75,55.1,77.7,55.1,80.6,55.1z M23.8,146.5c15.5,0,30.8,0,46.2,0c0-24.8,0-49.5,0-74.3
		c-0.4,0.1-0.8,0.2-1.1,0.3c-14.6,4.9-29.2,9.8-43.8,14.6c-1,0.3-1.3,0.7-1.3,1.7c0,18.7,0,37.5,0,56.2
		C23.8,145.6,23.8,146,23.8,146.5z M80.6,146.5c0-0.5,0-0.9,0-1.3c0-5.8,0-11.6,0-17.3c0-1.9,0.5-2.4,2.4-2.4c8.2,0,16.4,0,24.6,0
		c2.1,0,2.6,0.5,2.6,2.5c0,5.7,0,11.4,0,17.1c0,0.4,0,0.9,0,1.4c2.5,0,4.9,0,7.3,0c0-8.4,0-16.7,0-25.1c-2.8,0-5.5,0-8.3,0
		c-1.6,0-2.1-0.6-2.1-2.1c0-2.6,0-5.2,0-7.8c0-2.1,0.4-2.5,2.5-2.5c2.6,0,5.2,0,7.9,0c0-1,0-1.9,0-2.9c-0.5,0-0.9,0-1.3,0
		c-2.4,0-4.7,0-7.1,0c-1.4,0-2-0.6-2-1.9c0-2.9,0-5.7,0-8.6c0-1.2,0.6-1.8,1.9-1.8c1.8,0,3.6,0,5.4,0c1,0,2,0,3.1,0c0-1,0-1.9,0-2.9
		c-2.7,0-5.3,0-7.9,0c-1.9,0-2.4-0.5-2.5-2.4c0-2.6,0-5.2,0-7.7c0-1.9,0.5-2.4,2.4-2.4c2.6,0,5.3,0,8,0c0-1,0-1.9,0-2.9
		c-0.5,0-0.9,0-1.3,0c-2.4,0-4.8,0-7.2,0c-1.2,0-1.9-0.6-1.9-1.8c0-2.9,0-5.9,0-8.8c0-1.1,0.7-1.7,1.8-1.7c1.3,0,2.5,0,3.8,0
		c1.6,0,3.2,0,4.9,0c0-1.5,0-2.8,0-4.2c-14.7,0-29.3,0-44,0c0,1.4,0,2.7,0,4.2c0.4,0,0.8,0,1.1,0c2.4,0,4.9,0,7.3,0
		c1.3,0,2,0.6,2,1.9c0,2.9,0,5.7,0,8.6c0,1.2-0.7,1.8-1.9,1.9c-1.7,0-3.4,0-5.1,0c-1.1,0-2.3,0-3.4,0c0,1,0,1.9,0,2.9
		c2.8,0,5.5,0,8.3,0c1.5,0,2.1,0.6,2.1,2.1c0,2.8,0,5.6,0,8.4c0,1.4-0.6,2.1-2.1,2.1c-2.2,0-4.4,0-6.5,0c-0.6,0-1.2,0-1.7,0
		c0,1.1,0,1.9,0,2.9c2.9,0,5.6,0,8.4,0c1.3,0,2,0.6,2,2c0,2.8,0,5.6,0,8.4c0,1.3-0.7,2-2,2c-2.1,0-4.1,0-6.2,0c-0.7,0-1.4,0-2.2,0
		c0,1,0,1.9,0,2.9c2.9,0,5.6,0,8.4,0c1.3,0,2,0.6,2,1.9c0,2.8,0,5.6,0,8.4c0,1.3-0.6,2-2,2c-1.4,0-2.9,0-4.3,0c-1.4,0-2.7,0-4.1,0
		c0,8.5,0,16.9,0,25.3C75.9,146.5,78.2,146.5,80.6,146.5z M84.2,146.4c3.2,0,6.4,0,9.5,0c0-5.9,0-11.7,0-17.4c-3.2,0-6.3,0-9.5,0
		C84.2,134.8,84.2,140.6,84.2,146.4z M97.2,146.5c3.2,0,6.4,0,9.5,0c0-5.9,0-11.7,0-17.5c-3.2,0-6.3,0-9.5,0
		C97.2,134.8,97.2,140.6,97.2,146.5z M84.2,55.1c7.6,0,15.1,0,22.6,0c0-1.9,0-3.7,0-5.5c-7.5,0-15,0-22.6,0
		C84.2,51.4,84.2,53.2,84.2,55.1z M110.6,112.3c0,1.9,0,3.7,0,5.5c2.4,0,4.7,0,6.9,0c0-1.9,0-3.7,0-5.5
		C115.2,112.3,112.9,112.3,110.6,112.3z M110.6,81.6c0,1.9,0,3.7,0,5.5c2.3,0,4.6,0,6.9,0c0-1.9,0-3.7,0-5.5
		C115.2,81.6,112.9,81.6,110.6,81.6z M110.6,102.4c2.3,0,4.6,0,6.9,0c0-1.8,0-3.6,0-5.4c-2.3,0-4.6,0-6.9,0
		C110.6,98.8,110.6,100.6,110.6,102.4z M110.6,71.7c2.4,0,4.6,0,6.9,0c0-1.8,0-3.6,0-5.3c-2.3,0-4.6,0-6.9,0
		C110.6,68.2,110.6,69.9,110.6,71.7z M80.4,66.4c-2.3,0-4.6,0-6.9,0c0,1.8,0,3.6,0,5.3c2.3,0,4.6,0,6.9,0
		C80.4,69.9,80.4,68.2,80.4,66.4z M73.5,117.6c2.3,0,4.6,0,6.9,0c0-1.8,0-3.5,0-5.3c-2.3,0-4.6,0-6.9,0
		C73.5,114.1,73.5,115.8,73.5,117.6z M80.4,81.6c-2.3,0-4.6,0-6.9,0c0,1.9,0,3.7,0,5.5c2.3,0,4.6,0,6.9,0
		C80.4,85.3,80.4,83.5,80.4,81.6z M73.5,102.4c2.4,0,4.6,0,6.9,0c0-1.8,0-3.6,0-5.4c-2.3,0-4.6,0-6.9,0
		C73.5,98.8,73.5,100.6,73.5,102.4z"/>
	<path class="st0" d="M23.8,146.5c0-0.5,0-0.9,0-1.3c0-18.7,0-37.5,0-56.2c0-1,0.3-1.4,1.3-1.7c14.6-4.9,29.2-9.8,43.8-14.6
		c0.3-0.1,0.7-0.2,1.1-0.3c0,24.8,0,49.5,0,74.3C54.6,146.5,39.3,146.5,23.8,146.5z M29.7,133.5c0,1.8,0,3.6,0,5.4
		c0,1.3,0.6,1.9,2,2c3.5,0,7.1,0,10.6,0c1.3,0,2-0.6,2-2c0-3.5,0-7.1,0-10.6c0-1.4-0.7-2-2.1-2c-3.5,0-7,0-10.5,0c-1.4,0-2,0.6-2,2
		C29.6,130.1,29.7,131.8,29.7,133.5z M49.6,133.5c0,1.8,0,3.5,0,5.3c0,1.4,0.6,2,2,2.1c3.5,0,7.1,0,10.6,0c1.3,0,2-0.7,2-2
		c0-3.5,0-7.1,0-10.6c0-1.3-0.7-2-2-2c-3.6,0-7.2,0-10.7,0c-1.3,0-1.9,0.6-1.9,1.9C49.6,130,49.6,131.8,49.6,133.5z M49.6,115.1
		c0,1.7,0,3.5,0,5.2c0,1.5,0.6,2.1,2,2.1c3.5,0,7,0,10.5,0c1.4,0,2-0.6,2-2c0-3.5,0-7,0-10.5c0-1.4-0.6-2.1-2-2.1
		c-3.5,0-7.1,0-10.6,0c-1.3,0-1.9,0.7-2,2C49.6,111.5,49.6,113.3,49.6,115.1z M36.8,122.3c1.8,0,3.5,0,5.3,0c1.5,0,2.1-0.6,2.1-2.1
		c0-3.5,0-6.9,0-10.4c0-1.5-0.6-2.1-2.1-2.1c-3.5,0-7,0-10.5,0c-1.4,0-2,0.6-2,2c0,3.5,0,7,0,10.5c0,1.5,0.6,2,2.1,2
		C33.5,122.4,35.2,122.3,36.8,122.3z M29.7,96.5c0,1.8,0,3.6,0,5.4c0,1.3,0.6,1.9,1.9,2c3.6,0,7.2,0,10.8,0c1.3,0,1.9-0.6,1.9-1.9
		c0-3.6,0-7.1,0-10.7c0-1.3-0.7-1.9-1.9-1.9c-3.6,0-7.1,0-10.7,0c-1.3,0-1.9,0.6-1.9,2C29.6,93,29.7,94.7,29.7,96.5z M56.9,103.8
		c1.7,0,3.5,0,5.2,0c1.5,0,2.1-0.6,2.1-2.1c0-3.5,0-6.9,0-10.4c0-1.5-0.6-2.1-2.1-2.1c-3.5,0-7,0-10.5,0c-1.4,0-2,0.6-2,2
		c0,3.5,0,7,0,10.5c0,1.5,0.6,2,2.1,2C53.4,103.9,55.1,103.8,56.9,103.8z"/>
	<path class="st0" d="M80.6,146.5c-2.4,0-4.7,0-7.1,0c0-8.4,0-16.8,0-25.3c1.4,0,2.7,0,4.1,0c1.4,0,2.9,0,4.3,0c1.3,0,2-0.7,2-2
		c0-2.8,0-5.6,0-8.4c0-1.3-0.6-1.9-2-1.9c-2.8,0-5.5,0-8.4,0c0-1,0-1.9,0-2.9c0.7,0,1.5,0,2.2,0c2.1,0,4.1,0,6.2,0c1.3,0,2-0.7,2-2
		c0-2.8,0-5.6,0-8.4c0-1.3-0.6-2-2-2c-2.8,0-5.5,0-8.4,0c0-1,0-1.9,0-2.9c0.6,0,1.1,0,1.7,0c2.2,0,4.4,0,6.5,0
		c1.5,0,2.1-0.6,2.1-2.1c0-2.8,0-5.6,0-8.4c0-1.4-0.6-2-2.1-2.1c-2.7,0-5.4,0-8.3,0c0-1,0-1.9,0-2.9c1.1,0,2.3,0,3.4,0
		c1.7,0,3.4,0,5.1,0c1.2,0,1.9-0.7,1.9-1.9c0-2.9,0-5.7,0-8.6c0-1.2-0.7-1.9-2-1.9c-2.4,0-4.9,0-7.3,0c-0.4,0-0.7,0-1.1,0
		c0-1.5,0-2.8,0-4.2c14.7,0,29.3,0,44,0c0,1.4,0,2.7,0,4.2c-1.6,0-3.2,0-4.9,0c-1.3,0-2.5,0-3.8,0c-1.1,0-1.7,0.6-1.8,1.7
		c0,2.9,0,5.9,0,8.8c0,1.2,0.7,1.8,1.9,1.8c2.4,0,4.8,0,7.2,0c0.4,0,0.8,0,1.3,0c0,1,0,1.9,0,2.9c-2.7,0-5.3,0-8,0
		c-1.9,0-2.4,0.5-2.4,2.4c0,2.6,0,5.2,0,7.7c0,1.9,0.5,2.4,2.5,2.4c2.6,0,5.2,0,7.9,0c0,1,0,1.9,0,2.9c-1,0-2,0-3.1,0
		c-1.8,0-3.6,0-5.4,0c-1.2,0-1.9,0.6-1.9,1.8c0,2.9,0,5.7,0,8.6c0,1.3,0.7,1.9,2,1.9c2.4,0,4.7,0,7.1,0c0.4,0,0.8,0,1.3,0
		c0,1,0,1.9,0,2.9c-2.7,0-5.3,0-7.9,0c-2.1,0-2.5,0.4-2.5,2.5c0,2.6,0,5.2,0,7.8c0,1.6,0.6,2.1,2.1,2.1c2.7,0,5.5,0,8.3,0
		c0,8.4,0,16.7,0,25.1c-2.4,0-4.8,0-7.3,0c0-0.5,0-0.9,0-1.4c0-5.7,0-11.4,0-17.1c0-2-0.5-2.5-2.6-2.5c-8.2,0-16.4,0-24.6,0
		c-1.9,0-2.4,0.5-2.4,2.4c0,5.8,0,11.6,0,17.3C80.6,145.6,80.6,146,80.6,146.5z M95.4,78.1c-2.3,0-4.6,0-6.9,0c-1.3,0-2,0.7-2,2
		c0,2.9,0,5.7,0,8.6c0,1.2,0.8,2,1.9,2c4.5,0,9.1,0,13.6,0c1.4,0,2-0.6,2-2.1c0-2.8,0-5.6,0-8.4c0-1.5-0.6-2.1-2.1-2.1
		C99.9,78.1,97.7,78.1,95.4,78.1z M95.4,93.6C95.4,93.6,95.4,93.6,95.4,93.6c-2.3,0-4.6,0-6.9,0c-1.2,0-1.9,0.7-1.9,1.9
		c0,2.8,0,5.7,0,8.5c0,1.2,0.8,2,1.9,2c4.5,0,9,0,13.5,0c1.5,0,2.1-0.6,2.1-2.1c0-2.8,0-5.5,0-8.3c0-1.4-0.6-2-2-2
		C99.9,93.6,97.6,93.6,95.4,93.6z M95.3,108.8c-2.2,0-4.4,0-6.5,0c-1.5,0-2.1,0.6-2.1,2.1c0,2.7,0,5.4,0,8.1c0,1.5,0.6,2.1,2.2,2.1
		c4.4,0,8.8,0,13.2,0c1.6,0,2.2-0.6,2.2-2.1c0-2.7,0-5.4,0-8.2c0-1.5-0.6-2.1-2.1-2.1C99.8,108.8,97.6,108.8,95.3,108.8z M95.4,75.2
		c2.2,0,4.4,0,6.6,0c1.5,0,2.1-0.6,2.1-2.2c0-2.7,0-5.4,0-8.1c0-1.6-0.6-2.1-2.1-2.1c-4.4,0-8.8,0-13.2,0c-1.6,0-2.2,0.6-2.2,2.2
		c0,2.7,0,5.3,0,8c0,1.6,0.6,2.2,2.2,2.2C91.1,75.2,93.2,75.2,95.4,75.2z"/>
	<path class="st0" d="M84.2,146.4c0-5.8,0-11.6,0-17.4c3.2,0,6.3,0,9.5,0c0,5.8,0,11.5,0,17.4C90.5,146.4,87.4,146.4,84.2,146.4z"/>
	<path class="st0" d="M97.2,146.5c0-5.8,0-11.6,0-17.5c3.1,0,6.3,0,9.5,0c0,5.8,0,11.6,0,17.5C103.6,146.5,100.5,146.5,97.2,146.5z"
		/>
	<path class="st0" d="M84.2,55.1c0-1.8,0-3.6,0-5.5c7.5,0,15,0,22.6,0c0,1.9,0,3.6,0,5.5C99.2,55.1,91.8,55.1,84.2,55.1z"/>
	<path class="st0" d="M110.6,112.3c2.3,0,4.6,0,6.9,0c0,1.8,0,3.6,0,5.5c-2.3,0-4.6,0-6.9,0C110.6,116,110.6,114.2,110.6,112.3z"/>
	<path class="st0" d="M110.6,81.6c2.3,0,4.6,0,6.9,0c0,1.8,0,3.6,0,5.5c-2.3,0-4.6,0-6.9,0C110.6,85.3,110.6,83.5,110.6,81.6z"/>
	<path class="st0" d="M110.6,102.4c0-1.8,0-3.5,0-5.4c2.3,0,4.6,0,6.9,0c0,1.8,0,3.5,0,5.4C115.2,102.4,112.9,102.4,110.6,102.4z"/>
	<path class="st0" d="M110.6,71.7c0-1.8,0-3.5,0-5.3c2.3,0,4.6,0,6.9,0c0,1.8,0,3.5,0,5.3C115.2,71.7,112.9,71.7,110.6,71.7z"/>
	<path class="st0" d="M80.4,66.4c0,1.8,0,3.5,0,5.3c-2.3,0-4.5,0-6.9,0c0-1.8,0-3.5,0-5.3C75.8,66.4,78.1,66.4,80.4,66.4z"/>
	<path class="st0" d="M73.5,117.6c0-1.8,0-3.5,0-5.3c2.3,0,4.5,0,6.9,0c0,1.8,0,3.5,0,5.3C78.1,117.6,75.8,117.6,73.5,117.6z"/>
	<path class="st0" d="M80.4,81.6c0,1.8,0,3.6,0,5.5c-2.3,0-4.5,0-6.9,0c0-1.8,0-3.6,0-5.5C75.8,81.6,78.1,81.6,80.4,81.6z"/>
	<path class="st0" d="M73.5,102.4c0-1.8,0-3.6,0-5.4c2.3,0,4.5,0,6.9,0c0,1.8,0,3.5,0,5.4C78.1,102.4,75.9,102.4,73.5,102.4z"/>
	<path class="st1" d="M29.7,133.5c0-1.7,0-3.5,0-5.2c0-1.4,0.6-2,2-2c3.5,0,7,0,10.5,0c1.4,0,2.1,0.6,2.1,2c0,3.5,0,7.1,0,10.6
		c0,1.3-0.7,2-2,2c-3.5,0-7.1,0-10.6,0c-1.3,0-2-0.6-2-2C29.6,137.1,29.7,135.3,29.7,133.5z M33.1,137.3c2.6,0,5.1,0,7.6,0
		c0-2.6,0-5.1,0-7.5c-2.6,0-5.1,0-7.6,0C33.1,132.4,33.1,134.8,33.1,137.3z"/>
	<path class="st1" d="M49.6,133.5c0-1.8,0-3.5,0-5.3c0-1.3,0.6-1.9,1.9-1.9c3.6,0,7.2,0,10.7,0c1.3,0,2,0.7,2,2c0,3.5,0,7.1,0,10.6
		c0,1.3-0.7,2-2,2c-3.5,0-7.1,0-10.6,0c-1.4,0-2-0.6-2-2.1C49.6,137.1,49.6,135.3,49.6,133.5z M60.6,129.9c-2.6,0-5.1,0-7.6,0
		c0,2.6,0,5,0,7.5c2.6,0,5,0,7.6,0C60.6,134.8,60.6,132.4,60.6,129.9z"/>
	<path class="st1" d="M49.6,115.1c0-1.8,0-3.5,0-5.3c0-1.3,0.6-2,2-2c3.5,0,7.1,0,10.6,0c1.4,0,2,0.7,2,2.1c0,3.5,0,7,0,10.5
		c0,1.4-0.6,2-2,2c-3.5,0-7,0-10.5,0c-1.5,0-2-0.6-2-2.1C49.6,118.5,49.6,116.8,49.6,115.1z M60.7,111.3c-2.6,0-5.1,0-7.6,0
		c0,2.6,0,5.1,0,7.6c2.6,0,5.1,0,7.6,0C60.7,116.3,60.7,113.9,60.7,111.3z"/>
	<path class="st1" d="M36.8,122.3c-1.7,0-3.4,0-5.1,0c-1.5,0-2.1-0.6-2.1-2c0-3.5,0-7,0-10.5c0-1.4,0.6-2,2-2c3.5,0,7,0,10.5,0
		c1.4,0,2.1,0.7,2.1,2.1c0,3.5,0,6.9,0,10.4c0,1.5-0.6,2.1-2.1,2.1C40.4,122.4,38.6,122.3,36.8,122.3z M33.1,111.3
		c0,2.6,0,5.1,0,7.6c2.6,0,5.1,0,7.6,0c0-2.6,0-5.1,0-7.6C38.1,111.3,35.7,111.3,33.1,111.3z"/>
	<path class="st1" d="M29.7,96.5c0-1.7,0-3.5,0-5.2c0-1.4,0.6-2,1.9-2c3.6,0,7.1,0,10.7,0c1.3,0,1.9,0.7,1.9,1.9c0,3.6,0,7.1,0,10.7
		c0,1.3-0.6,1.9-1.9,1.9c-3.6,0-7.2,0-10.8,0c-1.3,0-1.8-0.6-1.9-2C29.6,100.1,29.7,98.3,29.7,96.5z M40.7,100.4c0-2.6,0-5.1,0-7.6
		c-2.6,0-5.1,0-7.6,0c0,2.6,0,5.1,0,7.6C35.7,100.4,38.1,100.4,40.7,100.4z"/>
	<path class="st1" d="M56.9,103.8c-1.7,0-3.5,0-5.2,0c-1.5,0-2.1-0.6-2.1-2c0-3.5,0-7,0-10.5c0-1.4,0.6-2,2-2c3.5,0,7,0,10.5,0
		c1.5,0,2.1,0.6,2.1,2.1c0,3.5,0,6.9,0,10.4c0,1.5-0.6,2.1-2.1,2.1C60.3,103.9,58.6,103.8,56.9,103.8z M53,100.4c2.6,0,5.1,0,7.6,0
		c0-2.6,0-5.1,0-7.6c-2.6,0-5.1,0-7.6,0C53,95.3,53,97.8,53,100.4z"/>
	<path class="st1" d="M95.4,78.1c2.2,0,4.4,0,6.6,0c1.5,0,2.1,0.6,2.1,2.1c0,2.8,0,5.6,0,8.4c0,1.4-0.6,2-2,2.1c-4.5,0-9.1,0-13.6,0
		c-1.2,0-1.9-0.8-1.9-2c0-2.9,0-5.7,0-8.6c0-1.3,0.7-2,2-2C90.9,78.1,93.2,78.1,95.4,78.1z M90.2,81.6c0,1.9,0,3.7,0,5.5
		c3.6,0,7,0,10.5,0c0-1.9,0-3.7,0-5.5C97.2,81.6,93.7,81.6,90.2,81.6z"/>
	<path class="st1" d="M95.4,93.6c2.3,0,4.5,0,6.8,0c1.4,0,2,0.6,2,2c0,2.8,0,5.5,0,8.3c0,1.5-0.6,2-2.1,2.1c-4.5,0-9,0-13.5,0
		c-1.2,0-1.9-0.8-1.9-2c0-2.8,0-5.7,0-8.5c0-1.2,0.7-1.9,1.9-1.9C90.8,93.5,93.1,93.6,95.4,93.6C95.4,93.6,95.4,93.6,95.4,93.6z
		 M100.7,102.4c0-1.8,0-3.6,0-5.4c-3.5,0-7,0-10.5,0c0,1.8,0,3.6,0,5.4C93.8,102.4,97.2,102.4,100.7,102.4z"/>
	<path class="st1" d="M95.3,108.8c2.2,0,4.5,0,6.7,0c1.5,0,2.1,0.6,2.1,2.1c0,2.7,0,5.4,0,8.2c0,1.5-0.6,2.1-2.2,2.1
		c-4.4,0-8.8,0-13.2,0c-1.5,0-2.2-0.6-2.2-2.1c0-2.7,0-5.4,0-8.1c0-1.6,0.6-2.1,2.1-2.1C91,108.8,93.2,108.8,95.3,108.8z
		 M90.2,117.6c3.6,0,7.1,0,10.5,0c0-1.8,0-3.6,0-5.3c-3.6,0-7,0-10.5,0C90.2,114.1,90.2,115.9,90.2,117.6z"/>
	<path class="st1" d="M95.4,75.2c-2.2,0-4.4,0-6.5,0c-1.6,0-2.2-0.6-2.2-2.2c0-2.7,0-5.3,0-8c0-1.6,0.6-2.2,2.2-2.2
		c4.4,0,8.8,0,13.2,0c1.5,0,2.1,0.6,2.1,2.1c0,2.7,0,5.4,0,8.1c0,1.6-0.6,2.1-2.1,2.2C99.8,75.2,97.6,75.2,95.4,75.2z M100.7,66.4
		c-3.6,0-7.1,0-10.5,0c0,1.8,0,3.6,0,5.3c3.5,0,7,0,10.5,0C100.7,69.9,100.7,68.2,100.7,66.4z"/>
	<path class="st0" d="M33.1,137.3c0-2.5,0-4.9,0-7.5c2.5,0,5,0,7.6,0c0,2.4,0,4.9,0,7.5C38.2,137.3,35.7,137.3,33.1,137.3z"/>
	<path class="st0" d="M60.6,129.9c0,2.5,0,5,0,7.5c-2.6,0-5,0-7.6,0c0-2.5,0-5,0-7.5C55.6,129.9,58.1,129.9,60.6,129.9z"/>
	<path class="st0" d="M60.7,111.3c0,2.6,0,5,0,7.6c-2.5,0-5,0-7.6,0c0-2.5,0-5,0-7.6C55.6,111.3,58.1,111.3,60.7,111.3z"/>
	<path class="st0" d="M33.1,111.3c2.5,0,5,0,7.6,0c0,2.5,0,5,0,7.6c-2.5,0-5,0-7.6,0C33.1,116.4,33.1,113.9,33.1,111.3z"/>
	<path class="st0" d="M40.7,100.4c-2.6,0-5,0-7.6,0c0-2.5,0-5,0-7.6c2.5,0,5,0,7.6,0C40.7,95.3,40.7,97.8,40.7,100.4z"/>
	<path class="st0" d="M53,100.4c0-2.6,0-5,0-7.6c2.5,0,5,0,7.6,0c0,2.5,0,5,0,7.6C58.1,100.4,55.6,100.4,53,100.4z"/>
	<path class="st0" d="M90.2,81.6c3.6,0,7,0,10.5,0c0,1.8,0,3.6,0,5.5c-3.5,0-7,0-10.5,0C90.2,85.3,90.2,83.5,90.2,81.6z"/>
	<path class="st0" d="M100.7,102.4c-3.5,0-6.9,0-10.5,0c0-1.8,0-3.5,0-5.4c3.5,0,6.9,0,10.5,0C100.7,98.8,100.7,100.6,100.7,102.4z"
		/>
	<path class="st0" d="M90.2,117.6c0-1.8,0-3.5,0-5.3c3.5,0,7,0,10.5,0c0,1.7,0,3.5,0,5.3C97.2,117.6,93.7,117.6,90.2,117.6z"/>
	<path class="st0" d="M100.7,66.4c0,1.8,0,3.5,0,5.3c-3.5,0-7,0-10.5,0c0-1.7,0-3.5,0-5.3C93.7,66.4,97.1,66.4,100.7,66.4z"/>
</g>
</svg>
