<?xml version="1.0" encoding="utf-8"?>
<!-- Generator: Adobe Illustrator 24.0.1, SVG Export Plug-In . SVG Version: 6.00 Build 0)  -->
<svg version="1.1" id="Layer_1" xmlns="http://www.w3.org/2000/svg" xmlns:xlink="http://www.w3.org/1999/xlink" x="0px" y="0px"
	 viewBox="0 0 141.7 200.4" style="enable-background:new 0 0 141.7 200.4;" xml:space="preserve">
<style type="text/css">
	.st0{fill:#541D1D;}
</style>
<g>
	<path class="st0" d="M14.2,92.7c5.2-9.6,10.3-19.2,15.5-28.8c1.2-2.2,2.4-4.5,3.6-6.7c1.1-2.1,3-2.6,5-1.4c2.6,1.5,5.2,3,7.9,4.5
		c-2.1,1.7-3.6,3.7-4.6,6.1c-2.4,5.8-0.9,12.5,3.7,16.7c4.7,4.3,11.5,5.2,17.1,2.2c6.5-3.6,12.9-7.3,19.3-11.1
		c0.7-0.4,1.2-0.5,1.9,0c12.8,7.4,25.5,14.7,38.3,22.1c2.9,1.7,4.3,4.1,4,7.4c-0.3,3-2.4,5.6-5.4,6.3c-1.4,0.3-2.8,0.2-4.1,0.3
		c0.6,0.4,1.5,0.9,2.3,1.4c2.7,1.7,4,4.7,3.4,7.8c-0.5,2.9-2.9,5.2-5.9,5.8c-1.8,0.4-3.6,0-5.2-0.9c-0.7-0.4-1.4-0.8-2.2-1.1
		c0.2,0.2,0.3,0.4,0.5,0.6c2.3,2.8,2.3,6.8,0,9.6c-2.2,2.7-6.1,3.5-9.3,1.8c-1.5-0.8-2.9-1.7-4.4-2.4c1.7,2,2.6,4.2,2.1,6.8
		c-0.9,4.9-6.1,7.6-10.6,5.4c-0.4-0.2-0.8-0.5-1.3-0.7c-2.6-1.5-5.3-3.1-8-4.6c0.2-0.4,0.3-0.7,0.5-1c1.2-2,2.3-4,3.5-6
		c4.6-8.2,0.8-17.9-8.2-20.8c-0.4-0.1-0.8-0.6-0.9-1c-1.4-5.1-4.6-8.5-9.7-10.2c-0.7-0.2-1-0.5-1.1-1.2c-2-7.8-9.9-12.3-17.7-10.1
		c-0.6,0.2-1,0.1-1.4-0.4c-6.7-6.2-17.1-4.8-21.8,3c-1.1,1.7-2,3.5-3.1,5.3c-1.5-0.6-2.7-1.4-3.4-2.9C14.2,93.9,14.2,93.3,14.2,92.7
		z"/>
	<path class="st0" d="M127.6,88.7c-1.4,2.4-1.4,2.4-3.9,1c-12.4-7.1-24.8-14.3-37.1-21.4c-2.7-1.6-5.2-1.6-7.9,0
		c-6.3,3.7-12.6,7.3-19,10.9c-4,2.3-8.8,1.2-11.2-2.5c-2.5-3.8-1.6-9.1,2.4-11.4c6.3-3.8,12.7-7.4,19.2-11c3.1-1.7,6.4-1.7,9.6-0.5
		c3.3,1.2,6.5,2.4,9.7,3.6c0.7,0.3,1.3,0.2,2-0.2c3.5-2.1,7.1-4.1,10.6-6.1c2.3-1.3,4-0.9,5.4,1.4c6.5,11.1,13,22.1,19.5,33.2
		c0.3,0.4,0.5,0.9,0.8,1.3C127.6,87.6,127.6,88.2,127.6,88.7z"/>
	<path class="st0" d="M40.2,101.3c0.4-0.6,0.7-1.2,1.1-1.9c2.3-3.9,6.7-5.1,10.4-3c3.7,2.1,4.8,6.6,2.6,10.5
		c-0.4,0.7-0.8,1.3-1.3,2.2c4.1-2.9,7.5-3.1,10.5-0.6c1.8,1.5,2.7,3.5,2.7,5.8c0,2.3-1.3,4.1-2.3,6c1.4-1.1,2.9-2,4.7-2.2
		c2.8-0.3,5.2,0.7,6.9,3c1.7,2.3,2.1,4.9,0.8,7.4c-2,3.9-4.3,7.7-6.6,11.5c-1.9,2.9-5.8,3.8-9,2.4c-3.2-1.4-5-4.9-4.3-8.4
		c0.1-0.3,0.1-0.6,0.2-1.1c-3,2.9-6.2,3.6-9.8,1.6c-3-1.7-4-4.6-3.2-9c-2.9,2.8-6.2,3.6-9.8,1.5c-3-1.7-4-4.7-3.1-9.2
		c-1.6,1.8-3.5,2.8-5.9,2.8c-5.5,0-9.3-5.8-6.7-10.7c2.7-5,5.6-10,8.6-14.8c1.8-3,5.7-4.1,9-2.7c3.2,1.3,5.1,4.7,4.5,8.1
		c0,0.2-0.1,0.5-0.1,0.7C40.1,101.2,40.2,101.3,40.2,101.3z"/>
</g>
</svg>
