<?xml version="1.0" encoding="utf-8"?>
<!-- Generator: Adobe Illustrator 24.0.1, SVG Export Plug-In . SVG Version: 6.00 Build 0)  -->
<svg version="1.1" id="Layer_1" xmlns="http://www.w3.org/2000/svg" xmlns:xlink="http://www.w3.org/1999/xlink" x="0px" y="0px"
	 viewBox="0 0 141.7 200.4" style="enable-background:new 0 0 141.7 200.4;" xml:space="preserve">
<style type="text/css">
	.st0{fill:#541D1D;}
</style>
<g>
	<path class="st0" d="M115.5,97.8c0,21.8-15.7,40.4-37.3,44c-0.3,0-0.6,0.2-0.9,0.2c-1.1,0-1.8,0.4-2.4,1.5c-1,1.9-3.4,2.7-5.5,2.1
		c-2.1-0.6-3.6-2.5-3.7-4.7c0-2.1,1.3-4.1,3.3-4.8c2.1-0.7,4.4,0,5.7,1.8c0.5,0.7,0.9,1,1.8,0.8c17.5-2.4,31.7-16.1,34.8-33.5
		c3.7-21.3-9.2-41.5-30.1-47.1C81,58.1,80.7,58,80.5,58c-1-0.3-1.5-1.1-1.3-2c0.2-1,1.1-1.5,2.1-1.2c3.1,1.1,6.4,1.9,9.3,3.4
		c14.1,7.2,22.2,18.8,24.5,34.5C115.3,94.4,115.3,96.1,115.5,97.8z"/>
	<path class="st0" d="M26.2,98.1c0.1-20.6,14.2-38.5,34.3-43.3c0.9-0.2,1.9-0.4,2.8-0.6c1.6-0.2,2.8-0.5,3.8-2.1
		c1.5-2.4,5.1-2.5,7.2-0.5c2.1,2,1.9,5.4-0.3,7.3c-2.2,1.9-5.6,1.5-7.2-0.9c-0.5-0.7-0.9-0.9-1.7-0.8c-17.1,2.4-31,15.3-34.6,32
		c-4.6,21.8,8.4,42.9,30,48.6c1.7,0.4,2.3,1.1,2,2.2c-0.3,1.1-1.2,1.5-2.8,1c-18.3-5.4-29.2-17.5-32.9-36.1
		C26.4,102.7,26.4,100.4,26.2,98.1z"/>
	<path class="st0" d="M54.7,96.2c0.7-4.8,1.3-9.4,1.9-14c4.3,0,8.3,0,12.4,0c0,4.6,0,9.3,0,14C64.4,96.2,59.7,96.2,54.7,96.2z"/>
	<path class="st0" d="M85.1,82.2c0.6,4.6,1.3,9.3,1.9,14c-5,0-9.6,0-14.3,0c0-4.6,0-9.3,0-14C76.7,82.2,80.7,82.2,85.1,82.2z"/>
	<path class="st0" d="M69,113.9c-3.9,0-7.7,0-11.6,0c-0.2,0-0.6-0.3-0.7-0.5c-1.1-4.4-1.7-8.9-1.8-13.6c4.7,0,9.3,0,14,0
		C69,104.5,69,109.1,69,113.9z"/>
	<path class="st0" d="M87,99.9c-0.7,4.8-1.3,9.4-1.9,14c-4.3,0-8.3,0-12.4,0c0-4.6,0-9.3,0-14C77.3,99.9,82,99.9,87,99.9z"/>
	<path class="st0" d="M37.3,96.2c0.2-4.8,1.5-9.3,3.6-13.5c0.1-0.3,0.5-0.5,0.8-0.6c3.8,0,7.5,0,11.2,0c-0.6,4.7-1.2,9.3-1.8,14.1
		C46.7,96.2,42.1,96.2,37.3,96.2z"/>
	<path class="st0" d="M88.8,82.1c3.7,0,7.5,0,11.3,0c0.2,0,0.6,0.2,0.7,0.4c2.2,4.3,3.5,8.8,3.7,13.7c-4.7,0-9.3,0-13.8,0
		C90,91.5,89.4,86.8,88.8,82.1z"/>
	<path class="st0" d="M37.3,99.8c4.7,0,9.3,0,13.8,0c0.6,4.7,1.2,9.4,1.8,14.1c-0.9,0-2,0-3,0c-2.6,0-5.2,0-7.9,0
		c-0.4,0-0.9-0.3-1.1-0.6C38.8,109.1,37.5,104.7,37.3,99.8z"/>
	<path class="st0" d="M90.6,99.8c4.5,0,9.1,0,13.8,0c-0.2,4.9-1.5,9.4-3.7,13.7c-0.1,0.2-0.4,0.4-0.7,0.4c-3.8,0-7.6,0-11.3,0
		C89.4,109.2,90,104.6,90.6,99.8z"/>
	<path class="st0" d="M69.1,78.5c-3.8,0-7.4,0-11,0c1-5.8,6.8-13.1,10.9-13.8c0,0.2,0,0.4,0,0.6C69.1,69.7,69.1,74.1,69.1,78.5z"/>
	<path class="st0" d="M72.7,78.5c0-4.6,0-9.2,0-13.8c1.8,0.4,3.2,1.3,4.4,2.5c3.3,3.1,5.1,7,6.6,11.3C80,78.5,76.4,78.5,72.7,78.5z"
		/>
	<path class="st0" d="M69.1,117.5c0,4.6,0,9.1,0,13.9c-1-0.5-1.9-0.8-2.7-1.3c-2-1.2-3.6-3-4.7-5c-1.4-2.4-2.6-4.9-3.9-7.6
		C61.7,117.5,65.3,117.5,69.1,117.5z"/>
	<path class="st0" d="M72.7,131.3c0-4.6,0-9.1,0-13.7c3.7,0,7.3,0,10.9,0C82.9,122.9,76.9,130.5,72.7,131.3z"/>
	<path class="st0" d="M43.5,78.5c4.5-6.1,10.1-10.2,17.2-12.4c-2.9,3.8-5.1,7.9-6.5,12.4C50.7,78.5,47.2,78.5,43.5,78.5z"/>
	<path class="st0" d="M98.2,78.5c-3.7,0-7.2,0-10.7,0C86.1,74,84,69.8,81,66.1C88.1,68.3,93.7,72.4,98.2,78.5z"/>
	<path class="st0" d="M43.5,117.5c3.7,0,7.2,0,10.7,0c1.4,4.6,3.5,8.7,6.5,12.4C53.6,127.7,48,123.6,43.5,117.5z"/>
	<path class="st0" d="M81,129.9c3-3.8,5.1-7.9,6.5-12.4c3.5,0,7,0,10.7,0C93.8,123.6,88.1,127.7,81,129.9z"/>
</g>
</svg>
