<?xml version="1.0" encoding="utf-8"?>
<!-- Generator: Adobe Illustrator 24.0.1, SVG Export Plug-In . SVG Version: 6.00 Build 0)  -->
<svg version="1.1" id="Layer_1" xmlns="http://www.w3.org/2000/svg" xmlns:xlink="http://www.w3.org/1999/xlink" x="0px" y="0px"
	 viewBox="0 0 141.7 200.4" style="enable-background:new 0 0 141.7 200.4;" xml:space="preserve">
<style type="text/css">
	.st0{fill:#541D1D;}
	.st1{fill:#FFFFFF;}
</style>
<g>
	<path class="st0" d="M17,100.1c0-29.7,24.2-53.8,53.9-53.7c29.7,0,53.9,24.1,53.8,53.8c0,29.7-24.2,53.8-53.9,53.7
		C41.1,153.8,17,129.7,17,100.1z M62,108.9c0,0.5,0,0.9,0,1.3c0,5.6,0,11.3,0,16.9c0,1.9,0.8,2.6,2.6,2.6c4.1,0,8.2,0,12.3,0
		c2.1,0,2.8-0.7,2.8-2.8c0-5.6,0-11.2,0-16.8c0-0.4,0-0.8,0-1.2c0.5,0,0.9,0,1.3,0c5.6,0,11.1,0,16.7,0c2.1,0,2.8-0.7,2.8-2.8
		c0-4.1,0-8.1,0-12.2c0-2-0.7-2.7-2.7-2.7c-5.6,0-11.3,0-16.9,0c-0.4,0-0.8,0-1.2,0c0-0.6,0-1,0-1.4c0-5.6,0-11.2,0-16.8
		c0-1.9-0.7-2.7-2.7-2.7c-4.1,0-8.2,0-12.3,0c-2,0-2.7,0.7-2.7,2.7c0,5.6,0,11.3,0,16.9c0,0.4,0,0.8,0,1.2c-1.8,0-3.3,0-4.9,0
		c-4.5,0-8.9,0-13.4,0c-1.6,0-2.5,0.7-2.5,2.1c0,4.5,0,8.9,0,13.4c0,1.2,0.8,2,2.1,2.1c0.5,0,1,0,1.5,0
		C50.5,108.9,56.2,108.9,62,108.9z"/>
	<path class="st1" d="M62,108.9c-5.8,0-11.5,0-17.2,0c-0.5,0-1,0-1.5,0c-1.3-0.1-2.1-0.9-2.1-2.1c0-4.5,0-8.9,0-13.4
		c0-1.4,0.9-2.1,2.5-2.1c4.5,0,8.9,0,13.4,0c1.6,0,3.2,0,4.9,0c0-0.4,0-0.8,0-1.2c0-5.6,0-11.3,0-16.9c0-2,0.7-2.7,2.7-2.7
		c4.1,0,8.2,0,12.3,0c1.9,0,2.7,0.7,2.7,2.7c0,5.6,0,11.2,0,16.8c0,0.4,0,0.8,0,1.4c0.4,0,0.8,0,1.2,0c5.6,0,11.3,0,16.9,0
		c2,0,2.7,0.7,2.7,2.7c0,4.1,0,8.1,0,12.2c0,2.1-0.7,2.8-2.8,2.8c-5.6,0-11.1,0-16.7,0c-0.4,0-0.8,0-1.3,0c0,0.5,0,0.9,0,1.2
		c0,5.6,0,11.2,0,16.8c0,2.1-0.7,2.8-2.8,2.8c-4.1,0-8.2,0-12.3,0c-1.9,0-2.6-0.8-2.6-2.6c0-5.6,0-11.3,0-16.9
		C62,109.9,62,109.5,62,108.9z"/>
</g>
</svg>
