<?xml version="1.0" encoding="utf-8"?>
<!-- Generator: Adobe Illustrator 24.0.1, SVG Export Plug-In . SVG Version: 6.00 Build 0)  -->
<svg version="1.1" id="Layer_1" xmlns="http://www.w3.org/2000/svg" xmlns:xlink="http://www.w3.org/1999/xlink" x="0px" y="0px"
	 viewBox="0 0 141.7 200.4" style="enable-background:new 0 0 141.7 200.4;" xml:space="preserve">
<style type="text/css">
	.st0{fill:#541D1D;}
	.st1{fill:#FFFFFF;}
</style>
<g>
	<path class="st0" d="M72.6,152.1c3.6,1.7,5.1,4.2,4.4,7.3c-0.7,2.7-3.1,4.5-5.9,4.5c-2.7,0-5.2-2-5.7-4.7c-0.5-2.4,0.3-5.6,4.4-7.1
		c0-4.4,0-8.7,0-13.2c-2.9,0-5.7,0-8.7,0c0,0.5,0,1,0,1.4c0,4.8,0,9.7,0,14.5c0,0.9-0.1,1.8-1.2,1.8c-1.2,0-1.4-0.9-1.4-1.8
		c0-4.7,0-9.5,0-14.2c0-0.5,0-1.1,0-1.7c-2.9,0-5.8,0-8.8,0c0,2.5,0,4.9,0,7.4c0,4.2,0.3,4-3.9,4c-1.2,0-2.4,0-3.5,0
		c-1.8,3.7-4.2,5.2-7.2,4.5c-2.7-0.6-4.7-3.1-4.6-5.9c0-2.7,2.1-5.2,4.7-5.7c3.1-0.6,5.6,0.9,7.1,4.4c1.6,0,3.1,0,4.8,0
		c0-2.9,0-5.7,0-8.8c-1.3,0-2.6,0-3.9,0c-1.4,0-2.7,0-4.1,0c-3.8-0.1-6.4-2.6-6.5-6.4c0-2.7,0-5.3,0-8.1c-2.9,0-5.8,0-8.7,0
		c0,1.6,0,3.2,0,4.8c3.5,1.6,5.1,4.1,4.4,7.2c-0.6,2.7-3.1,4.7-5.9,4.6c-2.8-0.1-5.2-2-5.7-4.7c-0.6-3.1,0.9-5.6,4.5-7.1
		c0-1.3,0-2.6,0-3.9c-0.1-3.8,0-3.6,3.7-3.6c2.6,0,5.1,0,7.7,0c0-3,0-5.8,0-8.8c-0.5,0-0.9-0.1-1.4-0.1c-4.7,0-9.4,0-14.1,0
		c-0.4,0-0.9,0.1-1.2-0.1c-0.5-0.3-1.1-0.9-1-1.3c0.1-0.5,0.7-1.1,1.2-1.2c0.8-0.2,1.8-0.1,2.6-0.1c4.6,0,9.1,0,13.8,0
		c0-2.9,0-5.8,0-8.7c-4.4,0-8.7,0-13.1,0c-1.7,3.6-4.1,5.1-7.2,4.4c-2.7-0.6-4.7-3.1-4.6-5.9c0-2.7,2.1-5.2,4.7-5.7
		c3.1-0.6,5.5,0.9,7.1,4.5c4.3,0,8.7,0,13.1,0c0-2.9,0-5.7,0-8.7c-0.5,0-0.9,0-1.4,0c-4.8,0-9.7,0-14.5,0c-0.5,0-1.2-0.2-1.5-0.5
		c-0.2-0.2-0.3-1.1-0.1-1.3c0.4-0.4,1-0.7,1.5-0.7c4.4-0.1,8.8,0,13.2,0c0.9,0,1.8,0,2.8,0c0-3,0-5.8,0-8.8c-3,0-5.9,0-8.9,0
		c-2.3,0-2.5-0.2-2.5-2.5c0-1.6,0-3.2,0-4.8c0-0.1,0-0.2-0.1-0.3c-3.5-1.6-5-4-4.4-7.1c0.5-2.7,3-4.7,5.8-4.7c2.7,0,5.2,2,5.8,4.6
		c0.7,3.1-0.8,5.6-4.4,7.2c0,1.6,0,3.1,0,4.8c2.9,0,5.7,0,8.8,0c0-1.9,0-3.8,0-5.7c0-0.9,0-1.8,0-2.7c0.1-3.6,2.7-6.1,6.3-6.2
		c2.7,0,5.4,0,8.2,0c0-2.9,0-5.8,0-8.7c-1.6,0-3.2,0-4.8,0c-1.6,3.5-4,5-7.1,4.4c-2.7-0.5-4.7-3-4.7-5.8c0-2.7,1.9-5.2,4.6-5.8
		c3.1-0.7,5.6,0.9,7.2,4.5c1.8,0,3.7,0,5.5,0c1.6,0,2,0.4,2,1.9c0,3.1,0,6.2,0,9.4c2.9,0,5.8,0,8.8,0c0-0.4,0.1-0.9,0.1-1.4
		c0-4.7,0-9.3,0-14c0-0.4-0.1-0.9,0.1-1.2c0.3-0.5,0.9-1.1,1.3-1.1c0.4,0,1.1,0.7,1.2,1.2c0.2,1,0.1,2,0.1,3c0,4.4,0,8.8,0,13.4
		c2.9,0,5.8,0,8.7,0c0-4.4,0-8.7,0-13.1c-3.6-1.6-5.1-4.1-4.4-7.2c0.6-2.7,3-4.6,5.8-4.6c2.8,0,5.3,2,5.8,4.7
		c0.6,3.1-0.9,5.5-4.4,7.1c0,4.4,0,8.7,0,13.2c2.9,0,5.7,0,8.7,0c0-0.5,0-1,0-1.5c0-4.8,0-9.7,0-14.5c0-0.9,0.1-1.8,1.2-1.8
		c1.2,0,1.4,0.9,1.4,1.8c0,4.8,0,9.6,0,14.4c0,0.5,0,1,0,1.5c3,0,5.8,0,8.8,0c0-2.6,0-5.3,0-7.9c0-3.4,0-3.4,3.4-3.4
		c1.4,0,2.7,0,4.1,0c1.8-3.7,4.3-5.2,7.4-4.5c2.6,0.7,4.6,3.2,4.5,5.9c-0.1,2.8-2.1,5.2-4.7,5.7c-3.1,0.6-5.6-0.9-7.1-4.4
		c-1.6,0-3.1,0-4.9,0c0,1.5,0,2.9,0,4.3c0,1.4,0,2.8,0,4.4c1.3,0,2.6,0,3.9,0c1.5,0,2.9,0,4.4,0c3.7,0.1,6.3,2.6,6.4,6.3
		c0.1,2.7,0,5.4,0,8.3c1.5,0,2.9,0,4.4,0c1.4,0,2.8,0,4.4,0c0-1.7,0-3.3,0-4.9c-3.6-1.7-5.1-4.3-4.3-7.3c0.7-2.7,3.1-4.5,5.9-4.5
		c2.8,0,5.3,2.1,5.7,4.8c0.5,3.1-1,5.5-4.5,7c0,1.9,0,3.8,0,5.7c0,1.5-0.4,1.9-1.9,1.9c-3.1,0-6.3,0-9.5,0c0,3,0,5.8,0,8.8
		c1.3,0,2.5,0,3.8,0c3.9,0,7.9,0,11.8,0c0.4,0,0.9-0.1,1.2,0.1c0.4,0.3,0.9,0.9,0.9,1.4c0,0.4-0.6,0.8-1.1,1.1
		c-0.3,0.2-0.8,0.1-1.2,0.1c-4.7,0-9.3,0-14,0c-0.5,0-0.9,0-1.5,0c0,3,0,5.8,0,8.7c4.4,0,8.8,0,13.1,0c1.8-3.7,4.2-5.1,7.3-4.4
		c2.7,0.7,4.5,3.1,4.5,5.9c0,2.7-2,5.2-4.7,5.7c-3.1,0.6-5.6-0.9-7.1-4.4c-4.4,0-8.7,0-13.2,0c0,2.9,0,5.7,0,8.7c0.5,0,1,0,1.4,0
		c4.8,0,9.7,0,14.5,0c0.9,0,1.8,0.1,1.8,1.2c0,1.2-0.9,1.4-1.8,1.4c-4.8,0-9.6,0-14.4,0c-0.5,0-1,0-1.5,0c0,2.9,0,5.8,0,8.8
		c2.6,0,5.1,0,7.7,0c3.8,0,3.7-0.3,3.7,3.7c0,1.3,0,2.6,0,3.8c3.7,1.7,5.2,4.2,4.5,7.2c-0.6,2.7-3.1,4.7-5.9,4.6
		c-2.7,0-5.2-2.1-5.7-4.7c-0.6-3.1,0.9-5.6,4.4-7.1c0-1.6,0-3.1,0-4.9c-1.5,0-2.9,0-4.4,0c-1.4,0-2.8,0-4.4,0c0,2.2-0.1,4.2,0,6.3
		c0.4,5.8-2.6,8.8-8.3,8.4c-2-0.2-4.1,0-6.2,0c0,2.9,0,5.8,0,8.7c1.6,0,3.2,0,4.8,0c1.6-3.5,4.1-5.1,7.2-4.4
		c2.7,0.6,4.7,3.1,4.6,5.9c-0.1,2.8-2,5.2-4.7,5.7c-3.1,0.6-5.6-0.9-7.1-4.5c-1.7,0-3.5,0-5.3,0c-2,0-2.3-0.3-2.3-2.3
		c0-2.9,0-5.8,0-8.8c0-0.1-0.1-0.2-0.1-0.3c-2.8,0-5.6,0-8.6,0c0,0.5-0.1,0.9-0.1,1.4c0,4.7,0,9.3,0,14c0,0.3,0,0.6,0,0.9
		c0,0.9-0.4,1.5-1.3,1.5c-0.9,0-1.3-0.6-1.3-1.5c0-4.3,0-8.6,0-12.9c0-1.1,0-2.1,0-3.3c-2.9,0-5.7,0-8.7,0
		C72.6,143.3,72.6,147.7,72.6,152.1z M35,100.1c0,10.6,0,21.2,0,31.8c0,3,1.3,4.4,4.4,4.4c21.2,0,42.3,0,63.5,0
		c3.1,0,4.4-1.3,4.4-4.5c0-21.1,0-42.3,0-63.4c0-3.1-1.3-4.4-4.4-4.4c-21.1,0-42.3,0-63.4,0c-3.2,0-4.5,1.3-4.5,4.5
		C35,79,35,89.6,35,100.1z"/>
	<path class="st1" d="M35,100.1c0-10.5,0-21.1,0-31.6c0-3.2,1.3-4.5,4.5-4.5c21.1,0,42.3,0,63.4,0c3.1,0,4.4,1.3,4.4,4.4
		c0,21.1,0,42.3,0,63.4c0,3.1-1.3,4.5-4.4,4.5c-21.2,0-42.3,0-63.5,0c-3,0-4.4-1.3-4.4-4.4C35,121.3,35,110.7,35,100.1z M99.9,100.2
		c0-8.4,0-16.8,0-25.2c0-2.4-1.2-3.6-3.6-3.6c-14.1,0-28.2,0-42.2,0c-0.9,0-2,0.5-2.7,1.1c-2.6,2.4-5.1,5.1-7.7,7.6
		c-0.9,0.9-1.3,1.8-1.2,3.1c0,13.9,0,27.8,0,41.7c0,2.8,1.1,3.9,4,3.9c16.5,0,32.9,0,49.4,0c2.9,0,4-1.1,4-4
		C99.9,116.6,99.9,108.4,99.9,100.2z"/>
	<path class="st0" d="M99.9,100.2c0,8.2,0,16.4,0,24.6c0,2.9-1.1,4-4,4c-16.5,0-32.9,0-49.4,0c-2.8,0-4-1.1-4-3.9
		c0-13.9,0-27.8,0-41.7c0-1.2,0.4-2.2,1.2-3.1c2.6-2.5,5-5.1,7.7-7.6c0.7-0.6,1.8-1.1,2.7-1.1c14.1-0.1,28.2-0.1,42.2,0
		c2.4,0,3.6,1.2,3.6,3.6C99.9,83.4,99.9,91.8,99.9,100.2z M71,84.8c-1.7-1-3.6-2.3-5.6-3.1C58.4,79,51,82.6,49,89.6
		c-1.2,4.2-0.4,8.2,1.9,11.8c4.7,7.4,10.3,14.1,17.6,19.3c2.7,1.9,2.8,1.9,5.4,0c7.3-5.2,12.9-11.9,17.7-19.4
		c0.8-1.3,1.4-2.8,1.8-4.3c1.2-4.7,0.5-9.1-3.1-12.6c-3.4-3.4-7.7-4.5-12.2-3C75.6,82.1,73.3,83.7,71,84.8z"/>
	<path class="st1" d="M71,84.8c2.3-1.2,4.5-2.7,7-3.5c4.6-1.4,8.8-0.4,12.2,3c3.5,3.5,4.3,7.9,3.1,12.6c-0.4,1.5-1,3-1.8,4.3
		c-4.8,7.5-10.4,14.2-17.7,19.4c-2.7,1.9-2.8,1.9-5.4,0c-7.3-5.1-12.9-11.8-17.6-19.3c-2.3-3.6-3.1-7.6-1.9-11.8
		c2-7,9.5-10.6,16.4-7.9C67.5,82.5,69.3,83.9,71,84.8z M75.3,102.6c0.9-2.6,1.7-5,2.6-7.3c0.2-0.5,0.8-1.2,1.3-1.2
		c0.5,0,1.4,0.5,1.5,1c0.8,2.8,2.8,3.5,5.4,3.2c0.5-0.1,1.1,0,1.6,0c2.4,0,2.4,0,3-2.3c1.8-7.4-4.2-13.6-11.5-11.9
		c-2.6,0.6-4.7,2-6.5,3.9c-1.2,1.2-1.7,1.1-3,0.1c-1.5-1.2-3-2.5-4.8-3.3c-3.8-1.7-7.5-1.2-10.7,1.7c-2.9,2.7-3.7,7.1-2.2,10.9
		c0.1,0.4,0.7,0.7,1.1,0.8c1.3,0.1,2.6-0.1,3.8,0.1c2.1,0.3,3.6-0.2,4.6-2.2c0.8-1.6,2-1.4,2.9,0.1c0.8,1.4,1.5,2.7,2.5,4.3
		c0.9-2.7,1.7-5.1,2.5-7.5c0.3-0.9,0.5-1.8,1.7-1.7c1.1,0.1,1.3,0.9,1.5,1.8C73.5,96,74.3,99.1,75.3,102.6z M71,97.9
		c-0.1,0-0.2,0-0.3,0c-0.7,1.9-1.2,3.9-2,5.8c-0.2,0.6-0.9,1.4-1.4,1.4c-0.5,0-1.3-0.6-1.6-1.2c-1-1.5-1.8-3.2-2.9-5.1
		c-0.7,2.3-2.3,2.2-4,2.1c-1.6-0.1-3.1,0-4.9,0c4.6,6.7,9.6,12.7,16.1,17.3c0.9,0.6,1.5,0.6,2.4,0c6.3-4.6,11.3-10.4,15.7-16.8
		c0.1-0.1,0-0.2,0-0.6c-1.6,0-3.1,0-4.7,0c-1.5,0-3.2,0.4-3.8-2c-0.3,0.7-0.4,1-0.5,1.3c-0.8,2.4-1.6,4.9-2.6,7.2
		c-0.2,0.6-1,1.3-1.5,1.3c-0.5,0-1-0.8-1.4-1.4c-0.2-0.3-0.2-0.8-0.4-1.3C72.5,103.4,71.8,100.6,71,97.9z"/>
	<path class="st0" d="M75.3,102.6c-1-3.5-1.8-6.6-2.7-9.8c-0.2-0.8-0.4-1.7-1.5-1.8c-1.2-0.1-1.4,0.8-1.7,1.7
		c-0.8,2.4-1.6,4.8-2.5,7.5c-0.9-1.6-1.7-3-2.5-4.3c-0.9-1.5-2.1-1.6-2.9-0.1c-1,2.1-2.4,2.6-4.6,2.2c-1.3-0.2-2.6,0-3.8-0.1
		c-0.4,0-1-0.4-1.1-0.8c-1.6-3.8-0.7-8.3,2.2-10.9c3.2-2.9,6.9-3.4,10.7-1.7c1.7,0.8,3.3,2.1,4.8,3.3c1.3,1.1,1.8,1.2,3-0.1
		c1.8-1.9,4-3.3,6.5-3.9c7.3-1.7,13.3,4.5,11.5,11.9c-0.6,2.4-0.6,2.4-3,2.3c-0.5,0-1.1-0.1-1.6,0c-2.6,0.3-4.6-0.3-5.4-3.2
		c-0.1-0.5-1-1-1.5-1c-0.5,0-1.1,0.7-1.3,1.2C77,97.6,76.2,100,75.3,102.6z"/>
	<path class="st0" d="M71,97.9c0.8,2.7,1.5,5.5,2.3,8.2c0.1,0.4,0.1,0.9,0.4,1.3c0.4,0.6,0.9,1.4,1.4,1.4c0.5,0,1.3-0.7,1.5-1.3
		c0.9-2.4,1.7-4.8,2.6-7.2c0.1-0.3,0.2-0.6,0.5-1.3c0.6,2.4,2.3,1.9,3.8,2c1.5,0,3.1,0,4.7,0c0,0.3,0,0.5,0,0.6
		c-4.4,6.4-9.3,12.2-15.7,16.8c-0.9,0.7-1.5,0.6-2.4,0c-6.5-4.6-11.5-10.7-16.1-17.3c1.8,0,3.3-0.1,4.9,0c1.7,0.1,3.3,0.2,4-2.1
		c1,1.9,1.9,3.5,2.9,5.1c0.4,0.5,1.1,1.2,1.6,1.2c0.5,0,1.2-0.8,1.4-1.4c0.8-1.9,1.3-3.9,2-5.8C70.8,97.9,70.9,97.9,71,97.9z"/>
</g>
</svg>
