<?xml version="1.0" encoding="utf-8"?>
<!-- Generator: Adobe Illustrator 24.0.1, SVG Export Plug-In . SVG Version: 6.00 Build 0)  -->
<svg version="1.1" id="Layer_1" xmlns="http://www.w3.org/2000/svg" xmlns:xlink="http://www.w3.org/1999/xlink" x="0px" y="0px"
	 viewBox="0 0 141.7 200.4" style="enable-background:new 0 0 141.7 200.4;" xml:space="preserve">
<style type="text/css">
	.st0{fill:#541D1D;}
	.st1{fill:#FFFFFF;}
</style>
<g>
	<path class="st0" d="M106.4,94.6c0,7.9,0.5,16-2.6,23.7c-5.7,14.3-19.7,23.8-35.1,23.6c-18.5-0.2-33.9-13.7-36.7-32.1
		c-0.2-1.5-0.3-2.9-0.3-4.4c0-3.6,0-7.3,0-11.1c0.5,0.3,0.9,0.5,1.3,0.7c3.9,2.2,8.2,3.3,12.5,4.1c11.5,2.2,23,2.5,34.6,1.6
		c6.6-0.5,13.1-1.3,19.4-3.4C101.8,96.7,104.1,95.6,106.4,94.6z M51.9,121.9c0.4,9.7,8.3,17,17.9,16.6c9.5-0.4,16.7-8.4,16.3-18.1
		c-0.4-9.1-8.5-16.5-17.7-16.1C59,104.7,51.5,112.7,51.9,121.9z"/>
	<path class="st0" d="M71.6,98.9c5.2-13.2,10.4-26,15.5-39c4.4,3.3,9.2,5.8,14.4,7.6c-0.3,0.4-0.5,0.7-0.7,1.1
		c-6.5,9.6-13,19.3-19.5,28.9c-0.5,0.7-1,1.1-1.9,1.1C76.9,98.6,74.4,98.8,71.6,98.9z"/>
	<path class="st0" d="M75.9,81.6c-1.8,4.5-3.4,8.7-5.1,12.9c-0.5,1.3-1,2.5-1.5,3.8c-0.1,0.3-0.6,0.7-0.9,0.7
		c-9.6-0.1-19.1-0.7-28.3-3.4c-2.2-0.6-4.3-1.5-6.3-2.7c-2.8-1.6-2.7-3.3,0-5.1c1.4-0.9,2.4-1.2,4.1-0.1c3.6,2.5,7.7,4.4,12.1,5.1
		c1.4,0.2,2.9,0,4.2-0.4c3.9-1,7.5-2.8,10.9-5c1.9-1.3,3.4-2.9,4.4-5c0.1-0.3,0.6-0.7,0.9-0.7C72.1,81.5,73.9,81.6,75.9,81.6z"/>
	<path class="st0" d="M51.1,67.9c3.2,2.8,6.2,5.8,6.7,10.3c0.1,1.3-0.1,2.8-0.6,4.1c-1.2,3.2-3.5,5.6-6.2,7.8
		c-2.9-2.4-5.4-5-6.5-8.6c-0.7-2.3-0.4-4.5,0.7-6.6C46.6,72.1,48.7,69.9,51.1,67.9z"/>
	<path class="st0" d="M83.7,98.1c1.1-1.7,2.2-3.2,3.2-4.8c2-2.9,3.9-5.9,6-8.8c0.2-0.3,0.8-0.6,1.1-0.5c3.1,1,6.2,1.9,9.2,3
		c0.9,0.3,1.7,1,2.4,1.7c1.1,1,1.1,2.1-0.1,3c-1,0.9-2.2,1.6-3.4,2.2C97.5,96.2,88.6,97.7,83.7,98.1z"/>
	<path class="st0" d="M53.5,149.4c1-1.8,1.9-3.6,2.8-5.3c0.8-1.6,0.8-1.6,2.6-1.2c7.2,1.9,14.3,1.8,21.5-0.3
		c0.2-0.1,0.4-0.1,0.7-0.2c1.2,2.3,2.4,4.5,3.6,6.9C74.2,149.4,63.9,149.4,53.5,149.4z"/>
	<path class="st0" d="M46.5,89.2c-3.8-1.5-7.6-2.9-10.3-6c-2-2.3-2.4-5.2-2.6-8.1c-0.1-1.2,0-2.5,0-3.9c3.6-0.5,6.9-0.2,10.3,1.2
		C40.1,78.7,42.1,84.2,46.5,89.2z"/>
	<path class="st0" d="M55.7,89.2c4.4-5.1,6.5-10.5,2.7-16.8c2.3-1.3,6.9-1.9,10.1-1.2c0.4,3.9,0.2,7.7-1.9,11.1
		c-0.4,0.6-0.8,1.2-1.3,1.6C62.5,86.5,59.2,88,55.7,89.2z"/>
	<path class="st0" d="M87.9,50.8c8.1,1.5,14.9,5.1,21,10.9C105.6,62.9,90.4,55.5,87.9,50.8z"/>
	<path class="st0" d="M86.3,53.2c6.1,5.6,13.1,9.3,21.1,11.2c-0.5,1.7-0.6,1.8-2.4,1.5c-4.5-0.9-8.6-2.8-12.4-5.2
		c-2.1-1.3-4.1-2.9-6-4.5C85.1,55,85.2,54.9,86.3,53.2z"/>
	<path class="st1" d="M51.9,121.9c-0.4-9.2,7.1-17.2,16.5-17.6c9.2-0.4,17.3,7,17.7,16.1c0.4,9.6-6.8,17.6-16.3,18.1
		C60.3,139,52.4,131.6,51.9,121.9z M83.7,121.4c0-8.1-6.6-14.7-14.7-14.7c-8.1,0-14.8,6.6-14.8,14.7c0,8.1,6.7,14.7,14.8,14.7
		C77.2,136.1,83.7,129.5,83.7,121.4z"/>
	<path class="st0" d="M83.7,121.4c0,8.1-6.5,14.7-14.6,14.7c-8.2,0-14.8-6.6-14.8-14.7c0-8.1,6.6-14.7,14.8-14.7
		C77.2,106.7,83.7,113.3,83.7,121.4z M64.5,116.9c-1.5,0-2.8,0-4.1,0c-1.2,0-1.5,0.4-1.6,1.5c0,2,0,4,0,6c0,1.2,0.4,1.6,1.6,1.6
		c1.3,0,2.6,0,4,0c0,1.4,0,2.8,0,4.1c0,1.2,0.4,1.6,1.6,1.6c2,0,3.9,0,5.9,0c1.2,0,1.6-0.4,1.6-1.7c0-1.3,0-2.6,0-4
		c1.5,0,2.8,0,4.1,0c1.2,0,1.6-0.4,1.6-1.6c0-1.9,0-3.8,0-5.7c0-1.3-0.4-1.7-1.7-1.7c-1.3,0-2.6,0-4,0c0-1.5,0-2.8,0-4.1
		c0-1.1-0.4-1.5-1.5-1.5c-2,0-4,0-6,0c-1.2,0-1.5,0.4-1.6,1.6C64.5,114.2,64.5,115.5,64.5,116.9z"/>
	<path class="st1" d="M64.5,116.9c0-1.5,0-2.7,0-4c0-1.2,0.4-1.6,1.6-1.6c2,0,4,0,6,0c1.1,0,1.5,0.4,1.5,1.5c0,1.3,0,2.6,0,4.1
		c1.4,0,2.7,0,4,0c1.3,0,1.7,0.4,1.7,1.7c0,1.9,0,3.8,0,5.7c0,1.2-0.4,1.6-1.6,1.6c-1.3,0-2.6,0-4.1,0c0,1.4,0,2.7,0,4
		c0,1.3-0.4,1.7-1.6,1.7c-2,0-3.9,0-5.9,0c-1.2,0-1.6-0.4-1.6-1.6c0-1.3,0-2.6,0-4.1c-1.4,0-2.7,0-4,0c-1.2,0-1.6-0.4-1.6-1.6
		c0-2,0-4,0-6c0-1.1,0.4-1.5,1.6-1.5C61.7,116.9,63,116.9,64.5,116.9z M76.8,119.3c-1.2,0-2.4,0-3.5,0c-1.9,0-2.1-0.2-2.1-2.2
		c0-1.1,0-2.3,0-3.4c-1.5,0-2.9,0-4.3,0c0,1.3,0,2.5,0,3.7c0,1.6-0.3,1.9-1.9,1.9c-1.2,0-2.5,0-3.8,0c0,1.5,0,2.8,0,4.1
		c0.1,0.1,0.2,0.1,0.3,0.1c1.1,0,2.1,0,3.2,0c1.9,0,2.2,0.2,2.2,2.1c0,1.2,0,2.3,0,3.6c1.3,0,2.4,0,3.5,0c0.2,0,0.4,0,0.8-0.1
		c0-1.3,0-2.6,0-3.9c0-1.4,0.4-1.8,1.8-1.8c1.3,0,2.5,0,3.9,0C76.8,122.1,76.8,120.8,76.8,119.3z"/>
	<path class="st0" d="M76.8,119.3c0,1.5,0,2.8,0,4.3c-1.3,0-2.6,0-3.9,0c-1.4,0-1.8,0.4-1.8,1.8c0,1.3,0,2.6,0,3.9
		c-0.3,0-0.5,0.1-0.8,0.1c-1.1,0-2.3,0-3.5,0c0-1.2,0-2.4,0-3.6c0-1.9-0.2-2.1-2.2-2.1c-1.1,0-2.1,0-3.2,0c-0.1,0-0.1-0.1-0.3-0.1
		c0-1.3,0-2.7,0-4.1c1.3,0,2.5,0,3.8,0c1.5,0,1.8-0.3,1.9-1.9c0-1.2,0-2.4,0-3.7c1.4,0,2.8,0,4.3,0c0,1.2,0,2.3,0,3.4
		c0,2,0.2,2.2,2.1,2.2C74.4,119.3,75.6,119.3,76.8,119.3z"/>
</g>
</svg>
