<?xml version="1.0" encoding="utf-8"?>
<!-- Generator: Adobe Illustrator 24.0.1, SVG Export Plug-In . SVG Version: 6.00 Build 0)  -->
<svg version="1.1" id="Layer_1" xmlns="http://www.w3.org/2000/svg" xmlns:xlink="http://www.w3.org/1999/xlink" x="0px" y="0px"
	 viewBox="0 0 141.7 200.4" style="enable-background:new 0 0 141.7 200.4;" xml:space="preserve">
<style type="text/css">
	.st0{fill:#FFFFFF;}
	.st1{fill:#541D1D;}
</style>
<g>
	<path class="st0" d="M56.2,74.2c3.2,0.1,6.8,1.5,10.3,3.3c1.9,0.9,3.7,2,5.5,3.1c0.7,0.5,1.2,0.4,1.9,0c4.5-2.9,9.1-5.3,14.5-6.2
		c1.4-0.2,2.9-0.3,4.3,0c4.5,0.8,6.7,4.4,5.7,9.4c-0.9,4.8-3.3,8.9-6.2,12.7c-0.9,1.3-0.9,2,0,3.3c2.6,3.5,4.8,7.2,5.9,11.5
		c1.9,7.3-2.4,11.8-9.8,10.5c-5.2-0.9-9.8-3.2-14.1-6c-1-0.6-1.7-0.6-2.7,0c-4.4,2.8-8.9,5.2-14.1,6c-1.3,0.2-2.8,0.3-4.1,0.1
		c-4.6-0.7-6.9-4.5-5.8-9.6c1-4.7,3.4-8.8,6.3-12.6c0.8-1.1,0.8-1.8,0-2.8c-2.8-3.8-5.3-7.8-6.2-12.5c-0.3-1.5-0.3-3.1,0-4.5
		C48.2,76.1,51.1,74.2,56.2,74.2z M86.3,98.3c-4.2-4.9-8.5-8.9-13.4-12.4C68,89.5,63.7,93.5,59.8,98c4,4.6,8.3,8.6,13.4,12.3
		C77.6,106.3,81.9,102.4,86.3,98.3z M76.6,83.5c4.1,3.8,8.1,7.5,12.1,11.2c2.2-2.5,4.8-7.3,5.7-10.4c1.3-4.8-0.6-6.9-5.5-6
		C84.3,79.1,80.4,81.2,76.6,83.5z M76.5,112.7c2.6,1.3,5.1,2.7,7.8,3.7c1.9,0.8,4.1,1.3,6.1,1.4c3.5,0.3,4.9-1.4,4.2-4.8
		c-0.8-4.5-3.3-8.2-5.9-11.7C84.6,105.1,80.7,108.8,76.5,112.7z M57.1,94.7c4.1-3.8,8.1-7.5,12.1-11.2c-3.6-2.2-7.3-4.2-11.6-5.1
		c-1-0.2-2.1-0.3-3.1-0.3c-2.3,0.1-3.4,1.2-3.4,3.6c0,0.5,0,1,0.1,1.5C52.3,87.6,54.6,91.3,57.1,94.7z M57.1,101.3
		c-2.5,3.4-4.8,7-5.7,11.2c-0.9,3.9,0.5,5.6,4.5,5.4c0.4,0,0.8-0.1,1.2-0.1c3.8-0.7,7.2-2.3,10.4-4.2c0.6-0.3,1.2-0.7,1.7-1
		C65.2,108.8,61.2,105.1,57.1,101.3z"/>
	<path class="st0" d="M78.1,98c0,2.9-2.4,5.3-5.3,5.2c-2.9,0-5.1-2.4-5.1-5.2c0-2.9,2.4-5.3,5.3-5.2C75.9,92.8,78.1,95.1,78.1,98z"
		/>
</g>
<g>
	<path class="st1" d="M61.7,146.9c-1.6-4.3-4.5-5.9-8.9-4.9c-2.2-4.6-4.2-5.7-8.9-4.8c-0.1-0.3-0.2-0.6-0.3-0.9
		c-0.9-2.4-2.7-4-5.3-4.3c-2.8-0.3-4.9,0.8-6.4,3.2c-0.6,1-1.2,2.1-1.8,3.2c-2.5-1.4-4.9-2.8-7.2-4.2c-0.3-0.2-0.5-0.9-0.4-1.2
		c3.2-9.1,6.4-18.2,9.7-27.3c0.1-0.3,0.7-0.7,1.1-0.7c9.9,0.9,19.9,0.9,29.7,2.7c0.4,0.1,0.8,0.2,1.4,0.3c-2.3,1.9-4.4,3.6-6.5,5.3
		c-1.9,1.6-3.9,3.1-5.8,4.7c-0.4,0.3-0.9,0.7-1.2,1.1c-3,2.9-2.8,5.5,0.5,7.9c5,3.6,11.3,3.3,16.5-0.7c1.2-0.9,2.4-1.9,3.6-2.8
		c0.8-0.7,1.7-0.8,2.6-0.3c3.4,1.8,6.9,3.5,10.3,5.2c1.5,0.8,3.1,1.1,4.8,1.1c1.2,0,2.5,0.4,3.5,1c3.7,2.2,7.3,4.5,11,6.9
		c0.3,0.2,0.5,0.7,0.5,1.1c-0.1,2.4-2.8,4-5,2.9c-0.3-0.2-0.6-0.5-1-0.5c-0.6,0-1.4,0.1-1.7,0.4c-0.3,0.4-0.1,1.1,0,1.7
		c0.1,0.3,0.4,0.5,0.6,0.7c1.1,1.3,1.2,3.2,0.1,4.6c-1,1.3-2.8,1.7-4.4,1c-0.1-0.1-0.2-0.1-0.4-0.2c-0.8-0.5-1.6-0.8-2.3,0.1
		c-0.6,0.8-0.2,1.5,0.4,2.2c0.5,0.5,0.9,1.2,1,1.9c0.3,1.4-0.1,2.7-1.3,3.5c-1.2,0.9-2.5,1-3.9,0.3c-0.2-0.1-0.4-0.2-0.6-0.4
		c-0.8-0.4-1.6-0.3-1.9,0.4c-0.2,0.5-0.1,1.5,0.2,1.8c1.4,1.4,1.3,2.9,0.8,4.6c-0.4,1.3-1.2,1.9-2.6,1.8c-0.6-0.1-1.3-0.1-1.9-0.4
		c-4.2-1.9-8.3-3.8-12.6-5.8c0.6-1,1.1-2,1.6-2.9c1.4-2.5,1.3-5-0.5-7.2c-1.7-2.3-4.1-3-6.9-2.3C62,146.9,61.9,146.9,61.7,146.9z"/>
	<path class="st1" d="M94,108.7c-4.8-2-9.5-3.7-14-5.9c-4.1-2-7.6-1.7-10.8,1.5c-1.2,1.2-2.4,1.3-4.1,1c-5.9-0.9-11.9-1.5-17.8-2.2
		c-0.3,0-0.5-0.1-0.9-0.1c-0.1-0.2-0.1-0.4-0.1-0.5c0-5.8-0.2-11.7,0.1-17.5C47,73,56.9,63.4,68.8,62.7c12.1-0.6,22.9,7.9,24.9,19.8
		c0.2,1.4,0.4,2.9,0.4,4.4c0,6.9,0,13.7,0,20.6C94.1,107.8,94,108.1,94,108.7z"/>
	<path class="st1" d="M117.7,132.5c-2,0.8-3.7,1.6-5.5,2.4c-2.9,1.2-5.8,1-8.5-0.5c-2.8-1.6-5.5-3.4-8.1-5.2
		c-2.2-1.5-4.3-2.7-7.1-2.3c-0.8,0.1-1.7-0.3-2.5-0.7c-3.5-1.7-6.9-3.4-10.3-5.2c-2.2-1.2-4.1-1-6,0.5c-1,0.9-2.1,1.7-3.1,2.5
		c-2.1,1.7-4.6,2.6-7.3,2.9c-2.8,0.3-5-1.1-7-2.8c-0.6-0.6-0.7-1.2-0.1-1.8c0.5-0.6,1.1-1.2,1.7-1.7c5.8-4.8,11.8-9.5,17.5-14.3
		c2.3-1.9,4.4-2.2,7.1-1c4.8,2.2,9.6,4.1,14.5,6c0.8,0.3,1.9,0.3,2.7,0c4.2-1.6,8.4-3.3,12.7-5C111.4,114.9,114.5,123.6,117.7,132.5
		z"/>
	<path class="st1" d="M129.9,99.5c-0.5-1.3-0.8-2.2-1.2-3.2c-1.3-3.4-4.4-4.9-7.8-3.7c-3.2,1.1-6.3,2.2-9.5,3.4
		c-3.4,1.2-4.7,3.3-4.3,6.9c0,0.2,0,0.4,0,0.7c-3.3,1.3-6.7,2.7-10.2,4.1c0-0.7,0-1.2,0-1.7c0-6.3,0.1-12.5,0-18.8
		c0-2.2-0.5-4.5-0.7-6.7c0-0.6,0.1-1.4,0.4-1.9c4.6-5.9,12.5-8.4,19.9-6.3c7.1,2.1,12.7,8.5,13.3,15.8
		C130.1,91.8,129.9,95.5,129.9,99.5z"/>
	<path class="st1" d="M43.4,102.8c-3.4-0.2-6.7-0.5-10-0.7c-0.1-0.4-0.1-0.7-0.2-1c-0.3-2.5-1.6-4.2-3.9-5c-3.3-1.2-6.7-2.4-10-3.6
		c-3.3-1.2-6.4,0.3-7.7,3.7c-0.4,1-0.7,2-1.4,3c0-0.5,0-1.1,0-1.6c0.2-3.8-0.2-7.6,0.6-11.3c1.6-7.6,6.4-12.4,14-14.2
		c7.5-1.8,13.8,0.6,18.8,6.4c0.4,0.5,0.6,1.3,0.5,2c-0.2,2.3-0.6,4.6-0.7,6.8C43.3,92.4,43.4,97.5,43.4,102.8z"/>
	<path class="st1" d="M30.4,102c-0.1,0.3-0.2,0.8-0.4,1.3c-3.7,10.3-7.3,20.6-11,30.9c-0.9,2.5-2.2,3.1-4.7,2.2
		c-3.1-1.1-6.2-2.2-9.2-3.3c-2.1-0.8-2.8-2.2-2-4.2c3.7-10.5,7.5-21,11.3-31.5c0.7-2.1,2.2-2.7,4.2-2c3.2,1.1,6.4,2.3,9.6,3.4
		C29.7,99.4,30.4,100.3,30.4,102z"/>
	<path class="st1" d="M122.9,95.1c1.6,0,2.6,0.8,3.2,2.5c2.5,7.1,5.1,14.2,7.6,21.3c1.2,3.2,2.3,6.5,3.5,9.7
		c0.9,2.5,0.3,3.8-2.2,4.7c-3,1.1-6.1,2.2-9.1,3.2c-2.3,0.8-3.7,0.1-4.5-2.2c-3.7-10.4-7.4-20.8-11.1-31.2c-0.8-2.3-0.2-3.6,2.1-4.4
		c3.1-1.1,6.2-2.2,9.3-3.3C122.2,95.2,122.7,95.1,122.9,95.1z"/>
	<path class="st1" d="M59.6,41c0-5.8,4.7-10.6,10.5-10.6c5.9,0,10.6,4.7,10.6,10.6c0,5.8-4.7,10.5-10.5,10.5
		C64.3,51.5,59.6,46.8,59.6,41z"/>
	<path class="st1" d="M111.3,45.7c4.5,0,8.1,3.6,8.1,8.2c0,4.5-3.7,8.1-8.2,8.1c-4.4-0.1-8.1-3.7-8.1-8.1
		C103.1,49.4,106.8,45.7,111.3,45.7z"/>
	<path class="st1" d="M21,53.8c0-4.5,3.6-8.1,8.2-8.1c4.4,0,8.1,3.6,8.1,8.1c0,4.5-3.7,8.2-8.2,8.2C24.6,62,21,58.4,21,53.8z"/>
	<path class="st1" d="M37.8,151.9c0.1-0.3,0.2-0.9,0.6-1.5c1.5-2.9,3.1-5.7,4.7-8.6c1.1-2,3.2-2.7,5-1.7c1.8,1,2.4,3.1,1.3,5
		c-1.6,3-3.2,6-4.9,8.9c-0.9,1.6-2.5,2.2-4.1,1.7C38.8,155.4,37.8,154,37.8,151.9z"/>
	<path class="st1" d="M41.1,138.8c-0.1,0.4-0.3,1.1-0.6,1.7c-1.5,2.8-3,5.6-4.6,8.3c-1.2,2.1-3.2,2.8-5.1,1.8
		c-1.9-1-2.4-3.1-1.2-5.2c1.6-2.9,3.2-5.8,4.8-8.7c0.9-1.6,2.5-2.2,4.1-1.7C40.1,135.5,41.1,136.8,41.1,138.8z"/>
	<path class="st1" d="M59.1,166c-2.7-0.3-4.5-3-3.4-5.3c1.7-3.3,3.5-6.6,5.4-9.8c0.9-1.6,3-1.9,4.6-1c1.5,0.9,2.4,2.8,1.6,4.4
		c-1.7,3.4-3.6,6.7-5.6,10C61.3,165.1,60,165.5,59.1,166z"/>
	<path class="st1" d="M50.1,160.8c-2.6,0-4.3-2.7-3.2-5c1.6-3.3,3.5-6.5,5.3-9.7c0.9-1.6,3.1-2,4.6-1.1c1.6,0.9,2.4,2.9,1.5,4.5
		c-1.7,3.3-3.5,6.6-5.5,9.7c-0.5,0.8-1.8,1.2-2.7,1.8C50.2,161,50.2,160.9,50.1,160.8z"/>
</g>
</svg>
