<?xml version="1.0" encoding="utf-8"?>
<!-- Generator: Adobe Illustrator 24.0.1, SVG Export Plug-In . SVG Version: 6.00 Build 0)  -->
<svg version="1.1" id="Layer_1" xmlns="http://www.w3.org/2000/svg" xmlns:xlink="http://www.w3.org/1999/xlink" x="0px" y="0px"
	 viewBox="0 0 141.7 200.4" style="enable-background:new 0 0 141.7 200.4;" xml:space="preserve">
<style type="text/css">
	.st0{fill:#FFFFFF;}
	.st1{fill:#541D1D;}
</style>
<g>
	<path class="st0" d="M56.2,74.2c3.2,0.1,6.8,1.5,10.3,3.3c1.9,0.9,3.7,2,5.5,3.1c0.7,0.5,1.2,0.4,1.9,0c4.5-2.9,9.1-5.3,14.5-6.2
		c1.4-0.2,2.9-0.3,4.3,0c4.5,0.8,6.7,4.4,5.7,9.4c-0.9,4.8-3.3,8.9-6.2,12.7c-0.9,1.3-0.9,2,0,3.3c2.6,3.5,4.8,7.2,5.9,11.5
		c1.9,7.3-2.4,11.8-9.8,10.5c-5.2-0.9-9.8-3.2-14.1-6c-1-0.6-1.7-0.6-2.7,0c-4.4,2.8-8.9,5.2-14.1,6c-1.3,0.2-2.8,0.3-4.1,0.1
		c-4.6-0.7-6.9-4.5-5.8-9.6c1-4.7,3.4-8.8,6.3-12.6c0.8-1.1,0.8-1.8,0-2.8c-2.8-3.8-5.3-7.8-6.2-12.5c-0.3-1.5-0.3-3.1,0-4.5
		C48.2,76.1,51.1,74.2,56.2,74.2z M86.3,98.3c-4.2-4.9-8.5-8.9-13.4-12.4C68,89.5,63.7,93.5,59.8,98c4,4.6,8.3,8.6,13.4,12.3
		C77.6,106.3,81.9,102.4,86.3,98.3z M76.6,83.5c4.1,3.8,8.1,7.5,12.1,11.2c2.2-2.5,4.8-7.3,5.7-10.4c1.3-4.8-0.6-6.9-5.5-6
		C84.3,79.1,80.4,81.2,76.6,83.5z M76.5,112.7c2.6,1.3,5.1,2.7,7.8,3.7c1.9,0.8,4.1,1.3,6.1,1.4c3.5,0.3,4.9-1.4,4.2-4.8
		c-0.8-4.5-3.3-8.2-5.9-11.7C84.6,105.1,80.7,108.8,76.5,112.7z M57.1,94.7c4.1-3.8,8.1-7.5,12.1-11.2c-3.6-2.2-7.3-4.2-11.6-5.1
		c-1-0.2-2.1-0.3-3.1-0.3c-2.3,0.1-3.4,1.2-3.4,3.6c0,0.5,0,1,0.1,1.5C52.3,87.6,54.6,91.3,57.1,94.7z M57.1,101.3
		c-2.5,3.4-4.8,7-5.7,11.2c-0.9,3.9,0.5,5.6,4.5,5.4c0.4,0,0.8-0.1,1.2-0.1c3.8-0.7,7.2-2.3,10.4-4.2c0.6-0.3,1.2-0.7,1.7-1
		C65.2,108.8,61.2,105.1,57.1,101.3z"/>
	<path class="st0" d="M78.1,98c0,2.9-2.4,5.3-5.3,5.2c-2.9,0-5.1-2.4-5.1-5.2c0-2.9,2.4-5.3,5.3-5.2C75.9,92.8,78.1,95.1,78.1,98z"
		/>
</g>
<g>
	<path class="st1" d="M13.6,137.8c0.5-2.3,0.9-4.7,1.6-6.9c1.9-5.7,5.4-10.3,10.2-13.9c4.6,4.9,10.3,7.5,17,7.5
		c6.7,0,12.4-2.6,17.2-7.5c2.2,1.6,4,3.4,5.6,5.4c3.8,4.8,5.8,10.3,6.2,16.5c0.3,4.4-1.5,7.7-5,10.2c-3.6,2.5-7.7,3.7-11.9,4.5
		c-2.6,0.5-5.3,0.7-7.9,1c-0.3,0-0.6,0.1-0.9,0.2c-2.2,0-4.4,0-6.6,0c-0.4-0.1-0.7-0.1-1.1-0.2c-3.8-0.6-7.7-0.9-11.4-1.9
		c-6-1.5-11.4-4-13.2-10.8C13.6,140.5,13.6,139.1,13.6,137.8z"/>
	<path class="st1" d="M13.6,54.5c0.2-0.7,0.3-1.5,0.5-2.2C15.8,46,21.5,41.5,28,41.5c13.1,0,26.2,0,39.3,0c2.4,0,4.2,1.7,4.2,3.9
		c0,2.3-1.7,4-4.2,4c-12.9,0-25.8,0-38.8,0c-3.6,0-6.2,2-6.9,5.3c-0.1,0.6-0.1,1.2-0.1,1.8c0,5,0,10,0,15c0,2.2-1.3,3.7-3.3,4.1
		c-1.9,0.4-3.6-0.7-4.4-2.6c-0.1-0.1-0.1-0.2-0.2-0.3C13.6,66.6,13.6,60.5,13.6,54.5z"/>
	<path class="st1" d="M82.6,154.6c-1.8-0.7-3.2-1.9-3.1-4c0-2.3,1.7-3.9,4.2-3.9c8.6,0,17.2,0,25.7,0c1.1,0,2.1,0,3.2,0
		c3.4-0.1,6.2-2.9,6.3-6.3c0.1-5.2,0-10.4,0-15.6c0-2.1,1-3.6,2.8-4.2c2.4-0.7,5,0.8,5.1,3.3c0.1,6.1,0.3,12.2-0.2,18.2
		c-0.5,6.5-5.7,11.3-12.2,12.3c-0.2,0-0.4,0.1-0.6,0.2C103.4,154.6,93,154.6,82.6,154.6z"/>
	<path class="st0" d="M13.6,141.8c1.8,6.7,7.2,9.2,13.2,10.8c3.7,1,7.6,1.3,11.4,1.9c0.4,0.1,0.7,0.1,1.1,0.2c-8.5,0-17,0-25.6,0
		C13.6,150.3,13.6,146.1,13.6,141.8z"/>
	<path class="st1" d="M80.7,74.9c9.1,10,25.2,10,34.3,0c6.1,4.7,10,10.7,11.3,18.3c0.2,1.3,0.3,2.6,0.4,3.8c0.3,4.1-1.5,7.3-4.7,9.7
		c-3.3,2.5-7.1,3.7-11.1,4.5c-10.1,2-20.1,1.9-30.1-1c-2.6-0.7-5-1.8-7.2-3.4c-3.4-2.5-5.2-5.8-4.9-10.1c0.7-8.9,4.4-16.1,11.5-21.5
		C80.5,75.1,80.6,75,80.7,74.9z"/>
	<path class="st1" d="M97.9,77.1c-9.9,0-17.9-8-17.9-17.8c0-9.8,8-17.8,17.8-17.8c9.8,0,17.9,7.9,17.9,17.8
		C115.8,69.1,107.7,77.1,97.9,77.1z"/>
	<path class="st1" d="M42.5,83.6c9.8,0,17.9,8,17.9,17.8c0,9.8-8,17.8-17.8,17.9c-9.8,0-17.9-7.9-17.9-17.8
		C24.7,91.6,32.7,83.6,42.5,83.6z"/>
</g>
</svg>
