<?xml version="1.0" encoding="utf-8"?>
<!-- Generator: Adobe Illustrator 24.0.1, SVG Export Plug-In . SVG Version: 6.00 Build 0)  -->
<svg version="1.1" id="Layer_1" xmlns="http://www.w3.org/2000/svg" xmlns:xlink="http://www.w3.org/1999/xlink" x="0px" y="0px"
	 viewBox="0 0 141.7 200.4" style="enable-background:new 0 0 141.7 200.4;" xml:space="preserve">
<style type="text/css">
	.st0{fill:#FFFFFF;}
	.st1{fill:#541D1D;}
</style>
<g>
	<path class="st0" d="M56.2,74.2c3.2,0.1,6.8,1.5,10.3,3.3c1.9,0.9,3.7,2,5.5,3.1c0.7,0.5,1.2,0.4,1.9,0c4.5-2.9,9.1-5.3,14.5-6.2
		c1.4-0.2,2.9-0.3,4.3,0c4.5,0.8,6.7,4.4,5.7,9.4c-0.9,4.8-3.3,8.9-6.2,12.7c-0.9,1.3-0.9,2,0,3.3c2.6,3.5,4.8,7.2,5.9,11.5
		c1.9,7.3-2.4,11.8-9.8,10.5c-5.2-0.9-9.8-3.2-14.1-6c-1-0.6-1.7-0.6-2.7,0c-4.4,2.8-8.9,5.2-14.1,6c-1.3,0.2-2.8,0.3-4.1,0.1
		c-4.6-0.7-6.9-4.5-5.8-9.6c1-4.7,3.4-8.8,6.3-12.6c0.8-1.1,0.8-1.8,0-2.8c-2.8-3.8-5.3-7.8-6.2-12.5c-0.3-1.5-0.3-3.1,0-4.5
		C48.2,76.1,51.1,74.2,56.2,74.2z M86.3,98.3c-4.2-4.9-8.5-8.9-13.4-12.4C68,89.5,63.7,93.5,59.8,98c4,4.6,8.3,8.6,13.4,12.3
		C77.6,106.3,81.9,102.4,86.3,98.3z M76.6,83.5c4.1,3.8,8.1,7.5,12.1,11.2c2.2-2.5,4.8-7.3,5.7-10.4c1.3-4.8-0.6-6.9-5.5-6
		C84.3,79.1,80.4,81.2,76.6,83.5z M76.5,112.7c2.6,1.3,5.1,2.7,7.8,3.7c1.9,0.8,4.1,1.3,6.1,1.4c3.5,0.3,4.9-1.4,4.2-4.8
		c-0.8-4.5-3.3-8.2-5.9-11.7C84.6,105.1,80.7,108.8,76.5,112.7z M57.1,94.7c4.1-3.8,8.1-7.5,12.1-11.2c-3.6-2.2-7.3-4.2-11.6-5.1
		c-1-0.2-2.1-0.3-3.1-0.3c-2.3,0.1-3.4,1.2-3.4,3.6c0,0.5,0,1,0.1,1.5C52.3,87.6,54.6,91.3,57.1,94.7z M57.1,101.3
		c-2.5,3.4-4.8,7-5.7,11.2c-0.9,3.9,0.5,5.6,4.5,5.4c0.4,0,0.8-0.1,1.2-0.1c3.8-0.7,7.2-2.3,10.4-4.2c0.6-0.3,1.2-0.7,1.7-1
		C65.2,108.8,61.2,105.1,57.1,101.3z"/>
	<path class="st0" d="M78.1,98c0,2.9-2.4,5.3-5.3,5.2c-2.9,0-5.1-2.4-5.1-5.2c0-2.9,2.4-5.3,5.3-5.2C75.9,92.8,78.1,95.1,78.1,98z"
		/>
</g>
<g>
	<path class="st0" d="M13.6,141.8c1.8,6.7,7.2,9.2,13.2,10.8c3.7,1,7.6,1.3,11.4,1.9c0.4,0.1,0.7,0.1,1.1,0.2c-8.5,0-17,0-25.6,0
		C13.6,150.3,13.6,146.1,13.6,141.8z"/>
</g>
<g>
	<path class="st0" d="M70.2,67.1c5.6,0,11.3,0,16.9,0c0.4,0,0.7,0,1.1,0c1.1,0.2,1.9,1.1,1.9,2.2c0,1.1-0.8,2-1.9,2.1
		c-0.4,0.1-0.7,0-1.1,0c-11.3,0-22.5,0-33.8,0c-0.3,0-0.5,0-0.8,0c-1.3-0.1-2.3-1-2.2-2.2c0-1.2,0.9-2.1,2.2-2.2c0.4,0,0.7,0,1.1,0
		C59.1,67.1,64.7,67.1,70.2,67.1z"/>
	<path class="st0" d="M70.2,80.3c-5.6,0-11.3,0-16.9,0c-0.3,0-0.7,0-1,0c-1.2-0.1-2-1.1-2-2.2c0-1.1,0.9-2,2-2.2c0.3,0,0.5,0,0.8,0
		c11.4,0,22.8,0,34.2,0c0.2,0,0.4,0,0.7,0c1.2,0.1,2.2,1.1,2.1,2.2c0,1.1-0.9,2.1-2.1,2.2c-0.3,0-0.7,0-1,0
		C81.4,80.3,75.8,80.3,70.2,80.3z"/>
	<path class="st0" d="M61.4,58.2c2.8,0,5.6,0,8.4,0c1.6,0,2.6,0.9,2.6,2.2c0,1.3-1,2.2-2.6,2.2c-5.6,0-11.2,0-16.9,0
		c-1.6,0-2.6-0.9-2.6-2.2c0-1.3,1-2.2,2.6-2.2C55.7,58.2,58.6,58.2,61.4,58.2z"/>
	<path class="st0" d="M81.2,121.5c0,1.1,0,1.9,0,2.8c0,1.4-0.9,2.4-2.2,2.4c-1.3,0-2.2-1-2.2-2.4c0-5.8,0-11.6,0-17.3
		c0-1.5,0.9-2.4,2.4-2.4c2.5,0,4.9,0,7.4,0c4,0,7.2,2.8,7.8,6.7c0.6,3.6-1.7,7.1-5.4,8.4c-0.2,0.1-0.4,0.1-0.8,0.3
		c1.3,0.7,2.4,1.2,3.6,1.8c0.4,0.2,0.9,0.4,1.3,0.6c1.2,0.7,1.7,1.8,1.1,3c-0.5,1.2-1.8,1.6-3.1,1c-2.2-1.1-4.5-2.2-6.7-3.3
		C83.5,122.6,82.5,122.1,81.2,121.5z M81.3,115.7c1.6,0,3.1,0,4.6,0c0.4,0,0.8,0,1.2,0c1.7-0.2,3-1.6,3-3.3c0-1.6-1.2-3.2-2.8-3.3
		c-2-0.1-3.9,0-6,0C81.3,111.3,81.3,113.4,81.3,115.7z"/>
	<path class="st0" d="M64.4,104.7c1.1,0,2.3,0,3.4,0c1.4,0,2.3,0.9,2.3,2.1c0,1.3-0.9,2.2-2.3,2.3c-2,0-4,0-6.1,0
		c-1.6,0-2.6,0.9-2.6,2.2c0,1.3,1,2.2,2.6,2.2c1.1,0,2.2,0,3.3,0.2c3.2,0.7,5.4,3.7,5.1,7c-0.3,3.3-3,6-6.4,6c-2.2,0.1-4.5,0-6.7,0
		c-1.4,0-2.4-1-2.3-2.3c0-1.2,1-2.1,2.3-2.1c2,0,4,0,6.1,0c1.6,0,2.6-0.9,2.6-2.2c0-1.3-1-2.2-2.6-2.2c-1.1,0-2.2,0-3.3-0.2
		c-3.3-0.7-5.5-3.8-5.1-7.1c0.3-3.3,3.1-5.8,6.4-5.9C62.2,104.6,63.3,104.7,64.4,104.7C64.4,104.7,64.4,104.7,64.4,104.7z"/>
	<path class="st0" d="M36.1,115.7c0-6.5,5.7-11.6,12.1-11c1.2,0.1,2.1,1,2.1,2.2c0,1.2-0.9,2.1-2.1,2.2c-0.9,0.1-1.8,0-2.6,0.2
		c-3.3,0.7-5.3,3.8-5,7.2c0.3,3.1,3,5.7,6.2,5.8c0.5,0,1,0,1.4,0c1.2,0.1,2.1,1,2.1,2.2c0,1.2-0.9,2.1-2.1,2.2
		C41.7,127.3,36.1,122.2,36.1,115.7z"/>
</g>
<g>
	<path class="st1" d="M73.7,144c0-0.6,0-1,0-1.5c0-9.9-0.1-19.8,0-29.7c0.1-4.8-3.5-9.1-8.9-8.9c-5.9,0.2-11.7,0.2-17.6,0
		c-5.3-0.1-9,3.9-8.9,8.9c0.1,9.9,0,19.8,0,29.7c0,0.4,0,0.9,0,1.5c-1.6,0-3.2,0-4.8,0c-1.2,0-2.4,0-3.5,0c-3.3-0.1-5.8-2.6-5.8-5.9
		c0-3.6,0-7.3,0-10.9c0-20.5,0-41,0-61.6c0-8,5.6-13.6,13.6-13.6c12.2,0,24.4,0,36.6,0c7.9,0,13.5,5.6,13.5,13.5
		c0,24.7,0,49.4,0,74.1c0,3-1.3,4.3-4.3,4.3C80.4,144,77.1,144,73.7,144z M52.5,75.6c-2.1,0-4,0-5.9,0c-1.7,0-2.9,1-3.4,2.5
		c-0.7,2.3,1,4.5,3.6,4.5c1.9,0,3.7,0,5.7,0c0,2,0,3.9,0,5.8c0,2.2,1.7,3.7,3.8,3.6c1.8-0.1,3.2-1.6,3.3-3.5c0-1.9,0-3.9,0-5.9
		c1.9,0,3.7,0,5.5,0c0.7,0,1.6-0.2,2.2-0.5c1.4-0.7,2-2.3,1.6-3.9c-0.4-1.5-1.7-2.6-3.3-2.7c-2,0-4,0-6.1,0c0-1.9,0-3.7,0-5.5
		c0-2.3-1.4-4-3.5-4c-2.1,0-3.5,1.6-3.5,3.9C52.5,71.9,52.5,73.7,52.5,75.6z"/>
	<path class="st1" d="M94.7,144c0.1-2.5,0.2-4.9,0.2-7.4c0-16.7,0-33.4,0-50.2c0-0.4,0-0.9,0-1.4c3.2,0,6.2,0,9.3,0
		c0.7,0,1.3,0.2,2,0.3c5.8,1.4,9.9,6.5,9.9,12.5c0,13.3,0,26.7,0,40c0,3.5-2.5,6.1-6,6.1C105,144,99.8,144,94.7,144z M106.7,105.1
		c0-0.8,0-1.7,0-2.5c-0.1-1.8-1.5-3.3-3.3-3.4c-1.7-0.1-3.5,1.2-3.6,3c-0.2,1.9-0.2,3.9,0,5.8c0.2,1.8,1.9,3.1,3.6,3
		c1.8-0.1,3.3-1.5,3.4-3.4C106.8,106.7,106.7,105.9,106.7,105.1z M106.7,124C106.7,124,106.7,124,106.7,124c0-0.8,0-1.7,0-2.5
		c-0.1-1.8-1.5-3.2-3.2-3.3c-1.9-0.1-3.5,1-3.7,2.9c-0.2,2-0.2,4,0,6c0.2,1.8,1.9,3,3.7,2.8c1.7-0.1,3.2-1.6,3.2-3.3
		C106.8,125.7,106.7,124.8,106.7,124z"/>
	<path class="st1" d="M66.6,143.9c-7.1,0-14.1,0-21.2,0c0-0.4,0-0.8,0-1.1c0-9.9,0-19.9,0-29.8c0-1.7,0.2-2,2-2c5.9,0,11.7,0,17.6,0
		c1.3,0,1.7,0.3,1.7,1.6c0,10.2,0,20.5,0,30.7C66.7,143.5,66.7,143.7,66.6,143.9z"/>
	<path class="st0" d="M52.5,75.6c0-1.9,0-3.7,0-5.5c0-2.3,1.5-3.9,3.5-3.9c2.1,0,3.5,1.6,3.5,4c0,1.8,0,3.6,0,5.5c2.1,0,4.1,0,6.1,0
		c1.6,0,2.9,1.1,3.3,2.7c0.4,1.5-0.2,3.1-1.6,3.9c-0.7,0.3-1.5,0.5-2.2,0.5c-1.8,0.1-3.5,0-5.5,0c0,2,0,3.9,0,5.9
		c0,1.9-1.5,3.4-3.3,3.5c-2.1,0.1-3.8-1.4-3.8-3.6c0-1.9,0-3.8,0-5.8c-2,0-3.8,0-5.7,0c-2.6-0.1-4.2-2.2-3.6-4.5
		c0.4-1.5,1.7-2.5,3.4-2.5C48.5,75.6,50.4,75.6,52.5,75.6z"/>
	<path class="st0" d="M106.7,105.1c0,0.8,0,1.6,0,2.4c-0.1,1.9-1.5,3.3-3.4,3.4c-1.7,0.1-3.4-1.2-3.6-3c-0.2-1.9-0.2-3.9,0-5.8
		c0.2-1.8,1.9-3.1,3.6-3c1.8,0.1,3.2,1.6,3.3,3.4C106.8,103.4,106.7,104.3,106.7,105.1z"/>
	<path class="st0" d="M106.7,124c0,0.8,0,1.7,0,2.5c-0.1,1.8-1.5,3.2-3.2,3.3c-1.7,0.1-3.5-1.1-3.7-2.8c-0.2-2-0.2-4,0-6
		c0.2-1.8,1.9-3,3.7-2.9c1.7,0.1,3.1,1.5,3.2,3.3C106.8,122.3,106.7,123.1,106.7,124C106.7,124,106.7,124,106.7,124z"/>
</g>
</svg>
