<?xml version="1.0" encoding="utf-8"?>
<!-- Generator: Adobe Illustrator 24.0.1, SVG Export Plug-In . SVG Version: 6.00 Build 0)  -->
<svg version="1.1" id="Layer_1" xmlns="http://www.w3.org/2000/svg" xmlns:xlink="http://www.w3.org/1999/xlink" x="0px" y="0px"
	 viewBox="0 0 141.7 200.4" style="enable-background:new 0 0 141.7 200.4;" xml:space="preserve">
<style type="text/css">
	.st0{fill:#FFFFFF;}
	.st1{fill:#541D1D;}
</style>
<g>
	<path class="st0" d="M56.2,74.2c3.2,0.1,6.8,1.5,10.3,3.3c1.9,0.9,3.7,2,5.5,3.1c0.7,0.5,1.2,0.4,1.9,0c4.5-2.9,9.1-5.3,14.5-6.2
		c1.4-0.2,2.9-0.3,4.3,0c4.5,0.8,6.7,4.4,5.7,9.4c-0.9,4.8-3.3,8.9-6.2,12.7c-0.9,1.3-0.9,2,0,3.3c2.6,3.5,4.8,7.2,5.9,11.5
		c1.9,7.3-2.4,11.8-9.8,10.5c-5.2-0.9-9.8-3.2-14.1-6c-1-0.6-1.7-0.6-2.7,0c-4.4,2.8-8.9,5.2-14.1,6c-1.3,0.2-2.8,0.3-4.1,0.1
		c-4.6-0.7-6.9-4.5-5.8-9.6c1-4.7,3.4-8.8,6.3-12.6c0.8-1.1,0.8-1.8,0-2.8c-2.8-3.8-5.3-7.8-6.2-12.5c-0.3-1.5-0.3-3.1,0-4.5
		C48.2,76.1,51.1,74.2,56.2,74.2z M86.3,98.3c-4.2-4.9-8.5-8.9-13.4-12.4C68,89.5,63.7,93.5,59.8,98c4,4.6,8.3,8.6,13.4,12.3
		C77.6,106.3,81.9,102.4,86.3,98.3z M76.6,83.5c4.1,3.8,8.1,7.5,12.1,11.2c2.2-2.5,4.8-7.3,5.7-10.4c1.3-4.8-0.6-6.9-5.5-6
		C84.3,79.1,80.4,81.2,76.6,83.5z M76.5,112.7c2.6,1.3,5.1,2.7,7.8,3.7c1.9,0.8,4.1,1.3,6.1,1.4c3.5,0.3,4.9-1.4,4.2-4.8
		c-0.8-4.5-3.3-8.2-5.9-11.7C84.6,105.1,80.7,108.8,76.5,112.7z M57.1,94.7c4.1-3.8,8.1-7.5,12.1-11.2c-3.6-2.2-7.3-4.2-11.6-5.1
		c-1-0.2-2.1-0.3-3.1-0.3c-2.3,0.1-3.4,1.2-3.4,3.6c0,0.5,0,1,0.1,1.5C52.3,87.6,54.6,91.3,57.1,94.7z M57.1,101.3
		c-2.5,3.4-4.8,7-5.7,11.2c-0.9,3.9,0.5,5.6,4.5,5.4c0.4,0,0.8-0.1,1.2-0.1c3.8-0.7,7.2-2.3,10.4-4.2c0.6-0.3,1.2-0.7,1.7-1
		C65.2,108.8,61.2,105.1,57.1,101.3z"/>
	<path class="st0" d="M78.1,98c0,2.9-2.4,5.3-5.3,5.2c-2.9,0-5.1-2.4-5.1-5.2c0-2.9,2.4-5.3,5.3-5.2C75.9,92.8,78.1,95.1,78.1,98z"
		/>
</g>
<g>
	<path class="st1" d="M70,103.8c-4.1,3.8-6.7,8.4-8.4,13.9c-0.6-3.1-1-5.9-1.7-8.6c-0.8-3.4-1.7-6.8-2.9-10.2
		c-0.6-1.6-1.6-3.1-2.8-4.3c-4.7-4.9-9.6-9.6-14.3-14.4c-1.6-1.6-1.8-3.9-0.4-5.5c1.5-1.7,4-1.8,5.8-0.2c4.5,4.1,8.9,8.1,13.4,12.2
		c3.2,2.9,6.9,4.6,11.3,4.6c4.1,0,7.7-1.3,10.7-4c4.7-4.2,9.3-8.5,14-12.7c1.1-1,2.4-1.5,3.8-1.5c0.9,0,1.6,0.2,1.8,1.2
		c0,0.2,0.2,0.3,0.3,0.5c1.3,2,1.1,3.8-0.5,5.5c-4.6,4.6-9.2,9.3-13.8,13.8c-1.8,1.8-3.2,3.8-3.8,6.2c-1.3,5.1-2.4,10.3-3.6,15.5
		c-0.1,0.5-0.2,1.1-0.4,1.6C76.8,112.2,74.2,107.6,70,103.8z"/>
	<path class="st1" d="M74.8,146.5c-2.1,0-4.2-0.1-6.2,0c-2.3,0.2-4.1-0.5-5.8-2c-7.4-6.5-12.7-14.2-14.9-23.9
		c-0.6-2.5-0.6-5-0.3-6.7c2,0.3,3.9,1,5.7,2c7,3.6,12.1,9.1,16.1,15.8c2.6,4.3,4.5,9,5.2,14.1C74.7,145.9,74.8,146,74.8,146.5z"/>
	<path class="st1" d="M79.7,146.3c0.4-0.4,0.7-0.6,0.9-0.9c5.1-4.7,9.1-10.2,11.9-16.6c0.3-0.7,0.6-0.9,1.3-1.1
		c8.2-1.4,16-0.2,23.1,4.4c0.3,0.2,0.6,0.4,1,0.8c-1.2,0.1-2.2,0.2-3.1,0.4c-2.9,0.5-5.3,2-7.6,3.6c-3.4,2.4-6.7,4.8-10.6,6.3
		c-5.3,2-10.8,2.9-16.4,3.2C80.2,146.4,80,146.4,79.7,146.3z"/>
	<path class="st1" d="M60.3,146.4c-4.2-0.2-8-0.7-11.8-1.6c-4.9-1.2-9.2-3.4-13.2-6.4c-1.8-1.3-3.6-2.5-5.6-3.6
		c-1.8-1.1-3.8-1.7-6-1.7c-0.3,0-0.6-0.1-1.3-0.2c0.7-0.5,1.1-0.8,1.6-1.1c6.9-4.3,14.4-5.4,22.4-4.1c0.4,0.1,0.9,0.4,1,0.8
		c2.9,6.6,7,12.3,12.4,17.2C59.9,145.9,60,146,60.3,146.4z"/>
	<path class="st1" d="M77.9,143.8c-1.3-3.5-2.6-6.9-3.9-10.3c-0.5-1.2-1.2-2.2-1.7-3.3c-0.1-0.3-0.2-0.8,0-1.1
		c4.4-6.3,9.8-11.5,17.1-14.4c0.9-0.4,1.9-0.6,3.3-1c-0.1,2.1-0.1,4.1-0.4,5.9c-1.8,9.7-6.9,17.5-14.1,24.1
		C78,143.8,77.8,143.8,77.9,143.8z"/>
	<path class="st1" d="M70,76.3c3.7,0,6.7,2.9,6.7,6.7c0,3.7-3,6.7-6.7,6.7c-3.7,0-6.7-3-6.7-6.7C63.4,79.3,66.4,76.3,70,76.3z"/>
	<path class="st1" d="M70,108.1c2.2,2.4,3.6,5.2,4.8,8.1c1,2.4,1.4,4.5-1.1,6.3c-0.8,0.5-1.3,1.4-1.9,2.2c-0.6,0.7-1.1,1.4-1.7,2.2
		c-1-1.3-1.9-2.5-2.9-3.6c-0.8-0.9-1.7-1.8-2.5-2.7c-0.2-0.3-0.5-0.7-0.4-1C65.3,115.3,67,111.5,70,108.1z"/>
	<path class="st1" d="M46.9,55.1c4.8-0.1,9.3,6,8,10.8C50.7,66.4,45.3,60.3,46.9,55.1z"/>
	<path class="st1" d="M104.1,107.4c3.7-2.9,11.4-0.5,12.8,4.2C113.4,114.4,105.6,112.2,104.1,107.4z"/>
	<path class="st1" d="M117,88.6c-1.8,4.7-8.9,7-12.8,4.2C105.3,88.2,112.9,85.7,117,88.6z"/>
	<path class="st1" d="M23.1,111.5c1.8-4.8,8.9-7.1,12.8-4.3C35,111.8,27.4,114.4,23.1,111.5z"/>
	<path class="st1" d="M70.1,49.7c3.9,3.3,3.9,10.5,0,13.5C66.1,60.4,66.1,52.7,70.1,49.7z"/>
	<path class="st1" d="M85.3,66.1c-1.7-4.4,3-10.9,7.8-10.9C94.8,58.9,90.8,65.8,85.3,66.1z"/>
	<path class="st1" d="M35.9,92.7c-2.8,1.9-7.1,1.6-10.2-0.7c-1-0.7-1.7-1.8-2.5-2.8c-0.3-0.4-0.3-0.7,0.3-1.1
		C27.5,85.8,34.3,88.3,35.9,92.7z"/>
</g>
</svg>
