<?xml version="1.0" encoding="utf-8"?>
<!-- Generator: Adobe Illustrator 24.0.1, SVG Export Plug-In . SVG Version: 6.00 Build 0)  -->
<svg version="1.1" id="Layer_1" xmlns="http://www.w3.org/2000/svg" xmlns:xlink="http://www.w3.org/1999/xlink" x="0px" y="0px"
	 viewBox="0 0 141.7 141.7" style="enable-background:new 0 0 141.7 141.7;" xml:space="preserve">
<style type="text/css">
	.st0{fill-rule:evenodd;clip-rule:evenodd;fill:#541D1D;}
	.st1{fill:#541D1D;}
</style>
<g>
	<path class="st0" d="M90.8,30.6L70.9,10.7L50.9,30.6c-5.3,5.3-8.2,12.4-8.2,19.9s2.9,14.6,8.2,19.9c11,11,28.9,11,39.9,0
		c5.3-5.3,8.2-12.4,8.2-19.9S96.1,35.9,90.8,30.6z M70.9,68.1c-7.1,0-12.9-5.7-12.9-12.8s5.7-12.9,12.9-12.9
		c7.1,0,12.9,5.7,12.9,12.9C83.8,62.4,77.9,68.1,70.9,68.1z"/>
	<path class="st1" d="M126.8,95.6c2.2,5.1-0.7,13-6.5,18.1c-13.2,11.5-31.9,17.3-50.3,17.3c-17.2,0-34.3-5.1-46.3-15.3
		c-11.3-9.6-10.1-16-8.4-19c3.9-6.6,16.7-8.1,29-3.4c5.8,2.2,8.1,4.1,12.5,7.8l3.7,3.1l-3.8-1.3c-1.1-0.4-2.2-0.8-3.3-1.2
		c-7.3-2.7-14.8-5.5-22.5-3.1c-2.8,0.9-4.2,2-4.4,3.6c-0.4,2.7,3.2,6.4,6.9,8.8c4.9,3.2,10,5.9,15.3,7.9c15.8,6.1,32.5,6.6,46.9,1.1
		c10-3.9,17.3-10.2,19-16.6c0.6-2.1,0.6-3.3,0.1-3.9c-0.7-0.7-2.4-0.7-4.9-0.4c-6.5,0.8-13.9,4.4-21.8,8.1
		c-12.9,6.2-26.4,12.6-37.8,8l-3-1.2l3.2-0.2c16.3-1,26.2-7.1,35.8-12.9c8.2-5,15.9-9.7,27-10.8C122.2,89.3,125.6,92.7,126.8,95.6z"
		/>
</g>
</svg>
