<?xml version="1.0" encoding="utf-8"?>
<!-- Generator: Adobe Illustrator 24.0.1, SVG Export Plug-In . SVG Version: 6.00 Build 0)  -->
<svg version="1.1" id="Layer_1" xmlns="http://www.w3.org/2000/svg" xmlns:xlink="http://www.w3.org/1999/xlink" x="0px" y="0px"
	 viewBox="0 0 1080 1080" style="enable-background:new 0 0 1080 1080;" xml:space="preserve">
<style type="text/css">
	.st0{fill:#FFFFFF;}
	.st1{fill:#541D1D;}
</style>
<g>
	<path class="st0" d="M539.5,1016.3c-196.8-0.2-356.2-159.7-356.3-356.5V390c0-196.8,159.5-356.3,356.3-356.3S895.8,193.2,895.8,390
		v269.7C895.5,856.5,736.1,1016.1,539.5,1016.3L539.5,1016.3z"/>
	<path class="st1" d="M538.8,355v141c0,20.8-10.7,34.5-10.7,34.5s10.7,13.6,10.7,34.5v141.3h1.4V565.1c0-21,10.7-34.6,10.7-34.6
		s-10.7-13.6-10.7-34.5V355L538.8,355L538.8,355z"/>
	<path class="st1" d="M311.9,394.9l-16.3,1.6c-0.9,0.2-1.6-0.5-1.6-1.6c-0.2-1.2,0.3-1.7,1.2-1.9l20.8-1.9c0.7,0,1.2,0.3,1.6,1l0,0
		c0.2,0.3,0.3,0.7,0.3,1c0.2,0.3,0.2,0.7,0.2,1s0,0.5,0,0.9s-0.2,0.5-0.2,0.9c0,0.2-0.2,0.5-0.3,0.7c-0.2,0.2-0.3,0.3-0.7,0.5
		l-15.7,8l0.2,0.9l16.3-1.6c0.9-0.2,1.6,0.5,1.6,1.7c0.2,1.2-0.3,1.7-1.2,1.9l-20.8,1.9c-0.9,0-1.4-0.2-1.7-0.9
		c-0.3-0.7-0.5-1.4-0.5-2.1c0-0.5,0-1,0.2-1.6c0.2-0.5,0.5-1,1-1.4l15.7-8L311.9,394.9z"/>
	<path class="st1" d="M317.7,378.6v4c0,0.7,0,1.2-0.2,1.7s-0.3,1-0.7,1.6l0,0c-0.7,1-1.7,1.6-3.5,1.6h-1.4c-0.9,0-1.6-0.2-2.1-0.3
		c-0.7-0.3-1-0.7-1.4-1.2l0,0c-0.3-0.5-0.7-1-0.9-1.6c-0.2-0.5-0.2-1-0.2-1.6v-6.6h-2.8c-0.5,0-0.9,0.2-1.4,0.5
		c-0.3,0.3-0.7,0.9-0.7,1.6v3.5c0,0.7,0.2,1.2,0.5,1.6c0.3,0.3,0.9,0.5,1.4,0.5h0.2c1,0,1.6,0.5,1.6,1.7c0,1-0.5,1.7-1.6,1.7h-0.3
		c-0.9,0-1.6-0.2-2.1-0.3c-0.5-0.3-1-0.7-1.4-1.2l0,0c-0.3-0.5-0.7-1-0.9-1.6c-0.2-0.5-0.3-1-0.3-1.6v-4.5c0-0.5,0.2-1,0.3-1.6
		c0.2-0.5,0.5-1,0.9-1.6l0,0c0.3-0.5,0.9-0.9,1.4-1.2c0.7-0.3,1.4-0.3,2.1-0.5h12.1c0.9,0,1.4,0.5,1.4,1.6c0,0.2,0,0.3,0,0.7
		c0,0.2,0,0.3-0.2,0.5c-0.2,0.2-0.2,0.3-0.3,0.3c-0.2,0-0.3,0.2-0.7,0.2h-6.6v6.1c0,0.5,0,0.7,0.2,1c0.2,0.2,0.2,0.3,0.5,0.5
		c0.3,0.2,0.5,0.3,0.9,0.3c0.2,0,0.3,0.2,0.7,0.2h1.2c0.5,0,0.9-0.2,1.2-0.5c0.3-0.3,0.3-0.9,0.3-1.6v-3.3c0-0.7,0.5-1,1.4-1
		c0.3,0,0.7,0.2,1,0.3C317.5,377.9,317.7,378.3,317.7,378.6L317.7,378.6z"/>
	<path class="st1" d="M302.8,362.3l-0.2,2.4l11,0.7c0.5,0,0.9,0,1.2-0.2c0.3-0.2,0.5-0.7,0.5-1.4v-0.7c0-0.7,0.5-1.2,1.4-1
		c0.9,0,1.4,0.5,1.4,1.2v1c0,0.7-0.2,1.2-0.3,1.7c-0.2,0.5-0.5,1-0.9,1.6l0,0c-0.7,0.9-1.9,1.4-3.5,1.2l-11-0.7v1.2
		c0,0.7-0.5,1-1.4,1s-1.4-0.5-1.4-1.2v-1.2l-3.1-0.2c-1,0-1.4-0.7-1.4-1.7c0-1,0.5-1.6,1.6-1.6l3.1,0.2l0.2-2.4c0-0.7,0.5-1.2,1.6-1
		C302.5,361.1,303,361.5,302.8,362.3L302.8,362.3z"/>
	<path class="st1" d="M301.9,355.4l15.6,1.4c0.9,0.2,1.4,0.7,1.2,1.7c-0.2,1-0.7,1.6-1.6,1.6l-15.6-1.4c-1-0.2-1.4-0.7-1.2-1.7
		C300.5,355.9,301.1,355.4,301.9,355.4L301.9,355.4z M296.9,354.3c0.7,0,1.2,0.3,1.6,0.9c0.3,0.5,0.5,1,0.5,1.7
		c0,0.7-0.3,1.2-0.9,1.6c-0.5,0.3-1,0.5-1.7,0.5c-0.7,0-1.2-0.3-1.6-0.9c-0.3-0.5-0.5-1-0.5-1.7c0-0.7,0.3-1.2,0.9-1.6
		C295.6,354.3,296.2,354.1,296.9,354.3L296.9,354.3z"/>
	<path class="st1" d="M301.8,346.1l0.7-4.7c0-0.5,0.3-1,0.5-1.6c0.3-0.5,0.7-1,1-1.4l0,0c0.5-0.5,1-0.7,1.6-1
		c0.7-0.2,1.4-0.2,2.1-0.2l8.6,1.2c1.6,0.2,2.8,1,3.3,2.1c0.5,1.2,0.9,2.3,0.7,3.3l-0.7,4.7c0,0.5-0.2,1-0.5,1.6
		c-0.3,0.5-0.7,1-1,1.4c-0.9,1-2.3,1.4-3.8,1l-8.6-1.2c-0.9-0.2-1.4-0.3-2.1-0.7c-0.5-0.3-1-0.9-1.2-1.4l0,0c-0.2-0.5-0.5-1-0.7-1.7
		C301.8,347.3,301.6,346.6,301.8,346.1L301.8,346.1z M317,347.8l0.5-3.7c0.2-0.7,0-1.2-0.3-1.6c-0.3-0.3-0.9-0.5-1.2-0.7l-8.4-1.2
		c-0.5,0-1,0-1.4,0.2c-0.5,0.2-0.7,0.7-0.9,1.4l-0.5,3.7c-0.2,0.7,0,1.2,0.3,1.6c0.3,0.3,0.7,0.5,1.2,0.7l8.4,1.2
		c0.5,0,0.9,0,1.4-0.3C316.6,349.1,317,348.5,317,347.8L317,347.8z"/>
	<path class="st1" d="M309.6,330l11.5,2.6c0.9,0.2,1.2,0.9,1,1.9c-0.2,1-0.9,1.6-1.7,1.2l-11.9-2.8c-0.9-0.2-1.4-0.5-1.9-0.9
		c-0.5-0.3-0.9-0.9-1.2-1.6c-0.5-1.2-0.7-2.3-0.3-3.3l1-4.7c0.2-1,0.9-1.9,1.9-2.8s2.3-1.2,3.8-0.7l11.9,2.8c0.9,0.2,1.2,0.9,1,1.9
		c-0.2,1-0.9,1.6-1.7,1.2l-11.5-2.6c-0.5-0.2-1,0-1.6,0.2l0,0c-0.5,0.2-0.9,0.7-1,1.4l-0.9,3.7c-0.2,0.9,0,1.4,0.3,1.7
		C308.8,329.6,309.1,329.8,309.6,330L309.6,330z"/>
	<path class="st1" d="M328.5,310.7l-1.2,3.8c-0.2,0.5-0.5,1.2-0.7,1.6c-0.3,0.5-0.7,0.9-1.2,1.4l0,0c-0.9,0.7-2.1,0.9-3.7,0.3
		l-1.4-0.5c-0.7-0.2-1.4-0.5-1.9-1c-0.5-0.5-0.9-1-1-1.6l0,0c-0.2-0.5-0.3-1.2-0.2-1.7c0-0.5,0.2-1,0.2-1.6l2.1-6.5l-2.6-0.9
		c-0.5-0.2-0.9-0.2-1.4,0c-0.5,0.2-0.9,0.7-1,1.4l-1,3.3c-0.2,0.7-0.2,1.2,0,1.7c0.3,0.3,0.7,0.7,1.2,0.9h0.2c1,0.3,1.4,1,1,2.1
		c-0.3,1-1,1.4-2.1,1l-0.3-0.2c-0.7-0.2-1.4-0.5-1.9-1c-0.5-0.5-0.7-0.9-1-1.6l0,0c-0.2-0.5-0.3-1.2-0.3-1.9c0-0.7,0-1.2,0.2-1.6
		l1.4-4.4c0.2-0.5,0.3-0.9,0.9-1.4c0.3-0.5,0.9-0.9,1.2-1.2l0,0c0.5-0.3,1-0.7,1.7-0.7c0.7,0,1.4,0,2.1,0.2l11.5,3.7
		c0.9,0.3,1.2,1,0.9,2.1c0,0.2-0.2,0.3-0.2,0.5c0,0.2-0.2,0.3-0.3,0.3c-0.2,0.2-0.3,0.2-0.5,0.2c-0.2,0-0.3,0-0.7,0l-6.3-1.9
		l-1.9,5.8c-0.2,0.3-0.2,0.7-0.2,1c0,0.2,0.2,0.5,0.3,0.7c0.3,0.2,0.5,0.5,0.7,0.5c0.2,0.2,0.3,0.2,0.5,0.3l1,0.3
		c0.5,0.2,0.9,0.2,1.2,0c0.3-0.2,0.7-0.7,0.9-1.4l1-3.3c0.2-0.7,0.9-0.9,1.7-0.7c0.3,0.2,0.7,0.3,0.9,0.5
		C328.5,310,328.7,310.4,328.5,310.7L328.5,310.7z"/>
	<path class="st1" d="M311.2,291l20.3,7.7c0.9,0.3,1.2,1,0.7,2.1c-0.3,1-1,1.4-1.9,1l-20.3-7.7c-0.9-0.3-1-1-0.7-2.1
		C309.8,291,310.3,290.6,311.2,291L311.2,291z"/>
	<path class="st1" d="M342.7,275.1l-21.2-3l15.2,14.9l0,0c0.2,0.2,0.3,0.5,0.3,0.7c0.2,0.3,0,0.5,0,0.9c0,0.2-0.2,0.3-0.2,0.3
		c-0.2,0.2-0.2,0.2-0.3,0.3l0,0c-0.9,0.9-1.6,0.9-2.3,0.3l-15.7-15.4c-0.2-0.2-0.3-0.5-0.5-0.9c-0.2-0.3-0.2-0.7,0-1
		c0.2-0.3,0.2-0.7,0.3-0.9c0.2-0.3,0.2-0.5,0.3-0.7c0-0.2,0.2-0.3,0.3-0.7c0.2-0.3,0.3-0.5,0.5-0.9c0.2-0.2,0.3-0.3,0.7-0.5
		c0.3-0.2,0.7-0.2,1-0.2c3.7,0.5,7.2,1,10.8,1.6s7.3,1,10.8,1.6c0.9,0.2,1.4,0.9,1.2,1.9c0,0.2,0,0.3-0.2,0.3c0,0.2,0,0.3-0.2,0.3
		c-0.2,0.2-0.3,0.3-0.5,0.5C343.2,275.1,343,275.2,342.7,275.1L342.7,275.1z M334.8,276.1c0.5,0.3,1,0.7,1.2,1.4
		c0.2,0.5,0.2,1.2-0.2,1.7s-0.7,0.9-1.4,1.2c-0.5,0.2-1.2,0.2-1.7-0.2c-0.5-0.3-1-0.7-1.2-1.4c-0.2-0.5-0.2-1.2,0.2-1.7
		s0.7-1,1.4-1.2C333.8,275.8,334.3,275.9,334.8,276.1L334.8,276.1z"/>
	<path class="st1" d="M328.4,256l18.7,10.7c0.9,0.5,0.9,1.2,0.3,2.3c-0.5,1-1.2,1.4-2.1,0.9l-18.5-10.7c-0.9-0.5-0.9-1.2-0.3-2.3
		C326.8,255.8,327.5,255.5,328.4,256L328.4,256z"/>
	<path class="st1" d="M360.7,245.8l-17.5-12.4c-0.7-0.5-0.9-1.4-0.2-2.3c0.7-1,1.4-1.2,2.3-0.7l17.5,12.4c0.7,0.5,0.9,1.4,0.2,2.3
		C362.1,246.2,361.4,246.4,360.7,245.8L360.7,245.8z M337.8,240.8l17.5,12.4c0.7,0.5,0.9,1.4,0.2,2.3c-0.7,1-1.4,1.2-2.3,0.7
		l-17.5-12.4c-0.7-0.5-0.9-1.4-0.2-2.3C336.4,240.4,337.1,240.2,337.8,240.8L337.8,240.8z M350.2,240.9c0.5,0.3,0.9,0.9,1,1.6
		c0.2,0.7,0,1.4-0.5,1.9c-0.3,0.5-0.9,0.9-1.6,1c-0.7,0.2-1.2,0-1.9-0.5c-0.5-0.3-0.9-0.9-1-1.6s0-1.2,0.3-1.9
		c0.3-0.5,0.9-0.9,1.6-1C349,240.4,349.7,240.6,350.2,240.9L350.2,240.9z"/>
	<path class="st1" d="M357.9,229.7l6.5,5.6c0.3,0.3,0.9,0.5,1.4,0.5s1-0.2,1.6-0.9l2.4-2.8c0.5-0.5,0.7-1,0.5-1.6
		c0-0.5-0.3-0.9-0.7-1.2l-0.2-0.2c-0.7-0.7-0.7-1.4,0-2.3c0.7-0.9,1.4-0.9,2.1-0.3l0.3,0.2c0.7,0.5,1,1,1.4,1.6
		c0.2,0.5,0.3,1.2,0.3,1.9c-0.2,1.4-0.5,2.4-1.2,3.1l-3.3,3.8c-0.7,0.9-1.7,1.4-3,1.6c-0.7,0.2-1.2,0-1.9-0.2
		c-0.7-0.2-1.2-0.5-1.9-1l-6.6-5.6c-1.2-1-1.9-2.3-1.7-3.5c0-0.7,0.2-1.2,0.3-1.7c0.2-0.5,0.5-1,0.7-1.4l3.3-3.8
		c0.3-0.3,0.7-0.7,1.2-1c0.5-0.3,1-0.5,1.6-0.7s1.2-0.2,1.7,0c0.7,0.2,1.2,0.5,1.9,1l3.1,2.6c0.3,0.3,0.5,0.7,0.7,1
		c0.2,0.5-0.2,0.9-0.5,1.6l-4.2,4.9c-0.5,0.5-1,0.5-1.9,0c-0.7-0.7-0.9-1.2-0.3-1.7l3.3-3.8l-2.1-1.7c-0.3-0.3-0.9-0.5-1.4-0.5
		s-1,0.2-1.6,0.9l-2.4,2.8c-0.5,0.5-0.7,1-0.5,1.6C357.2,228.9,357.6,229.4,357.9,229.7L357.9,229.7z"/>
	<path class="st1" d="M383.6,221.5l-2.8,2.8c-0.5,0.5-0.9,0.9-1.4,1c-0.5,0.3-1,0.5-1.7,0.7l0,0c-1.2,0.2-2.3-0.2-3.5-1.4l-1-1
		c-0.5-0.5-1-1.2-1.2-1.9c-0.2-0.7-0.3-1.2-0.2-1.9l0,0c0.2-0.5,0.3-1.2,0.5-1.7c0.3-0.5,0.5-0.9,1-1.4l4.7-4.7l-2.1-1.7
		c-0.3-0.3-0.9-0.5-1.2-0.7c-0.5,0-1,0.2-1.6,0.7l-2.4,2.4c-0.5,0.5-0.7,1-0.7,1.6s0.3,0.9,0.7,1.2l0.2,0.2c0.7,0.7,0.7,1.6,0,2.3
		c-0.9,0.9-1.6,0.9-2.3,0l-0.2-0.2c-0.5-0.5-1-1.2-1.2-1.7c-0.2-0.5-0.2-1.2-0.2-1.9l0,0c0.2-0.5,0.3-1.2,0.5-1.7
		c0.2-0.5,0.5-1,0.9-1.4l3.3-3.3c0.3-0.3,0.9-0.7,1.4-0.9s1.2-0.3,1.7-0.5l0,0c0.7-0.2,1.2,0,1.9,0.2c0.7,0.2,1.2,0.7,1.7,1.2
		l8.6,8.6c0.7,0.7,0.7,1.4-0.2,2.3c-0.2,0.2-0.3,0.3-0.5,0.3c-0.2,0.2-0.3,0.2-0.5,0.2c-0.2,0-0.3,0-0.5,0c-0.2,0-0.3-0.2-0.5-0.3
		l-4.7-4.7l-4.4,4.4c-0.3,0.3-0.5,0.5-0.7,0.9c-0.2,0.2-0.2,0.5,0,0.7c0.2,0.3,0.2,0.7,0.3,0.9c0,0.2,0.2,0.3,0.3,0.5l0.9,0.9
		c0.3,0.3,0.7,0.5,1.2,0.5c0.3,0,0.9-0.3,1.4-0.9l2.4-2.4c0.5-0.5,1-0.5,1.7,0.2c0.3,0.3,0.5,0.5,0.5,0.9
		C384,220.8,383.8,221.2,383.6,221.5L383.6,221.5z"/>
	<path class="st1" d="M377.3,195.8l14.5,16.1c0.7,0.7,0.5,1.4-0.3,2.1c-0.9,0.7-1.6,0.7-2.3,0l-14.5-16.1c-0.7-0.7-0.5-1.4,0.3-2.1
		C376.1,195.3,376.8,195.1,377.3,195.8L377.3,195.8z"/>
	<path class="st1" d="M390.1,194.9l-1.9,1.6l7,8.4c0.3,0.3,0.7,0.7,1,0.7c0.3,0,0.9-0.2,1.4-0.5l0.5-0.5c0.5-0.5,1.2-0.3,1.7,0.3
		c0.7,0.7,0.7,1.4,0,1.7l-0.7,0.7c-0.5,0.3-1,0.7-1.6,0.9c-0.5,0.2-1,0.3-1.7,0.5l0,0c-1.2,0.2-2.3-0.3-3.3-1.7l-7-8.4l-0.9,0.7
		c-0.5,0.5-1.2,0.3-1.7-0.3c-0.7-0.7-0.7-1.4,0-1.7l0.9-0.7l-2.1-2.4c-0.7-0.7-0.5-1.6,0.3-2.3s1.6-0.7,2.3,0l2.1,2.4l1.9-1.6
		c0.5-0.5,1.2-0.3,1.7,0.3C390.8,193.9,390.8,194.4,390.1,194.9L390.1,194.9z"/>
	<path class="st1" d="M395.9,190.4l8.4,11.4c0.5,0.7,0.3,1.6-0.5,2.1c-0.9,0.5-1.6,0.5-2.3-0.2l-12.8-17.3c-0.5-0.7-0.3-1.6,0.5-2.1
		c0.9-0.7,1.6-0.5,2.3,0.2l2.6,3.7l5.2-3.8c0.9-0.5,1.9-0.9,3.3-0.9s2.4,0.7,3.5,1.9l7.2,9.8c0.5,0.7,0.3,1.4-0.5,2.1
		c-0.9,0.7-1.6,0.5-2.3-0.2l-7-9.6c-0.3-0.3-0.7-0.7-1.2-0.9l0,0c-0.5-0.2-1-0.2-1.7,0.3L395.9,190.4z"/>
	<path class="st1" d="M428.6,159.6c0.5-0.3,1.2-0.5,2.1-0.7c0.7-0.2,1.4,0.2,1.7,0.9l10,18.4c0.5,0.9,0.2,1.6-0.9,2.1
		c-1,0.5-1.7,0.5-2.3-0.3l-7.5-13.6l-0.7,0.3l0.9,4l2.6,12.4c0.2,0.7-0.2,1.2-0.9,1.7c-0.3,0.2-0.7,0.2-1,0.2s-0.7-0.2-0.9-0.3
		l-5.2-5.1c-1-1-2.1-2.1-3.1-3.1c-1-1-2.3-2.3-3.5-3.5l-0.7,0.5l7.5,13.8c0.5,0.9,0.2,1.6-0.9,2.1c-1,0.5-1.7,0.5-2.3-0.3l-10-18.4
		c-0.3-0.7-0.3-1.2,0.2-1.9c0.5-0.7,1-1,1.7-1.4c0.3-0.2,0.5-0.2,0.9-0.3c0.3-0.2,0.7-0.2,0.9-0.2c0.3,0,0.7,0,0.9,0.2
		c0.3,0.2,0.5,0.2,0.9,0.5l11.9,11.9c-0.2-1.2-0.5-2.4-0.9-3.8c-0.3-1.4-0.7-2.8-1-4.2c-0.3-1.4-0.7-3-1-4.4s-0.7-2.8-0.9-4
		c0-0.3,0-0.5,0-0.9c0-0.3,0.2-0.5,0.3-0.9c0.2-0.3,0.3-0.5,0.7-0.7C428.1,160,428.2,159.8,428.6,159.6L428.6,159.6z"/>
	<path class="st1" d="M442.2,161.4l6.5,14.2c0.3,0.9,0.2,1.6-0.9,1.9c-1,0.5-1.7,0.3-2.1-0.5l-6.5-14.2c-0.3-0.9-0.2-1.6,0.9-2.1
		C441,160.1,441.7,160.5,442.2,161.4L442.2,161.4z M440.5,156.3c0.3,0.5,0.3,1.2,0,1.7c-0.2,0.5-0.7,1-1.2,1.2
		c-0.5,0.3-1.2,0.3-1.7,0.2c-0.5-0.2-1-0.7-1.2-1.2c-0.3-0.5-0.3-1.2,0-1.7c0.2-0.5,0.7-1,1.2-1.2c0.5-0.3,1.2-0.3,1.7,0
		C439.8,155.2,440.3,155.6,440.5,156.3L440.5,156.3z"/>
	<path class="st1" d="M453.3,163.4l4.2-1.6c0.5-0.2,1-0.3,1.6-0.3c0.7,0,1.2,0,1.7,0.2l0,0c0.7,0.2,1.2,0.5,1.7,0.9
		c0.5,0.5,0.9,1,1.2,1.9l0.3,0.9c0.5,1.6,0.5,2.8-0.2,4c-0.3,0.5-0.7,1-1.2,1.4c-0.3,0.3-0.9,0.7-1.4,0.9l-4.7,1.9
		c-0.5,0.2-1,0.3-1.6,0.3s-1.2,0-1.7-0.2c-1.2-0.3-2.3-1.2-2.8-2.8l-0.2-0.3c-0.3-0.9,0-1.4,1-1.7c1-0.3,1.7-0.2,2.1,0.5l0.2,0.3
		c0.2,0.5,0.5,0.9,0.9,1c0.3,0.3,1,0.3,1.7,0l3.7-1.4c0.7-0.3,1-0.7,1.2-1.2c0.2-0.5,0.2-1,0-1.4l-0.3-0.9c-0.2-0.2-0.2-0.5-0.3-0.7
		c-0.2-0.2-0.3-0.3-0.5-0.5c-0.2-0.2-0.5-0.2-0.7-0.2c-0.3,0-0.5,0-0.9,0.2l-4.2,1.6c-0.9,0.3-2.1,0.3-3.3,0.2
		c-1.2-0.2-2.1-1-2.8-2.6l-0.3-1c-0.3-0.7-0.3-1.4-0.3-2.1c0-0.7,0.2-1.2,0.5-1.7l0,0c0.3-0.5,0.7-0.9,1.2-1.4
		c0.5-0.3,0.9-0.7,1.4-0.9l4.5-1.7c0.5-0.2,1-0.3,1.6-0.3s1.2,0.2,1.7,0.2l0,0c0.7,0.2,1.2,0.5,1.7,0.9c0.5,0.5,0.9,1,1.2,1.9
		l0.2,0.2c0.2,0.3,0.2,0.7,0,1c-0.2,0.3-0.5,0.5-1,0.7c-1,0.3-1.7,0.2-2.1-0.5l-0.2-0.2c-0.2-0.5-0.5-0.9-0.9-1
		c-0.5-0.3-1-0.3-1.7,0l-3.5,1.4c-0.7,0.3-1,0.7-1.2,1.2c-0.2,0.5-0.2,1,0,1.4l0.3,0.7c0.2,0.5,0.5,0.9,1,1.2
		C452,163.6,452.7,163.6,453.3,163.4L453.3,163.4z"/>
	<path class="st1" d="M471.1,157.2l4.2-1.2c0.5-0.2,1-0.2,1.7-0.2c0.5,0,1.2,0.2,1.7,0.3l0,0c0.5,0.2,1,0.5,1.6,1
		c0.5,0.5,0.9,1.2,1,1.9l0.2,0.9c0.5,1.6,0.3,3-0.5,4c-0.3,0.5-0.9,1-1.2,1.2c-0.5,0.3-0.9,0.5-1.4,0.7l-4.9,1.4
		c-0.5,0.2-1,0.2-1.6,0.2s-1.2-0.2-1.7-0.3c-1.2-0.3-2.1-1.4-2.6-3l-0.2-0.3c-0.2-0.9,0.2-1.4,1.2-1.7c1-0.3,1.7,0,1.9,0.7l0.2,0.3
		c0.2,0.5,0.3,0.9,0.9,1.2c0.3,0.3,1,0.3,1.7,0.2l3.8-1.2c0.7-0.2,1.2-0.5,1.4-1c0.2-0.5,0.2-1,0-1.4l-0.2-0.9
		c0-0.2-0.2-0.5-0.3-0.7c-0.2-0.2-0.3-0.3-0.5-0.5c-0.2-0.2-0.3-0.2-0.7-0.2c-0.3,0-0.7,0-1,0.2l-4.2,1.2c-1,0.3-2.1,0.2-3.3-0.2
		c-1.2-0.3-2.1-1.2-2.6-3l-0.3-1c-0.2-0.7-0.3-1.6-0.2-2.1c0.2-0.7,0.3-1.2,0.7-1.7l0,0c0.3-0.5,0.9-0.9,1.2-1.2
		c0.5-0.3,0.9-0.7,1.4-0.7l4.7-1.4c0.5-0.2,1-0.2,1.6-0.2s1.2,0.2,1.7,0.3l0,0c0.5,0.2,1,0.5,1.6,1c0.5,0.5,0.9,1.2,1,1.9v0.3
		c0.2,0.3,0,0.7-0.2,1c-0.2,0.2-0.5,0.5-1,0.7c-1,0.3-1.7,0.2-1.9-0.7V153c-0.2-0.5-0.3-0.9-0.9-1.2c-0.3-0.3-1-0.3-1.7-0.2l-3.7,1
		c-0.7,0.2-1.2,0.5-1.4,1c-0.2,0.5-0.2,0.9,0,1.4l0.2,0.7c0.2,0.5,0.5,0.9,0.9,1.2C469.7,157.3,470.4,157.3,471.1,157.2L471.1,157.2
		z"/>
	<path class="st1" d="M485.4,146.8l3.7,15.2c0.2,0.9-0.2,1.6-1.2,1.7c-1,0.3-1.7,0-1.9-1l-3.7-15.2c-0.2-0.9,0.2-1.6,1.2-1.7
		C484.4,145.4,485.1,145.8,485.4,146.8L485.4,146.8z M484.7,141.6c0.2,0.7,0,1.2-0.2,1.7c-0.3,0.5-0.9,0.9-1.4,1
		c-0.7,0.2-1.2,0-1.7-0.2c-0.5-0.3-0.9-0.9-1-1.4c-0.2-0.7,0-1.2,0.3-1.7s0.9-0.9,1.4-1c0.7-0.2,1.2,0,1.7,0.2
		C484.2,140.4,484.6,140.9,484.7,141.6L484.7,141.6z"/>
	<path class="st1" d="M494,143.5l4.7-0.9c0.5-0.2,1,0,1.7,0c0.5,0.2,1.2,0.3,1.7,0.5l0,0c0.5,0.3,1,0.7,1.4,1.2
		c0.3,0.5,0.7,1.2,0.9,2.1l1.6,8.4c0.3,1.6,0,3-0.9,3.8s-1.9,1.6-3,1.7l-4.7,0.9c-0.5,0.2-1,0.2-1.6,0c-0.5,0-1.2-0.3-1.7-0.5
		c-1.2-0.5-1.9-1.6-2.3-3.3l-1.6-8.4c-0.2-0.9-0.2-1.6,0-2.1c0.2-0.7,0.5-1.2,0.9-1.7l0,0c0.5-0.3,0.9-0.9,1.4-1
		C493,143.9,493.5,143.7,494,143.5L494,143.5z M497.3,158.6l3.7-0.7c0.7-0.2,1.2-0.5,1.4-0.9c0.2-0.5,0.3-0.9,0.2-1.4l-1.6-8.4
		c-0.2-0.5-0.3-0.9-0.7-1.2s-0.9-0.5-1.7-0.3l-3.7,0.7c-0.7,0.2-1.2,0.3-1.4,0.9s-0.3,0.9-0.2,1.4l1.6,8.4c0.2,0.5,0.3,0.9,0.7,1.2
		C495.9,158.6,496.6,158.7,497.3,158.6L497.3,158.6z"/>
	<path class="st1" d="M511.9,146l1.2,11.9c0.2,0.9-0.3,1.4-1.6,1.6c-1,0.2-1.7-0.3-1.7-1.2l-1.2-12.1c0-0.9,0-1.6,0.2-2.1
		c0.2-0.7,0.5-1.2,1-1.6c1-0.9,2.1-1.4,3.1-1.4l4.9-0.5c1-0.2,2.1,0.2,3.3,0.9s1.7,1.7,1.9,3.5l1.2,12.1c0.2,0.9-0.3,1.6-1.6,1.6
		c-1,0.2-1.7-0.3-1.7-1.2l-1.2-11.9c0-0.5-0.3-1-0.7-1.4l0,0c-0.3-0.5-0.9-0.7-1.7-0.5l-3.8,0.3c-0.9,0-1.4,0.3-1.6,0.9
		C511.9,144.9,511.9,145.4,511.9,146L511.9,146z"/>
	<path class="st1" d="M539.7,136.5l-0.2,19.8c0,0.9-0.7,1.4-1.7,1.4c-1.2,0-1.7-0.5-1.7-1.4l0.2-21c0-0.5,0.2-0.9,0.3-1.2
		c0.2-0.3,0.7-0.5,1.6-0.5l10.3,0.2c0.7,0,1,0.5,1.2,1.6c0,1-0.3,1.6-1.2,1.6L539.7,136.5z M547.4,145.1c0,0.3,0,0.7-0.2,1
		c-0.2,0.3-0.3,0.5-0.5,0.9c-0.2,0.2-0.5,0.3-0.9,0.5c-0.3,0.2-0.7,0.2-1,0.2c-0.7,0-1.2-0.2-1.7-0.7s-0.7-1-0.7-1.7
		s0.2-1.2,0.7-1.7c0.5-0.5,1-0.7,1.7-0.7c0.3,0,0.7,0,1,0.2s0.5,0.3,0.9,0.5c0.2,0.2,0.3,0.5,0.5,0.9
		C547.2,144.4,547.4,144.7,547.4,145.1L547.4,145.1z"/>
	<path class="st1" d="M557.9,140l4.9,0.3c0.5,0,1,0.2,1.6,0.5c0.5,0.3,1,0.7,1.6,1l0,0c0.5,0.3,0.9,0.9,1,1.6
		c0.2,0.7,0.3,1.4,0.2,2.1l-0.7,8.6c-0.2,1.6-0.9,2.8-1.9,3.5c-1,0.7-2.3,1-3.3,0.9l-4.9-0.3c-0.5,0-1-0.2-1.6-0.3
		c-0.5-0.2-1-0.5-1.6-1c-1-0.9-1.4-2.1-1.4-3.8l0.7-8.6c0-0.9,0.3-1.6,0.7-2.1c0.3-0.5,0.7-1,1.4-1.4l0,0c0.5-0.3,1-0.5,1.7-0.7
		C556.8,140,557.3,139.8,557.9,140L557.9,140z M557.2,155.4l3.7,0.3c0.7,0,1.2-0.2,1.6-0.5c0.3-0.3,0.5-0.9,0.5-1.4l0.7-8.6
		c0-0.5,0-0.9-0.3-1.4c-0.3-0.5-0.7-0.7-1.6-0.7l-3.7-0.3c-0.7,0-1.2,0.2-1.6,0.5c-0.3,0.3-0.5,0.9-0.5,1.4l-0.7,8.6
		c0,0.5,0,0.9,0.3,1.4C555.9,155.1,556.5,155.2,557.2,155.4L557.2,155.4z"/>
	<path class="st1" d="M574.3,146.3l-1.9,12.4c-0.2,0.9-0.7,1.4-1.9,1.2c-1.2-0.2-1.6-0.7-1.6-1.7l1.9-12.4c0.2-1.6,0.9-2.6,1.9-3.1
		s2.3-0.7,3.5-0.5l3.3,0.5c0.7,0.2,1,0.7,0.9,1.6c-0.2,0.9-0.5,1.4-1.2,1.2l-3.1-0.5c-0.7-0.2-1.2,0-1.4,0.2
		C574.5,145.4,574.3,145.8,574.3,146.3L574.3,146.3z"/>
	<path class="st1" d="M597.1,150.9l5.6,1.6c0.5,0.2,1,0.3,1.6,0.7c0.5,0.3,0.9,0.7,1.4,1.2l0,0c0.3,0.5,0.7,1,0.9,1.7s0,1.4-0.2,2.1
		l-1,4c-0.3,1.6-1.2,2.6-2.4,3.1c-0.7,0.2-1.2,0.3-1.7,0.5c-0.5,0-1,0-1.6-0.2l-6.3-1.7c-0.5-0.2-1-0.3-1.4-0.7
		c-0.5-0.3-0.9-0.9-1.4-1.2c-0.9-1-1-2.4-0.7-4l0.5-1.9c0.2-0.9,0.9-1.2,2.1-0.9c1.2,0.3,1.6,0.9,1.4,1.9l-0.5,1.7
		c-0.2,0.5-0.2,1,0,1.6c0.2,0.5,0.7,0.9,1.4,1l4.9,1.2c0.7,0.2,1.2,0.2,1.7-0.2c0.3-0.3,0.7-0.7,0.9-1.2l0.9-3.5
		c0.2-0.5,0.2-1,0-1.4c-0.2-0.5-0.7-0.9-1.4-1l-5.6-1.6c-1-0.3-1.9-0.9-2.8-1.9c-0.9-1-1-2.4-0.7-4l0.9-3.5c0.2-0.7,0.5-1.4,0.9-1.9
		c0.5-0.5,0.9-0.9,1.6-1l0,0c0.5-0.2,1.2-0.3,1.7-0.3s1.2,0,1.6,0.2l6.3,1.7c0.5,0.2,1,0.3,1.6,0.7c0.5,0.3,0.9,0.7,1.4,1.2l0,0
		c0.3,0.5,0.7,1,0.9,1.7c0.2,0.7,0,1.4-0.2,2.1l-0.5,1.7c-0.2,0.9-0.9,1.2-2.1,0.9c-1-0.3-1.6-0.9-1.4-1.9l0.3-1.4
		c0.2-0.5,0.2-1-0.2-1.4c-0.2-0.5-0.7-0.9-1.4-1l-4.9-1.2c-0.7-0.2-1.2-0.2-1.7,0.2c-0.3,0.3-0.7,0.7-0.9,1.2l-0.9,3
		c-0.2,0.5-0.2,1,0,1.4C596,150.3,596.4,150.7,597.1,150.9L597.1,150.9z"/>
	<path class="st1" d="M618.4,152.6l4.5,1.6c0.5,0.2,1,0.5,1.4,0.9c0.5,0.3,0.9,0.9,1.2,1.4l0,0c0.3,0.5,0.5,1.2,0.7,1.7
		c0,0.7,0,1.4-0.3,2.1l-3,8c-0.5,1.6-1.4,2.4-2.8,3c-1.2,0.3-2.4,0.3-3.5,0l-4.5-1.6c-0.5-0.2-0.9-0.5-1.4-0.9
		c-0.5-0.3-0.9-0.9-1.2-1.4c-0.7-1-0.9-2.4-0.3-4l3-8c0.3-0.7,0.7-1.4,1-1.9c0.5-0.5,1-0.9,1.6-1l0,0c0.5-0.2,1.2-0.2,1.7-0.3
		C617.3,152.4,617.9,152.4,618.4,152.6L618.4,152.6z M613.7,167.3l3.5,1.2c0.7,0.2,1.2,0.2,1.7,0c0.3-0.3,0.7-0.7,0.9-1l2.8-8
		c0.2-0.5,0.2-0.9,0-1.4c-0.2-0.5-0.5-0.9-1.2-1l-3.5-1.2c-0.7-0.2-1.2-0.2-1.7,0c-0.5,0.3-0.7,0.7-0.9,1l-2.8,8
		c-0.2,0.5-0.2,0.9,0,1.4C612.6,166.6,613,166.9,613.7,167.3L613.7,167.3z"/>
	<path class="st1" d="M644.5,164.7l-5.1,11c-0.3,0.7-0.7,1.4-1.2,1.7c-0.5,0.5-1,0.7-1.7,0.9l0,0c-0.5,0.2-1.2,0.2-1.7,0.2
		s-1-0.2-1.6-0.3l-4.4-1.9c-0.5-0.2-0.9-0.5-1.4-1c-0.5-0.3-0.9-0.9-1-1.4l0,0c-0.3-0.5-0.5-1.2-0.5-1.9c0-0.7,0.2-1.4,0.5-2.1
		l4.9-11c0.3-0.9,1-1,2.1-0.7c1,0.5,1.4,1,0.9,2.1l-4.9,10.8c-0.2,0.5-0.3,1-0.2,1.6c0,0.5,0.5,1,1.2,1.4l3.5,1.6
		c0.7,0.3,1.4,0.3,1.7,0l0,0c0.5-0.3,0.9-0.7,1-1.2l4.9-10.8c0.3-0.9,1-1,2.1-0.7C644.5,163.3,644.8,163.8,644.5,164.7L644.5,164.7z
		"/>
	<path class="st1" d="M653.6,162.9l-10,19.2c-0.3,0.9-1.2,1-2.1,0.5c-1-0.5-1.2-1.2-0.9-2.1l10-19.2c0.5-0.9,1.2-1,2.1-0.5
		C653.7,161.4,653.9,162.1,653.6,162.9L653.6,162.9z"/>
	<path class="st1" d="M670.4,171.3l5.6,3.5c0.5,0.3,0.9,0.7,1.2,1.2c0.3,0.5,0.7,1,0.9,1.6l0,0c0.2,0.5,0.3,1.2,0.2,1.9
		c-0.2,0.7-0.3,1.4-0.9,2.1l-7.9,12.1c-0.9,1.4-1.9,2.1-3.3,2.1c-0.7,0-1.2,0-1.9-0.2c-0.5-0.2-1-0.3-1.6-0.7l-5.6-3.7
		c-0.3-0.3-0.9-0.7-1.2-1c-0.3-0.5-0.7-1-0.9-1.6c-0.2-0.7-0.3-1.2-0.2-1.9c0.2-0.7,0.3-1.4,0.9-2.1l7.9-12.1
		c0.5-0.7,0.9-1.2,1.6-1.6c0.5-0.3,1.2-0.5,1.7-0.5l0,0c0.7,0,1.2,0,1.9,0.2C669.5,170.8,670,171,670.4,171.3L670.4,171.3z
		 M659.5,189.3l4.2,2.8c0.7,0.3,1.2,0.5,1.6,0.3c0.5-0.2,0.9-0.5,1.2-0.9l7.5-11.5c0.3-0.3,0.3-0.9,0.3-1.4s-0.3-1-1-1.4l-4.2-2.8
		c-0.7-0.3-1.2-0.5-1.6-0.3c-0.5,0.2-0.9,0.5-1,0.9l-7.5,11.7c-0.3,0.5-0.3,0.9-0.3,1.4C658.6,188.5,659,188.8,659.5,189.3
		L659.5,189.3z"/>
	<path class="st1" d="M680.7,190.7l-7.5,10c-0.5,0.7-1.2,0.9-2.3,0.2c-0.9-0.7-1-1.4-0.5-2.3l7.5-10c1-1.4,2.1-1.9,3.3-1.9
		s2.3,0.5,3.3,1.2l2.8,2.1c0.5,0.5,0.5,1,0,1.7s-1,0.9-1.7,0.5l-2.6-1.9c-0.5-0.5-1-0.7-1.4-0.5C681.2,190.2,681,190.4,680.7,190.7
		L680.7,190.7z"/>
	<path class="st1" d="M691.7,195.6l-10,12.1c-0.5,0.7-1.4,0.7-2.3,0c-0.9-0.7-1-1.4-0.3-2.3l10-12.1c0.7-0.7,1.4-0.7,2.3,0
		C692.2,194.1,692.4,194.8,691.7,195.6L691.7,195.6z M695.5,192c-0.3,0.5-0.9,0.9-1.6,0.9s-1.2-0.2-1.7-0.5
		c-0.5-0.3-0.9-0.9-0.9-1.6s0.2-1.2,0.5-1.7c0.3-0.5,0.9-0.9,1.6-0.9s1.2,0.2,1.7,0.5c0.5,0.3,0.7,0.9,0.9,1.6
		S696.1,191.4,695.5,192L695.5,192z"/>
	<path class="st1" d="M695.2,203l-5.8,6.3c-0.3,0.3-0.5,0.9-0.5,1.4s0.2,1,0.7,1.6l2.8,2.6c0.5,0.5,1,0.7,1.6,0.7
		c0.5,0,0.9-0.3,1.2-0.7l0.2-0.2c0.7-0.7,1.4-0.7,2.3,0c0.9,0.7,0.9,1.4,0.2,2.3l-0.2,0.2c-0.5,0.7-1.2,1-1.7,1.2
		c-0.5,0.2-1.2,0.3-1.9,0.2c-1.4-0.2-2.4-0.5-3.1-1.2l-3.7-3.5c-0.9-0.7-1.2-1.7-1.6-3c-0.2-0.7,0-1.2,0.2-1.9
		c0.2-0.7,0.5-1.2,1.2-1.9l5.8-6.3c1-1.2,2.3-1.7,3.5-1.6c0.7,0,1.2,0.2,1.7,0.3s1,0.5,1.4,0.9l3.7,3.5c0.3,0.3,0.7,0.7,1,1.2
		c0.3,0.5,0.5,1,0.7,1.7c0.2,0.5,0.2,1.2-0.2,1.7c-0.2,0.7-0.5,1.2-1,1.9l-2.8,3c-0.3,0.3-0.7,0.5-1,0.7c-0.5,0-1-0.2-1.6-0.7
		l-4.9-4.4c-0.5-0.5-0.5-1,0.2-1.9c0.7-0.7,1.2-0.7,1.7-0.2l3.8,3.5l1.9-2.1c0.3-0.3,0.5-0.9,0.5-1.4s-0.2-1-0.7-1.6l-2.8-2.6
		c-0.5-0.5-1-0.7-1.6-0.7C695.9,202.5,695.5,202.6,695.2,203L695.2,203z"/>
	<path class="st1" d="M708.5,216.3l-8.7,8c-0.7,0.7-1.4,0.5-2.1-0.2c-0.7-0.9-0.7-1.6-0.2-2.3l8.9-8.2c0.5-0.5,1.2-0.9,1.9-1.2
		c0.5-0.2,1.2-0.3,1.9-0.2c1.2,0.2,2.3,0.7,3,1.6l3.3,3.5c0.7,0.7,1.2,1.7,1.4,3.1c0.2,1.4-0.3,2.6-1.6,3.7l-8.9,8.2
		c-0.7,0.7-1.4,0.5-2.3-0.2c-0.7-0.9-0.7-1.6,0-2.3l8.7-8c0.3-0.3,0.7-0.9,0.7-1.4l0,0c0.2-0.5,0-1-0.5-1.7l-2.6-2.8
		c-0.5-0.5-1-0.9-1.6-0.7C709.4,215.6,709,215.8,708.5,216.3L708.5,216.3z"/>
	<path class="st1" d="M724.4,231l-1.6-1.9l-8.6,7c-0.3,0.3-0.7,0.7-0.7,1c0,0.3,0.2,0.9,0.5,1.4l0.5,0.5c0.5,0.5,0.3,1.2-0.3,1.7
		c-0.7,0.5-1.4,0.7-1.7,0l-0.7-0.7c-0.3-0.5-0.7-1-0.9-1.6c-0.2-0.5-0.3-1-0.5-1.7l0,0c-0.2-1.2,0.3-2.3,1.7-3.3l8.6-7l-0.7-0.9
		c-0.5-0.5-0.3-1.2,0.3-1.7c0.7-0.7,1.4-0.7,1.7,0l0.7,0.9l2.4-2.1c0.7-0.7,1.6-0.5,2.3,0.3c0.7,0.9,0.7,1.6,0,2.3l-2.4,2.1l1.6,1.9
		c0.5,0.5,0.3,1.2-0.3,1.7C725.6,231.5,724.9,231.7,724.4,231L724.4,231z"/>
	<path class="st1" d="M727.4,238l-7,5.1c-0.3,0.3-0.7,0.7-0.9,1.2c-0.2,0.5,0,1,0.3,1.6l2.3,3c0.3,0.5,0.9,0.9,1.4,1
		c0.5,0,0.9,0,1.4-0.3l0.3-0.2c0.7-0.5,1.6-0.3,2.1,0.5c0.7,0.9,0.5,1.6-0.2,2.3l-0.3,0.2c-0.7,0.5-1.4,0.9-1.9,0.9s-1.2,0-1.9-0.2
		c-1.2-0.3-2.3-1-2.8-1.9l-3-4.2c-0.7-0.9-0.9-1.9-0.9-3.1c0-0.7,0.2-1.2,0.5-1.7s0.9-1,1.6-1.6l7-5.1c1.4-0.9,2.6-1.2,3.8-0.9
		c0.5,0.2,1,0.5,1.6,0.7c0.5,0.3,0.9,0.7,1.2,1l3,4.2c0.3,0.3,0.5,0.9,0.7,1.4c0.2,0.5,0.3,1.2,0.3,1.7c0,0.5-0.2,1.2-0.5,1.7
		c-0.3,0.5-0.9,1.2-1.4,1.6l-3.3,2.4c-0.3,0.3-0.7,0.3-1.2,0.3s-0.9-0.3-1.4-0.9l-3.8-5.2c-0.3-0.5-0.3-1.2,0.5-1.7
		c0.7-0.5,1.4-0.5,1.7,0.2l3,4.2l2.3-1.7c0.3-0.3,0.7-0.7,0.9-1.2c0.2-0.5,0-1-0.5-1.6l-2.3-3.1c-0.5-0.5-0.9-0.9-1.4-0.9
		C728.3,237.4,727.7,237.6,727.4,238L727.4,238z"/>
	<path class="st1" d="M731.6,266.5l12.2-7.5l-3-5.1c-0.3-0.7-0.9-1-1.4-1s-1,0.2-1.6,0.3l-7.5,4.5c-0.5,0.3-0.7,0.7-0.7,1
		s0.2,0.9,0.5,1.6l1.6,2.6c0.3,0.7,0.2,1.2-0.7,1.7c-0.3,0.2-0.7,0.3-1,0.3c-0.3,0-0.5-0.2-0.7-0.5l-1.9-3.1c-0.7-1-1-2.3-0.9-3.3
		c0-1.2,0.7-2.1,2.1-3.1l7.7-4.7c0.7-0.3,1.4-0.7,2.1-0.7c0.7-0.2,1.2,0,1.9,0.3c1.2,0.5,2.1,1.2,2.6,2.1l3.3,5.4l3.8-2.4
		c0.9-0.5,1.6-0.3,2.1,0.7c0.5,0.9,0.5,1.7-0.3,2.1l-18.4,11.2c-0.9,0.5-1.6,0.3-2.1-0.7c-0.2-0.3-0.3-0.7-0.3-1
		C730.9,267.2,731.2,266.8,731.6,266.5L731.6,266.5z"/>
	<path class="st1" d="M767.6,287.5c0.2,0.5,0.3,1.2,0.5,2.1c0,0.7-0.3,1.2-1,1.6l-19.1,8.4c-0.9,0.3-1.6,0-2.1-1
		c-0.5-1-0.3-1.7,0.5-2.3l14.3-6.3l-0.3-0.9l-4,0.5l-12.6,1.6c-0.7,0-1.2-0.3-1.6-1c-0.2-0.3-0.2-0.7-0.2-1s0.2-0.7,0.5-0.9l5.6-4.9
		c1-1,2.3-1.9,3.3-3c1-1,2.4-2.1,3.8-3.3l-0.5-0.7l-14.3,6.3c-0.9,0.3-1.6,0-2.1-1s-0.3-1.7,0.5-2.3l19.1-8.4
		c0.7-0.3,1.4-0.2,1.9,0.3c0.5,0.5,1,1.2,1.2,1.7c0.2,0.3,0.2,0.5,0.2,0.9s0,0.7,0,1s-0.2,0.7-0.2,0.9c-0.2,0.3-0.3,0.5-0.5,0.9
		l-12.9,10.8c1.2-0.2,2.6-0.3,4-0.5c1.4-0.2,2.8-0.3,4.4-0.7c1.4-0.2,3-0.3,4.4-0.5c1.4-0.2,2.8-0.3,4-0.5c0.3,0,0.5,0,0.9,0.2
		c0.3,0.2,0.5,0.2,0.9,0.5c0.2,0.2,0.5,0.3,0.7,0.7C767.4,287,767.6,287.1,767.6,287.5L767.6,287.5z"/>
	<path class="st1" d="M761.7,302.3l-8.2,2.6c-0.5,0.2-0.9,0.5-1.2,0.9c-0.3,0.5-0.3,1-0.2,1.7l1.2,3.7c0.2,0.7,0.5,1.2,1,1.4
		c0.5,0.2,0.9,0.2,1.4,0l0.3-0.2c0.9-0.3,1.6,0,1.9,1c0.3,1,0,1.7-0.9,2.1l-0.3,0.2c-0.9,0.3-1.6,0.3-2.1,0.3
		c-0.5-0.2-1.2-0.3-1.7-0.7c-1-0.7-1.7-1.7-2.1-2.6l-1.6-4.9c-0.3-1-0.3-2.1,0.2-3.3c0.2-0.5,0.5-1,1-1.6c0.5-0.5,1.2-0.9,1.9-1
		l8.2-2.6c1.6-0.5,2.8-0.3,3.8,0.3c0.5,0.3,0.9,0.7,1.2,1.2c0.3,0.5,0.7,0.9,0.9,1.4l1.6,4.9c0.2,0.5,0.2,1,0.2,1.6
		c0,0.7,0,1.2-0.2,1.7c-0.2,0.5-0.5,1-1,1.6s-1,0.9-1.9,1l-3.8,1.2c-0.3,0.2-0.9,0.2-1.2,0c-0.5-0.2-0.7-0.5-1-1.2l-2.1-6.1
		c-0.2-0.7,0.2-1.2,1-1.6c0.9-0.3,1.4,0,1.7,0.7l1.6,4.9l2.6-0.9c0.5-0.2,0.9-0.5,1.2-0.9c0.3-0.3,0.3-1,0-1.7l-1.2-3.7
		c-0.2-0.7-0.5-1.2-1-1.4C762.5,302.3,762.2,302.3,761.7,302.3L761.7,302.3z"/>
	<path class="st1" d="M756.9,331l14-3.3l-1.4-5.8c-0.2-0.9-0.5-1.2-1-1.4c-0.5-0.2-1-0.2-1.6,0l-8.4,2.1c-0.5,0.2-0.9,0.3-1,0.7
		c-0.2,0.3-0.2,0.9,0,1.6l0.7,3c0.2,0.7-0.2,1.2-1.2,1.4c-0.3,0.2-0.7,0.2-1,0c-0.3-0.2-0.5-0.3-0.5-0.7l-0.9-3.5
		c-0.3-1.2-0.2-2.4,0.2-3.5c0.3-1,1.4-1.9,3-2.3l8.7-2.1c0.9-0.2,1.6-0.2,2.1-0.2c0.7,0.2,1.2,0.3,1.7,0.9c1,0.9,1.6,1.7,1.9,2.8
		l1.6,6.3l4.4-1c0.9-0.2,1.6,0.2,1.7,1.2c0.2,1,0,1.7-1,1.9l-20.8,5.1c-0.9,0.2-1.6-0.2-1.7-1.2c-0.2-0.3-0.2-0.9,0-1.2
		C756.1,331.4,756.4,331,756.9,331L756.9,331z"/>
	<path class="st1" d="M774.4,337.9l-15.4,2.8c-0.9,0.2-1.6-0.3-1.7-1.4c-0.2-1,0.2-1.7,1-1.9l15.4-2.8c0.9-0.2,1.6,0.3,1.7,1.4
		C775.7,337,775.3,337.7,774.4,337.9L774.4,337.9z M779.7,337.5c-0.7,0.2-1.2,0-1.7-0.3s-0.9-0.9-0.9-1.6c-0.2-0.7,0-1.2,0.3-1.7
		s0.9-0.9,1.6-1s1.2,0,1.7,0.3s0.9,0.9,0.9,1.6c0.2,0.7,0,1.2-0.3,1.7C780.7,337.2,780.4,337.3,779.7,337.5L779.7,337.5z"/>
	<path class="st1" d="M766.4,357.8L765,358c-1.6,0.2-3-0.2-3.8-1.2c-0.9-1-1.4-1.9-1.6-3l-0.7-5.1c-0.2-1,0.2-2.1,0.7-3.3
		c0.3-0.5,0.9-1,1.4-1.2c0.5-0.3,1.2-0.5,2.1-0.7l8.6-1c1.6-0.2,2.8,0.2,3.8,1c0.3,0.5,0.7,0.9,1,1.4c0.3,0.5,0.5,1,0.5,1.6l0.7,5.1
		c0,0.5,0,1,0,1.6c-0.2,0.7-0.3,1.2-0.5,1.7c-0.3,0.5-0.7,1-1.2,1.4c-0.5,0.3-1.2,0.7-2.1,0.7l-1.6,0.2c-0.9,0.2-1.6-0.3-1.6-1.4
		c-0.2-1,0.3-1.7,1.2-1.7l1.2-0.2c0.5,0,0.9-0.3,1.4-0.7c0.3-0.3,0.5-0.9,0.3-1.6l-0.5-3.7c-0.2-0.7-0.3-1.2-0.9-1.6
		c-0.5-0.3-0.9-0.3-1.4-0.3l-8.6,1c-0.5,0-0.9,0.3-1.2,0.7c-0.3,0.3-0.5,0.9-0.3,1.6l0.5,3.7c0.2,0.7,0.3,1.2,0.9,1.6
		c0.5,0.3,0.9,0.3,1.4,0.3l1.4-0.2c0.9-0.2,1.6,0.3,1.6,1.4C767.8,357.1,767.4,357.6,766.4,357.8L766.4,357.8z"/>
	<path class="st1" d="M777.4,363.7l-15.6,1c-0.9,0-1.4-0.5-1.6-1.6c0-1,0.3-1.7,1.4-1.7l15.6-1c1,0,1.6,0.5,1.6,1.6
		S778.5,363.6,777.4,363.7L777.4,363.7z M782.8,363.9c-0.7,0-1.2-0.2-1.7-0.5c-0.5-0.3-0.7-0.9-0.7-1.6s0.2-1.2,0.5-1.7
		c0.3-0.5,0.9-0.7,1.6-0.9c0.7,0,1.2,0.2,1.7,0.5c0.5,0.3,0.7,0.9,0.7,1.6c0,0.7-0.2,1.2-0.5,1.7
		C783.9,363.6,783.4,363.9,782.8,363.9L782.8,363.9z"/>
	<path class="st1" d="M774.1,371.3l-11.9,0.2c-0.9,0-1.4-0.5-1.4-1.6s0.5-1.7,1.4-1.7l12.2-0.2c0.9,0,1.6,0.2,2.1,0.3
		c0.5,0.2,1,0.7,1.6,1.2c0.9,1,1.2,2.1,1.2,3.1v4.9c0,1-0.3,2.1-1,3.1c-0.7,1-1.9,1.7-3.7,1.7l-12.2,0.2c-0.9,0-1.4-0.5-1.4-1.6
		s0.5-1.7,1.4-1.7l11.9-0.2c0.5,0,1-0.2,1.6-0.5l0,0c0.5-0.3,0.7-0.9,0.7-1.6v-3.8c0-0.9-0.3-1.4-0.7-1.6
		C775.1,371.4,774.6,371.3,774.1,371.3L774.1,371.3z"/>
	<path class="st1" d="M774.3,390.2l-8.6-0.5c-0.5,0-0.9,0.2-1.4,0.3c-0.5,0.3-0.7,0.9-0.7,1.6l-0.2,3.8c0,0.7,0.2,1.2,0.5,1.6
		c0.3,0.3,0.7,0.5,1.2,0.5h0.3c0.9,0,1.4,0.7,1.4,1.7c0,1-0.5,1.6-1.6,1.6H765c-0.9,0-1.6-0.2-2.1-0.5c-0.5-0.3-1-0.7-1.4-1.4
		c-0.7-1-1-2.3-0.9-3.3l0.3-5.1c0-1,0.5-2.1,1.4-3c0.5-0.5,1-0.9,1.6-1c0.7-0.2,1.4-0.3,2.1-0.3l8.6,0.5c1.6,0.2,2.8,0.7,3.5,1.7
		c0.3,0.5,0.5,1,0.7,1.6c0.2,0.5,0.2,1,0.2,1.6l-0.3,5.1c0,0.5-0.2,1-0.3,1.6c-0.2,0.5-0.5,1-0.9,1.6s-0.9,0.9-1.4,1
		c-0.7,0.2-1.4,0.3-2.3,0.3l-4-0.2c-0.5,0-0.9-0.2-1.2-0.5c-0.3-0.3-0.5-0.9-0.5-1.6l0.3-6.5c0-0.7,0.5-1,1.6-1
		c0.9,0,1.4,0.5,1.4,1.2l-0.3,5.1l2.8,0.2c0.5,0,1-0.2,1.4-0.3c0.3-0.3,0.7-0.9,0.7-1.6l0.2-3.8c0-0.7-0.2-1.2-0.5-1.6
		C775.1,390.3,774.8,390.2,774.3,390.2L774.3,390.2z"/>
	<path class="st1" d="M539.5,974.3c-158.3,0-287.2-128.9-287.2-287.2V374.2C252.3,215.9,381.2,87,539.5,87s287.2,128.9,287.2,287.2
		V687C826.6,845.3,697.8,974.3,539.5,974.3L539.5,974.3z M539.5,96.6c-153.1,0-277.6,124.6-277.6,277.6V687
		c0,153.1,124.6,277.6,277.6,277.6S817.1,840.1,817.1,687V374.2C816.9,221.2,692.6,96.6,539.5,96.6L539.5,96.6z M539.5,832
		c-1.9,0-3.8,0-5.8-0.2c-82-3-148.9-74-148.9-158.5V387.7c0-84.3,66.8-155.5,148.9-158.5c42.3-1.4,82.4,13.8,112.8,43.2
		c30.4,29.4,47.2,68.9,47.2,111.3v293.7c0,42.3-16.8,81.7-47.2,111.3C617.5,816.7,579.7,832,539.5,832L539.5,832z M534.1,822.2
		c39.7,1.4,77.3-12.9,105.8-40.6c28.7-27.6,44.4-64.7,44.4-104.3V383.7c0-39.7-15.7-76.6-44.4-104.3c-28.5-27.6-66.1-42-105.8-40.6
		c-77,2.8-139.6,69.4-139.6,148.9v285.8C394.5,752.8,457.1,819.5,534.1,822.2L534.1,822.2z"/>
	<path class="st1" d="M552.4,687.6c-6.3-22.6,18.5-36.7,29.2-35.5c-12.2,21.2,5.2,37.4,4.2,62.6c-0.9,16.4-17,31.5-37.3,42.7
		c-4.4-17.7,31.7-22.7,19.8-55.3c-2.6,5.6-7.2,23.6-21.9,24.5C555.4,712.6,558,707.1,552.4,687.6L552.4,687.6z M493.1,714.5
		c0.9,16.4,17,31.5,37.3,42.7c4.4-17.7-31.7-22.7-19.8-55.3c2.6,5.6,7.2,23.6,21.9,24.5c-8.9-13.8-11.5-19.1-6.1-38.8
		c6.3-22.6-18.5-36.7-29.2-35.5C509.6,673.2,491.9,689.5,493.1,714.5L493.1,714.5z M548.8,707.3c0-6.6-4.2-12.1-9.3-12.1
		c-5.1,0-9.3,5.4-9.3,12.1c0,6.6,4.2,12.1,9.3,12.1C544.6,719.6,548.8,714.1,548.8,707.3L548.8,707.3z M515.2,758.7
		c-12.8-7.3-27.5-6.1-27.5-6.1s6.3,13.3,19.1,20.6c12.9,7.3,27.5,6.1,27.5,6.1S528,766.3,515.2,758.7L515.2,758.7z M563.6,758.7
		c-12.9,7.3-19.1,20.6-19.1,20.6s14.7,1.4,27.5-6.1c12.8-7.3,19.1-20.6,19.1-20.6S576.6,751.4,563.6,758.7L563.6,758.7z"/>
	<path class="st1" d="M537.1,367.8l-4.7,8c-0.5-0.2-1-0.3-1.6-0.3c-1.9,0-3.7,1.2-4.5,3H504l-3-5.1l0,0l0,0l-10.3-17.8l8.7-15
		l9.3,15.9c0,0,0,0,0,0.2l1.2,1.9c-0.5,0.7-0.9,1.7-0.9,2.8c0,2.8,2.1,4.9,4.9,4.9c1.7,0,3.5-1,4.2-2.4h16.4L537.1,367.8z
		 M516.4,361.3c0,0.7-0.2,1.2-0.5,1.6c-0.3,0.5-1,0.9-1.7,0.9c-1.4,0-2.4-1-2.4-2.4c0-0.3,0-0.7,0.2-0.9c0.3-0.9,1.2-1.4,2.1-1.4
		c0.9,0,1.7,0.5,2.1,1.4C516.2,360.4,516.4,360.8,516.4,361.3L516.4,361.3z"/>
	<path class="st1" d="M526.9,350.1l3,5.2l-2.4,4.2h-8.9c-0.7-1.9-2.4-3.3-4.7-3.3c-0.2,0-0.5,0-0.7,0l-1-1.9l0,0l-10.3-18l13.5-23.3
		h17.3l-10.7,18.4c-2.4,0.3-4.4,2.4-4.4,4.9s1.9,4.5,4.4,4.9L526.9,350.1z M524.8,336.5c0,0.7-0.2,1.2-0.7,1.6
		c-0.3,0.5-1,0.7-1.7,0.7c-0.3,0-0.7,0-1-0.3c-0.7-0.3-1.4-1.2-1.4-2.1c0-0.9,0.5-1.7,1.4-2.1c0.3-0.2,0.7-0.3,1-0.3
		c0.7,0,1.4,0.3,1.7,0.7C524.5,335.2,524.8,335.9,524.8,336.5L524.8,336.5z"/>
	<path class="st1" d="M572.4,328.2h-19.9c-0.7-1.7-2.4-3-4.4-3c-2.8,0-4.9,2.1-4.9,4.9c0,0.7,0.2,1.2,0.3,1.7l-8.7,15.2h-4.9
		l-4.2-7.2c1-0.9,1.6-2.1,1.6-3.7c0-1.4-0.7-2.8-1.6-3.7l11.4-19.6h26.8L572.4,328.2z M550.3,330.2c0,0.5-0.2,0.9-0.3,1.4
		c-0.3,0.7-1,1-1.9,1c-0.2,0-0.3,0-0.5,0c-1-0.3-1.7-1.2-1.7-2.3l0,0c0-1.4,1-2.4,2.4-2.4c0.9,0,1.6,0.3,1.9,1
		C550.2,329.3,550.3,329.8,550.3,330.2L550.3,330.2z"/>
	<path class="st1" d="M588.1,355.4l-8.7,15l-9.3-15.9l0,0l-1.4-2.4c0.3-0.7,0.5-1.4,0.5-2.3v-0.2c0-0.2,0-0.2,0-0.2v-0.2v-0.2v-0.2
		v-0.2c0-0.2,0-0.2,0-0.3c-0.2-0.3-0.3-0.7-0.3-1c0-0.2-0.2-0.2-0.2-0.3c0-0.2-0.2-0.2-0.2-0.3c0,0,0,0-0.2-0.2c0,0,0,0-0.2-0.2
		c0,0,0,0-0.2-0.2c-0.2-0.2-0.5-0.3-0.7-0.5c0,0-0.2,0-0.2-0.2c-0.2,0-0.2-0.2-0.3-0.2c-0.2,0-0.2-0.2-0.3-0.2
		c-0.2,0-0.3-0.2-0.5-0.2h-0.2h-0.2h-0.2l0,0h-0.2l0,0H565c-0.2,0-0.2,0-0.3,0c-0.3,0-0.7,0-1,0.2c-0.2,0-0.3,0-0.5,0.2
		c-0.3,0.2-0.5,0.2-0.9,0.3c0,0-0.2,0.2-0.3,0.2l-0.2,0.2c-0.3,0.2-0.7,0.5-0.9,0.9l-0.2,0.2l-0.2,0.2h-16.1l-2.4-4.2l4.7-8.2
		c0.5,0.2,1,0.3,1.6,0.3c1.9,0,3.7-1.2,4.5-3H575L588.1,355.4z M566.8,349.8c0,0.2,0,0.3,0,0.5c-0.2,1-1,1.7-1.9,1.9
		c-0.2,0-0.2,0-0.3,0c-1,0-1.9-0.5-2.1-1.4c-0.2-0.3-0.2-0.5-0.2-0.9c0-0.7,0.3-1.2,0.7-1.7c0.3-0.3,1-0.7,1.6-0.7
		C565.7,347.3,566.8,348.5,566.8,349.8L566.8,349.8z"/>
	<path class="st1" d="M577.1,374.4l-13.5,23.3h-17.3l10.7-18.5c2.4-0.3,4.2-2.4,4.2-4.9s-1.9-4.5-4.4-4.9l-8-14l2.4-4.2h8.4
		c0.5,2.1,2.4,3.5,4.7,3.5c0.3,0,0.9,0,1.2-0.2L577.1,374.4z M558.9,374.1c0,0.9-0.5,1.6-1.2,2.1c-0.3,0.2-0.7,0.3-1.2,0.3
		c-0.7,0-1.2-0.3-1.7-0.7c-0.3-0.3-0.7-1-0.7-1.7c0-0.7,0.2-1.2,0.7-1.6c0.3-0.5,1-0.7,1.7-0.7c0.3,0,0.7,0,1,0.2
		C558.2,372.3,558.9,373.2,558.9,374.1L558.9,374.1z"/>
	<path class="st1" d="M553.1,377.9l-11.4,19.8H515l-8.7-15h20.1c0.7,1.7,2.4,3,4.5,3c2.8,0,4.9-2.1,4.9-4.9c0-0.7-0.2-1.2-0.3-1.9
		l5.8-10l0,0l3-5.2h4.9l4,7c-0.9,0.9-1.6,2.1-1.6,3.7C551.6,375.6,552.1,377,553.1,377.9L553.1,377.9z M533.4,380.5
		c0,1.4-1,2.4-2.4,2.4c-0.9,0-1.6-0.3-1.9-1c-0.3-0.3-0.3-0.9-0.3-1.4s0.2-0.9,0.3-1.4c0.3-0.7,1-1,1.9-1c0.2,0,0.3,0,0.5,0
		C532.5,378.6,533.4,379.5,533.4,380.5L533.4,380.5L533.4,380.5z"/>
	<path class="st1" d="M545.8,355.4c0,3.7-3,6.6-6.6,6.6c-3.7,0-6.6-3-6.6-6.6c0-3.7,3-6.6,6.6-6.6
		C542.8,348.7,545.8,351.7,545.8,355.4L545.8,355.4z"/>
	<path class="st1" d="M321.7,686.2h-0.3c-0.2,2.6-0.3,2.8-3.7,3l-14.2,0.9c-4.7,0.3-5.2,0.9-4.9,5.6h0.3c0-2.6,0.2-2.8,3.7-3
		l8.7-0.5l0.5,8.2h0.3l-0.5-8.2l4.7-0.3c2.4-0.2,4.9,1.6,5.1,4.2l0.3,5.8h0.3l-0.3-5.9c-0.2-2.1-1.7-3.7-3.7-4.2
		C321.5,691.2,321.9,690.2,321.7,686.2L321.7,686.2z"/>
	<path class="st1" d="M308.2,707.8c-4.2,0.7-7.9,4.4-7.5,7.5c0.5,3.1,5.1,5.6,9.3,4.9c4.4-0.7,7.9-4.2,7.5-7.5
		C317,709.6,312.4,707.1,308.2,707.8L308.2,707.8z M308.6,710.3c4.2-0.7,8.2,0.5,8.6,2.4c0.3,2.1-3.1,4.2-7.5,4.9
		c-4.4,0.7-8.2-0.5-8.6-2.4C300.9,713.3,304.2,711,308.6,710.3L308.6,710.3z"/>
	<path class="st1" d="M321.2,732c-0.5-2.1-1.6-7.7-5.1-6.8c-1.9,0.3-2.8,1.4-4,4.5c-1,2.6-2.1,3.5-3.7,3.8c-2.3,0.5-3.7-0.3-4.2-2.3
		c-0.5-2.1,1-3.7,3-4l-0.2-0.3c-1.9,0.5-3.7,2.1-3.1,4.7c0.5,2.6,2.6,4.2,5.2,3.5c2.3-0.5,3.5-1.7,4.7-4.4c1.2-2.6,1.9-3.5,3.1-3.7
		c3-0.7,3.7,3.1,4,5.1L321.2,732z"/>
	<path class="st1" d="M321.7,735.5l-0.3,0.2l0.7,2.6l-10.7,3c-4.4,1.2-4.5,3-3.3,7.2h0.3c-0.7-3.1-0.2-3.7,2.6-4.5l11.7-3.3l0.9,3.3
		l0.3-0.2l-0.9-3.3l4.7-1.4v-0.3C324.3,739.3,322.6,737.9,321.7,735.5L321.7,735.5z"/>
	<path class="st1" d="M311.6,759.3c0.7,1.7,2.4,3.1,4.9,3.3v-0.3c-2.1-0.3-3.8-1.2-4.4-3c-0.9-2.4,2.3-4.9,6.3-6.3
		c0.2,0,0.3-0.2,0.5-0.2c3,6.5,5.1,8.6,7.5,7.7c2.4-0.9,2.3-4.2,1.6-5.9c-1.4-3.8-6.3-5.2-10.3-3.8
		C313.5,751.8,310.3,755.9,311.6,759.3L311.6,759.3z M327.5,754.4c0.3,1,0.3,3-1.6,3.8c-3.1,1-4.5-1-6.6-5.6
		C322.9,751.4,326.6,751.8,327.5,754.4L327.5,754.4z"/>
	<path class="st1" d="M330.8,762.6h-0.3c0.9,2.4,0.3,3-2.4,4.2l-7,3c-4.2,1.7-4.4,3.3-2.8,6.8h0.3c-0.9-2.3-0.3-3,2.4-4l7-3
		c2.4-1,5.1-0.3,6.3,2.1l0.5,1.2l0.3-0.2l-0.5-1.2c-0.7-1.7-2.4-3-4.9-2.8C332.2,767.3,332.4,765.9,330.8,762.6L330.8,762.6z"/>
	<path class="st1" d="M336.2,774.8h-0.3c1,2.4,0.5,3-2.1,4.2l-6.8,3.3c-4,1.9-4.2,3.5-2.4,7h0.3c-1-2.3-0.5-3,2.1-4.2l6.8-3.3
		C337.6,779.9,338.2,778.7,336.2,774.8L336.2,774.8z M341.5,774.8c-0.9,0.5-1.4,1.4-1,2.1c0.3,0.7,1.4,1,2.3,0.5
		c0.9-0.3,1.4-1.4,1-2.1C343.4,774.7,342.3,774.5,341.5,774.8L341.5,774.8z"/>
	<path class="st1" d="M340.6,783.9h-0.3c1.2,2.4,0.7,3-1.9,4.4l-6.5,3.7c-4,2.3-3.8,3.8-1.9,7.2h0.3c-1.2-2.3-0.7-3,1.9-4.4l6.6-3.7
		l0,0c2.1-1.2,4.5-0.7,5.6,0.9c1.2,2.3-0.3,3.3-2.1,4.4l-5.9,3.5c-4,2.3-3.8,3.8-1.9,7.2h0.3c-1.2-2.3-0.7-3,1.9-4.4l6.6-3.7
		c2.4-1.4,3.7-4.2,2.4-6.5c-1-1.7-2.8-2.6-5.2-2.3C342.5,788.5,342.3,787.3,340.6,783.9L340.6,783.9z"/>
	<path class="st1" d="M341.5,820.2c-2.8,1.9-6.3,2.3-7.9-0.2c-1.2-1.7-1-4,0.7-5.8l-0.2-0.2c-1.9,1.7-2.3,4.4-0.9,6.3
		c2.1,3,6.3,4,9.4,1.9l11.9-8.2c2.3-1.6,3-1.7,3.3-1.6l0.2-0.3c-1.4-1.2-3-1.4-5.8,0.3c1.9-2.1,2.8-4.4,1.7-6.1
		c-1.7-2.4-6.8-2.4-10.3,0c-3.5,2.4-5.4,7.2-3.7,9.6c1.2,1.7,3.7,1.7,6.3,0.7L341.5,820.2z M349.5,814.6c-3.5,2.4-7.5,3.1-8.7,1.6
		c-1.2-1.7,0.9-5.2,4.5-7.7c3.5-2.4,7.5-3.1,8.7-1.6C355.3,808.6,353.2,812.1,349.5,814.6L349.5,814.6z"/>
	<path class="st1" d="M376.3,824.5c-2.3-2.6-5.4-3.3-7.9-1c-1.6,1.4-1.9,3.1-1.6,7.7c0.3,3.8-0.3,5.6-2.1,7.2
		c-2.4,2.1-4.7,2.3-6.5,0.2c-1.7-2.1-1.4-4.5,1.4-7.2l-0.3-0.3c-2.4,2.3-3.5,5.1-1.4,7.7c2.1,2.4,5.6,2.8,8.4,0.2
		c2.4-2.1,3.1-4.5,3-8.4c-0.2-4,0-5.4,1.4-6.5c1.6-1.4,3.7-1.2,5.4,0.7l2.4,2.8l0.3-0.2L376.3,824.5z"/>
	<path class="st1" d="M377,834.7l-0.3,0.2c1.7,1.9,1.4,2.6-0.5,4.7l-11,11.2c-3.1,3.3-2.8,4.7,0,7.5l0.3-0.2
		c-1.7-1.7-1.4-2.6,0.7-4.7l6.1-6.3c-1.6,2.4-1.9,4.9-0.5,6.3c2.1,2.1,7.2,1,10.1-1.9c3-3.1,3.8-8,1.7-10.1c-1.6-1.4-4-0.9-6.3,0.7
		C380.1,838.9,380,837.6,377,834.7L377,834.7z M374.7,844.5c3-3.1,6.8-4.5,8.4-3.1c1.4,1.4,0,5.2-3,8.4c-3,3.1-6.8,4.5-8.2,3.1
		C370.3,851.3,371.7,847.4,374.7,844.5L374.7,844.5z"/>
	<path class="st1" d="M390.5,847.6l-0.3,0.2c1.9,1.7,1.6,2.4-0.3,4.7l-4.9,5.8c-3,3.5-2.4,4.9,0.5,7.3l0.3-0.2
		c-1.9-1.7-1.6-2.4,0.3-4.7l4.9-5.8C394,851.6,394,850.6,390.5,847.6L390.5,847.6z M395.5,845.5c-0.7,0.7-0.7,1.9,0,2.4
		c0.7,0.5,1.7,0.3,2.3-0.5c0.7-0.7,0.7-1.7,0-2.3C397.1,844.6,396.1,844.8,395.5,845.5L395.5,845.5z"/>
	<path class="st1" d="M398.2,854.1l-0.3,0.2c2.1,1.7,1.7,2.4,0,4.7l-4.5,5.9c-2.8,3.7-2.1,5.1,0.9,7.3l0.3-0.2
		c-1.9-1.6-1.7-2.4,0-4.7l4.5-5.9c1.6-2.1,4.4-2.8,6.5-1.2l1,0.9l0.2-0.3l-1-0.9c-1.6-1.2-3.7-1.2-5.6,0
		C401.7,857.6,401.1,856.4,398.2,854.1L398.2,854.1z"/>
	<path class="st1" d="M408.8,862.1l-0.3,0.2c2.1,1.6,1.9,2.3,0.2,4.7l-4.2,6.1c-2.6,3.7-1.9,5.1,1.2,7.3l0.3-0.2
		c-2.1-1.6-1.9-2.3-0.2-4.7l4.4-6.3C412.7,865.8,412.5,864.8,408.8,862.1L408.8,862.1z M413.5,859.7c-0.5,0.9-0.5,1.9,0.2,2.4
		c0.7,0.5,1.7,0.2,2.3-0.7c0.5-0.9,0.5-1.9-0.2-2.3C415.1,858.5,414.1,858.8,413.5,859.7L413.5,859.7z"/>
	<path class="st1" d="M416.7,868.1l-0.2,0.3l2.4,1.4l-5.9,9.4c-2.4,3.8-1.4,5.2,2.3,7.5l0.3-0.2c-2.6-1.7-2.6-2.6-1-5.1l6.5-10.3
		l3,1.9l0.2-0.3l-3-1.9l2.6-4.2l-0.2-0.2C421.2,869,419,869.3,416.7,868.1L416.7,868.1z"/>
	<path class="st1" d="M426.8,878.6l-3.5,6.6c-1.4,2.4-1,5.4,1.2,6.6c1.7,0.9,3.7,0.7,5.4-1c-1,2.8,0,3.8,3,5.4l0.3-0.2
		c-2.3-1.2-2.1-2.1-0.7-4.7l3.5-6.6c2.1-3.8,1.7-5.1-2.1-7.2l-0.3,0.2c2.3,1.4,2.1,2.1,0.7,4.7l-3.5,6.6c-1.2,2.3-3.5,3.1-4.9,2.3
		c-2.1-1-1.4-3-0.5-4.7l3.3-6.1c2.1-4,1.2-5.2-2.1-7.2l-0.3,0.3C428.2,875.3,428.1,876.1,426.8,878.6L426.8,878.6z"/>
	<path class="st1" d="M445.2,883.3l-0.3,0.3c5.1,2.4,5.6,3.3,4.2,6.5l-0.2,0.3c-0.5,1-1.6,1.4-3.8,1.6c-3.5,0.3-5.6,1-6.5,3.1
		c-1,2.4,0,3.8,1.9,4.7c1.9,0.9,3.7-0.2,5.2-2.1c-0.5,2.4,0.9,4.4,3.1,5.8l0.3-0.3c-1.6-1.4-2.1-2.1-1.2-4.5l3-6.8
		C452.7,888.2,451.2,885.9,445.2,883.3L445.2,883.3z M447,895.2c-1.2,3-3.7,5.1-5.8,4.4c-1-0.3-1-1.2-0.2-3c1-2.3,2.6-3.3,4.2-3.7
		c1.2-0.3,2.4-0.3,3.1-1L447,895.2z"/>
	<path class="st1" d="M463.9,886.8c1-2.8,1.2-3.1,2.1-3.3v-0.3c-1.9,0.2-3.8,1.4-4.7,3.8l-5.1,13.6c-1.6,4.2-0.5,5.4,3,6.8l0.2-0.3
		c-2.3-1-2.4-1.7-1.4-4.5L463.9,886.8z"/>
	<path class="st1" d="M479.8,913.7l8.4-15c0,0.3,0,0.5,0,0.9l1,16.4l0.5,0.2l7.5-14.7c2.6-5.1,3.1-6.3,5.1-6.3v-0.3
		c-1.9,0-2.3,0.5-5.2,6.3l-5.8,11.2l-0.3-12.6c-0.2-5.6-0.5-7.7-4.9-8.7l-0.2,0.3c1.7,0.7,1.9,1.2,2.3,6.6l-6.8,12.1v-12.4
		c0-5.6-0.3-7.7-4.2-8.6l-0.2,0.3c1.6,0.7,1.6,1.2,1.7,8.2l0.5,16.3L479.8,913.7z"/>
	<path class="st1" d="M507.3,919c1.9,0.3,3.8-0.9,5.1-2.8L512,916c-1.2,1.7-2.8,2.8-4.7,2.4c-2.4-0.3-3.3-4.2-2.8-8.6
		c0-0.2,0-0.3,0-0.5c7.2,0.3,10-0.7,10.3-3.3c0.3-2.6-2.6-3.8-4.7-4c-4-0.5-7.5,3.1-8.2,7.5C501.5,913.9,503.8,918.5,507.3,919
		L507.3,919z M510.1,902.5c1,0.2,3,1,2.6,3.1c-0.5,3.3-3,3.7-8,3.5C505.4,905.3,507.5,902.2,510.1,902.5L510.1,902.5z"/>
	<path class="st1" d="M524.5,899.6c0.2-3,0.3-3.3,1-3.7l-0.2-0.3c-1.9,0.7-3.1,2.4-3.3,5.1l-1,14.5c-0.3,4.5,1,5.4,4.9,5.6l0.2-0.3
		c-2.4-0.3-2.8-1-2.6-4L524.5,899.6z"/>
	<path class="st1" d="M534.1,900.1c0-3,0.2-3.3,0.9-3.8l-0.2-0.3c-1.7,0.7-3.1,2.6-3.1,5.2l-0.5,14.7c-0.2,4.5,1.2,5.2,5.1,5.4
		l0.2-0.3c-2.4-0.2-2.8-1-2.8-3.8L534.1,900.1z"/>
	<path class="st1" d="M539,904.3l-0.2,0.3c2.6,0,3,0.7,3,3.7l0.3,7.5c0.2,4.5,1.6,5.2,5.4,5.1l0.2-0.3c-2.4,0-2.8-0.7-3-3.7
		l-0.2-7.5l0,0c-0.2-2.4,1.4-4.4,3.3-4.5c2.6,0,2.8,1.7,2.8,3.8l0.2,7c0.2,4.5,1.6,5.2,5.4,5.1l0.2-0.3c-2.4,0-2.8-0.7-3-3.7
		l-0.2-7.5c-0.2-2.8-1.9-5.2-4.5-5.1c-1.9,0-3.7,1.4-4.4,3.5C543.9,904.6,542.6,904.1,539,904.3L539,904.3z"/>
	<path class="st1" d="M567.7,919.5c1.9-0.2,3.5-1.7,4.4-4h-0.3c-0.7,1.9-2.1,3.5-4,3.7c-2.4,0.3-4.4-3.3-4.9-7.5c0-0.2,0-0.3,0-0.5
		c7-1.6,9.4-3.1,9.1-5.6c-0.3-2.6-3.5-3-5.6-2.8c-4,0.5-6.5,4.9-6.1,9.3C560.7,916,564,919.9,567.7,919.5L567.7,919.5z M566.3,902.9
		c1-0.2,3.1,0.2,3.3,2.4c0.3,3.3-1.9,4.2-6.8,5.2C562.4,906.7,563.6,903.2,566.3,902.9L566.3,902.9z"/>
	<path class="st1" d="M584.3,899.6c-2.1,0.3-7.7,1.4-7,4.9c0.3,1.9,1.4,2.8,4.4,4.2c2.4,1.2,3.3,2.3,3.7,3.8
		c0.3,2.3-0.3,3.7-2.4,4.2c-2.1,0.3-3.5-1-4-3l-0.3,0.2c0.3,1.9,1.9,3.8,4.5,3.3c2.6-0.5,4.2-2.4,3.7-5.2c-0.3-2.3-1.7-3.7-4.2-4.9
		c-2.6-1.2-3.5-1.9-3.7-3.1c-0.5-3.1,3.3-3.5,5.2-3.8L584.3,899.6z"/>
	<path class="st1" d="M597.4,896.4c-2.1,0.5-7.7,1.7-6.8,5.4c0.5,1.9,1.6,2.6,4.7,4c2.6,1,3.5,2.1,3.8,3.7c0.5,2.3-0.2,3.7-2.1,4.2
		c-1.9,0.5-3.7-0.9-4.2-2.8l-0.3,0.2c0.5,1.9,2.1,3.7,4.7,3c2.6-0.7,4-2.8,3.3-5.4c-0.5-2.3-1.9-3.5-4.4-4.5c-2.6-1.2-3.5-1.7-3.8-3
		c-0.7-3,3-3.7,5.1-4.2V896.4z"/>
	<path class="st1" d="M610.5,893.3l2.1-0.7l4,11.4c1,2.8,0.9,3.7-1.4,4.5l0.2,0.3c3.7-1.2,4.7-2.4,3.1-6.8l-3.7-10.5l3.3-1.2
		l-0.2-0.3l-3.3,1.2l-1.4-4c-1-2.8,0-3.8,2.4-4.9l-0.2-0.3c-4.2,1.4-5.8,3-4.2,7.2l1,3l-2.1,0.7L610.5,893.3z"/>
	<path class="st1" d="M625,896.4c1.7,4,6.1,6.6,9.1,5.4c3-1.2,4-6.3,2.4-10.3c-1.7-4-6.1-6.6-9.1-5.4
		C624.7,887.3,623.5,892.4,625,896.4L625,896.4z M627.5,895.4c-1.7-4-1.6-8,0.2-8.9c1.9-0.9,4.9,1.9,6.6,5.9c1.7,4,1.6,8-0.3,8.9
		C632.2,902.2,629.2,899.4,627.5,895.4L627.5,895.4z"/>
	<path class="st1" d="M636.6,882.1v0.3c2.4-1,3-0.5,4.4,2.1l3.5,6.6c2.1,4,3.7,4,7,2.3v-0.3c-2.3,1-3,0.5-4.2-2.1l-3.5-6.6
		c-1.2-2.3-0.7-5.1,1.7-6.3l1.2-0.5l-0.2-0.3l-1.2,0.5c-1.7,0.9-2.8,2.8-2.4,5.1C641.3,880.3,639.9,880.3,636.6,882.1L636.6,882.1z"
		/>
	<path class="st1" d="M658.5,870l0.2,0.3c4.9-3,5.8-3,7.7,0l0.2,0.3c0.7,1,0.3,2.1-0.7,4c-1.7,3.1-2.1,5.2-0.9,7.2
		c1.4,2.3,3.3,2.1,4.9,1c1.7-1,1.9-3.1,1-5.4c1.7,1.7,4,1.6,6.5,0.5l-0.2-0.3c-1.9,0.5-3,0.7-4.4-1.4l-4-6.1
		C666.7,866.3,664.1,866.3,658.5,870L658.5,870z M669.3,874.9c1.7,2.8,2.3,5.9,0.5,7.2c-0.9,0.5-1.6,0.2-2.6-1.4
		c-1.4-2.1-1.4-3.8-0.7-5.6c0.5-1.2,1-2.3,0.9-3.1L669.3,874.9z"/>
	<path class="st1" d="M673.1,851.8l0.2,0.3c2.3-1.4,2.4-1.4,4.5,1l9.3,10.8c3,3.7,3.8,3.7,7.5,0.5l-0.2-0.3c-2.3,1.6-2.4,1.4-4.5-1
		l-4.9-5.8l6.8-5.9l4.2,4.9c3,3.7,3.8,3.7,7.5,0.5l-0.2-0.3c-2.3,1.6-2.4,1.6-4.5-1l-9.3-10.8c-3.1-3.7-3.8-3.7-7.5-0.5l0.2,0.3
		c2.3-1.6,2.4-1.4,4.5,1l4.7,5.6l-7,5.9l-4-4.7C677.5,848.8,676.8,848.8,673.1,851.8L673.1,851.8z"/>
	<path class="st1" d="M712,848.7c1.4-1.4,1.6-3.7,0.9-5.8l-0.3,0.2c0.7,1.9,0.5,4-0.7,5.2c-1.7,1.7-5.4,0.2-8.6-2.8
		c-0.2-0.2-0.2-0.2-0.3-0.3c4.5-5.6,5.4-8.4,3.5-10.1s-4.7-0.2-6.1,1.2c-2.8,3-1.9,7.9,1,11C704.5,850.2,709.4,851.1,712,848.7
		L712,848.7z M700.4,836.6c0.7-0.9,2.6-1.7,4-0.2c2.3,2.3,1.2,4.5-1.9,8.4C699.7,841.8,698.5,838.5,700.4,836.6L700.4,836.6z"/>
	<path class="st1" d="M708,828l0.2,0.3c3.8-4.2,4.7-4.4,7.3-2.3l0.3,0.3c0.9,0.7,0.9,1.9,0.5,4.2c-0.7,3.5-0.5,5.6,1.2,7
		c2.1,1.7,3.7,1,5.1-0.5c1.4-1.6,0.9-3.7-0.5-5.6c2.1,1.2,4.4,0.3,6.3-1.4l-0.2-0.3c-1.7,1-2.6,1.6-4.5-0.2l-5.6-4.7
		C714.8,822.1,712.2,822.9,708,828L708,828z M719.7,829.6c2.4,2.1,3.8,5.1,2.4,6.6c-0.7,0.9-1.4,0.7-3-0.5c-1.9-1.6-2.4-3.3-2.3-5.1
		c0.2-1.4,0.3-2.4,0-3.3L719.7,829.6z"/>
	<path class="st1" d="M716.5,810.9c-2.3-1.7-2.6-2.1-2.6-2.8h-0.3c-0.5,1.9,0.3,4,2.4,5.6l11.7,8.7c3.7,2.8,5.1,2.1,7.3-1l-0.2-0.3
		c-1.6,1.9-2.4,1.7-4.7,0L716.5,810.9z"/>
	<path class="st1" d="M722.7,809.8l0.3,0.2l1.6-2.3l9.3,6.3c3.7,2.4,5.2,1.6,7.7-2.1l-0.2-0.3c-1.9,2.6-2.8,2.4-5.1,0.9l-10.1-6.8
		l1.9-3l-0.3-0.2l-1.9,3l-4-2.8l-0.2,0.2C723.9,805.3,724.1,807.7,722.7,809.8L722.7,809.8z"/>
	<path class="st1" d="M747,794.6l-6.5-3.8c-2.4-1.4-5.4-1.2-6.8,1c-1,1.6-0.9,3.7,0.5,5.4l-6.3-3.7c-2.4-1.4-2.8-1.7-3-2.6h-0.3
		c-0.2,1.9,0.9,4,3,5.2l12.6,7.3c4,2.3,5.2,1.6,7.2-1.7l-0.2-0.3c-1.4,2.1-2.3,2.1-4.7,0.5l-6.5-3.8c-2.1-1.2-3-3.7-1.9-5.2
		c1.2-2.3,3-1.4,4.7-0.3l5.9,3.5c4,2.3,5.2,1.6,7.2-1.9l-0.2-0.3C750.3,796.4,749.6,796.2,747,794.6L747,794.6z"/>
	<path class="st1" d="M738.2,783.9l0.3,0.3c1.4-2.3,2.1-2.1,4.7-0.9l6.8,3.3c4,2.1,5.4,1.2,7-2.3l-0.3-0.3c-1.2,2.3-2.1,2.1-4.7,0.9
		l-6.8-3.3C741.2,779.7,740.1,779.9,738.2,783.9L738.2,783.9z M734.9,779.7c0.9,0.5,1.9,0.2,2.3-0.5c0.3-0.7,0-1.7-1-2.3
		c-0.9-0.5-1.9-0.2-2.3,0.5C733.7,778.2,734,779.2,734.9,779.7L734.9,779.7z"/>
	<path class="st1" d="M761.5,774.5c0.7-1.7,0.2-4-1.4-5.8l-0.3,0.3c1.4,1.6,1.9,3.5,1.2,5.2c-1,2.3-4.9,2.1-8.9,0.5
		c-0.2,0-0.3-0.2-0.5-0.2c2.1-6.8,1.9-9.8-0.3-10.7c-2.4-1-4.4,1.6-5.2,3.5c-1.6,3.7,1,8,5.1,9.8C755,778.7,760.1,777.8,761.5,774.5
		L761.5,774.5z M746.4,767.5c0.3-1,1.7-2.6,3.7-1.7c3,1.2,2.8,3.8,1.2,8.6C747.7,772.6,745.4,769.9,746.4,767.5L746.4,767.5z"/>
	<path class="st1" d="M749.4,759.1l0.3,0.2c1-2.4,1.7-2.4,4.5-1.4l7.2,2.4c4.4,1.6,5.4,0.5,6.6-3.1l-0.3-0.2
		c-0.9,2.3-1.7,2.4-4.5,1.4l-7.2-2.4c-2.4-0.9-4-3.1-3.1-5.8l0.3-1.2l-0.3-0.2l-0.5,1.2c-0.7,1.9-0.2,3.8,1.7,5.4
		C751.5,754.7,750.6,755.6,749.4,759.1L749.4,759.1z"/>
	<path class="st1" d="M768.7,735l-12.6-3c-4.5-1-5.2-0.7-6.3,4l0.3,0.2c0.9-2.4,1-2.6,4.4-1.9l14.9,3.5c3.3,0.7,3.3,0.9,3,3.7h0.3
		c0.9-3.8,0.7-5.1-2.1-5.9c1.9-0.2,3.5-1,4-3.7l0.9-3.3l-0.3-0.2l-0.7,3.3C773.7,735,771.1,735.7,768.7,735L768.7,735z"/>
	<path class="st1" d="M759.7,722.5l0.3,0.2c0.5-2.6,1.4-2.6,4.2-2.1l7.3,1.2c4.5,0.9,5.4-0.3,6.1-4.2l-0.3-0.2
		c-0.5,2.4-1.4,2.6-4.2,2.1l-7.5-1.2C761.5,717.5,760.4,718.2,759.7,722.5L759.7,722.5z M755.4,719.2c1,0.2,1.9-0.3,2.1-1.2
		c0.2-0.9-0.5-1.6-1.6-1.7c-0.9-0.2-1.9,0.3-2.1,1.2C753.8,718.3,754.5,719,755.4,719.2L755.4,719.2z"/>
	<path class="st1" d="M762.2,712.2l0.3-2.1l12.1,1.6c3,0.3,3.7,0.9,3.5,3.3h0.3c0.5-3.8,0-5.2-4.5-5.9l-11-1.4l0.5-3.5h-0.3
		l-0.5,3.5l-4.4-0.5c-3-0.3-3.5-1.7-3.3-4.4h-0.3c-0.5,4.4,0,6.5,4.4,7l3.1,0.3l-0.3,2.1L762.2,712.2z"/>
	<path class="st1" d="M780.4,694.5c0.2-1.9-1-3.8-3.1-4.9l-0.2,0.3c1.7,1,3,2.6,2.8,4.5c-0.2,2.4-4,3.7-8.2,3.5c-0.2,0-0.3,0-0.5,0
		c-0.2-7.2-1.4-9.8-4-10c-2.6-0.2-3.7,3-3.7,4.9c-0.2,4,3.7,7.3,8,7.5C775.8,700.8,780,698.2,780.4,694.5L780.4,694.5z M763.8,693.1
		c0-1,0.9-3,3-2.8c3.3,0.2,3.8,2.6,4,7.7C766.7,697.5,763.6,695.8,763.8,693.1L763.8,693.1z"/>
	<path class="st1" d="M518.2,263.7c-50.6,11.7-82.2,62.5-70.7,113c11.7,50.6,62.5,82.2,113,70.7c50.6-11.7,82.2-62.5,70.7-113
		C619.6,283.6,568.9,252,518.2,263.7L518.2,263.7z M579.4,437.9l1.2-5.9c21-10,32.9-28.7,39.2-43c0.3,0,0.5,0,0.9,0
		c2.1-0.5,3.3-2.4,2.8-4.5c-0.5-2.1-2.4-3.3-4.5-2.8c-2.1,0.5-3.3,2.4-2.8,4.5c0.2,0.9,0.7,1.4,1.2,1.9c-6.1,14-17.8,32.4-38.5,41.8
		l-0.5,0.3l-1.9,9.1c-2.3,1-4.7,1.9-7.2,2.8L568,437l-2.4,0.5l1.2,5.2c-2.1,0.7-4,1.2-6.1,1.7l-1.2-5.6l-2.4,0.5l1.2,5.6
		c-2.1,0.5-4.2,0.9-6.3,1l-1.2-5.2l-2.6,0.5l1,4.9c-2.1,0.2-4.2,0.3-6.3,0.5l-5.6-7.3h-0.7c-22.6,0.5-40.9-10.8-52.7-20.5
		c0.3-0.7,0.3-1.6,0.2-2.3c-0.5-2.1-2.4-3.3-4.5-2.8c-2.1,0.5-3.3,2.4-2.8,4.5c0.5,2.1,2.4,3.3,4.5,2.8c0.3,0,0.5-0.2,0.9-0.3
		c11.9,10,30.8,21.5,53.9,21.2l3.7,4.7c-41.8,0.2-79.8-28.5-89.6-71c-9.8-42.3,11.7-84.7,49.2-103l-1,5.4c-20.6,9.8-32.4,28-38.8,42
		c-0.2,0-0.5,0-0.7,0.2c-2.1,0.5-3.3,2.4-2.8,4.5c0.5,2.1,2.4,3.3,4.5,2.8c2.1-0.5,3.3-2.4,2.8-4.5c-0.2-0.9-0.7-1.6-1.2-2.1
		c6.3-13.8,17.8-31.5,38-40.8l0.5-0.3l1.7-8.6c1.9-0.9,4-1.7,5.9-2.4l1.4,5.9l2.4-0.5l-1.4-6.3c2.1-0.7,4-1.2,6.1-1.7l1.6,6.6
		l2.4-0.5l-1.6-6.6c2.1-0.5,4.2-0.9,6.3-1.2l1.4,6.3l2.4-0.5l-1.4-6.1c2.6-0.3,5.2-0.5,7.9-0.7l5.4,6.8h0.7
		c22.2-0.5,40.4,10.5,52.1,20.1c-0.3,0.7-0.5,1.6-0.3,2.4c0.5,2.1,2.4,3.3,4.5,2.8c2.1-0.5,3.3-2.4,2.8-4.5
		c-0.5-2.1-2.4-3.3-4.5-2.8c-0.2,0-0.3,0.2-0.5,0.2c-11.9-10-30.6-21.2-53.5-21l-3.3-4.4c41.8,0,79.6,28.7,89.4,71
		C638.5,377.2,617,419.7,579.4,437.9L579.4,437.9z M618.7,385.4c-0.2-0.7,0.2-1.2,0.9-1.4c0.7-0.2,1.2,0.2,1.4,0.9
		c0.2,0.7-0.2,1.2-0.9,1.4C619.4,386.5,618.7,386.1,618.7,385.4L618.7,385.4z M480.7,418.9c-0.7,0.2-1.2-0.2-1.4-0.9
		c-0.2-0.7,0.2-1.2,0.9-1.4c0.7-0.2,1.2,0.2,1.4,0.9C481.8,418,481.4,418.7,480.7,418.9L480.7,418.9z M460.6,324
		c0.2,0.7-0.2,1.2-0.9,1.4c-0.7,0.2-1.2-0.2-1.4-0.9c-0.2-0.7,0.2-1.2,0.9-1.4C459.9,323,460.6,323.3,460.6,324L460.6,324z
		 M598.8,292.4c0.2,0.7-0.2,1.2-0.9,1.4c-0.7,0.2-1.2-0.2-1.4-0.9c-0.2-0.7,0.2-1.2,0.9-1.4C598.1,291.3,598.6,291.7,598.8,292.4
		L598.8,292.4z M591.1,341.7l4.2-1l0.5,2.4l-4.2,1L591.1,341.7z M588,333l4-1.7l1,2.4l-4,1.7L588,333z M582.7,324l3.7-2.4l1.4,2.1
		l-3.7,2.4L582.7,324z M578.3,318.8l-1.9-1.9l3.1-3.1l1.7,1.9L578.3,318.8z M570.5,312l-2.1-1.4l2.4-3.7l2.1,1.4L570.5,312z
		 M562.4,307.2l-2.4-1l1.7-4l2.4,1L562.4,307.2z M552.8,303.7l-2.4-0.5l1-4.2l2.4,0.5L552.8,303.7z M541.2,297.6l2.6,0.2l-0.2,4.4
		l-2.6-0.2L541.2,297.6z M533.2,302.5l-2.6,0.3l-0.7-4.4l2.6-0.3L533.2,302.5z M522.7,300.2l1.4,4.2l-2.4,0.9l-1.4-4.2L522.7,300.2z
		 M512.2,309.5l-2.1-3.8l2.3-1.2l2.1,3.8L512.2,309.5z M503.8,310l2.8,3.3l-1.9,1.6l-2.8-3.3L503.8,310z M497.5,322.6l-3.3-2.8
		l1.6-1.9l3.3,2.8L497.5,322.6z M490,326l3.8,2.1l-1.2,2.3l-3.8-2.1L490,326z M488.6,340l-4.2-1.4l0.9-2.4l4.2,1.4L488.6,340z
		 M486.7,349.1l-4.4-0.7l0.3-2.6l4.4,0.7L486.7,349.1z M486.5,359.4l-4.4,0.2l-0.2-2.6l4.4-0.2L486.5,359.4z M487.9,368.6l-4.2,1
		l-0.5-2.4l4.2-1L487.9,368.6z M491.4,378.4l-4,1.7l-1-2.4l4-1.7L491.4,378.4z M496.3,386.5l-3.7,2.4l-1.4-2.1l3.7-2.4L496.3,386.5z
		 M501.2,392.4l1.9,1.7l-3.1,3.1l-1.9-1.7L501.2,392.4z M508.2,398.6l2.1,1.4l-2.4,3.7l-2.1-1.4L508.2,398.6z M517.1,403.8l2.4,1
		l-1.7,4l-2.4-1L517.1,403.8z M525.9,407l2.4,0.5l-1,4.2l-2.4-0.5L525.9,407z M536.2,408.5l2.6,0.2l-0.2,4.4l-2.6-0.2L536.2,408.5z
		 M545.4,408.4l2.6-0.3l0.5,4.4l-2.6,0.3L545.4,408.4z M558,405.4l1.4,4.2l-2.4,0.9l-1.4-4.2L558,405.4z M566.4,401.5l2.1,3.8
		l-2.3,1.2l-2.1-3.8L566.4,401.5z M574.8,395.4l2.8,3.3l-1.9,1.7l-2.8-3.3L574.8,395.4z M583.1,393.5l-3.3-2.8l1.7-1.9l3.3,2.8
		L583.1,393.5z M586.9,380l3.8,2.1l-1.2,2.3l-3.8-2.1L586.9,380z M593.7,375.1l-4.2-1.4l0.9-2.4l4.2,1.4L593.7,375.1z M592.7,361.1
		l4.4,0.5l-0.3,2.6l-4.4-0.5L592.7,361.1z M592.9,351.9l4.4-0.2l0.2,2.6l-4.4,0.2L592.9,351.9z M584.3,407.3
		c19.4-16.6,27.8-42.5,22-67.3l-1.7,0.3c-1.4-6.1-3.7-11.9-6.6-17.3l1.6-0.9c-8.9-16.1-24.3-28.2-42.2-32.9l-0.5,1.6
		c-10.5-2.8-21.5-3-32.4-0.5l-0.3-1.7c-7.9,1.7-15.2,4.9-21.9,9.3l0.9,1.4c-4.5,3-8.6,6.3-12.2,10.3l-1.2-1.2
		c-15.7,16.8-22,40.1-17,62.5l1.7-0.3c1.7,7.2,4.5,14,8.2,19.9l-1.6,0.9c15.4,25,45.1,37.4,73.8,30.8l-0.3-1.7l0,0
		c10.7-2.4,20.5-7.3,28.5-14.3L584.3,407.3z M554,418l-0.3-1.7c-26.2,6.1-53.2-5.2-67.2-28.2l-1.4,0.9c-3.5-5.8-6.3-12.2-7.9-19.2
		l1.7-0.3c-4.7-20.3,1-41.6,15.4-56.9l-1.2-1.2c3.5-3.7,7.3-7,11.7-9.8l0.9,1.4c6.1-4,12.8-6.8,19.9-8.4l-0.3-1.7
		c10.3-2.4,21-2.3,31,0.5l-0.5,1.7c16.3,4.4,30.3,15.4,38.5,30.1l1.6-0.9c2.8,5.2,5.1,10.8,6.5,16.6l-1.7,0.3
		c5.2,22.7-2.4,46.2-20.1,61.4l1,1.4C573.6,410.8,564.3,415.5,554,418L554,418z M497.2,415.4c-0.5,0.2-0.9,0.3-1.2,0.5
		c-14.7-10.7-25-26.1-29-43.7l-2.4,0.5c2.6,11.7,8,22.4,15.6,31.7l-7.7,1.4c-4.5-5.9-8.2-12.8-11-20.3c1.2-0.9,1.7-2.4,1.4-3.8
		c-0.5-2.1-2.4-3.3-4.5-2.8c-2.1,0.5-3.3,2.4-2.8,4.5c0.3,1.6,1.7,2.8,3.3,3c3,8,7,15.4,11.9,21.9l0.5,0.7l10.8-2.1
		c3.8,4.2,8,8,12.8,11.5c-0.2,0.5-0.2,1.2,0,1.7c0.5,2.1,2.4,3.3,4.5,2.8c2.1-0.5,3.3-2.4,2.8-4.5
		C501.4,416.2,499.3,415,497.2,415.4L497.2,415.4z M458.5,381.4c0.7-0.2,1.2,0.2,1.4,0.9c0.2,0.7-0.2,1.2-0.9,1.4
		c-0.7,0.2-1.2-0.2-1.4-0.9C457.5,382.1,457.8,381.6,458.5,381.4L458.5,381.4z M498.4,420.3c-0.7,0.2-1.2-0.2-1.4-0.9
		c-0.2-0.7,0.2-1.2,0.9-1.4c0.7-0.2,1.2,0.2,1.4,0.9C499.4,419.4,498.9,420.1,498.4,420.3L498.4,420.3z M566.4,422.4
		c-1.7,0.3-3,2.1-3,3.8c-2.3,0.7-4.7,1.4-7.2,2.1c-11.9,2.8-24.1,2.4-35.9-0.5c0-0.2,0-0.5-0.2-0.7c-0.5-2.1-2.4-3.3-4.5-2.8
		c-2.1,0.5-3.3,2.4-2.8,4.5c0.5,2.1,2.4,3.3,4.5,2.8c0.9-0.2,1.6-0.7,2.1-1.4c12.1,3.1,25,3.5,37.3,0.5c2.6-0.5,5.1-1.4,7.5-2.1
		c0.9,0.9,2.3,1.4,3.7,1c2.1-0.5,3.3-2.4,2.8-4.5C570.5,423.1,568.4,421.8,566.4,422.4L566.4,422.4z M517.1,428.8
		c-0.7,0.2-1.2-0.2-1.4-0.9c-0.2-0.7,0.2-1.2,0.9-1.4c0.7-0.2,1.2,0.2,1.4,0.9C518.2,428.1,517.8,428.8,517.1,428.8L517.1,428.8z
		 M567.5,427.1c-0.7,0.2-1.2-0.2-1.4-0.9c-0.2-0.7,0.2-1.2,0.9-1.4c0.7-0.2,1.2,0.2,1.4,0.9C568.5,426.4,568.2,427.1,567.5,427.1
		L567.5,427.1z M520.6,285.9c1.6-0.3,2.8-1.7,3-3.3c21.3-4.7,43.6,0,61.1,13.3l1.6-2.1c-18.2-13.6-41.3-18.5-63.3-13.6
		c-0.9-1.2-2.4-1.7-3.8-1.4c-2.1,0.5-3.3,2.4-2.8,4.5C516.4,285,518.5,286.4,520.6,285.9L520.6,285.9z M519.4,281
		c0.7-0.2,1.2,0.2,1.4,0.9c0.2,0.7-0.2,1.2-0.9,1.4c-0.7,0.2-1.2-0.2-1.4-0.9C518.3,281.9,518.9,281.2,519.4,281L519.4,281z
		 M628.4,345.7c-0.5-2.1-2.4-3.3-4.5-2.8c-2.1,0.5-3.3,2.4-2.8,4.5c0.3,1.2,1.2,2.3,2.4,2.6c0.3,5.9,0.2,11.9-0.5,17.7l-7.9,5.1
		c2.6-11.2,2.8-23.1,0-34.8c-0.2-0.7-0.3-1.2-0.5-1.7l0,0l7.3-8.4l-0.2-0.7c-3.3-10.1-8.4-19.6-14.5-27.3l-2.1,1.6
		c5.8,7.3,10.7,16.3,13.8,25.7l-5.2,5.9c-1.4-4.4-3-8.7-5.1-12.8c0.7-0.9,1-1.9,0.7-3.1c-0.5-2.1-2.4-3.3-4.5-2.8
		c-2.1,0.5-3.3,2.4-2.8,4.5c0.5,1.9,2.4,3.3,4.4,2.8c2.6,5.2,4.7,11,6.1,16.8c7.2,31.3-6.3,63.5-33.6,80.5l1.4,2.3
		c16.8-10.3,28.5-26.4,33.8-44.6l11.2-7.2l0.2-0.5c0.9-5.9,1.2-12.2,0.7-18.7C627.7,349.4,628.7,347.7,628.4,345.7L628.4,345.7z
		 M604.4,318.4c-0.2-0.7,0.2-1.2,0.9-1.4c0.7-0.2,1.2,0.2,1.4,0.9c0.2,0.7-0.2,1.2-0.9,1.4C605.1,319.3,604.6,319,604.4,318.4
		L604.4,318.4z M624.9,347.8c-0.7,0.2-1.2-0.2-1.4-0.9c-0.2-0.7,0.2-1.2,0.9-1.4c0.7-0.2,1.2,0.2,1.4,0.9
		C625.9,347,625.6,347.7,624.9,347.8L624.9,347.8z M456.8,336.1l9.1-4c-2.1,6.8-3.3,13.8-3.5,21.2c-1.7,0.7-2.8,2.4-2.4,4.4
		c0.5,2.1,2.4,3.3,4.5,2.8c2.1-0.5,3.3-2.4,2.8-4.5c-0.3-1.2-1.2-2.3-2.4-2.6c0.7-21.2,10.1-41.1,26.4-54.8c0.9,0.5,1.7,0.7,2.6,0.3
		c2.1-0.5,3.3-2.4,2.8-4.5c-0.5-2.1-2.4-3.3-4.5-2.8c-2.1,0.5-3.3,2.4-2.8,4.5c0,0.2,0.2,0.3,0.2,0.5c-10.3,8.7-18,19.9-22.6,32.4
		l-12.4,5.6l-0.2,0.7c-2.3,10.3-2.6,21.7-0.7,32.9l2.6-0.3C454.5,356.8,454.7,345.9,456.8,336.1L456.8,336.1z M493,294
		c0.7-0.2,1.2,0.2,1.4,0.9c0.2,0.7-0.2,1.2-0.9,1.4c-0.7,0.2-1.2-0.2-1.4-0.9C491.9,294.8,492.3,294.1,493,294L493,294z
		 M463.9,357.8c-0.7,0.2-1.2-0.2-1.4-0.9c-0.2-0.7,0.2-1.2,0.9-1.4c0.7-0.2,1.2,0.2,1.4,0.9C465,357.1,464.5,357.8,463.9,357.8
		L463.9,357.8z"/>
	<path class="st1" d="M416.2,541.7h-10.7v-0.3h0.7c0.5,0,1-0.2,1.6-0.7c0.3-0.3,0.7-0.9,0.7-1.6v-18.4c0-0.7,0-1.6-0.2-2.3
		c0-0.7-0.2-1.2-0.2-1.6l-0.2-0.5h0.3l17.8,17v-14c0-0.5-0.2-1-0.7-1.6c-0.3-0.3-0.9-0.7-1.6-0.7h-0.7v-0.3h10.7v0.3h-0.7
		c-0.5,0-1,0.2-1.6,0.5c-0.3,0.3-0.7,0.9-0.7,1.4v18.2c0,0.7,0,1.6,0.2,2.3c0,0.7,0.2,1.2,0.2,1.7l0.2,0.5H431l-17.8-17v14
		c0,0.5,0.2,1,0.7,1.6c0.3,0.3,0.9,0.7,1.6,0.7h0.7V541.7z M442.8,541.7h-7.5v-0.3h0.3c0.5,0,1-0.2,1.6-0.5c0.5-0.3,1-0.9,1.4-1.6
		l8.2-18.4c0.3-0.5,0.7-1.4,1-2.4c0.3-1,0.7-1.7,0.7-2.3h0.3l10.5,23.1c0.3,0.7,0.9,1.2,1.4,1.6c0.5,0.3,1,0.5,1.6,0.5h0.3v0.3
		h-11.2v-0.3h0.3c0.5,0,0.9-0.2,1.2-0.5c0.2-0.2,0.3-0.5,0.3-0.9c0-0.2,0-0.5-0.2-0.9l-1.7-4.4h-8.2l-1.7,4.4
		c-0.2,0.3-0.2,0.5-0.2,0.9c0,0.3,0,0.5,0.2,0.9c0.3,0.3,0.7,0.5,1.2,0.5h0.3v0.3H442.8z M447.1,524.7l-3.7,8.6h7L447.1,524.7z
		 M474.9,541.7h-10.7v-0.3h0.5c0.5,0,1-0.2,1.6-0.7c0.5-0.3,0.7-0.9,0.7-1.6v-19.6c0-0.5-0.2-1.2-0.7-1.6c-0.3-0.3-1-0.7-1.6-0.7
		h-0.5v-0.3h10.7v0.3h-0.3c-0.5,0-1.2,0.2-1.6,0.7c-0.3,0.3-0.7,1-0.7,1.6v9.1h11.4v-9.1c0-0.5-0.2-1.2-0.7-1.6
		c-0.5-0.3-1-0.7-1.6-0.7h-0.5v-0.3h10.7v0.3H491c-0.7,0-1.2,0.2-1.6,0.7c-0.3,0.3-0.7,1-0.7,1.6V539c0,0.5,0.2,1,0.7,1.6
		s0.9,0.7,1.6,0.7h0.5v0.3h-10.7v-0.3h0.3c0.5,0,1-0.2,1.6-0.7c0.3-0.3,0.7-0.9,0.7-1.6v-8.9h-11.4v8.9c0,0.5,0.2,1,0.7,1.6
		c0.3,0.3,0.9,0.7,1.6,0.7h0.3L474.9,541.7z M501.4,541.7H494v-0.3h0.5c0.7,0,1.2-0.2,1.7-0.5c0.5-0.3,0.7-0.9,0.9-1.6l3-22.6h0.3
		l11,18l10.5-18h0.3l3,22.6c0.2,0.7,0.3,1.2,0.9,1.6c0.5,0.3,1,0.5,1.6,0.5h0.5v0.3h-10.7v-0.3h0.5c0.3,0,0.7-0.2,1-0.5
		c0.2-0.3,0.3-0.5,0.3-0.9v-0.2l-1.4-12.8l-6.6,11.4c-0.2,0.2-0.2,0.3-0.3,0.7c-0.2,0.3-0.3,0.7-0.5,1.4c-0.2,0.7-0.3,1.4-0.3,1.7
		h-0.3l-9.1-15.2l-1.4,12.8v0.2c0,0.3,0.2,0.7,0.3,0.9c0.3,0.3,0.7,0.5,1,0.5h0.5L501.4,541.7L501.4,541.7z M551,537.1
		c0.2-1.2,0.5-2.3,1-3h0.3c0,0.2,0,0.3,0,0.5c0,1.6,0.5,3,1.7,4.2c1.2,1.2,2.8,1.9,4.9,1.9h0.2c1.6,0,2.6-0.3,3.5-1
		c0.9-0.7,1.4-1.7,1.4-2.8c0-0.7-0.2-1.4-0.7-1.9c-0.3-0.5-1.2-1-2.1-1.7l-6.1-4c-2.3-1.6-3.3-3.3-3.3-5.6c0-0.2,0-0.5,0-0.7
		c0.2-1.9,0.9-3.3,2.3-4.5c1.4-1,3-1.7,5.2-1.7c1.2,0,3,0.2,4.7,0.3h2.3l-0.5,5.2h-0.3c0-1.2-0.5-2.3-1.4-3c-0.9-0.7-2.1-1-3.7-1
		c-1.4,0-2.4,0.3-3.3,1c-0.9,0.7-1.2,1.4-1.4,2.4v0.2c0,0.5,0.2,1,0.5,1.6c0.3,0.5,1,1,1.9,1.6l6.6,4.4c2.1,1.4,3.1,3.1,3.1,5.4
		c0,0.2,0,0.3,0,0.5c-0.2,2.3-1,4-2.6,5.4c-1.6,1.4-3.8,1.9-6.6,1.9c-1.6,0-3.1-0.2-4.4-0.5c-1.4-0.3-2.3-0.9-3-1.6
		c-0.2-0.5-0.2-1-0.2-1.6C550.9,538,550.9,537.5,551,537.1L551,537.1z M576.2,538.7c-2.4-2.3-3.7-5.4-3.7-9.4c0-4,1.2-7,3.7-9.4
		c2.4-2.3,5.9-3.5,10.1-3.5c4.2,0,7.7,1,10.1,3.5c2.4,2.3,3.7,5.4,3.7,9.4c0,4-1.2,7.2-3.7,9.4c-2.4,2.3-5.9,3.5-10.1,3.5
		C582,542.2,578.7,541,576.2,538.7L576.2,538.7z M580.4,521c-1.4,2.1-2.1,4.9-2.1,8.4s0.7,6.3,2.1,8.2c1.4,2.1,3.5,3.1,5.9,3.1
		s4.5-1,5.9-3.1c1.4-2.1,2.1-4.7,2.1-8.2s-0.7-6.3-2.1-8.4c-1.4-2.1-3.3-3-5.9-3S581.8,518.9,580.4,521L580.4,521z M610,541.7h-7.3
		v-0.3h0.5c0.7,0,1.2-0.2,1.7-0.5c0.5-0.3,0.7-0.9,0.9-1.6l3-22.6h0.3l11,18l10.5-18h0.3l3,22.6c0.2,0.7,0.3,1.2,0.9,1.6
		c0.5,0.3,1,0.5,1.6,0.5h0.5v0.3h-10.7v-0.3h0.5c0.3,0,0.7-0.2,1-0.5c0.2-0.3,0.3-0.5,0.3-0.9v-0.2l-1.4-12.8l-6.6,11.4
		c-0.2,0.2-0.2,0.3-0.3,0.7c-0.2,0.3-0.3,0.7-0.5,1.4c-0.2,0.7-0.3,1.4-0.3,1.7h-0.3l-9.1-15.2l-1.4,12.8v0.2c0,0.3,0.2,0.7,0.3,0.9
		c0.3,0.3,0.7,0.5,1,0.5h0.5V541.7z"/>
	<path class="st1" d="M769,489l5.9,20.6l20.8-5.2l-14.9,15.4l14.9,15.4l-20.8-5.2l-5.9,20.6l-5.9-20.6l-20.8,5.2l14.9-15.4
		l-14.9-15.4l20.8,5.2L769,489z"/>
	<path class="st1" d="M321.7,499.8l5.9,20.6l20.8-5.2l-14.9,15.4l14.9,15.4l-20.8-5.2l-5.9,20.6l-5.9-20.6l-20.8,5.2l14.9-15.4
		l-14.9-15.4l20.8,5.2L321.7,499.8z"/>
</g>
</svg>
