<?xml version="1.0" encoding="utf-8"?>
<!-- Generator: Adobe Illustrator 24.0.1, SVG Export Plug-In . SVG Version: 6.00 Build 0)  -->
<svg version="1.1" id="Layer_1" xmlns="http://www.w3.org/2000/svg" xmlns:xlink="http://www.w3.org/1999/xlink" x="0px" y="0px"
	 viewBox="0 0 595.3 841.9" style="enable-background:new 0 0 595.3 841.9;" xml:space="preserve">
<style type="text/css">
	.st0{fill-rule:evenodd;clip-rule:evenodd;fill:none;stroke:#E06126;stroke-width:4;stroke-miterlimit:10;}
	.st1{fill:none;stroke:#E06126;stroke-width:4;stroke-miterlimit:10;}
</style>
<g>
	<path class="st0" d="M377.4,400L343,365.6L308.7,400c-9.1,9.1-14.2,21.3-14.2,34.3c0,13,5,25.2,14.2,34.3c19,18.9,49.8,18.9,68.7,0
		c9.1-9.1,14.2-21.3,14.2-34.3C391.5,421.3,386.5,409.1,377.4,400z M343,464.7c-12.2,0-22.1-9.9-22.1-22.1
		c0-12.2,9.9-22.1,22.1-22.1s22.1,9.9,22.1,22.1C365.2,454.7,355.2,464.7,343,464.7z"/>
	<path class="st1" d="M296.1,391.3l47-46.9l47,46.9c12.5,12.5,19.4,29.2,19.4,46.9c0,17.8-6.9,34.5-19.4,47
		c-12.9,12.9-30,19.4-47,19.4s-34-6.5-47-19.4c-12.5-12.5-19.4-29.2-19.4-47C276.7,420.4,283.6,403.8,296.1,391.3z"/>
	<path class="st1" d="M428.3,543.3c-22.8,19.9-55,29.9-86.8,29.9c-29.7,0-59-8.8-79.9-26.4c-19.5-16.5-17.4-27.6-14.4-32.7
		c6.7-11.3,28.7-13.9,50-5.9c10,3.7,14.1,7.2,21.5,13.4l6.5,5.4l-6.6-2.3c-1.9-0.7-3.8-1.4-5.7-2.1c-12.6-4.7-25.6-9.5-38.7-5.4
		c-4.7,1.5-7.2,3.5-7.6,6.2c-0.6,4.7,5.5,11,11.9,15.2c34.1,22.3,74.1,28.1,107.2,15.4c17.3-6.6,29.8-17.6,32.8-28.6
		c1-3.6,1-5.8,0.1-6.8c-1.1-1.2-4.1-1.1-8.6-0.6c-11.1,1.4-23.9,7.5-37.5,13.9c-22.4,10.7-45.5,21.7-65.3,13.8l-5.1-2.1l5.5-0.3
		c28.1-1.8,45.2-12.1,61.7-22.2c14.1-8.6,27.5-16.7,46.5-18.5c15.6-1.5,21.5,4.3,23.6,9.4C443.2,520.8,438.3,534.5,428.3,543.3z"/>
</g>
</svg>
