<?xml version="1.0" encoding="utf-8"?>
<!-- Generator: Adobe Illustrator 24.0.1, SVG Export Plug-In . SVG Version: 6.00 Build 0)  -->
<svg version="1.1" id="Layer_1" xmlns="http://www.w3.org/2000/svg" xmlns:xlink="http://www.w3.org/1999/xlink" x="0px" y="0px"
	 viewBox="0 0 1080 1080" style="enable-background:new 0 0 1080 1080;" xml:space="preserve">
<style type="text/css">
	.st0{fill:#FFFFFF;}
</style>
<path class="st0" d="M579.2,444.9c-21-74.3,61-121.3,96.1-117.3c-40.6,70,17.6,123.6,13.6,206.2c-2.6,54.3-56,103.9-122.8,140.6
	c-14.3-58.5,104.5-74.7,65.5-182.2c-8.5,18.4-23.5,78-72.3,80.6C588.8,527.6,597.5,509.8,579.2,444.9L579.2,444.9z M383.7,533.8
	c2.6,54.3,56,103.9,122.8,140.6c14.3-58.5-104.5-74.7-65.5-182.2c8.5,18.4,23.5,78,72.3,80.6c-29.6-45.3-38.3-63.1-20-127.9
	c21-74.3-61-121.3-96.1-117.3C437.9,397.7,379.7,451.2,383.7,533.8L383.7,533.8z M567.1,510.5c0-22.1-13.8-40-30.8-40
	c-17,0-30.8,17.9-30.8,40c0,22.1,13.8,40,30.8,40C553.3,550.4,567.1,532.5,567.1,510.5L567.1,510.5z M456.3,680
	c-42.4-24.4-90.6-19.9-90.6-19.9s20.5,43.9,62.9,68.2c42.4,24.4,90.6,19.9,90.6,19.9S498.7,704.4,456.3,680L456.3,680z M616.3,680
	c-42.4,24.4-62.9,68.3-62.9,68.3s48.2,4.4,90.6-19.9c42.4-24.4,62.9-68.2,62.9-68.2S658.7,655.7,616.3,680L616.3,680z M616.3,680"/>
<path class="st0" d="M427.7,52.4C159.1,114.4-9,383.4,53,652c62,268.6,331,436.7,599.6,374.6c268.6-62,436.7-331,374.7-599.6
	C965.3,158.5,696.3-9.6,427.7,52.4L427.7,52.4z M751.8,977.3l6.6-31.4c111.6-53,174.6-152.6,208-228.2c1.6,0,3.2-0.1,4.8-0.4
	c10.8-2.5,17.5-13.3,15-24c-2.5-10.8-13.2-17.5-24-15c-10.8,2.5-17.5,13.2-15,24c1,4.2,3.3,7.8,6.3,10.5
	c-32.9,74-94.7,171.4-204.1,222.1l-3.1,1.4l-10.1,48.1c-12.3,5.4-24.8,10.3-37.6,14.8l-6.2-26.8l-13.4,3.1l6.5,28.1
	c-10.7,3.3-21.6,6.3-32.7,9l-6.8-29.4l-13.5,3.1l6.8,29.3c-11.2,2.4-22.3,4.2-33.5,5.8l-6.3-27.5l-13.5,3.1l6,26
	c-11,1.2-22,2-33,2.4l-30.1-38.9l-3.5,0.1c-119.6,2.4-217.3-57.1-279.4-109c1.6-3.8,2.1-8,1.2-12.4c-2.5-10.8-13.3-17.5-24-15
	c-10.7,2.5-17.5,13.3-15,24c2.5,10.7,13.3,17.5,24,15c1.6-0.4,3-0.9,4.4-1.6c63.3,53,163,114,285.6,112.8l19.7,25.3
	C319.9,1026.5,118.4,874,66.4,648.9c-51.9-224.7,61.9-449.6,260.9-546.5l-6,28.5C212.3,182.6,149.6,279.1,115.6,354
	c-1.3,0-2.7,0.2-4,0.5c-10.8,2.5-17.5,13.2-15,24c2.5,10.8,13.3,17.5,24,15c10.8-2.5,17.5-13.3,15-24c-1-4.5-3.6-8.3-6.9-10.9
	c33.5-73.3,94.9-167.3,201.6-216.7l3.2-1.4l9.5-45.3c10.4-4.6,21-8.9,31.9-12.8l7.3,31.6l13.5-3.1l-7.7-33
	c10.7-3.5,21.6-6.7,32.6-9.5l8.1,34.9l13.4-3.1l-8.1-35c11.1-2.5,22.3-4.6,33.4-6.3l7.8,33.7l13.5-3.1L481,57
	c13.9-1.7,27.7-2.8,41.5-3.3l28.4,36.5l3.4-0.1c118-2.4,214.8,55.7,277,107c-2,4-2.8,8.7-1.7,13.5c2.5,10.8,13.3,17.5,24,15
	c10.8-2.5,17.5-13.3,15-24c-2.5-10.7-13.3-17.5-24-15c-1.1,0.3-2.1,0.7-3.2,1.1C778.2,135,679.1,75,557.6,76.3l-17.8-23
	c221.4-0.2,422.2,152.1,474.1,376.8C1065.8,655.3,951.5,880.7,751.8,977.3L751.8,977.3z M960.5,699.1c-0.8-3.4,1.3-6.7,4.6-7.5
	c3.4-0.8,6.7,1.3,7.5,4.7c0.8,3.4-1.3,6.7-4.7,7.5C964.6,704.6,961.3,702.5,960.5,699.1L960.5,699.1z M229,875.8
	c-3.3,0.8-6.7-1.3-7.5-4.7c-0.8-3.3,1.3-6.7,4.7-7.5c3.3-0.8,6.7,1.3,7.5,4.7C234.5,871.7,232.4,875,229,875.8L229,875.8z
	 M122.2,372.6c0.8,3.4-1.3,6.7-4.7,7.5c-3.3,0.8-6.7-1.3-7.5-4.7c-0.8-3.3,1.3-6.7,4.7-7.5C118.1,367.1,121.4,369.2,122.2,372.6
	L122.2,372.6z M855.2,204.7c0.8,3.3-1.3,6.7-4.7,7.5c-3.3,0.8-6.7-1.3-7.5-4.7c-0.8-3.3,1.3-6.7,4.7-7.5
	C851.1,199.3,854.5,201.4,855.2,204.7L855.2,204.7z M814.3,466.4l22.7-5.5l3.2,13.4l-22.7,5.4L814.3,466.4z M797.4,419.8l21.4-9.3
	l5.5,12.7l-21.4,9.3L797.4,419.8z M769.5,372.6l19.1-13.3l7.9,11.4l-19.1,13.3L769.5,372.6z M746.7,345l-9.8-9.8l16.6-16.5l9.7,9.8
	L746.7,345z M705.2,309l-11.4-7.7l13.1-19.3l11.4,7.7L705.2,309z M662.5,283.9l-12.6-5.7l9.5-21.3l12.6,5.7L662.5,283.9z
	 M610.9,265.1l-13.5-3.1l5.2-22.7l13.5,3.1L610.9,265.1z M549.4,233.2l13.8,0.6l-1.2,23.3l-13.8-0.7L549.4,233.2z M507.1,258.4
	l-13.6,2l-3.4-23.1l13.6-2L507.1,258.4z M451.4,246.5l7.3,22.1l-13.1,4.3l-7.3-22.2L451.4,246.5z M395.9,296.3L384.4,276l12-6.8
	l11.5,20.3L395.9,296.3z M351.6,298.6l14.8,18l-10.6,8.8l-14.8-18L351.6,298.6z M318,365.2l-18-14.8l8.7-10.7l18,14.8L318,365.2z
	 M277.4,383.2l20.3,11.4l-6.8,12l-20.3-11.5L277.4,383.2z M270,457.5l-22.1-7.3l4.3-13.1l22.1,7.3L270,457.5z M259.9,506l-23.1-3.3
	l2-13.6l23.1,3.3L259.9,506z M258.8,560.9l-23.3,1.2l-0.7-13.8l23.3-1.2L258.8,560.9z M266.8,609.7l-22.7,5.2l-3.1-13.4l22.7-5.3
	L266.8,609.7z M285.5,661.4l-21.3,9.5l-5.6-12.6l21.3-9.5L285.5,661.4z M310.7,704l-19.3,13.1l-7.8-11.4l19.3-13.1L310.7,704z
	 M337.1,735.6l9.8,9.7l-16.4,16.6l-9.8-9.7L337.1,735.6z M374.4,768.2l11.4,7.9l-13.3,19.2l-11.3-7.8L374.4,768.2z M421.8,796
	l12.6,5.5l-9.3,21.4l-12.6-5.5L421.8,796z M468.3,812.9l13.4,3.2l-5.5,22.7l-13.4-3.2L468.3,812.9z M522.5,821.7l13.8,0.6l-0.9,23.3
	l-13.8-0.5L522.5,821.7z M572,820.6l13.7-1.9l3.2,23.1l-13.7,1.9L572,820.6z M638.9,804.9l7.5,22l-13.1,4.5l-7.5-22.1L638.9,804.9z
	 M683.6,783.7l11.2,20.4l-12.1,6.7l-11.2-20.4L683.6,783.7z M728.1,751.6l15,17.8l-10.6,8.9l-15-17.8L728.1,751.6z M771.3,741.2
	l-17.9-15l8.8-10.6l17.9,15L771.3,741.2z M792.1,669.6l20.5,11.2l-6.6,12.1l-20.4-11.2L792.1,669.6z M828.7,644.4l-22.1-7.5
	l4.4-13.1l22.1,7.5L828.7,644.4z M822.3,570.1l23.1,3.1l-1.8,13.7l-23.1-3.1L822.3,570.1z M823.3,520.6l23.3-1l0.6,13.8l-23.3,1
	L823.3,520.6z M777.7,815.2C880.6,726.7,925.5,589.7,895,457.6l-9,2.1c-7.5-32.7-19.5-63.6-35.3-92.1l8.1-4.5
	c-47.4-85.7-129.1-149.4-223.9-174.9l-2.4,8.8c-55.3-14.9-113.9-16.1-171.3-2.8l-2.1-9c-41.6,9.6-80.6,26.1-116.1,49.1l5.1,7.8
	c-23.9,15.6-45.7,33.8-64.9,54.3l-6.8-6.5c-83.5,88.8-117,212.5-89.6,331.1l9-2.1c8.9,38.5,23.8,74,43.5,105.9l-8,4.9
	c81.8,133,239.1,198.8,391.4,163.6l-2.1-9h0c56.7-13.1,108.2-39.3,151.1-76.3L777.7,815.2z M617.5,871.1l-2.1-9
	C476.6,894.2,333.3,834.2,258.7,713l-7.7,4.7c-18.9-30.6-33.3-64.8-41.8-101.7l8.9-2.1c-24.9-108.1,5.6-220.9,81.7-301.8l-6.6-6.2
	c18.5-19.7,39.4-37.2,62.4-52.2l4.9,7.6c32.3-21,67.9-36,105.8-44.8l-2.1-9c55.2-12.8,111.4-11.6,164.6,2.7l-2.4,9
	c86.5,23.2,160.9,81.3,204.2,159.4l8-4.4c15.2,27.4,26.7,57.1,33.9,88.5l-9,2.1c27.8,120.4-13.2,245.3-107,325.9l6,7
	C721.5,833.3,672,858.5,617.5,871.1L617.5,871.1z M316.1,857.7c-2.5,0.6-4.9,1.7-6.9,3.1c-78-56.2-132.8-138.4-154.5-232.3
	l-13.4,3.1c14.3,62.1,42.6,119.3,82.3,167.6l-41.2,7.8c-23.9-31.8-43.5-68-58.5-107.8c6.2-4.6,9.5-12.6,7.6-20.6
	c-2.5-10.7-13.3-17.5-24-15c-10.8,2.5-17.5,13.3-15,24c2,8.7,9.5,14.8,18.1,15.4C126.6,746,148,784.9,174,818.9l2.6,3.4l57.3-11
	c20,22.6,42.6,43,67.5,60.8c-0.8,3-1,6.3-0.3,9.6c2.5,10.8,13.3,17.5,24,15c10.8-2.5,17.5-13.3,15-24
	C337.7,862,326.9,855.2,316.1,857.7L316.1,857.7z M110.6,677.2c3.3-0.8,6.7,1.3,7.5,4.7c0.8,3.3-1.3,6.7-4.7,7.5
	c-3.3,0.8-6.7-1.3-7.5-4.7C105.2,681.3,107.2,677.9,110.6,677.2L110.6,677.2z M322.1,883.3c-3.3,0.8-6.7-1.3-7.5-4.7
	c-0.8-3.3,1.3-6.7,4.7-7.5c3.3-0.8,6.7,1.3,7.5,4.7C327.5,879.2,325.4,882.5,322.1,883.3L322.1,883.3z M683.2,894.5
	c-9.5,2.2-15.9,10.9-15.5,20.4c-12.3,4.1-24.9,7.8-37.6,10.7c-62.7,14.4-128.2,13.4-189.9-2.8c0-1.3-0.2-2.6-0.5-4
	c-2.5-10.8-13.3-17.5-24-15c-10.7,2.5-17.5,13.3-15,24c2.5,10.8,13.3,17.5,24,15c4.5-1,8.3-3.6,11-7c64.2,17.1,132.4,18.2,197.5,3.2
	c13.5-3.1,26.9-7,40-11.4c4.8,5,11.9,7.6,19.1,5.9c10.8-2.5,17.5-13.3,15-24C704.8,898.7,694,892,683.2,894.5L683.2,894.5z
	 M421.6,929.4c-3.3,0.8-6.7-1.3-7.5-4.7c-0.8-3.4,1.3-6.7,4.7-7.5c3.3-0.8,6.7,1.3,7.5,4.7C427,925.2,424.9,928.6,421.6,929.4
	L421.6,929.4z M689.1,920.1c-3.4,0.8-6.7-1.3-7.5-4.7c-0.8-3.3,1.3-6.7,4.7-7.5c3.3-0.8,6.7,1.3,7.5,4.7
	C694.6,915.9,692.5,919.3,689.1,920.1L689.1,920.1z M439.9,170.5c8.7-2,14.8-9.5,15.4-18.1c113.2-25.1,231.2,0.4,324.1,70.3l8.3-11
	c-96.3-72.5-218.7-98.8-336.1-72.6c-4.6-6.2-12.6-9.5-20.6-7.6c-10.8,2.5-17.5,13.2-15,24C418.4,166.2,429.1,173,439.9,170.5
	L439.9,170.5z M434,144.9c3.3-0.8,6.7,1.3,7.5,4.7c0.8,3.4-1.3,6.7-4.7,7.5c-3.3,0.8-6.7-1.3-7.5-4.6
	C428.6,149,430.7,145.7,434,144.9L434,144.9z M1012,488.2c-2.5-10.8-13.3-17.5-24-15c-10.8,2.5-17.5,13.3-15,24
	c1.6,6.9,6.5,12,12.7,14.3c2.2,32,1.2,63.4-3.2,93.6l-42,26.9c13.8-59.5,14.5-122.6,0.1-184.9c-0.8-3.3-1.6-6.5-2.4-9.7l0,0
	l38.6-44.9l-1.2-3.7C958,335.2,931.4,285.1,898.7,244l-10.8,8.6c30.9,38.9,56.2,86.1,73.4,136.9l-27.6,32c-7-23.4-16.1-46.1-27-67.8
	c3.6-4.6,5.2-10.7,3.8-16.7c-2.5-10.8-13.3-17.5-24-15c-10.7,2.5-17.5,13.2-15,24c2.5,10.6,12.9,17.2,23.5,15.1
	c14.2,28.2,25,58.2,32.2,89.2c38.3,165.9-33.3,337.3-178,426.6l7.2,11.7c89.4-55.1,151.8-140.6,179.1-236.9l59.7-38.3l0.5-3.1
	c4.9-31.9,6.2-65.1,3.9-98.9C1008.8,507.8,1014.3,498,1012,488.2L1012,488.2z M884.9,342.8c-0.8-3.4,1.3-6.7,4.7-7.5
	c3.3-0.8,6.7,1.3,7.5,4.7c0.8,3.4-1.3,6.7-4.7,7.5C889,348.3,885.7,346.2,884.9,342.8L884.9,342.8z M993.9,498.7
	c-3.4,0.8-6.7-1.3-7.5-4.7c-0.8-3.4,1.3-6.7,4.7-7.5c3.4-0.8,6.7,1.3,7.5,4.7C999.4,494.6,997.3,497.9,993.9,498.7L993.9,498.7z
	 M101.5,437.3l48.2-21.6c-11.3,35.9-17.8,73.5-18.8,111.9c-9.3,3.4-14.9,13.3-12.7,23.2c2.5,10.8,13.3,17.5,24,15
	c10.7-2.5,17.5-13.3,15-24c-1.6-6.8-6.5-12-12.6-14.2c3.3-112.5,54-217.8,140.1-290.7c4.2,2.4,9.2,3.3,14.3,2.1
	c10.8-2.5,17.5-13.2,15-24c-2.5-10.8-13.2-17.5-24-15c-10.8,2.5-17.5,13.3-15,24c0.2,0.8,0.5,1.6,0.8,2.4
	C221,272.8,180,332,155.8,397.9l-66.3,29.7l-0.7,3.4c-12.2,54.6-13.6,115-4,174.6l13.6-2.2C89.3,546.8,90.4,489.4,101.5,437.3
	L101.5,437.3z M293.1,213.4c3.4-0.8,6.7,1.3,7.5,4.7c0.8,3.3-1.3,6.7-4.7,7.5c-3.4,0.8-6.7-1.3-7.5-4.7
	C287.7,217.5,289.8,214.2,293.1,213.4L293.1,213.4z M139.2,552.4c-3.3,0.8-6.7-1.3-7.5-4.7c-0.8-3.3,1.3-6.7,4.7-7.5
	c3.3-0.8,6.7,1.3,7.5,4.7C144.6,548.3,142.5,551.6,139.2,552.4L139.2,552.4z M139.2,552.4"/>
</svg>
