<?xml version="1.0" encoding="utf-8"?>
<!-- Generator: Adobe Illustrator 24.0.1, SVG Export Plug-In . SVG Version: 6.00 Build 0)  -->
<svg version="1.1" id="Layer_1" xmlns="http://www.w3.org/2000/svg" xmlns:xlink="http://www.w3.org/1999/xlink" x="0px" y="0px"
	 viewBox="0 0 141.7 200.4" style="enable-background:new 0 0 141.7 200.4;" xml:space="preserve">
<style type="text/css">
	.st0{fill:#FFFFFF;}
	.st1{fill:#541D1D;}
</style>
<g>
	<path class="st0" d="M56.2,74.2c3.2,0.1,6.8,1.5,10.3,3.3c1.9,0.9,3.7,2,5.5,3.1c0.7,0.5,1.2,0.4,1.9,0c4.5-2.9,9.1-5.3,14.5-6.2
		c1.4-0.2,2.9-0.3,4.3,0c4.5,0.8,6.7,4.4,5.7,9.4c-0.9,4.8-3.3,8.9-6.2,12.7c-0.9,1.3-0.9,2,0,3.3c2.6,3.5,4.8,7.2,5.9,11.5
		c1.9,7.3-2.4,11.8-9.8,10.5c-5.2-0.9-9.8-3.2-14.1-6c-1-0.6-1.7-0.6-2.7,0c-4.4,2.8-8.9,5.2-14.1,6c-1.3,0.2-2.8,0.3-4.1,0.1
		c-4.6-0.7-6.9-4.5-5.8-9.6c1-4.7,3.4-8.8,6.3-12.6c0.8-1.1,0.8-1.8,0-2.8c-2.8-3.8-5.3-7.8-6.2-12.5c-0.3-1.5-0.3-3.1,0-4.5
		C48.2,76.1,51.1,74.2,56.2,74.2z M86.3,98.3c-4.2-4.9-8.5-8.9-13.4-12.4C68,89.5,63.7,93.5,59.8,98c4,4.6,8.3,8.6,13.4,12.3
		C77.6,106.3,81.9,102.4,86.3,98.3z M76.6,83.5c4.1,3.8,8.1,7.5,12.1,11.2c2.2-2.5,4.8-7.3,5.7-10.4c1.3-4.8-0.6-6.9-5.5-6
		C84.3,79.1,80.4,81.2,76.6,83.5z M76.5,112.7c2.6,1.3,5.1,2.7,7.8,3.7c1.9,0.8,4.1,1.3,6.1,1.4c3.5,0.3,4.9-1.4,4.2-4.8
		c-0.8-4.5-3.3-8.2-5.9-11.7C84.6,105.1,80.7,108.8,76.5,112.7z M57.1,94.7c4.1-3.8,8.1-7.5,12.1-11.2c-3.6-2.2-7.3-4.2-11.6-5.1
		c-1-0.2-2.1-0.3-3.1-0.3c-2.3,0.1-3.4,1.2-3.4,3.6c0,0.5,0,1,0.1,1.5C52.3,87.6,54.6,91.3,57.1,94.7z M57.1,101.3
		c-2.5,3.4-4.8,7-5.7,11.2c-0.9,3.9,0.5,5.6,4.5,5.4c0.4,0,0.8-0.1,1.2-0.1c3.8-0.7,7.2-2.3,10.4-4.2c0.6-0.3,1.2-0.7,1.7-1
		C65.2,108.8,61.2,105.1,57.1,101.3z"/>
	<path class="st0" d="M78.1,98c0,2.9-2.4,5.3-5.3,5.2c-2.9,0-5.1-2.4-5.1-5.2c0-2.9,2.4-5.3,5.3-5.2C75.9,92.8,78.1,95.1,78.1,98z"
		/>
</g>
<g>
	<path class="st1" d="M13.6,71.7c0.4-2,0.7-4.1,1.3-6.1c3.7-12.5,15.8-20.9,28.7-20.2c8.2,0.4,15,3.7,20.5,9.6
		c-3.4,3.4-6.9,6.8-10.3,10.2c0.4,0.4,0.6,0.7,0.8,0.9c2.5,2.5,5,5.1,7.6,7.6c6,5.9,15,7.2,22.4,3.1c0.6-0.3,1-0.4,1.6,0.1
		c8,8.1,16.1,16.2,24.2,24.2c2.7,2.7,1.8,7.1-1.8,8c-1.9,0.5-3.5,0-4.9-1.4C98,102,92.2,96.2,86.5,90.4c-0.3-0.3-0.5-0.7-0.7-0.9
		c-2.1,2.1-4,4-6,6c0.2,0.2,0.5,0.5,0.7,0.8c5.8,5.8,11.6,11.6,17.3,17.4c2.6,2.7,2.1,6.5-1.2,7.9c-1.9,0.8-3.8,0.4-5.5-1.3
		c-5.4-5.4-10.9-10.9-16.3-16.3c-0.6-0.6-1.1-1.3-1.6-1.8c-2.1,2.1-4,4-6.2,6.2c0.3,0.2,0.7,0.4,1,0.7c5.8,5.7,11.5,11.5,17.3,17.3
		c2.5,2.5,2.1,5.9-0.6,7.7c-1.4,0.9-3.8,1.2-5.7-0.6c-3.4-3.1-7.3-4.3-11.8-3.5c-0.1,0-0.3,0.1-0.4,0.1c0,0-0.1,0-0.2,0
		c-2.1-5.9-6.2-9.1-12.5-9.6c-2.1-7.7-4.1-9.9-11.2-12c-0.2-1.3-0.2-2.7-0.6-4c-1.9-7.8-10.7-12.1-18-8.7c-0.8,0.4-1.2,0.3-1.8-0.3
		c-5-4.9-7.9-10.8-8.7-17.7c0-0.3-0.1-0.6-0.2-0.9C13.6,75,13.6,73.3,13.6,71.7z"/>
	<path class="st1" d="M117.1,95.9c-10.4-10.4-20.7-20.7-31.1-31.1c-0.9,0.9-1.7,1.8-2.6,2.7c-4.6,4.6-10.9,4.5-15.5,0
		c-0.7-0.6-1.3-1.2-2-1.8c0.1-0.2,0.1-0.3,0.2-0.4c4.4-4.4,8.5-9,13.2-13c8.6-7.3,18.6-8.9,29.1-4.9c10.4,4,16.5,11.9,18.2,22.9
		C128,79.6,124.1,89.8,117.1,95.9z"/>
	<path class="st1" d="M69.3,137.8c2.5,0.1,4,0.9,4.9,2.7c0.9,1.8,0.7,3.6-0.7,5.1c-1.3,1.4-2.6,2.7-4,4c-1.8,1.7-4.7,1.6-6.4-0.2
		c-1.8-1.8-1.9-4.6-0.2-6.5c1.2-1.4,2.5-2.7,3.9-3.9C67.6,138.3,68.7,138,69.3,137.8z"/>
	<path class="st1" d="M34.4,107.4c0,1.3-0.5,2.4-1.4,3.3c-1.2,1.2-2.3,2.4-3.5,3.5c-2.1,2-4.8,1.9-6.7,0c-1.9-1.9-1.9-4.6,0-6.6
		c1.2-1.3,2.5-2.6,3.9-3.8c1.5-1.3,3.3-1.5,5.1-0.6C33.5,104,34.4,105.4,34.4,107.4z"/>
	<path class="st1" d="M58.7,133c0,1.5-0.5,2.6-1.4,3.5c-1.2,1.2-2.4,2.4-3.6,3.6c-1.9,1.9-4.8,1.8-6.7,0c-1.8-1.8-1.8-4.7,0-6.7
		c1.2-1.2,2.4-2.5,3.7-3.7c1.5-1.4,3.3-1.7,5.1-0.8C57.8,129.8,58.6,131.4,58.7,133z"/>
	<path class="st1" d="M45.7,121.1c0,1.3-0.4,2.4-1.3,3.3c-1.2,1.2-2.4,2.4-3.6,3.6c-2,1.9-4.9,1.9-6.7-0.1c-1.8-1.9-1.8-4.7,0.1-6.7
		c1.2-1.2,2.3-2.4,3.5-3.5c1.5-1.4,3.2-1.7,5.1-1C44.6,117.5,45.7,119.2,45.7,121.1z"/>
</g>
</svg>
