<?xml version="1.0" encoding="utf-8"?>
<!-- Generator: Adobe Illustrator 24.0.1, SVG Export Plug-In . SVG Version: 6.00 Build 0)  -->
<svg version="1.1" id="Layer_1" xmlns="http://www.w3.org/2000/svg" xmlns:xlink="http://www.w3.org/1999/xlink" x="0px" y="0px"
	 viewBox="0 0 141.7 200.4" style="enable-background:new 0 0 141.7 200.4;" xml:space="preserve">
<style type="text/css">
	.st0{fill:#FFFFFF;}
	.st1{fill:#541D1D;}
</style>
<g>
	<path class="st0" d="M13.6,141.8c1.8,6.7,7.2,9.2,13.2,10.8c3.7,1,7.6,1.3,11.4,1.9c0.4,0.1,0.7,0.1,1.1,0.2c-8.5,0-17,0-25.6,0
		C13.6,150.3,13.6,146.1,13.6,141.8z"/>
</g>
<g>
	<path class="st1" d="M29.3,97.6c0-3-0.1-5.7,0.1-8.5c0.1-2.7,2.5-4.9,5.2-5.2c1.7-0.2,3.5,0,5.5,0c0-2.2,0.1-4.2,0-6.2
		c-0.2-3.3,0.6-6,4-7.4c0.4-0.1,0.6-0.9,0.6-1.5c0.1-2,0-3.9,0.1-5.8c0.1-3.9,1.7-5.9,5.7-6.9c0-2.3,0-4.6,0-7
		c0-4.3,2.3-6.7,6.7-6.8c9.4,0,18.8,0,28.2,0c4.3,0,6.6,2.4,6.6,6.7c0,2-0.1,4,0.1,6c0,0.4,0.6,1.1,1,1.3c3.1,1.1,4.6,3.1,4.7,6.4
		c0,2.1-0.1,4.1,0.1,6.2c0,0.6,0.4,1.4,0.9,1.6c2.5,1.3,3.6,3.3,3.7,6c0.1,2.3,0,4.7,0,7.3c1.2,0,2.3,0,3.3,0c5.2,0,7.4,2.2,7.4,7.4
		c0,2.1,0,4.2,0,6.4C85.1,97.6,57.3,97.6,29.3,97.6z"/>
	<path class="st1" d="M14.3,182c1-1.4,1.7-2.4,2.5-3.3c2.1-2.8,3.3-5.8,3.1-9.4c-0.2-3.9,0.9-4.9,4.7-4.9c31,0,62,0,93,0
		c3.9,0,5,0.9,4.8,4.8c-0.1,3.5,0.7,6.6,2.9,9.3c0.9,1.1,1.6,2.3,2.4,3.5C90,182,52.4,182,14.3,182z"/>
	<path class="st1" d="M23.9,118.4c0-4.9,0-9.6,0-14.6c31.5,0,63,0,94.6,0c0,4.8,0,9.6,0,14.6C87,118.4,55.5,118.4,23.9,118.4z"/>
	<path class="st1" d="M91.5,158.3c-13.5,0-27,0-40.6,0c0-11.2,0-22.4,0-33.7c13.5,0,27,0,40.6,0C91.5,135.9,91.5,147,91.5,158.3z"/>
	<path class="st1" d="M97.7,146.8c0-7.4,0-14.7,0-22.2c6.9,0,13.8,0,20.8,0c0,7.4,0,14.7,0,22.2C111.6,146.8,104.8,146.8,97.7,146.8
		z"/>
	<path class="st1" d="M44.5,146.9c-6.9,0-13.7,0-20.7,0c0-7.4,0-14.7,0-22.2c6.9,0,13.7,0,20.7,0C44.5,132,44.5,139.4,44.5,146.9z"
		/>
	<path class="st1" d="M81.3,36.3c-6.8,0-13.4,0-20.3,0c0.5-3.6,0.7-7.2,1.5-10.6c1-4.1,5.2-6.7,9.4-6.4c4.2,0.3,7.7,3.5,8.3,7.6
		C80.6,30,81,33.1,81.3,36.3z"/>
	<path class="st1" d="M97.7,158.3c0-1.8,0-3.3,0-5.1c6.9,0,13.8,0,20.8,0c0,1.6,0,3.3,0,5.1C111.6,158.3,104.8,158.3,97.7,158.3z"/>
	<path class="st1" d="M44.6,153.2c0,1.7,0,3.4,0,5.2c-6.9,0-13.7,0-20.7,0c0-1.7,0-3.4,0-5.2C30.8,153.2,37.7,153.2,44.6,153.2z"/>
</g>
</svg>
