<?xml version="1.0" encoding="utf-8"?>
<!-- Generator: Adobe Illustrator 24.0.1, SVG Export Plug-In . SVG Version: 6.00 Build 0)  -->
<svg version="1.1" id="Layer_1" xmlns="http://www.w3.org/2000/svg" xmlns:xlink="http://www.w3.org/1999/xlink" x="0px" y="0px"
	 viewBox="0 0 141.7 200.4" style="enable-background:new 0 0 141.7 200.4;" xml:space="preserve">
<style type="text/css">
	.st0{fill:#FFFFFF;}
	.st1{fill:#541D1D;}
</style>
<g>
	<path class="st0" d="M56.2,74.2c3.2,0.1,6.8,1.5,10.3,3.3c1.9,0.9,3.7,2,5.5,3.1c0.7,0.5,1.2,0.4,1.9,0c4.5-2.9,9.1-5.3,14.5-6.2
		c1.4-0.2,2.9-0.3,4.3,0c4.5,0.8,6.7,4.4,5.7,9.4c-0.9,4.8-3.3,8.9-6.2,12.7c-0.9,1.3-0.9,2,0,3.3c2.6,3.5,4.8,7.2,5.9,11.5
		c1.9,7.3-2.4,11.8-9.8,10.5c-5.2-0.9-9.8-3.2-14.1-6c-1-0.6-1.7-0.6-2.7,0c-4.4,2.8-8.9,5.2-14.1,6c-1.3,0.2-2.8,0.3-4.1,0.1
		c-4.6-0.7-6.9-4.5-5.8-9.6c1-4.7,3.4-8.8,6.3-12.6c0.8-1.1,0.8-1.8,0-2.8c-2.8-3.8-5.3-7.8-6.2-12.5c-0.3-1.5-0.3-3.1,0-4.5
		C48.2,76.1,51.1,74.2,56.2,74.2z M86.3,98.3c-4.2-4.9-8.5-8.9-13.4-12.4C68,89.5,63.7,93.5,59.8,98c4,4.6,8.3,8.6,13.4,12.3
		C77.6,106.3,81.9,102.4,86.3,98.3z M76.6,83.5c4.1,3.8,8.1,7.5,12.1,11.2c2.2-2.5,4.8-7.3,5.7-10.4c1.3-4.8-0.6-6.9-5.5-6
		C84.3,79.1,80.4,81.2,76.6,83.5z M76.5,112.7c2.6,1.3,5.1,2.7,7.8,3.7c1.9,0.8,4.1,1.3,6.1,1.4c3.5,0.3,4.9-1.4,4.2-4.8
		c-0.8-4.5-3.3-8.2-5.9-11.7C84.6,105.1,80.7,108.8,76.5,112.7z M57.1,94.7c4.1-3.8,8.1-7.5,12.1-11.2c-3.6-2.2-7.3-4.2-11.6-5.1
		c-1-0.2-2.1-0.3-3.1-0.3c-2.3,0.1-3.4,1.2-3.4,3.6c0,0.5,0,1,0.1,1.5C52.3,87.6,54.6,91.3,57.1,94.7z M57.1,101.3
		c-2.5,3.4-4.8,7-5.7,11.2c-0.9,3.9,0.5,5.6,4.5,5.4c0.4,0,0.8-0.1,1.2-0.1c3.8-0.7,7.2-2.3,10.4-4.2c0.6-0.3,1.2-0.7,1.7-1
		C65.2,108.8,61.2,105.1,57.1,101.3z"/>
	<path class="st0" d="M78.1,98c0,2.9-2.4,5.3-5.3,5.2c-2.9,0-5.1-2.4-5.1-5.2c0-2.9,2.4-5.3,5.3-5.2C75.9,92.8,78.1,95.1,78.1,98z"
		/>
</g>
<g>
	<path class="st1" d="M38.3,145.9c-0.2-0.4-0.4-0.6-0.5-0.8c-4.6-8.8-9.1-17.5-13.8-26.4c0.4-0.3,0.8-0.5,1.2-0.7
		c5.7-3,11.3-5.9,17-8.9c1.7-0.9,3.4-1.3,5.3-1.2c9.2,0.4,18.3,0.8,27.5,1.2c4.9,0.2,8.6,4.2,8.4,8.8c-0.2,4.9-4,8.4-9,8.3
		c-5.9-0.2-11.9-0.5-17.8-0.7c-0.4,0-0.7-0.1-1.1,0c-1,0.1-1.7,0.6-1.7,1.6c0,1,0.6,1.6,1.6,1.7c2.9,0.2,5.8,0.3,8.7,0.4
		c3.3,0.1,6.6,0.2,9.9,0.4c4.2,0.2,7.5-1.3,10.2-4.5c0.3-0.4,0.7-0.7,1.2-0.9c11.6-6.1,23.2-12.1,34.9-18.2
		c5.5-2.9,11.7,0.3,12.7,6.4c0.5,3.5-1.4,7-4.8,8.8c-7,3.7-14.1,7.4-21.2,11c-9.8,5.1-19.6,10.1-29.3,15.3c-3.5,1.9-7,2.3-10.8,1.5
		c-7-1.5-13.9-3-20.9-4.5C43.1,143.9,40.6,144.1,38.3,145.9z"/>
	<path class="st1" d="M80.7,93c-6,0-12,0-18,0c-3.1,0-4.4-1.3-4.3-4.4c0-12.9,10.1-22.9,23-22.6c12.3,0.2,22.4,11.2,21.7,23.5
		c-0.1,2.2-1.6,3.5-4.1,3.5C92.9,93,86.8,93,80.7,93z"/>
	<path class="st1" d="M39,154.9c-0.3,0.3-0.6,0.7-1,0.9c-2.8,1.5-5.7,3-8.5,4.5c-1.2,0.6-1.6,0-2.1-0.9c-4.7-9.1-9.4-18.1-14.1-27.1
		c-2.2-4.2-4.3-8.3-6.5-12.5c-0.8-1.5-0.7-1.7,0.8-2.4c2.6-1.4,5.3-2.7,7.9-4.2c1.1-0.6,1.6-0.4,2.2,0.7c6.9,13.3,13.9,26.7,20.8,40
		C38.7,154.1,38.8,154.4,39,154.9z"/>
	<path class="st1" d="M80.6,54.1c-5.5,0-9.9-4.6-9.9-10.1c0-5.5,4.6-10,10.1-10c5.5,0,10,4.5,10,10.1C90.8,49.7,86.2,54.2,80.6,54.1
		z"/>
	<path class="st1" d="M48.6,60.4c1,3.9,3.4,6.2,7.3,7.1c-3.8,1-6.3,3.2-7.2,7.2c-1-3.9-3.3-6.2-7.2-7.1
		C45.2,66.5,47.7,64.4,48.6,60.4z"/>
	<path class="st1" d="M103.3,49.3c3.3-0.8,5.2-2.8,5.8-6.3c0.8,1.7,1.2,3.2,2.2,4.2c1,1,2.5,1.4,3.9,2.1c-1.3,0.7-2.9,1.1-3.8,2
		c-1,1-1.4,2.5-2.2,4.1C108.4,52.2,106.7,50.1,103.3,49.3z"/>
</g>
</svg>
