<?xml version="1.0" encoding="utf-8"?>
<!-- Generator: Adobe Illustrator 24.0.1, SVG Export Plug-In . SVG Version: 6.00 Build 0)  -->
<svg version="1.1" id="Layer_1" xmlns="http://www.w3.org/2000/svg" xmlns:xlink="http://www.w3.org/1999/xlink" x="0px" y="0px"
	 viewBox="0 0 141.7 200.4" style="enable-background:new 0 0 141.7 200.4;" xml:space="preserve">
<style type="text/css">
	.st0{fill:#541D1D;}
	.st1{fill:#FFFFFF;}
</style>
<g>
	<path class="st0" d="M72.8,130.7c-10.1,0-20.3,0-30.4,0c-2,0-2.2-0.2-2.2-2.1c0-20.4,0-40.7,0-61.1c0-1.9,0.2-2.1,2.2-2.1
		c20.4,0,40.7,0,61.1,0c1.9,0,2.1,0.2,2.1,2c0,20.4,0,40.8,0,61.2c0,1.8-0.2,2-2.1,2C93.3,130.7,83.1,130.7,72.8,130.7z M56.2,74.2
		c-5.1,0-7.9,1.8-8.6,5.4c-0.3,1.5-0.2,3.1,0,4.5c0.9,4.7,3.4,8.7,6.2,12.5c0.8,1.1,0.9,1.7,0,2.8c-2.8,3.8-5.3,7.9-6.3,12.6
		c-1.1,5.1,1.2,8.9,5.8,9.6c1.3,0.2,2.8,0.1,4.1-0.1c5.2-0.8,9.8-3.2,14.1-6c1-0.6,1.6-0.7,2.7,0c4.4,2.8,8.9,5.1,14.1,6
		c7.4,1.3,11.6-3.3,9.8-10.5c-1.1-4.3-3.3-8-5.9-11.5c-0.9-1.2-1-2,0-3.3c2.9-3.8,5.3-7.9,6.2-12.7c1-4.9-1.2-8.6-5.7-9.4
		c-1.4-0.2-2.9-0.2-4.3,0c-5.3,0.8-10,3.3-14.5,6.2c-0.7,0.5-1.2,0.5-1.9,0c-1.8-1.1-3.6-2.2-5.5-3.1C63,75.7,59.3,74.3,56.2,74.2z"
		/>
	<path class="st0" d="M30.8,63.4c-1.9,0-3.6-0.1-5.4,0c-0.4,0-0.8,0.6-1.1,1c-1.4,2.4-3.5,3.7-6.3,3.4c-2.7-0.2-4.5-1.7-5.5-4.2
		c-1.2-3.1,0.2-6.7,3.3-8.2c3.1-1.5,6.8-0.3,8.4,2.7c0.5,1,1.1,1.2,2.1,1.2c2-0.1,4,0,5.9,0c1.7,0,2.3,0.7,2.3,2.4c0,3,0,6,0,9
		c0,0.5,0,1,0,1.5c0.6,0.1,1,0.2,1.5,0.3c0,1.2,0,2.4,0,3.7c-1.2,0-2.4,0.1-3.6,0c-1.3-0.1-1.8-1.1-1.8-2.3c0-3,0-6,0-9
		C30.8,64.5,30.8,64,30.8,63.4z"/>
	<path class="st0" d="M30.8,132.7c0-3.5,0-6.8,0-10.1c0-2.3,0.6-2.9,2.9-2.9c0.8,0,1.6,0,2.7,0c0,0.7,0,1.4,0,2c0,0.6,0,1.2,0,1.8
		c-0.6,0.1-1,0.1-1.6,0.2c0,2.2,0,4.4,0,6.6c0,1.3,0,2.7,0,4c0,1.6-0.7,2.2-2.3,2.3c-2,0-4,0.1-5.9,0c-1.1,0-1.7,0.2-2.2,1.3
		c-1.5,2.9-4.9,4-8,2.8c-3-1.2-4.7-4.3-4-7.5c0.7-3,3.5-5.2,6.7-5c2.4,0.1,4.3,1.4,5.4,3.5c0.4,0.8,0.9,1,1.7,1
		C27.6,132.7,29.1,132.7,30.8,132.7z"/>
	<path class="st0" d="M114.7,63.4c0,2,0,3.8,0,5.6c0,1.7,0,3.5,0,5.2c0,1.4-0.7,2-2,2.1c-1,0.1-1.9,0-2.8,0c-0.7-2.3-0.4-3.7,1-4.1
		c0-3.2,0-6.5,0-9.7c0-2.6,0.5-3.1,3.1-3.1c1.8,0,3.6,0,5.4,0c0.9,0,1.5-0.2,1.9-1.1c1.5-2.8,4.5-4.1,7.5-3.2
		c2.9,0.8,4.8,3.4,4.7,6.5c-0.1,3-2.2,5.5-5.2,6.1c-2.8,0.6-5.6-0.8-7-3.5c-0.4-0.7-0.8-1-1.6-1C118,63.4,116.4,63.4,114.7,63.4z"/>
	<path class="st0" d="M109.6,123.5c0-1.4,0-2.6,0-3.8c1.2,0,2.3-0.1,3.4,0c1.3,0.1,1.7,1,1.7,2.2c0,3,0,6,0,9c0,0.5,0,1,0,1.7
		c1.9,0,3.8,0.1,5.6,0c0.3,0,0.7-0.7,0.9-1.1c1.5-2.7,4.4-3.9,7.3-3.2c2.9,0.7,4.9,3.2,4.9,6.2c0,3.1-1.9,5.6-4.9,6.4
		c-2.8,0.7-5.8-0.5-7.2-3.2c-0.5-0.9-1-1.2-2-1.2c-1.8,0.1-3.6,0-5.4,0c-2.6,0-3-0.5-3-3.1c0-2.8,0-5.6,0-8.4
		C110.8,124.2,111,123.3,109.6,123.5z"/>
	<path class="st0" d="M82.8,134.6c1.4,0,2.5,0,3.9,0c0,0.7,0,1.4,0,2.1c0,4.6,0,9.2,0,13.8c0,0.9,0.2,1.4,1.1,1.9
		c2.7,1.4,4,4.4,3.3,7.3c-0.7,2.8-3.3,4.8-6.1,4.9c-2.9,0.1-5.6-1.9-6.4-4.7c-0.9-2.9,0.4-6,3.2-7.5c0.9-0.5,1.1-1,1.1-1.9
		C82.8,145.3,82.8,140,82.8,134.6z"/>
	<path class="st0" d="M63.1,61.5c-1.4,0-2.5,0-3.8,0c0-0.5-0.1-1-0.1-1.5c0-4.8,0-9.6,0-14.3c0-1-0.3-1.6-1.2-2.1
		c-2.7-1.4-3.9-4.4-3.1-7.4c0.8-2.8,3.4-4.8,6.4-4.8c2.9,0,5.5,2.1,6.2,5c0.7,2.9-0.6,5.9-3.4,7.3c-0.8,0.4-1,0.9-1,1.7
		c0,4.8,0,9.7,0,14.5C63.1,60.4,63.1,60.9,63.1,61.5z"/>
	<path class="st0" d="M86.7,61.5c-1.4,0-2.6,0-3.9,0c0-0.6,0-1.1,0-1.6c0-4.7,0-9.4,0-14.1c0-1.1-0.3-1.8-1.3-2.3
		c-2.6-1.4-3.8-4.4-3-7.2c0.7-2.7,3.2-4.7,6-4.9c2.8-0.1,5.4,1.6,6.4,4.3c1.1,3.1-0.2,6.4-3.2,7.9c-0.8,0.4-1,0.8-1,1.7
		c0,4.8,0,9.7,0,14.5C86.7,60.4,86.7,60.9,86.7,61.5z"/>
	<path class="st0" d="M59.2,134.6c1.4,0,2.6,0,3.9,0c0,0.6,0,1.1,0,1.6c0,4.8,0,9.7,0,14.5c0,0.8,0.2,1.3,1,1.7
		c2.9,1.5,4.2,4.6,3.3,7.6c-0.9,2.9-3.6,4.8-6.5,4.7c-3.1-0.2-5.6-2.5-6.1-5.6c-0.4-2.6,0.9-5.3,3.5-6.6c0.9-0.5,1.1-1,1.1-1.9
		c0-4.7,0-9.5,0-14.2C59.2,135.8,59.2,135.3,59.2,134.6z"/>
	<path class="st0" d="M18.5,100c-1.7,3.4-4,4.8-6.9,4.5c-3.1-0.3-5.6-2.7-5.9-5.8c-0.3-3,1.6-5.9,4.5-6.8c2.9-1,6.1,0.2,7.6,2.9
		c0.6,1,1.2,1.4,2.3,1.3c4.3-0.1,8.6,0,12.8,0c1.6,0,2.5,0.7,2.6,1.9c0,1.2-0.9,2-2.6,2C28.1,100,23.3,100,18.5,100z"/>
	<path class="st0" d="M126,100c-3.9,0-7.9,0-11.8,0c-0.5,0-0.9,0-1.4,0c-1.5,0-2.4-0.7-2.4-1.9c0-1.2,0.9-2,2.3-2c2.8,0,5.6,0,8.4,0
		c0.8,0,1.6-0.1,2.3,0c1.6,0.1,2.7-0.1,3.6-1.8c1.3-2.5,4.6-3.3,7.3-2.4c2.7,0.9,4.5,3.4,4.4,6.2c0,2.8-2,5.4-4.7,6.2
		c-2.7,0.8-5.7-0.3-7.3-2.7C126.6,101.1,126.4,100.6,126,100z"/>
	<path class="st0" d="M51.2,61.5c-1.3,0-2.5,0-3.8,0c0-2.1-0.1-4.3,0-6.4c0.1-0.9,0.9-1.5,1.9-1.5c1.1,0,1.8,0.6,1.9,1.7
		C51.3,57.3,51.2,59.4,51.2,61.5z"/>
	<path class="st0" d="M94.6,61.5c0-2.1,0-4,0-6c0-1.1,0.8-1.8,1.8-1.8c1.1,0,1.9,0.6,2,1.7c0.1,2,0,4,0,6.1
		C97.2,61.5,96,61.5,94.6,61.5z"/>
	<path class="st0" d="M74.8,61.5c-1.4,0-2.5,0-3.8,0c0-2.1-0.1-4.1,0-6.1c0.1-1.1,0.8-1.7,2-1.7c1.1,0.1,1.8,0.7,1.8,1.9
		C74.9,57.5,74.8,59.4,74.8,61.5z"/>
	<path class="st0" d="M94.7,134.6c1.4,0,2.5,0,3.8,0c0,2.1,0.1,4.2,0,6.3c-0.1,1-1,1.5-2,1.4c-1-0.1-1.6-0.7-1.7-1.7
		C94.6,138.6,94.7,136.7,94.7,134.6z"/>
	<path class="st0" d="M71,134.6c1.4,0,2.5,0,3.8,0c0,2.1,0.1,4.1,0,6.1c0,1.1-0.8,1.6-1.9,1.6c-1.1,0-1.8-0.7-1.9-1.8
		C70.9,138.6,71,136.7,71,134.6z"/>
	<path class="st0" d="M47.4,134.6c1.3,0,2.5,0,3.8,0c0,2,0.1,4,0,6c-0.1,1-0.8,1.6-1.9,1.6c-1.1,0-1.8-0.6-1.8-1.7
		C47.3,138.6,47.4,136.7,47.4,134.6z"/>
	<path class="st1" d="M56.2,74.2c3.2,0.1,6.8,1.5,10.3,3.3c1.9,0.9,3.7,2,5.5,3.1c0.7,0.5,1.2,0.4,1.9,0c4.5-2.9,9.1-5.3,14.5-6.2
		c1.4-0.2,2.9-0.3,4.3,0c4.5,0.8,6.7,4.4,5.7,9.4c-0.9,4.8-3.3,8.9-6.2,12.7c-0.9,1.3-0.9,2,0,3.3c2.6,3.5,4.8,7.2,5.9,11.5
		c1.9,7.3-2.4,11.8-9.8,10.5c-5.2-0.9-9.8-3.2-14.1-6c-1-0.6-1.7-0.6-2.7,0c-4.4,2.8-8.9,5.2-14.1,6c-1.3,0.2-2.8,0.3-4.1,0.1
		c-4.6-0.7-6.9-4.5-5.8-9.6c1-4.7,3.4-8.8,6.3-12.6c0.8-1.1,0.8-1.8,0-2.8c-2.8-3.8-5.3-7.8-6.2-12.5c-0.3-1.5-0.3-3.1,0-4.5
		C48.2,76.1,51.1,74.2,56.2,74.2z M86.3,98.3c-4.2-4.9-8.5-8.9-13.4-12.4C68,89.5,63.7,93.5,59.8,98c4,4.6,8.3,8.6,13.4,12.3
		C77.6,106.3,81.9,102.4,86.3,98.3z M76.6,83.5c4.1,3.8,8.1,7.5,12.1,11.2c2.2-2.5,4.8-7.3,5.7-10.4c1.3-4.8-0.6-6.9-5.5-6
		C84.3,79.1,80.4,81.2,76.6,83.5z M76.5,112.7c2.6,1.3,5.1,2.7,7.8,3.7c1.9,0.8,4.1,1.3,6.1,1.4c3.5,0.3,4.9-1.4,4.2-4.8
		c-0.8-4.5-3.3-8.2-5.9-11.7C84.6,105.1,80.7,108.8,76.5,112.7z M57.1,94.7c4.1-3.8,8.1-7.5,12.1-11.2c-3.6-2.2-7.3-4.2-11.6-5.1
		c-1-0.2-2.1-0.3-3.1-0.3c-2.3,0.1-3.4,1.2-3.4,3.6c0,0.5,0,1,0.1,1.5C52.3,87.6,54.6,91.3,57.1,94.7z M57.1,101.3
		c-2.5,3.4-4.8,7-5.7,11.2c-0.9,3.9,0.5,5.6,4.5,5.4c0.4,0,0.8-0.1,1.2-0.1c3.8-0.7,7.2-2.3,10.4-4.2c0.6-0.3,1.2-0.7,1.7-1
		C65.2,108.8,61.2,105.1,57.1,101.3z"/>
	<path class="st0" d="M86.3,98.3c-4.4,4.1-8.7,8-13.1,12c-5.1-3.7-9.5-7.7-13.4-12.3c3.9-4.6,8.3-8.5,13.1-12.1
		C77.8,89.4,82.1,93.4,86.3,98.3z M78.1,98c0-2.9-2.3-5.2-5.1-5.2c-2.9,0-5.3,2.3-5.3,5.2c0,2.9,2.3,5.2,5.1,5.2
		C75.8,103.3,78.1,101,78.1,98z"/>
	<path class="st0" d="M76.6,83.5c3.8-2.3,7.7-4.4,12.2-5.2c4.9-0.9,6.8,1.2,5.5,6c-0.8,3.1-3.5,7.9-5.7,10.4
		C84.7,91,80.7,87.3,76.6,83.5z"/>
	<path class="st0" d="M76.5,112.7c4.2-3.9,8.2-7.6,12.3-11.4c2.6,3.5,5,7.2,5.9,11.7c0.6,3.4-0.7,5.1-4.2,4.8
		c-2.1-0.2-4.2-0.7-6.1-1.4C81.6,115.4,79,114,76.5,112.7z"/>
	<path class="st0" d="M57.1,94.7c-2.5-3.4-4.8-7.1-5.8-11.5c-0.1-0.5-0.1-1-0.1-1.5c0-2.4,1-3.5,3.4-3.6c1,0,2.1,0.1,3.1,0.3
		c4.2,0.9,8,2.8,11.6,5.1C65.2,87.2,61.2,90.9,57.1,94.7z"/>
	<path class="st0" d="M57.1,101.3c4.1,3.8,8,7.5,12.1,11.2c-0.5,0.3-1.1,0.7-1.7,1c-3.3,1.9-6.7,3.5-10.4,4.2
		c-0.4,0.1-0.8,0.1-1.2,0.1c-4,0.2-5.4-1.5-4.5-5.4C52.4,108.3,54.7,104.8,57.1,101.3z"/>
	<path class="st1" d="M78.1,98c0,2.9-2.4,5.3-5.3,5.2c-2.9,0-5.1-2.4-5.1-5.2c0-2.9,2.4-5.3,5.3-5.2C75.9,92.8,78.1,95.1,78.1,98z"
		/>
</g>
</svg>
