<?xml version="1.0" encoding="utf-8"?>
<!-- Generator: Adobe Illustrator 24.0.1, SVG Export Plug-In . SVG Version: 6.00 Build 0)  -->
<svg version="1.1" id="Layer_1" xmlns="http://www.w3.org/2000/svg" xmlns:xlink="http://www.w3.org/1999/xlink" x="0px" y="0px"
	 viewBox="0 0 595.3 841.9" style="enable-background:new 0 0 595.3 841.9;" xml:space="preserve" font-family="Inter, sans-serif">
<style type="text/css">
	.st0{fill:none;stroke:#2B3990;stroke-width:3;stroke-miterlimit:10;}
	.st1{font-family:'MyriadPro-Semibold';}
	.st2{font-size:25px;}
	.st3{font-family:'MyriadPro-Regular';}
	.st4{font-size:10px;}
	.st5{fill:#1B75BC;}
	.st6{opacity:0.75;fill:#00A651;}
	.st7{opacity:0.75;fill:#88206E;}
	.st8{fill:#5652A3;}
	.st9{opacity:0.75;fill:#1B75BC;}
	.st10{fill:#FBB040;}
	.st11{fill:#00A79D;}
	.st12{opacity:0.75;fill:#EC008C;}
	.st13{opacity:0.75;fill:#21409A;}
	.st14{fill:#FFFFFF;}
	.st15{font-family:'MyriadPro-Bold';}
	.st16{font-size:15px;}
	.st17{fill:#303694;}
	.st18{opacity:0.75;fill:#086D38;}
	.st19{opacity:0.75;}
	.st20{opacity:0.75;fill:#84246F;}
	.st21{fill:#51A0D8;}
</style>
<line class="st0" x1="297.6" y1="170.2" x2="297.6" y2="206.5"/>
<line class="st0" x1="297.6" y1="255.5" x2="297.6" y2="372.8"/>
<line class="st0" x1="297.6" y1="421.8" x2="297.6" y2="461.4"/>
<line class="st0" x1="297.6" y1="533.2" x2="297.6" y2="572.8"/>
<text transform="matrix(1 0 0 1 164.2773 59.103)" class="st1 st2">Organizational Structure</text>
<text transform="matrix(1 0 0 1 86.8908 87.543)" class="st3 st4">Our hierarchical framework ensures clear accountability and efficient decision-making across all levels</text>
<path class="st5" d="M387.9,178.8H207.4c-7.8,0-14.2-6.4-14.2-14.2V144c0-7.8,6.4-14.2,14.2-14.2h180.5c7.8,0,14.2,6.4,14.2,14.2
	v20.6C402,172.4,395.7,178.8,387.9,178.8z"/>
<path class="st6" d="M426.8,255.5H168.4c-7.8,0-14.2-6.4-14.2-14.2v-20.6c0-7.8,6.4-14.2,14.2-14.2h258.4c7.8,0,14.2,6.4,14.2,14.2
	v20.6C441,249.1,434.6,255.5,426.8,255.5z"/>
<path class="st7" d="M251.8,338.6H71.3c-7.8,0-14.2-6.4-14.2-14.2v-20.6c0-7.8,6.4-14.2,14.2-14.2h180.5c7.8,0,14.2,6.4,14.2,14.2
	v20.6C266,332.3,259.6,338.6,251.8,338.6z"/>
<path class="st7" d="M523.9,338.6H343.5c-7.8,0-14.2-6.4-14.2-14.2v-20.6c0-7.8,6.4-14.2,14.2-14.2h180.5c7.8,0,14.2,6.4,14.2,14.2
	v20.6C538.1,332.3,531.7,338.6,523.9,338.6z"/>
<path class="st8" d="M387.9,421.8H207.4c-7.8,0-14.2-6.4-14.2-14.2V387c0-7.8,6.4-14.2,14.2-14.2h180.5c7.8,0,14.2,6.4,14.2,14.2
	v20.6C402,415.4,395.7,421.8,387.9,421.8z"/>
<path class="st9" d="M369.5,533.8H225.8c-7.8,0-14.2-6.4-14.2-14.2v-44c0-7.8,6.4-14.2,14.2-14.2h143.7c7.8,0,14.2,6.4,14.2,14.2v44
	C383.7,527.4,377.3,533.8,369.5,533.8z"/>
<path class="st10" d="M179.1,533.8H35.3c-7.8,0-14.2-6.4-14.2-14.2v-44c0-7.8,6.4-14.2,14.2-14.2h143.7c7.8,0,14.2,6.4,14.2,14.2v44
	C193.2,527.4,186.9,533.8,179.1,533.8z"/>
<path class="st7" d="M559.9,533.8H416.2c-7.8,0-14.2-6.4-14.2-14.2v-44c0-7.8,6.4-14.2,14.2-14.2h143.7c7.8,0,14.2,6.4,14.2,14.2v44
	C574.1,527.4,567.7,533.8,559.9,533.8z"/>
<path class="st11" d="M369.5,631.6H225.8c-7.8,0-14.2-6.4-14.2-14.2V587c0-7.8,6.4-14.2,14.2-14.2h143.7c7.8,0,14.2,6.4,14.2,14.2
	v30.5C383.7,625.2,377.3,631.6,369.5,631.6z"/>
<path class="st12" d="M179.1,631.6H35.3c-7.8,0-14.2-6.4-14.2-14.2V587c0-7.8,6.4-14.2,14.2-14.2h143.7c7.8,0,14.2,6.4,14.2,14.2
	v30.5C193.2,625.2,186.9,631.6,179.1,631.6z"/>
<path class="st13" d="M559.9,631.6H416.2c-7.8,0-14.2-6.4-14.2-14.2V587c0-7.8,6.4-14.2,14.2-14.2h143.7c7.8,0,14.2,6.4,14.2,14.2
	v30.5C574.1,625.2,567.7,631.6,559.9,631.6z"/>
<image style="overflow:visible;" width="591" height="448" xlink:href="C:\Users\DELL\OneDrive\Desktop\Screenshot 2025-09-22 153319.jpg"  transform="matrix(0.75 0 0 0.75 679.8109 184.2)">
</image>
<g>
	<text transform="matrix(1 0 0 1 257.8207 161.68)" class="st14 st15 st16">NAHM-SOM</text>
</g>
<g>
	<text transform="matrix(1 0 0 1 195.7515 229.5199)" class="st14 st15 st16">National Committee</text>
</g>
<g>
	<text transform="matrix(1 0 0 1 105.5916 314.1601)" class="st14 st15 st16">Ameri India Trust</text>
</g>
<g>
	<text transform="matrix(1 0 0 1 195.7514 244.4799)" class="st14 st3 st4">Strategic Oversight, Policy &amp; Program Promoter</text>
</g>
<g>
	<text transform="matrix(1 0 0 1 105.5916 329.1199)" class="st14 st3 st4">Device Supplier</text>
</g>
<g>
	<text transform="matrix(1 0 0 1 250.7916 397.3199)" class="st14 st15 st16">Local Committees</text>
</g>
<g>
	<text transform="matrix(1 0 0 1 240.1884 507.62)"><tspan x="0" y="0" class="st14 st15 st16">Community Care </tspan><tspan x="24.3" y="18" class="st14 st15 st16">Managers</tspan></text>
</g>
<g>
	<text transform="matrix(1 0 0 1 265.8609 625.1999)" class="st14 st15 st16">Physician</text>
</g>
<g>
	<text transform="matrix(1 0 0 1 455.3331 625.2006)" class="st14 st15 st16">Volunteers</text>
</g>
<g>
	<text transform="matrix(1 0 0 1 87.6607 625.2003)" class="st14 st15 st16">Nurse</text>
</g>
<g>
	<text transform="matrix(1 0 0 1 461.6107 507.6198)"><tspan x="0" y="0" class="st14 st15 st16">Funding </tspan><tspan x="-0.3" y="18" class="st14 st15 st16">Manager</tspan></text>
</g>
<g>
	<text transform="matrix(1 0 0 1 51.481 507.62)"><tspan x="0" y="0" class="st14 st15 st16">Health &amp; Wealth </tspan><tspan x="-11.3" y="18" class="st14 st15 st16">Community Leaders</tspan></text>
</g>
<g>
	<text transform="matrix(1 0 0 1 250.7916 412.2797)" class="st14 st3 st4">Operation</text>
</g>
<g>
	<text transform="matrix(1 0 0 1 375.7116 313.16)" class="st14 st15 st16">CSR &amp; Partner</text>
</g>
<g>
	<text transform="matrix(1 0 0 1 375.7116 328.1198)" class="st14 st3 st4">Technology &amp; Clinical Partner</text>
</g>
<g>
	<path class="st14" d="M93.1,608.1c0.1-0.3,0.1-0.7,0.2-1c0.5-2,1.7-3.4,3.5-4.4c1.5-0.8,3.1-1.2,4.7-1.4c0.3,0,0.6,0,0.8-0.1
		c0.3,0,0.5,0.1,0.6,0.3c1.3,1.3,2.7,2.7,4,4c0.1,0.1,0.1,0.2,0.2,0.3c0.1-0.1,0.2-0.2,0.2-0.2c1.3-1.3,2.7-2.6,4-4
		c0.4-0.4,0.8-0.4,1.2-0.3c1.5,0.2,2.9,0.5,4.3,1c1.4,0.6,2.6,1.5,3.5,2.8c0.7,1.1,1,2.4,1,3.7c0,0.2-0.2,0.3-0.3,0.5
		c-0.1,0-0.3,0-0.4,0c-0.1-0.2-0.2-0.3-0.3-0.5c-0.1-0.2,0-0.4-0.1-0.5c-0.1-1.7-0.9-3.1-2.2-4.1c-1.2-0.9-2.6-1.4-4-1.7
		c-0.1,0-0.2,0-0.3-0.1c0,0,0,0.1,0,0.1c0.1,0.3,0.3,0.5,0.4,0.8c0.2,0.4,0.1,0.6-0.3,0.8c-0.4,0.2-0.9,0.4-1.3,0.7
		c-0.2,0.1-0.2,0.2-0.2,0.4c0,0.4,0,0.8,0,1.2c0,0.5-0.1,0.6-0.5,0.7c-1.3,0.4-2.6,0.8-3.8,1.1c-0.3,0.1-0.4,0.2-0.4,0.5
		c0,0.3-0.1,0.5-0.3,0.7c-0.1,0-0.2,0-0.3,0c-0.3-0.2-0.4-0.4-0.3-0.7c0-0.3-0.1-0.4-0.4-0.5c-1.3-0.4-2.6-0.8-3.8-1.1
		c-0.4-0.1-0.5-0.2-0.5-0.7c0-0.4,0-0.8,0-1.2c0-0.2,0-0.2-0.2-0.3c-0.4-0.2-0.9-0.4-1.3-0.6c-0.4-0.2-0.5-0.4-0.3-0.9
		c0.1-0.3,0.3-0.5,0.4-0.8c-0.1,0-0.1,0-0.2,0c-1,0.2-1.9,0.4-2.8,0.9c-1.2,0.6-2.2,1.3-2.9,2.5c-0.5,0.9-0.7,1.8-0.8,2.9
		c0,0.3-0.1,0.5-0.3,0.7c-0.2,0-0.4,0-0.7,0C93.1,608.9,93.1,608.5,93.1,608.1z M106.8,607.2c0.1-0.3,0-0.6-0.2-0.8
		c-0.6-0.6-1.2-1.2-1.8-1.8c-0.8-0.8-1.5-1.5-2.3-2.3c-0.2-0.2-0.5-0.2-0.6,0c-0.2,0.4-0.4,0.7-0.5,1.1c0.5,0.2,0.9,0.5,1.3,0.7
		c0.3,0.1,0.4,0.3,0.4,0.6c0,0.4,0,0.8,0,1.1c0,0.2,0.1,0.3,0.3,0.3c1.1,0.3,2.2,0.6,3.3,1C106.6,607.2,106.7,607.2,106.8,607.2z
		 M113.3,603.4c-0.2-0.3-0.3-0.6-0.4-0.9c-0.2-0.4-0.5-0.4-0.8-0.1c-1.3,1.3-2.7,2.7-4,4c-0.3,0.2-0.2,0.5-0.2,0.8
		c0.1,0,0.1,0,0.1,0c1.1-0.3,2.3-0.7,3.4-1c0.1,0,0.2-0.1,0.2-0.3c0-0.4,0-0.8,0-1.2c0-0.3,0.1-0.5,0.4-0.6
		C112.4,603.9,112.8,603.7,113.3,603.4z"/>
	<path class="st14" d="M110.1,599.8c0,0.4,0,0.9,0,1.3c0,0.1,0,0.2,0,0.3c-0.1,0.2-0.3,0.3-0.5,0.3c-0.3,0-0.4-0.2-0.4-0.5
		c0-0.4,0-0.7,0-1.1c0-0.1,0-0.2,0-0.3c-1.3,0.6-2.5,0.7-3.8,0c0,0.5,0,1,0,1.4c0,0.4-0.3,0.6-0.6,0.5c-0.2-0.1-0.3-0.2-0.3-0.5
		c0-0.4,0-0.8,0-1.1c0-0.1,0-0.2,0-0.3c-0.8-0.2-1.5-0.3-2.2-0.6c-1.3-0.4-2.6-1-3.7-1.9c-0.5-0.4-0.6-1-0.7-1.6
		c-0.1-1.4,0.1-2.7,0.4-4.1c0.4-1.8,0.9-3.6,1.3-5.4c0-0.1,0-0.3,0-0.4c-0.2-0.6-0.5-1.3-0.8-1.9c-0.1-0.3-0.1-0.5,0.2-0.7
		c1.5-0.8,3-1.6,4.7-2c3.4-0.8,6.6-0.5,9.8,1c0.7,0.3,1.3,0.6,1.9,1c0.4,0.2,0.4,0.4,0.3,0.8c-0.2,0.6-0.5,1.2-0.7,1.8
		c-0.1,0.1-0.1,0.3,0,0.5c0.5,2.1,1,4.1,1.5,6.2c0.2,1.1,0.4,2.1,0.3,3.2c0,0.3-0.1,0.6-0.2,0.9c-0.1,0.3-0.3,0.5-0.6,0.7
		c-1.7,1.2-3.6,2-5.7,2.3C110.2,599.8,110.2,599.8,110.1,599.8z M102.1,591.7c0,0.9,0,1.8,0,2.7c0,0.5,0.2,1,0.4,1.5
		c0.8,1.6,2.1,2.6,3.7,3.3c0.8,0.3,1.5,0.3,2.3-0.1c1.2-0.5,2.2-1.3,3-2.3c0.5-0.6,0.9-1.3,1-2.1c0.1-1,0-2,0.1-2.9
		c0-0.1-0.1-0.2-0.1-0.2c-1-0.6-1.9-1.4-2.7-2.2c-0.1-0.1-0.2-0.1-0.4,0c-1.3,0.7-2.6,1.2-4.1,1.7
		C104.2,591.2,103.2,591.5,102.1,591.7z M101.4,587.8c1.9-0.9,3.9-1.2,5.9-1.2c2,0,4,0.3,5.9,1.2c0.5-1.3,1-2.5,1.5-3.8
		c-2.3-1.3-5-2.4-8.6-2.1c-2.2,0.2-4.3,1-6.2,2.1C100.4,585.3,100.9,586.6,101.4,587.8z M103.4,598.7
		C103.4,598.6,103.4,598.6,103.4,598.7c0-0.1-0.1-0.2-0.2-0.3c-1-0.9-1.8-2-2-3.4c0-0.2-0.1-0.3-0.4-0.3c-0.9-0.1-1.6-0.9-1.6-1.8
		c0-0.9,0.7-1.7,1.5-1.9c0.9-0.2,1.8-0.3,2.8-0.6c2-0.5,3.9-1.1,5.7-2.2c0.5-0.3,0.6-0.2,1,0.2c0.6,0.6,1.3,1.3,1.9,1.9
		c0.4,0.4,0.9,0.6,1.5,0.7c1,0.1,1.7,0.9,1.7,1.9c0,1-0.7,1.7-1.7,1.8c-0.2,0-0.2,0.1-0.3,0.2c0,0.2-0.1,0.4-0.1,0.5
		c-0.3,1.2-1,2.1-1.9,3c-0.1,0.1-0.1,0.1-0.3,0.3c0.1,0,0.2,0,0.2,0c1.4-0.3,2.7-0.9,3.9-1.7c0.4-0.3,0.6-0.6,0.6-1
		c0-0.1,0-0.2,0-0.3c0-1.2-0.2-2.4-0.5-3.6c-0.3-1.4-0.7-2.8-1-4.2c-0.2,0.3-0.3,0.6-0.5,0.9c-0.2,0.3-0.4,0.4-0.7,0.3
		c-1.4-0.8-3-1.1-4.6-1.2c-1.3-0.1-2.6-0.1-3.9,0.2c-1.1,0.2-2.2,0.5-3.2,1.1c-0.4,0.2-0.6,0.1-0.8-0.3c-0.1-0.3-0.2-0.6-0.4-0.9
		c0,0.1,0,0.1-0.1,0.2c-0.4,1.8-0.9,3.7-1.2,5.5c-0.2,0.8-0.2,1.6-0.2,2.5c0,0.3,0,0.7,0.4,0.9c1,0.7,2.1,1.3,3.3,1.7
		C102.8,598.5,103.1,598.6,103.4,598.7z M101.1,591.9c-0.6,0-1,0.5-0.9,1c0,0.5,0.5,0.9,0.9,0.8
		C101.1,593.1,101.1,592.5,101.1,591.9z M113.4,593.7c0.5,0,0.9-0.4,0.9-0.9c0-0.5-0.4-0.9-0.9-0.9
		C113.4,592.5,113.4,593.1,113.4,593.7z"/>
	<path class="st14" d="M107.3,597.5c-0.6,0-1.2-0.2-1.7-0.6c-0.2-0.2-0.3-0.5-0.1-0.7c0.1-0.2,0.4-0.3,0.7-0.1
		c0.6,0.4,1.3,0.5,2,0.2c0.1-0.1,0.3-0.1,0.4-0.2c0.2-0.1,0.5-0.1,0.6,0.1c0.1,0.2,0.1,0.5-0.1,0.7
		C108.5,597.3,107.9,597.5,107.3,597.5z"/>
	<path class="st14" d="M103.5,592.8c0-0.5,0.4-1,0.9-1c0.5,0,1,0.4,1,0.9c0,0.5-0.4,1-0.9,1C103.9,593.7,103.5,593.3,103.5,592.8z"
		/>
	<path class="st14" d="M109.2,592.8c0-0.5,0.5-0.9,1-0.9c0.5,0,0.9,0.5,0.9,1c0,0.5-0.4,0.9-1,0.9
		C109.6,593.7,109.2,593.3,109.2,592.8z"/>
	<path class="st14" d="M107.8,584.8c-0.1,0.4,0.1,0.9-0.5,0.9c-0.6,0-0.4-0.5-0.5-0.9c-0.4,0-0.9,0.1-0.9-0.5c0-0.6,0.5-0.5,0.9-0.5
		c0-0.4-0.1-0.9,0.5-0.9c0.6,0,0.5,0.5,0.5,0.9c0.4,0,0.9-0.1,0.9,0.5C108.7,584.8,108.2,584.7,107.8,584.8z"/>
</g>
<g>
	<path class="st14" d="M314.2,584c0,2.8,0,5.5,0,8.3c0,0,0,0,0,0.1c-0.3,1.3-1.2,1.9-2.5,1.9c-1.7,0-3.4,0-5.1,0
		c-0.1,0-0.3,0.1-0.4,0.1c-0.7,0.5-1.5,1.1-2.2,1.6c-0.3,0.2-0.5,0.4-0.8,0.6c-0.3,0.2-0.7,0-0.7-0.4c0-0.1,0-0.2,0-0.4
		c0-0.5,0-1,0-1.6c-0.2,0-0.3,0-0.5-0.1c0,0.1,0,0.1-0.1,0.1c-0.3,1.1-0.9,2-1.6,2.8c-0.1,0.1-0.1,0.3-0.1,0.4
		c0.1,0.5,0.2,1,0.2,1.5c0,0.2,0.1,0.3,0.3,0.3c1.3,0.1,2.5,0.1,3.8,0.3c2.7,0.4,4.6,3.2,3.9,5.9c-0.5,1.9-1.7,3.1-3.6,3.7
		c-0.1,0-0.2,0.1-0.3,0.1c-0.3,0.5-0.8,0.8-1.3,1c-4,0-8,0-12,0c-0.5-0.2-0.9-0.4-1.2-0.8c-0.1-0.2-0.3-0.3-0.5-0.3
		c-2.1-0.5-3.6-2.5-3.7-4.6c0-2.4,1.4-4.3,3.6-4.9c0.8-0.2,1.7-0.3,2.6-0.3c0.6-0.1,1.3,0,2,0c0.1-0.7,0.2-1.4,0.3-2
		c0-0.1-0.1-0.2-0.1-0.2c-0.8-0.8-1.3-1.7-1.6-2.8c0-0.2-0.1-0.2-0.3-0.3c-0.7-0.2-1.2-0.7-1.4-1.3c-0.2-0.6-0.3-1.2-0.2-1.8
		c0-0.3,0.2-0.6,0.3-0.9c0-0.2,0.1-0.3,0.1-0.5c-0.1-1.2-0.1-2.5,0-3.7c0.2-1.3,0.8-2.3,2-2.9c0.7-0.3,1.4-0.5,2.1-0.7
		c0.4-0.1,0.9-0.2,1.4-0.2c0.5,0,0.9,0,1.4,0c0,0,0,0,0,0c0.9,0.1,1.8,0.3,2.7,0.6c0.1,0,0.1,0,0.2,0c0.3-0.3,0.8-0.5,1.2-0.6
		c3.4,0,6.8,0,10.2,0c0.1,0,0.1,0,0.2,0.1c0.8,0.2,1.3,0.7,1.6,1.4C314.1,583.7,314.2,583.9,314.2,584z M303.4,595.3
		c0.7-0.5,1.3-0.9,1.9-1.4c0.5-0.4,1-0.6,1.7-0.5c1.6,0,3.2,0,4.8,0c0.9,0,1.5-0.6,1.5-1.4c0-2.5,0-5,0-7.5c0-0.8-0.6-1.4-1.4-1.4
		c-3.1,0-6.3,0-9.4,0c-0.8,0-1.4,0.6-1.4,1.4c0,2.5,0,5,0,7.5c0,0.8,0.5,1.3,1.3,1.4c0.2,0,0.4,0,0.6,0c0.4,0,0.6,0.2,0.6,0.6
		C303.4,594.4,303.4,594.8,303.4,595.3z M300,588.9c0-1,0-2,0-2.9c0-0.6-0.1-0.7-0.7-0.8c-0.2,0-0.4,0-0.6,0c-1,0.2-2,0.2-3,0
		c-0.7-0.1-1.3,0-1.7,0.6c-0.2,0.4-0.4,0.8-0.5,1.3c-0.1,0.6-0.1,1.1-0.2,1.7c-0.2,1-0.4,1.9-0.3,2.9c0.1,0.3,0.1,0.7,0.1,1
		c0.2,1.3,0.6,2.4,1.3,3.5c1.2,1.7,3.4,2,4.9,0.7c0.9-0.7,1.4-1.7,1.7-2.8c0-0.1,0-0.2-0.1-0.2c-0.6-0.5-0.9-1.1-0.9-1.9
		C300.1,590.9,300,589.9,300,588.9z M295.4,609.5c-0.6-1.1-2.1-3-3.1-3.8c-0.4-0.3-0.4-0.5-0.2-0.9c0.2-0.3,0.4-0.5,0.6-0.8
		c-0.3-0.5-0.7-0.9-1.3-1.1c-0.4-0.2-0.5-0.4-0.3-0.8c0.3-0.4,0.6-0.8,0.8-1.3c0.1-0.1,0.2-0.2,0.4-0.4c-0.8,0.1-1.5,0.1-2.2,0.2
		c-1.7,0.2-2.9,1.5-3.3,3.2c-0.3,1.5,0.4,3.2,1.8,4.1c0.3,0.2,0.6,0.3,1,0.5c0-0.4,0-0.7,0-1.1c0-0.5,0-1.1,0-1.6
		c0-0.3,0.2-0.5,0.5-0.5c0.3,0,0.4,0.2,0.5,0.5c0,0.1,0,0.2,0,0.3c0,0.8,0,1.7,0,2.5c0,0.6,0.4,1,1,1c0.3,0,0.5,0,0.8,0
		C293.4,609.5,294.4,609.5,295.4,609.5z M301.6,604.1c0.2,0.2,0.3,0.3,0.4,0.5c0.5,0.7,0.5,0.8-0.1,1.3c-1.2,1-2,2.3-2.9,3.5
		c0,0,0,0.1,0,0.1c1.3,0,2.6,0,3.8,0c0.5,0,0.9-0.4,0.9-1c0-0.3,0-0.6,0-0.9c0-0.6,0-1.3,0-1.9c0-0.2,0.1-0.4,0.3-0.5
		c0.1,0,0.4,0,0.5,0.1c0.1,0.1,0.2,0.3,0.2,0.5c0,0.7,0,1.5,0,2.2c0,0.1,0,0.2,0,0.3c0.1,0,0.1,0,0.2,0c1.6-0.6,2.7-2.1,2.6-3.8
		c0-1.7-1.2-3.2-2.8-3.7c-0.7-0.2-1.4-0.2-2.1-0.3c-0.2,0-0.4,0-0.5,0c0.4,0.5,0.7,1,1.1,1.6c0.3,0.4,0.2,0.7-0.3,0.9
		C302.4,603.1,301.9,603.5,301.6,604.1z M299,601.6c-1.2,0.4-2.4,0.4-3.5,0c0.8,2.6,1.2,5.2,1.3,7.9c0.3,0,0.6,0,1,0
		C297.8,606.8,298.2,604.2,299,601.6z M292.1,589.7c0-0.1,0.1-0.2,0.1-0.3c0.1-0.6,0.2-1.2,0.3-1.7c0.1-0.9,0.3-1.7,0.8-2.4
		c0.6-0.8,1.4-1.1,2.4-1c0.7,0.1,1.4,0.1,2.1,0.1c0.7,0,1.4-0.3,2.1,0c0.1-0.3,0.1-0.6,0.2-0.8c-1.6-0.5-3.1-0.7-4.7-0.3
		c-0.9,0.2-1.7,0.4-2.5,0.9c-0.5,0.3-0.8,0.8-0.9,1.4c-0.3,1.3-0.2,2.7-0.1,4C292,589.6,292,589.6,292.1,589.7z M292.2,602.2
		c0.1,0.1,0.2,0.1,0.2,0.1c0.6,0.4,1.1,1,1.4,1.7c0.1,0.3,0,0.6-0.3,0.7c-0.2,0.1-0.3,0.2-0.4,0.3c0.9,1,1.7,2,2.6,3
		c-0.2-2.5-0.7-5.1-1.7-7.5C293.3,600.8,292.6,601.5,292.2,602.2z M299.2,598.1c-2,0.6-2,0.6-4.1,0c-0.1,0.5-0.1,0.9-0.3,1.4
		c-0.2,0.5,0,0.7,0.4,0.9c0.1,0.1,0.3,0.2,0.5,0.3c0.8,0.3,1.6,0.4,2.4,0.2c0.5-0.1,0.9-0.3,1.3-0.7c0.1-0.1,0.1-0.3,0.1-0.4
		C299.5,599.2,299.3,598.7,299.2,598.1z M300.4,600.6c-0.9,2.4-1.5,5-1.7,7.5c0.8-1,1.7-2,2.6-3c-0.1-0.1-0.2-0.2-0.4-0.3
		c-0.3-0.1-0.4-0.4-0.3-0.7c0.1-0.3,0.3-0.6,0.5-0.9c0.3-0.4,0.7-0.7,1.1-1.1C301.8,601.4,301.1,600.8,300.4,600.6z M292.2,593.1
		c-0.1-0.8-0.1-1.6-0.2-2.3c0-0.1-0.1-0.1-0.2-0.2c0,0-0.2,0.1-0.2,0.1c0,0.4-0.1,0.8,0,1.3C291.6,592.4,291.8,592.8,292.2,593.1z"
		/>
	<path class="st14" d="M308.6,589.6c0,0.4,0,0.8,0,1.2c0,0.7-0.4,1.1-1.1,1.1c-0.2,0-0.5,0-0.7,0c-0.7,0-1.1-0.4-1.1-1.1
		c0-0.4,0-0.8,0-1.2c0,0,0,0,0-0.1c-0.1,0-0.2,0-0.3,0c-0.3,0-0.7,0-1,0c-0.6,0-0.9-0.4-1-1c0-0.3,0-0.6,0-0.9c0-0.6,0.4-0.9,1-1
		c0.4,0,0.9,0,1.4,0c0-0.4,0-0.7,0-1.1c0-0.2,0-0.4,0-0.5c0.1-0.4,0.4-0.7,0.8-0.7c0.3,0,0.7,0,1,0c0.6,0,1,0.4,1,1
		c0,0.2,0,0.4,0,0.7c0,0.2,0,0.4,0,0.7c0.3,0,0.6,0,0.9,0c0.2,0,0.3,0,0.5,0c0.6,0,1,0.4,1,1c0,0.3,0,0.6,0,0.9c0,0.6-0.4,1-1,1
		C309.5,589.6,309,589.6,308.6,589.6z M310,587.7c-0.3,0-0.5,0-0.8,0c-1.3,0.1-1.7-0.3-1.6-1.6c0-0.3,0-0.5,0-0.8
		c-0.3,0-0.6,0-0.9,0c0,0.4,0,0.9,0,1.3c0,0.4-0.1,0.7-0.4,0.9c-0.2,0.1-0.4,0.2-0.7,0.2c-0.4,0-0.8,0-1.3,0c0,0.3,0,0.6,0,0.9
		c0.4,0,0.8,0,1.2,0c0.8,0,1.2,0.4,1.2,1.2c0,0.4,0,0.8,0,1.2c0.3,0,0.6,0,0.9,0c0-0.4,0-0.8,0-1.2c0-0.8,0.4-1.1,1.1-1.1
		c0.4,0,0.8,0,1.2,0C310,588.3,310,588.1,310,587.7z"/>
</g>
<g>
	<path class="st14" d="M480.2,610.1c-0.6-0.2-1-0.6-1.5-1c-0.6-0.6-1.1-1.1-1.7-1.7c-0.2-0.2-0.2-0.3-0.1-0.6
		c0.1-0.2,0.3-0.3,0.5-0.2c0.1,0,0.2,0.1,0.3,0.2c0.7,0.6,1.3,1.3,2,1.9c0.6,0.5,1.2,0.5,1.7,0c0.2-0.2,0.4-0.4,0.6-0.6
		c0.5-0.5,0.5-1.1,0-1.6c-1.5-1.5-3.1-2.9-4.6-4.4c-0.5-0.5-1.1-0.4-1.6,0c-0.2,0.2-0.4,0.4-0.7,0.7c-0.5,0.5-0.4,1.1,0,1.6
		c0.3,0.3,0.6,0.6,0.9,0.9c0.3,0.2,0.3,0.5,0.1,0.7c-0.2,0.2-0.4,0.2-0.7-0.1c-0.3-0.3-0.7-0.6-1-0.9c-0.7-0.8-0.8-1.9-0.1-2.7
		c0.2-0.2,0.3-0.4,0.5-0.5c0.7-0.8,1.5-1,2.5-0.7c0.3-1.5,0.4-3.1,0.3-4.7c0-0.6,0-1.2,0-1.7c0-1,0.7-1.8,1.7-1.8
		c1,0,1.8,0.8,1.8,1.8c0,0.4,0,0.8,0,1.2c0,0,0,0,0.1,0c0.9-1,1.8-1.9,2.7-2.8c-0.2-0.4-0.4-0.7-0.5-1c-0.2-0.5-0.1-0.9,0.3-1.3
		c0.9-1.1,1.8-2.2,2.8-3.4c0.2-0.2,0.4-0.3,0.6-0.1c0.2,0.2,0.2,0.4,0,0.7c-0.9,1.1-1.8,2.1-2.6,3.2c-0.3,0.4-0.3,0.8,0.2,1.2
		c0.1-0.1,0.1-0.2,0.2-0.3c0.2-0.2,0.5-0.4,0.7-0.5c0.3-0.1,0.5-0.3,0.7-0.5c0.4-0.5,0.9-1.1,1.4-1.6c0.2-0.3,0.5-0.3,0.7-0.1
		c0.2,0.2,0.2,0.4,0,0.7c-0.5,0.6-0.9,1.1-1.4,1.7c0.2,0.3,0.4,0.5,0.6,0.8c0.5-0.1,0.9-0.4,1.2-0.8c0.1-0.2,0.3-0.4,0.5-0.6
		c0.2-0.2,0.5-0.3,0.7-0.1c0.2,0.2,0.2,0.4,0,0.7c-0.2,0.3-0.5,0.6-0.6,0.8c0.3,0.4,0.5,0.8,0.8,1.2c0.2-0.2,0.4-0.4,0.6-0.7
		c0.2-0.2,0.4-0.2,0.5-0.1c0.1,0.1,0.2,0.3,0.2,0.5c0,0.1-0.1,0.2-0.2,0.3c-0.3,0.4-0.6,0.8-1,1.2c0,0,0,0,0,0
		c0.4,0.3,0.7,0.7,0.7,1.3c0.1-0.1,0.2-0.2,0.3-0.3c0.8-1,1.6-1.9,2.4-2.9c0.1-0.2,0.3-0.3,0.5-0.3c0.3,0.1,0.3,0.3,0.4,0.5
		c0.1,0.7,0.2,1.3,0.3,2c0.1,0.5,0.3,0.8,0.7,0.9c0.6,0.1,1.1-0.3,1.1-0.9c-0.1-0.9-0.2-1.9-0.2-2.8c0-1.2,0-2.3,0-3.5
		c0,0,0-0.1,0-0.1c0.1-0.4,0-0.8-0.4-1.1c-1.4-1.1-2.7-2.2-4.1-3.4c-0.2-0.2-0.4-0.2-0.6-0.2c-0.7,0.1-1.3,0.5-1.8,1
		c-0.3,0.4-0.7,0.8-1,1.2c-0.2,0.2-0.3,0.3-0.6,0.2c-0.2-0.1-0.3-0.4-0.2-0.6c0.7-0.9,1.3-1.9,2.4-2.4c0.3-0.1,0.7-0.2,1-0.4
		c-0.2-0.8,0.1-1.5,0.6-2.1c0.2-0.2,0.3-0.4,0.5-0.6c0.7-0.8,1.9-0.9,2.7-0.2c0.8,0.6,1.5,1.3,2.3,1.9c0.3,0.2,0.3,0.5,0.1,0.7
		c-0.2,0.2-0.4,0.2-0.7,0c-0.7-0.6-1.4-1.2-2.2-1.8c-0.6-0.5-1.2-0.5-1.8,0.2c-0.2,0.2-0.4,0.4-0.5,0.7c-0.4,0.5-0.3,1.1,0.1,1.5
		c1.7,1.4,3.3,2.8,5,4.1c0.5,0.4,1.1,0.3,1.5-0.1c0.2-0.3,0.5-0.5,0.7-0.8c0.4-0.5,0.3-1.1-0.1-1.5c-0.3-0.3-0.7-0.6-1.1-0.9
		c-0.2-0.2-0.3-0.4-0.1-0.6c0.1-0.2,0.4-0.3,0.6-0.1c0.4,0.3,0.9,0.7,1.2,1c0.7,0.7,0.7,1.8,0.2,2.6c-0.2,0.3-0.5,0.6-0.8,0.9
		c-0.6,0.6-1.3,0.8-2.2,0.5c0,1-0.1,2-0.1,3c0,1.1,0.2,2.2,0.3,3.3c0,0.1,0.1,0.3,0.1,0.4c0.7,1.3,1.3,2.6,2,3.9
		c0.5,1,0.7,2,0.4,3.1c1.4,0.3,1.8,1.4,2.1,2.6c0.2,0.8-0.2,1.6-1,2c-0.9,0.5-1.9,0.9-2.8,1.4c-0.3,0.1-0.5,0-0.6-0.2
		c-0.1-0.2,0-0.5,0.3-0.6c0.8-0.4,1.7-0.9,2.5-1.3c0.7-0.4,0.9-0.9,0.6-1.7c-0.1-0.3-0.2-0.5-0.4-0.8c-0.3-0.5-0.9-0.8-1.5-0.5
		c-1.9,0.9-3.8,1.9-5.8,2.9c-0.6,0.3-0.8,0.9-0.5,1.5c0.1,0.3,0.3,0.6,0.4,0.9c0.3,0.6,0.9,0.8,1.5,0.5c0.4-0.2,0.8-0.4,1.1-0.6
		c0.3-0.2,0.6-0.1,0.7,0.1c0.1,0.3,0,0.5-0.3,0.7c-0.6,0.3-1.1,0.5-1.7,0.8c-0.2,0-0.5,0-0.7,0c-0.5-0.2-0.9-0.3-1.2-0.8
		c-0.3-0.5-0.6-1-0.8-1.6c-0.2-0.7,0-1.3,0.5-1.9c0,0-0.1-0.1-0.1-0.1c-1.5-0.8-3-1.5-4.7-2c-0.1,0-0.3,0-0.3,0.1
		c-0.6,0.6-1.1,1.2-1.7,1.8c-0.5,0.5-1.1,0.9-1.8,1.1c-0.3,0.1-0.5,0.1-0.8,0.2c0.1,0.8-0.1,1.2-0.5,1.7c-0.5,0.6-1,1.2-1.8,1.4
		C480.7,610.1,480.4,610.1,480.2,610.1z M478.3,601.6c-0.1,0.2,0.1,0.4,0.2,0.5c1.4,1.3,2.7,2.6,4.1,3.9c0.1,0.1,0.2,0.1,0.3,0.1
		c0.8,0,1.5-0.3,2.1-0.9c1.8-1.9,3.6-3.8,5.4-5.7c0.1-0.1,0.2-0.4,0.2-0.6c0-0.3-0.2-0.5-0.5-0.5c-0.3-0.1-0.5,0-0.7,0.2
		c-0.8,0.8-1.5,1.6-2.3,2.4c-0.3,0.3-0.5,0.3-0.7,0.1c-0.2-0.2-0.2-0.5,0.1-0.7c0.5-0.5,1-1,1.5-1.6c0.7-0.7,1.3-1.4,1.9-2
		c0.4-0.4,0.3-0.9-0.2-1.1c-0.3-0.1-0.6-0.1-0.8,0.2c-0.9,1-1.9,1.9-2.8,2.9c-0.1,0.1-0.1,0.1-0.2,0.2c-0.2,0.1-0.4,0.1-0.6,0
		s-0.2-0.4-0.1-0.6c0-0.1,0.1-0.1,0.2-0.2c1.2-1.2,2.3-2.4,3.5-3.7c0.2-0.2,0.3-0.4,0.3-0.7c-0.1-0.3-0.2-0.5-0.5-0.6
		c-0.3-0.1-0.5,0-0.8,0.3c-1,1.1-2,2.1-3,3.2c-0.1,0.1-0.2,0.2-0.3,0.2c-0.3,0.2-0.7,0-0.7-0.4c0-0.1,0.1-0.3,0.2-0.4
		c0.8-0.8,1.6-1.7,2.4-2.5c0.3-0.3,0.3-0.7,0-1c-0.3-0.3-0.7-0.3-1,0.1c-0.2,0.3-0.5,0.5-0.7,0.8c-1.2,1.2-2.3,2.4-3.5,3.6
		c-0.2,0.2-0.4,0.3-0.7,0.1c-0.2-0.1-0.3-0.3-0.3-0.5c0-0.7,0-1.4-0.1-2.1c0-0.5-0.4-0.8-0.9-0.8c-0.5,0-0.8,0.4-0.8,0.9
		c0,0.3,0,0.7,0,1c0,1.2,0,2.4-0.1,3.6C478.5,600.1,478.4,600.8,478.3,601.6z M490.9,597.8c0.8,0.9,0.8,1.7,0,2.6
		c-0.8,0.8-1.6,1.6-2.3,2.4c-0.1,0.1-0.1,0.2-0.2,0.2c0.9,0.4,1.8,0.7,2.7,1.1c0.7,0.3,1.4,0.7,2.1,1.1c0.2,0.1,0.4,0.1,0.6,0
		c1.7-0.8,3.4-1.7,5-2.5c0.2-0.1,0.3-0.2,0.3-0.4c0.2-0.8,0.1-1.6-0.3-2.3c-0.5-1.1-1.1-2.1-1.6-3.2c0-0.1-0.1-0.2-0.1-0.2
		c-0.2,0.2-0.5,0.4-0.7,0.5c-1.1,0.5-2.3-0.2-2.5-1.5c-0.1-0.4-0.1-0.8-0.2-1.2c-0.4,0.5-0.7,0.8-1,1.3c0,0.1,0,0.2,0,0.3
		c0.2,0.4,0.4,0.8,0.6,1.2c0.2,0.3,0.1,0.6-0.2,0.7c-0.2,0.1-0.5,0-0.6-0.3c-0.2-0.3-0.3-0.6-0.5-1
		C491.7,596.9,491.3,597.3,490.9,597.8z"/>
</g>
<g>
	<path class="st14" d="M481.8,486.6c0.7-0.4,1.4-0.8,2.1-1.2c-0.1-0.1-0.1-0.1-0.1-0.2c-0.3-0.3-0.6-0.6-0.9-0.9
		c-0.2-0.2-0.2-0.4-0.1-0.7c0.2-0.4,0.4-0.9,0.6-1.3c0-0.1,0-0.3,0-0.4c-0.3-0.7-0.6-1.4-0.9-2.1c0-0.1-0.1-0.2-0.2-0.3
		c-0.4-0.2-0.9-0.4-1.3-0.5c-0.3-0.1-0.4-0.3-0.4-0.6c0-0.9,0-1.9,0-2.8c0-0.3,0.1-0.5,0.4-0.6c0.4-0.2,0.9-0.3,1.3-0.5
		c0.1-0.1,0.2-0.2,0.3-0.3c0.3-0.7,0.6-1.4,0.9-2c0.1-0.2,0.1-0.3,0-0.5c-0.2-0.4-0.4-0.8-0.6-1.3c-0.1-0.3-0.1-0.5,0.1-0.7
		c0.7-0.7,1.3-1.3,2-2c0.2-0.2,0.4-0.2,0.7-0.1c0.4,0.2,0.9,0.4,1.3,0.6c0.1,0,0.3,0,0.4,0c0.7-0.3,1.4-0.6,2.1-0.9
		c0.1,0,0.2-0.2,0.3-0.3c0.2-0.4,0.4-0.9,0.5-1.3c0.1-0.3,0.3-0.4,0.6-0.4c0.9,0,1.9,0,2.8,0c0.3,0,0.5,0.1,0.6,0.4
		c0.2,0.4,0.3,0.9,0.5,1.3c0,0.1,0.2,0.2,0.3,0.3c0.7,0.3,1.4,0.6,2.1,0.9c0.1,0,0.2,0,0.3,0c0.4-0.2,0.9-0.4,1.3-0.6
		c0.3-0.1,0.5-0.1,0.8,0.1c0.6,0.7,1.3,1.3,1.9,1.9c0.3,0.3,0.3,0.4,0.1,0.8c-0.2,0.4-0.4,0.8-0.5,1.2c0,0.1,0,0.3,0,0.4
		c0.3,0.7,0.6,1.4,0.9,2.1c0,0.1,0.1,0.2,0.2,0.3c0.4,0.2,0.9,0.3,1.3,0.5c0.3,0.1,0.4,0.3,0.4,0.6c0,0.9,0,1.9,0,2.8
		c0,0.3-0.1,0.5-0.4,0.6c-0.4,0.2-0.9,0.3-1.3,0.5c-0.1,0-0.2,0.2-0.3,0.3c-0.3,0.7-0.6,1.4-0.9,2.1c0,0.1-0.1,0.3,0,0.4
		c0.2,0.4,0.4,0.8,0.6,1.3c0.1,0.3,0.1,0.5-0.1,0.7c-0.2,0.2-0.4,0.4-0.6,0.6c0.5,0.5,0.7,1.2,0.5,1.9c-0.1,0.4-0.3,0.7-0.7,0.9
		c-2.5,1.5-5,3.1-7.5,4.6c-0.8,0.5-1.7,0.6-2.6,0.3c-1.6-0.4-3.2-0.8-4.7-1.3c-0.4-0.1-0.7,0-1,0.2c0.1,0.1,0.2,0.3,0.2,0.4
		c0.3,0.6,0.2,1.2-0.4,1.6c-0.4,0.2-0.7,0.4-1.1,0.6c-0.6,0.3-1.2,0.1-1.5-0.4c-1.1-2-2.3-4-3.4-6c-0.3-0.6-0.2-1.2,0.4-1.5
		c0.4-0.2,0.7-0.4,1.1-0.6c0.6-0.3,1.2-0.2,1.6,0.4C481.7,486.3,481.8,486.4,481.8,486.6z M503,478.2c0-0.8,0-1.5,0-2.2
		c0-0.1-0.1-0.2-0.2-0.2c-0.4-0.2-0.9-0.3-1.3-0.5c-0.2-0.1-0.4-0.2-0.4-0.5c-0.2-0.9-0.6-1.7-1-2.5c-0.1-0.2-0.1-0.4,0-0.6
		c0.2-0.4,0.4-0.8,0.5-1.2c0-0.1,0-0.3-0.1-0.3c-0.5-0.5-0.9-0.9-1.4-1.4c-0.1-0.1-0.2-0.1-0.4-0.1c-0.4,0.2-0.8,0.4-1.2,0.5
		c-0.2,0.1-0.5,0.1-0.7,0c-0.8-0.5-1.6-0.8-2.5-1c-0.2-0.1-0.4-0.2-0.5-0.4c-0.2-0.4-0.3-0.8-0.5-1.3c-0.1-0.2-0.1-0.2-0.3-0.2
		c-0.7,0-1.3,0-2,0c-0.2,0-0.2,0.1-0.3,0.2c-0.2,0.4-0.3,0.8-0.5,1.2c-0.1,0.2-0.2,0.4-0.5,0.4c-0.9,0.2-1.7,0.6-2.5,1
		c-0.2,0.1-0.4,0.1-0.6,0c-0.4-0.2-0.8-0.4-1.2-0.5c-0.2-0.1-0.3-0.1-0.4,0.1c-0.4,0.5-0.9,0.9-1.4,1.4c-0.1,0.1-0.1,0.2-0.1,0.4
		c0.2,0.4,0.4,0.8,0.5,1.2c0.1,0.2,0.1,0.4,0,0.6c-0.5,0.8-0.8,1.6-1,2.5c-0.1,0.3-0.2,0.4-0.4,0.5c-0.4,0.2-0.8,0.3-1.2,0.5
		c-0.1,0.1-0.2,0.1-0.2,0.3c0,0.7,0,1.3,0,2c0,0.2,0.1,0.2,0.2,0.3c0.4,0.2,0.8,0.3,1.3,0.5c0.2,0.1,0.4,0.2,0.4,0.5
		c0.2,0.9,0.6,1.7,1.1,2.5c0.1,0.2,0.1,0.4,0,0.6c-0.2,0.4-0.4,0.8-0.6,1.3c0,0.1,0,0.2,0,0.3c0.3,0.3,0.5,0.6,0.8,0.8
		c0,0,0.1,0.1,0.2,0c0.4-0.2,0.9-0.4,1.3-0.6c-0.1-0.8-0.1-1.6,0.2-2.4c0.1-0.2,0-0.3-0.1-0.5c-1.2-1.7-1.7-3.6-1.3-5.6
		c0.7-4,4.4-6.5,8.4-5.9c3.4,0.5,6,3.5,6.1,7c0,1.7-0.4,3.2-1.4,4.5c-0.1,0.1-0.1,0.3-0.1,0.4c0.1,0.5,0.2,1.1,0.2,1.6
		c0,0.5-0.1,1.1-0.2,1.5c0.4-0.1,0.8-0.3,1.2-0.3c0.5,0,0.8-0.2,1.1-0.6c0,0,0,0,0.1-0.1c0.1-0.1,0.2-0.2,0.1-0.4
		c-0.2-0.4-0.3-0.8-0.5-1.2c-0.1-0.2-0.1-0.5,0-0.7c0.5-0.8,0.8-1.6,1-2.4c0.1-0.3,0.2-0.4,0.5-0.5C502,478.6,502.5,478.4,503,478.2
		z M484.2,490.8c0.2-0.1,0.4-0.2,0.6-0.3c0.2-0.2,0.5-0.2,0.7-0.1c1.7,0.5,3.4,0.9,5.1,1.4c0.7,0.2,1.4,0.2,2-0.2
		c2.5-1.5,4.9-3,7.4-4.6c0.1-0.1,0.2-0.2,0.3-0.3c0.1-0.3,0.1-0.6-0.1-0.9c-0.2-0.3-0.6-0.3-0.9-0.2c-0.5,0.2-1,0.3-1.4,0.6
		c-1.3,0.7-2.6,1.5-3.9,2.3c-0.6,0.4-1.3,0.6-2,0.5c-1.2-0.2-2.4-0.6-3.6-0.8c-0.3-0.1-0.4-0.3-0.3-0.6c0.1-0.3,0.3-0.4,0.6-0.3
		c0.3,0.1,0.6,0.2,0.9,0.2c0.6,0.2,1.2,0.3,1.8,0.4c0.4,0.1,0.7-0.1,0.8-0.5c0.1-0.4-0.2-0.7-0.6-0.8c-0.1,0-0.2,0-0.3-0.1
		c-1.2-0.4-2.5-0.8-3.7-1.2c-0.5-0.2-1-0.2-1.5,0c-0.3,0.1-0.5,0.2-0.8,0.4c-1,0.5-1.9,1.1-2.8,1.6c-0.1,0-0.1,0.1-0.2,0.1
		C483,488.6,483.6,489.7,484.2,490.8z M491.7,485.2c-0.1,0-0.2-0.1-0.4-0.1c-0.5-0.2-0.9-0.6-1-1.1c-0.1-0.3,0.1-0.5,0.3-0.6
		c0.2-0.1,0.5,0,0.6,0.3c0.3,0.6,1,0.9,1.6,0.5c0.4-0.2,0.4-0.6,0.1-0.9c-0.2-0.1-0.4-0.2-0.6-0.2c-0.3-0.1-0.6-0.1-0.8-0.2
		c-0.7-0.2-1-0.7-1-1.4c0-0.6,0.4-1.2,1-1.4c0.1-0.1,0.3-0.1,0.3-0.3c0-0.3,0.2-0.5,0.5-0.5c0.3,0,0.5,0.2,0.5,0.5
		c0,0.2,0.1,0.2,0.2,0.3c0.5,0.2,0.8,0.5,1,1c0.1,0.3,0,0.5-0.2,0.6c-0.2,0.1-0.5,0-0.6-0.2c0,0,0-0.1-0.1-0.1
		c-0.3-0.5-0.9-0.6-1.4-0.3c-0.4,0.3-0.4,0.7,0.1,0.9c0.2,0.1,0.3,0.1,0.5,0.2c0.4,0.1,0.8,0.2,1.1,0.4c0.5,0.3,0.8,0.7,0.8,1.3
		c0,0.6-0.3,1-0.9,1.2c-0.2,0.1-0.4,0.1-0.5,0.2c-0.1,0.2-0.2,0.4-0.2,0.6c0.6,0.5,0.8,1.2,0.6,2c0.1-0.1,0.2-0.1,0.3-0.2
		c1-0.6,1.9-1.1,2.9-1.7c0.1-0.1,0.2-0.1,0.2-0.2c1.1-1.5,1.1-3.1,0.2-4.7c-0.8-1.3-1.8-2.5-2.8-3.6c-0.1-0.1-0.2-0.1-0.3-0.1
		c-0.6,0-1.2,0.1-1.8,0c-0.8-0.1-1.4,0.2-1.9,0.8c-0.8,1-1.7,2-2.3,3.2c-0.4,0.8-0.5,1.6-0.4,2.4c0,0.1,0.1,0.3,0.2,0.3
		c0.6,0.2,1.1,0.4,1.7,0.6c0.9,0.3,1.8,0.6,2.7,0.8C491.7,485.4,491.7,485.3,491.7,485.2z M494.8,477.1c0.9,1.1,1.8,2.3,2.6,3.4
		c1.7-2.4,1.4-6.1-1.3-8.3c-2.7-2.2-6.5-1.9-8.8,0.7c-2.2,2.5-1.9,5.9-0.5,7.7c0.4-0.6,0.8-1.2,1.3-1.7c0.4-0.6,0.9-1.1,1.4-1.7
		c-0.7-0.6-0.7-1.7,0.4-2.3c-0.2-0.2-0.5-0.4-0.7-0.6c-0.7-0.7-0.3-1.9,0.6-2.1c0.3-0.1,0.7,0,1,0c0.2-0.5,0.6-0.8,1.2-0.9
		c0.7,0,1.1,0.3,1.4,1c0.8-0.3,1.4-0.1,1.8,0.4c0.4,0.6,0.3,1.2-0.3,1.8c-0.1,0.1-0.3,0.3-0.5,0.4
		C495.5,475.4,495.6,476.5,494.8,477.1z M480.7,486.5c-0.1,0-0.1,0-0.1,0c-0.4,0.2-0.7,0.4-1.1,0.6c-0.1,0-0.1,0.2,0,0.3
		c0.1,0.2,0.3,0.5,0.4,0.7c1,1.7,1.9,3.4,2.9,5.1c0.1,0.2,0.2,0.3,0.4,0.1c0.3-0.2,0.6-0.3,0.9-0.5c0.2-0.1,0.2-0.2,0.1-0.4
		c-0.2-0.4-0.4-0.7-0.6-1.1c-0.9-1.5-1.7-3.1-2.6-4.6C480.8,486.7,480.7,486.6,480.7,486.5z M492,474.7c0.4,0,0.7,0,1,0
		c0.1,0,0.2,0,0.3-0.1c0.4-0.4,0.7-0.7,1.1-1.1c0.1-0.1,0.2-0.3,0-0.5c-0.1-0.2-0.3-0.2-0.5-0.1c-0.7,0.3-1.1,0.1-1.4-0.6
		c-0.1-0.1-0.2-0.3-0.4-0.3c-0.1,0-0.3,0.1-0.4,0.3c-0.3,0.7-0.7,0.9-1.4,0.6c-0.2-0.1-0.4-0.1-0.5,0.1c-0.1,0.2-0.1,0.4,0.1,0.5
		c0.2,0.2,0.3,0.3,0.5,0.5C490.9,474.6,491.4,474.9,492,474.7z M492.2,475.7c-0.6,0-1.2,0-1.8,0c-0.2,0-0.4,0.1-0.4,0.3
		c0,0.3,0.2,0.3,0.4,0.3c1.2,0,2.3,0,3.5,0c0.3,0,0.5-0.2,0.4-0.4c0-0.2-0.2-0.3-0.4-0.3C493.4,475.7,492.8,475.7,492.2,475.7z"/>
	<path d="M480.4,488.1c-0.2,0-0.4-0.2-0.4-0.4c0-0.2,0.2-0.4,0.4-0.4c0.2,0,0.4,0.2,0.4,0.4C480.9,487.9,480.7,488.1,480.4,488.1z"
		/>
</g>
<g>
	<path class="st14" d="M285.7,492.1c0.1-0.4,0.3-0.9,0.7-1.2c0.7-0.6,1.7-0.7,2.4-0.2c0.8,0.5,1.1,1.4,0.9,2.3
		c-0.2,0.8-1,1.5-1.9,1.5c-1,0-1.8-0.6-2-1.5c0-0.1,0-0.1-0.1-0.2C285.7,492.5,285.7,492.3,285.7,492.1z M287.8,491.1
		c-0.7,0-1.3,0.6-1.3,1.3c0,0.7,0.6,1.3,1.3,1.4c0.7,0,1.3-0.6,1.3-1.3C289.1,491.7,288.5,491.1,287.8,491.1z"/>
	<path class="st14" d="M288.1,470.7c0,0,0.1,0,0.1,0c1,0.2,1.6,1.1,1.6,2.1c-0.1,1-0.9,1.8-1.9,1.9c-1,0.1-1.9-0.6-2.1-1.6
		c0,0,0-0.1,0-0.1c0-0.2,0-0.4,0-0.7c0-0.1,0-0.1,0.1-0.2c0.2-0.6,0.5-1,1-1.3c0.2-0.1,0.5-0.2,0.7-0.3
		C287.7,470.7,287.9,470.7,288.1,470.7z M289.1,472.7c0-0.7-0.6-1.3-1.3-1.4c-0.7,0-1.4,0.6-1.4,1.3c0,0.7,0.6,1.3,1.3,1.3
		C288.5,474,289.1,473.5,289.1,472.7z"/>
	<path class="st14" d="M307.8,470.7c0.3,0.1,0.6,0.2,0.9,0.4c0.8,0.5,1,1.5,0.7,2.3c-0.3,0.9-1.2,1.4-2.1,1.3
		c-0.9-0.1-1.6-0.8-1.8-1.6c-0.2-1.1,0.5-2.1,1.5-2.4c0.1,0,0.1,0,0.1-0.1C307.4,470.7,307.6,470.7,307.8,470.7z M307.5,474
		c0.7,0,1.3-0.6,1.3-1.3c0-0.7-0.6-1.3-1.3-1.3c-0.7,0-1.3,0.6-1.3,1.3C306.2,473.4,306.8,474,307.5,474z"/>
	<path class="st14" d="M300.8,490.3c-0.4-0.4-0.7-0.7-1-1c-0.4-0.4-0.3-0.8,0.2-1.1c1.6-0.7,2.7-1.8,3.3-3.3c0.2-0.5,0.7-0.6,1-0.2
		c0.3,0.3,0.6,0.6,1,1c0.1-0.5,0.3-0.9,0.4-1.3c0.2-0.8,0.6-1.3,1.4-1.5c0.4-0.1,0.7,0,1.1,0c0.3,0,0.5,0.3,0.5,0.6
		c-0.2,1.7-0.6,3.2-1.5,4.7c-1.8,2.9-4.3,4.7-7.6,5.3c-0.3,0.1-0.7,0.1-1,0.1c-0.3,0-0.6-0.2-0.6-0.5c0-0.4,0-0.8,0-1.2
		c0.1-0.7,0.6-1.1,1.3-1.3C299.8,490.6,300.3,490.4,300.8,490.3z M300.3,488.9c0.4,0.4,0.7,0.7,1.1,1.1c0.3,0.3,0.2,0.7-0.2,0.8
		c-0.5,0.2-1.1,0.4-1.6,0.5c-0.8,0.2-1.1,0.8-0.9,1.6c5-0.5,8.9-4.7,9.3-9.3c-0.1,0-0.2,0-0.3,0c-0.8,0-1.1,0.2-1.3,1
		c-0.1,0.5-0.3,1-0.5,1.5c-0.2,0.5-0.5,0.5-0.9,0.2c-0.3-0.3-0.5-0.5-0.8-0.8c-0.1-0.1-0.2-0.2-0.3-0.3c-0.4,0.9-0.9,1.6-1.5,2.2
		C301.9,488,301.2,488.5,300.3,488.9z"/>
	<path class="st14" d="M300.8,474.8c-0.5-0.1-1-0.3-1.4-0.4c-0.8-0.2-1.4-0.9-1.4-1.8c0-0.2,0-0.4,0-0.7c0-0.4,0.3-0.6,0.6-0.6
		c3.8,0.4,6.7,2.3,8.7,5.6c0.8,1.4,1.3,2.9,1.4,4.5c0,0.3-0.2,0.6-0.5,0.7c-0.4,0-0.8,0-1.2,0c-0.7-0.1-1.1-0.6-1.3-1.3
		c-0.1-0.5-0.3-0.9-0.4-1.4c-0.4,0.4-0.7,0.7-1,1c-0.4,0.4-0.8,0.3-1.1-0.2c-0.7-1.6-1.8-2.7-3.3-3.3c-0.5-0.2-0.6-0.7-0.2-1
		C300.1,475.5,300.4,475.2,300.8,474.8z M308,481.5c-0.5-5.1-4.7-9-9.3-9.3c0,0.1,0,0.3,0,0.4c0,0.7,0.3,1,1,1.2
		c0.5,0.1,1.1,0.3,1.6,0.5c0.4,0.1,0.4,0.5,0.2,0.8c-0.1,0.1-0.3,0.3-0.4,0.4c-0.2,0.2-0.5,0.5-0.7,0.7c1.7,0.8,2.8,1.9,3.6,3.6
		c0.4-0.4,0.7-0.7,1.1-1.1c0.4-0.4,0.7-0.3,0.9,0.2c0.2,0.6,0.4,1.2,0.6,1.7c0.1,0.4,0.4,0.7,0.9,0.8
		C307.6,481.5,307.8,481.5,308,481.5z"/>
	<path class="st14" d="M287.2,481.5c0.3,0,0.5,0,0.8,0c0.4-0.1,0.7-0.3,0.8-0.8c0.2-0.6,0.4-1.2,0.6-1.8c0.2-0.4,0.5-0.5,0.9-0.2
		c0.4,0.4,0.7,0.7,1.1,1.1c0.8-1.7,1.9-2.8,3.6-3.6c-0.2-0.1-0.3-0.2-0.5-0.4c-0.2-0.2-0.5-0.5-0.7-0.7c-0.3-0.3-0.2-0.7,0.2-0.8
		c0.5-0.2,1-0.4,1.6-0.5c0.8-0.2,1-0.5,1-1.3c0-0.1,0-0.2,0-0.3c-0.4,0.1-0.7,0.1-1.1,0.2c-0.7,0.2-1.3,0.4-2,0.6
		c-0.1,0-0.2,0.1-0.2,0.1c-0.2,0-0.3-0.1-0.4-0.3c-0.1-0.2,0-0.3,0.2-0.4c0.4-0.2,0.9-0.4,1.3-0.5c0.7-0.2,1.4-0.3,2.1-0.4
		c0.3-0.1,0.6,0.2,0.7,0.5c0,0.4,0,0.8,0,1.2c-0.1,0.7-0.6,1.1-1.3,1.3c-0.5,0.1-0.9,0.3-1.4,0.4c0.4,0.4,0.7,0.7,1,1
		c0.4,0.4,0.3,0.8-0.2,1.1c-1.5,0.7-2.7,1.8-3.3,3.3c-0.2,0.5-0.7,0.6-1,0.2c-0.3-0.3-0.6-0.6-1-1c-0.1,0.5-0.3,0.9-0.4,1.3
		c-0.2,0.8-0.6,1.3-1.4,1.5c-0.4,0.1-0.7,0-1.1,0c-0.3,0-0.5-0.3-0.5-0.7c0.2-1.7,0.7-3.3,1.6-4.8c0.9-1.4,2-2.6,3.4-3.5
		c0.1,0,0.1-0.1,0.2-0.1c0.2-0.1,0.4-0.1,0.5,0.1c0.1,0.2,0.1,0.4-0.1,0.5c-0.4,0.3-0.9,0.6-1.3,1c-2,1.8-3.2,4-3.5,6.7
		C287.2,481.4,287.2,481.4,287.2,481.5z"/>
	<path class="st14" d="M289.9,485.7c0.4-0.4,0.7-0.7,1-1c0.4-0.4,0.8-0.3,1.1,0.2c0.1,0.2,0.2,0.3,0.2,0.5c0.1,0.2,0,0.4-0.1,0.5
		c-0.2,0.1-0.4,0-0.5-0.2c0-0.1-0.1-0.2-0.1-0.2c0-0.1-0.1-0.1-0.1-0.3c-0.4,0.4-0.7,0.7-1,1.1c-0.4,0.4-0.7,0.3-0.9-0.2
		c-0.2-0.5-0.4-1-0.5-1.6c-0.2-0.7-0.5-0.9-1.2-0.9c-0.1,0-0.3,0-0.4,0c0.4,4.6,4.2,8.9,9.3,9.3c0-0.5,0.1-0.9-0.3-1.3
		c-0.1-0.1-0.3-0.2-0.5-0.3c-0.6-0.2-1.1-0.4-1.7-0.6c-0.5-0.2-0.6-0.5-0.2-0.9c0.3-0.3,0.7-0.7,1-1c-0.6-0.4-1.2-0.8-1.7-1.2
		c-0.2-0.1-0.4-0.3-0.5-0.5c-0.2-0.2-0.2-0.4,0-0.5c0.1-0.2,0.4-0.1,0.5,0c0.6,0.7,1.4,1.2,2.2,1.5c0.4,0.2,0.5,0.6,0.2,1
		c-0.3,0.3-0.7,0.7-1,1c0.5,0.1,1,0.3,1.4,0.4c0.8,0.2,1.3,0.9,1.4,1.7c0,0.2,0,0.5,0,0.7c0,0.4-0.3,0.6-0.7,0.6
		c-2.7-0.3-5-1.3-6.9-3.2c-1.8-1.8-2.8-3.9-3.2-6.3c0-0.2-0.1-0.4-0.1-0.6c0-0.3,0.2-0.6,0.5-0.6c0.4,0,0.8,0,1.2,0
		c0.7,0.1,1.2,0.6,1.4,1.3C289.6,484.7,289.8,485.2,289.9,485.7z"/>
	<path class="st14" d="M297.6,479.6c0.7-0.6,1.5-0.9,2.4-0.8c1.4,0.1,2.6,1.3,2.7,2.7c0.1,1.1-0.3,2-1.1,2.7c-0.5,0.4-1,0.9-1.5,1.3
		c-0.2,0.2-0.4,0.2-0.6,0c-0.2-0.2-0.1-0.4,0.1-0.6c0.5-0.5,1.1-0.9,1.6-1.4c0.7-0.6,0.9-1.4,0.7-2.3c-0.2-0.9-0.8-1.5-1.7-1.7
		c-0.8-0.2-1.5,0-2.2,0.5c-0.4,0.4-0.6,0.4-1,0c-1-0.9-2.4-0.8-3.3,0.1c-0.9,0.9-0.8,2.4,0.1,3.3c1.2,1.1,2.4,2.1,3.6,3.1
		c0.1,0.1,0.2,0.1,0.3,0c0.2-0.2,0.4-0.3,0.6-0.5c0.2-0.2,0.4-0.1,0.5,0c0.1,0.1,0.1,0.4-0.1,0.5c-0.2,0.2-0.4,0.3-0.6,0.5
		c-0.4,0.3-0.7,0.3-1.1,0c-0.8-0.7-1.6-1.4-2.4-2.1c-0.4-0.3-0.8-0.6-1.1-1c-0.9-0.9-1.3-1.9-0.9-3.1c0.4-1.2,1.2-1.9,2.5-2.2
		c0.8-0.1,1.6,0.1,2.3,0.6C297.5,479.5,297.5,479.5,297.6,479.6z"/>
	<path class="st14" d="M309.5,492.4c0,1.1-0.9,2-2,2c-1.1,0-2-0.9-2-2c0-1.1,0.9-2,2-2C308.6,490.4,309.5,491.3,309.5,492.4z
		 M306.2,492.4c0,0.7,0.6,1.3,1.3,1.3c0.7,0,1.3-0.6,1.3-1.3c0-0.7-0.6-1.3-1.3-1.3C306.8,491.1,306.2,491.7,306.2,492.4z"/>
</g>
<g>
	<path class="st14" d="M98.5,490.3c-0.4-0.2-0.5-0.5-0.5-0.9c0-0.8,0-1.6,0-2.4c0-0.1,0-0.2,0-0.4c-0.2,0-0.3,0-0.4,0
		c-1.5,0-3,0-4.6,0c-0.7,0-0.9-0.2-0.9-0.9c0-0.8,0-1.5,0-2.3c0-2.4,1.9-4.4,4.3-4.5c0,0,0.1,0,0,0c-0.2-0.6-0.4-1.1-0.5-1.7
		c-0.1-0.8-0.1-1.6,0.1-2.3c0.3-1.4,1.7-2.6,3.4-2.5c1.4,0.1,2.8,1.2,3,2.7c0.1,0.8,0.1,1.6,0,2.4c0,0.5-0.3,0.9-0.5,1.4
		c1.1,0,2.3,0,3.5,0c-0.1-0.1-0.2-0.2-0.2-0.3c-0.7-0.9-1.2-1.9-1.2-3c0-1.1,0-2.1,0-3.2c0-2.5,2.1-4.6,4.6-4.6c2.7,0,4.8,2,4.8,4.8
		c0,0.8,0,1.7,0,2.5c0.1,1.5-0.4,2.7-1.4,3.8c1.2,0,2.4,0,3.5,0c-0.2-0.5-0.4-1-0.5-1.5c-0.1-0.8-0.1-1.7,0.1-2.5
		c0.3-1.6,1.8-2.5,3.5-2.4c1.5,0.1,2.8,1.4,2.9,2.9c0.1,0.8,0,1.6-0.1,2.3c0,0.4-0.3,0.8-0.5,1.2c0.2,0,0.5,0.1,0.8,0.1
		c1.8,0.4,3.2,1.8,3.6,3.7c0,0,0,0.1,0.1,0.1c0,1.1,0,2.2,0,3.3c-0.2,0.3-0.5,0.4-0.9,0.4c-1.5,0-3,0-4.6,0c-0.1,0-0.3,0-0.4,0
		c0,0.9,0,1.8,0,2.7c0,0.4-0.1,0.7-0.5,0.9c-4.4,0-8.7,0-13.1,0c-0.4-0.3-0.5-0.5-0.4-0.8c0.1-0.3,0.3-0.5,0.8-0.5
		c0.4,0,0.8,0,1.3,0c-0.1-0.1-0.1-0.2-0.1-0.4c-1.1-2.6-2.2-5.3-3.2-7.9c-0.1-0.3-0.3-0.4-0.6-0.3c-2.2,0.3-4.1,2.1-4.5,4.2
		c-0.2,1.4-0.1,2.8-0.1,4.3c0,0,0,0,0.1,0.1c0.4,0,0.7,0,1.1,0c0.4,0,0.6,0.3,0.6,0.6c0,0.3-0.2,0.5-0.5,0.7
		C100,490.3,99.3,490.3,98.5,490.3z M118.5,488.9c0-0.7,0-1.4,0-2c0-0.7,0-1.5-0.1-2.2c-0.4-2.2-2.3-4-4.5-4.3c-0.3,0-0.4,0-0.5,0.3
		c-1.1,2.7-2.2,5.3-3.3,7.9c0,0.1-0.1,0.2-0.1,0.3C112.8,488.9,115.6,488.9,118.5,488.9z M112.4,473.9c-1.2,0-2.3-0.3-3.3-0.8
		c-0.1-0.1-0.3,0-0.4,0c-0.5,0.2-1.1,0.4-1.6,0.6c-0.5,0.1-1,0.2-1.5,0.2c0,0.7-0.1,1.4,0,2.1c0.2,1.6,1.5,2.8,3.2,2.9
		c1.6,0.1,3.1-1,3.4-2.5C112.4,475.7,112.3,474.8,112.4,473.9z M98.1,485.4c0.2-2.1,1.1-3.7,2.7-5c-1.5,0-2.8,0-4.2,0
		c-1.5,0.1-2.7,1.1-3,2.5c-0.2,0.8-0.1,1.7-0.1,2.5C95.1,485.4,96.6,485.4,98.1,485.4z M124.3,485.4c0-0.6,0-1.1,0-1.7
		c0-1.9-1.4-3.3-3.4-3.4c-1.2,0-2.4,0-3.6,0c-0.1,0-0.2,0-0.3,0c1.6,1.3,2.5,3,2.7,5C121.3,485.4,122.8,485.4,124.3,485.4z
		 M112,480.3c-0.9,0-1.6,0-2.4,0c0,0,0,0.1,0,0.1c0,0.4,0,0.7,0,1.1c0,0.1,0,0.3,0,0.4c0,0.4-0.3,0.6-0.7,0.6
		c-0.3,0-0.6-0.3-0.6-0.6c0-0.5,0-1.1,0-1.6c-0.8,0-1.6,0-2.5,0c1,2.5,2.1,5,3.1,7.5C110,485.3,111,482.8,112,480.3z M120.5,476.4
		C120.5,476.4,120.5,476.4,120.5,476.4c0-0.2,0-0.5,0-0.7c0-1-0.9-1.8-1.8-1.9c-1-0.1-2,0.6-2.1,1.6c-0.1,0.5-0.1,1.1,0,1.7
		c0.1,1,0.9,1.8,1.9,1.9c0.9,0.1,1.8-0.6,2-1.5C120.5,477.1,120.5,476.8,120.5,476.4z M101.4,476.4
		C101.4,476.4,101.4,476.4,101.4,476.4c0-0.2,0-0.4,0-0.6c-0.1-1.1-0.9-2-2.1-2c-1.1,0-1.9,0.9-1.9,2c0,0.4,0,0.9,0,1.3
		c0,1,0.9,1.8,1.9,1.9c1,0.1,1.9-0.7,2-1.6C101.3,477.1,101.4,476.8,101.4,476.4z M112.3,472.6c-0.1-1.3-0.6-2.3-1.7-2.9
		c-1.2-0.7-2.4-0.6-3.6,0.1c-1,0.7-1.4,1.6-1.5,2.8c1,0,2-0.2,2.8-0.8c0.4-0.3,0.8-0.3,1.2,0C110.4,472.4,111.3,472.6,112.3,472.6z"
		/>
	<path class="st14" d="M103.3,490.3c-0.1-0.2-0.4-0.3-0.4-0.5c-0.1-0.3,0.1-0.6,0.4-0.7c0.3-0.1,0.6,0,0.8,0.3
		c0.2,0.3,0.1,0.6-0.2,0.8c-0.1,0.1-0.1,0.1-0.2,0.1C103.6,490.3,103.4,490.3,103.3,490.3z"/>
</g>
<g>
	<path class="st17" d="M227,411.4h-12.9c-3.1,0-5.7-2.6-5.7-5.7v-12.9c0-3.1,2.6-5.7,5.7-5.7H227c3.1,0,5.7,2.6,5.7,5.7v12.9
		C232.7,408.8,230.1,411.4,227,411.4z"/>
	<polygon class="st14" points="220.8,402.7 226.1,398.4 225.6,397.8 220.6,401.9 215.5,397.8 215,398.4 220.3,402.7 220.5,402.9 
		220.6,402.9 220.6,402.9 	"/>
</g>
<g>
	<path class="st18" d="M182.8,243.1h-12.9c-3.1,0-5.7-2.6-5.7-5.7l0-12.9c0-3.1,2.6-5.7,5.7-5.7h12.9c3.1,0,5.7,2.6,5.7,5.7v12.9
		C188.5,240.6,186,243.1,182.8,243.1z"/>
	<polygon class="st14" points="176.6,234.5 181.9,230.2 181.4,229.6 176.4,233.7 171.4,229.6 170.9,230.2 176.2,234.5 176.4,234.7 
		176.4,234.7 176.4,234.7 	"/>
</g>
<g class="st19">
	<path class="st20" d="M359.6,326.3h-12.9c-3.1,0-5.7-2.6-5.7-5.7v-12.9c0-3.1,2.6-5.7,5.7-5.7h12.9c3.1,0,5.7,2.6,5.7,5.7v12.9
		C365.3,323.7,362.7,326.3,359.6,326.3z"/>
</g>
<g>
	<path class="st21" d="M232.5,166.4h-12.9c-3.1,0-5.7-2.6-5.7-5.7v-12.9c0-3.1,2.6-5.7,5.7-5.7h12.9c3.1,0,5.7,2.6,5.7,5.7v12.9
		C238.2,163.9,235.6,166.4,232.5,166.4z"/>
	<polygon class="st14" points="226.3,157.8 231.6,153.5 231.1,152.9 226.1,157 221,152.9 220.6,153.5 225.9,157.8 226,158 
		226.1,158 226.1,158 	"/>
</g>
<image style="overflow:visible;" width="512" height="512" xlink:href="telth_logo_white.png"  transform="matrix(3.516660e-02 0 0 3.516660e-02 344.1547 305.1574)">
</image>
<g>
	<path class="st14" d="M93.3,300.8c0,0.4,0.1,0.8,0.1,1.2c0.1,1.1,0.1,2.3,0.1,3.4c0,0.2,0.1,0.4,0.2,0.5c0.1,0.1,0.2,0.2,0.3,0.3
		c0.5,0.5,0.5,0.5,0.4,1.3c-0.1-0.1-0.1-0.1-0.2-0.2c-0.8-0.8-1.6-1.6-2.4-2.4c-0.5-0.5-1-0.7-1.6-0.6c0,0-0.1,0-0.1,0.1
		c0.1,0,0.1,0,0.2,0c0.5,0.1,0.9,0.3,1.3,0.6c0.9,0.9,1.8,1.9,2.8,2.8c0.1,0.1,0.2,0.2,0.2,0.4c0,0.2,0,0.3,0,0.6
		c-0.1-0.1-0.2-0.2-0.3-0.3c-0.9-0.9-1.9-1.9-2.8-2.8c-0.5-0.5-1.1-0.8-1.8-0.8c-0.1,0-0.1,0-0.2,0c0,0,0.1,0.1,0.1,0.1
		c0.6,0,1.1,0.4,1.6,0.8c1.1,1.1,2.2,2.2,3.3,3.3c0.1,0.1,0.1,0.2,0.1,0.3c0,0.2,0,0.4-0.1,0.6c0,0-0.1,0-0.1,0.1
		c-0.2-0.3-0.5-0.5-0.7-0.8c-1-1.1-2.1-2.1-3.1-3.2c-0.5-0.5-1.1-0.7-1.8-0.5c0.1,0,0.2,0.1,0.3,0.1c0.5,0,0.8,0.3,1.1,0.6
		c1.1,1.1,2.3,2.3,3.4,3.4c0.2,0.2,0.5,0.5,0.7,0.7c0.1,0.1,0.2,0.2,0.1,0.4c0,0.1-0.1,0.3-0.1,0.5c-0.3-0.3-0.6-0.5-0.9-0.8
		c-1.2-1.2-2.4-2.4-3.6-3.6c-0.6-0.6-1.4-0.7-2.1-0.4c-0.2,0.1-0.4,0.3-0.5,0.4c-0.4,0.4-0.8,0.8-1.2,1.1c-0.2,0.2-0.2,0.2-0.1,0.6
		c0.1,0,0.1-0.1,0.1-0.1c0.6-0.6,1.1-1.1,1.7-1.7c0.3-0.3,0.8-0.4,1.1-0.2c-0.2,0.2-0.5,0.5-0.7,0.7c-0.7,0.7-1.3,1.3-2,2
		c-0.2,0.2-0.2,0.3-0.1,0.6c1-1,2.1-2.1,3.1-3.1c0.2,0.2,0.3,0.3,0.5,0.5c-0.5,0.5-1,1-1.5,1.5c-0.6,0.6-1.3,1.3-1.9,1.9
		c-0.2,0.2-0.1,0.3,0,0.5c1.2-1.2,2.4-2.4,3.7-3.7c0.2,0.2,0.3,0.3,0.4,0.4c-1.4,1.4-2.8,2.8-4.3,4.3c-0.7-0.7-1.4-1.4-2.1-2.1
		c-0.8,0.8-1.5,1.5-2.2,2.2c-1.4-1.5-2.9-2.9-4.3-4.4c0.1-0.1,0.2-0.2,0.4-0.4c1.2,1.2,2.4,2.4,3.7,3.7c0.1-0.3,0.1-0.4,0-0.6
		c-1.1-1.1-2.3-2.2-3.4-3.3c0.2-0.2,0.4-0.4,0.5-0.5c1,1,2.1,2,3.1,3.1c0.2-0.4,0.1-0.4-0.1-0.6c-0.8-0.8-1.6-1.6-2.4-2.4
		c0,0-0.1-0.1-0.1-0.1c0.3-0.2,0.7-0.1,1,0.1c0.5,0.4,0.9,0.9,1.3,1.3c0.2,0.2,0.4,0.4,0.6,0.5c0.1-0.2,0.1-0.4-0.1-0.6
		c-0.5-0.4-0.9-0.9-1.4-1.3c-0.5-0.4-1-0.5-1.6-0.4c-0.6,0.1-0.9,0.5-1.3,0.9c-1.3,1.3-2.5,2.6-3.8,3.9c-0.1,0.1-0.1,0.1-0.2,0.2
		c-0.1-0.2-0.1-0.4-0.1-0.6c0-0.1,0.1-0.2,0.1-0.2c1.3-1.3,2.5-2.6,3.8-3.8c0.3-0.3,0.7-0.7,1.1-0.8c0.1,0,0.3-0.1,0.5-0.1
		c0,0,0-0.1,0-0.1c-0.2,0-0.4,0-0.6,0c-0.5,0.1-0.9,0.4-1.2,0.7c-1.1,1.1-2.2,2.2-3.3,3.4c-0.1,0.1-0.3,0.3-0.4,0.4
		c-0.2-0.4-0.1-0.7,0.1-1c1.1-1.1,2.3-2.3,3.4-3.4c0.3-0.3,0.7-0.5,1.2-0.6c0.1,0,0.1,0,0.2-0.1c-0.5-0.1-1-0.1-1.4,0.2
		c-0.4,0.3-0.8,0.7-1.1,1.1c-0.8,0.8-1.6,1.5-2.3,2.3c-0.1,0.1-0.1,0.1-0.2,0.2c-0.2-0.5-0.1-0.8,0.2-1.2c0.9-0.9,1.8-1.7,2.6-2.6
		c0.4-0.4,0.9-0.6,1.4-0.7c0.1,0,0.1,0,0.2-0.1c-0.4-0.1-0.8-0.1-1.2,0.1c-0.4,0.2-0.7,0.5-1,0.8c-0.7,0.7-1.4,1.4-2.1,2.1
		c0,0-0.1,0.1-0.2,0.2c0-0.3,0-0.6,0-0.9c0-0.1,0.1-0.1,0.1-0.2c0.2-0.2,0.4-0.4,0.6-0.7c0.1-0.1,0.2-0.2,0.2-0.3
		c0.1-1.1,0.1-2.1,0.1-3.2c0-0.5,0-1,0-1.6c3.6,0,7.2,0,10.8,0c0.1,0,2.5,0,2.7,0c0.7,0,1.5,0,2.2,0c0.5,0,1.1,0,1.6,0
		C92.3,300.8,92.8,300.8,93.3,300.8z M92.8,304.9C92.8,304.9,92.8,304.9,92.8,304.9c0.1-0.3,0-0.5,0-0.8c0-0.8-0.1-1.6-0.1-2.4
		c0-0.2-0.1-0.3-0.3-0.3c-5.7,0-11.3,0-17,0c-0.1,0-0.2,0-0.3,0c-0.1,1.2-0.1,2.3-0.2,3.5c0.1-0.1,0.2-0.2,0.2-0.2
		c0.2-0.2,0.4-0.4,0.7-0.6c0.3-0.3,0.7-0.5,1.2-0.5c0.8-0.1,1.5,0.2,2.1,0.8c1.2,1.2,2.5,2.5,3.7,3.7c0.4,0.4,0.7,0.7,1.1,1.1
		c0.1-0.1,0.1-0.1,0.2-0.2c1.6-1.6,3.1-3.1,4.7-4.7c1-1,2.6-1,3.5,0C92.5,304.6,92.6,304.7,92.8,304.9z"/>
	<path class="st14" d="M70.3,329.6c0-1.1,0-2.1,0-3.2c0-0.4,0-0.9,0-1.4c0.3,0,0.5,0,0.8,0c0.1,0,0.1,0.1,0.1,0.1
		c0.2,0.3,0.3,0.5,0.5,0.8c0.2-0.3,0.4-0.5,0.6-0.8c0.1-0.1,0.2-0.2,0.3-0.2c0.2,0,0.4,0,0.6,0c0,0.1,0,0.2,0,0.3c0,1.3,0,2.7,0,4
		c0,0.1,0,0.2,0,0.3c-0.3,0-0.5,0-0.8,0c0-1.1,0-2.2,0-3.4c0,0,0,0-0.1,0c-0.2,0.3-0.4,0.6-0.6,1c-0.2-0.3-0.4-0.6-0.6-0.9
		c0,0,0,0-0.1,0c0,1.1,0,2.2,0,3.3C70.9,329.6,70.6,329.6,70.3,329.6z"/>
	<path class="st14" d="M88.1,329.6c0-1.5,0-3,0-4.6c0.2,0,0.4,0,0.6,0c0.1,0,0.1,0.1,0.2,0.2c0.3,0.7,0.6,1.4,1,2.1
		c0,0,0.1,0.1,0.1,0.1c0-0.1,0-0.2,0-0.3c0-0.6,0-1.3,0-1.9c0-0.2,0-0.2,0.2-0.2c0.2,0,0.4,0,0.6,0c0,1.5,0,3.1,0,4.6
		c-0.2,0-0.5,0-0.7,0c0,0,0-0.1,0-0.1c-0.3-0.8-0.7-1.5-1-2.3c0,0,0,0-0.1-0.1c0,0.7,0,1.4,0,2c0,0.1,0,0.2,0,0.4
		C88.6,329.6,88.3,329.6,88.1,329.6z"/>
	<path class="st14" d="M78.2,329.6c0-1.5,0-3,0-4.6c0.1,0,0.2,0,0.4,0c0.5,0,0.9,0,1.4,0.1c0.9,0.2,1.3,1.2,0.8,1.9
		c-0.1,0.1-0.2,0.2-0.4,0.3c0.5,0.3,0.6,0.8,0.6,1.2c0,0.4,0,0.7,0,1.1c-0.3,0-0.6,0-0.9,0c0-0.5,0-1,0-1.5c0-0.3-0.2-0.5-0.4-0.5
		c-0.2,0-0.4,0-0.5,0c0,0.7,0,1.3,0,2C78.7,329.6,78.4,329.6,78.2,329.6z M79,326.9c0.3-0.1,0.7,0.1,0.9-0.2c0.1-0.2,0.1-0.6,0-0.7
		c-0.3-0.3-0.6-0.2-0.9-0.2C79,326.1,79,326.5,79,326.9z"/>
	<path class="st14" d="M92,329.6c0-1.4,0-2.7,0-4.1c0-0.2,0-0.3,0-0.5c0.1,0,0.2,0,0.3,0c0.3,0,0.7,0,1,0c0.7,0,1.3,0.5,1.3,1.2
		c0.1,0.7,0.1,1.5,0,2.2c0,0.6-0.4,1-1.1,1.1c-0.1,0-0.1,0-0.2,0.1C93,329.6,92.5,329.6,92,329.6z M92.8,327.2
		C92.8,327.2,92.8,327.2,92.8,327.2c0,0.4,0,0.9,0,1.3c0,0.1,0,0.2,0.1,0.2c0.5,0.2,0.9-0.1,0.9-0.6c0-0.5,0-1.1,0-1.6
		c0-0.6-0.2-0.8-0.8-0.8c-0.2,0-0.2,0.1-0.2,0.2C92.9,326.4,92.8,326.8,92.8,327.2z"/>
	<path class="st14" d="M74.6,329.6c0-0.1,0-0.2,0-0.4c0-1.3,0-2.6,0-3.9c0-0.1,0-0.2,0-0.3c0.8,0,1.5,0,2.3,0c0,0.3,0,0.5,0,0.8
		c-0.5,0-1,0-1.5,0c0,0.3,0,0.6,0,0.9c0,0,0.1,0.1,0.2,0.1c0.4,0,0.8,0,1.2,0c0,0.2,0,0.4,0,0.6c0,0-0.1,0.1-0.2,0.1
		c-0.3,0-0.7,0-1,0c-0.2,0-0.3,0.1-0.3,0.2c0,0.3,0,0.6,0,1c0.5,0,0.9,0,1.4,0c0,0.3,0,0.5,0,0.8C76.1,329.6,75.3,329.6,74.6,329.6z
		"/>
	<path class="st14" d="M66.5,329.6c0.2-0.8,0.3-1.7,0.5-2.5c0.1-0.6,0.2-1.2,0.3-1.8c0-0.2,0.1-0.3,0.3-0.3c0,0,0,0,0,0
		c0.7,0,0.7,0,0.8,0.7c0.2,1.2,0.4,2.4,0.7,3.6c0,0.1,0,0.2,0,0.3c-0.3,0-0.5,0-0.8,0c0-0.5,0-0.6-0.5-0.6c-0.5,0-0.4-0.1-0.5,0.6
		C67,329.6,66.8,329.6,66.5,329.6z M68.2,328.3c-0.1-0.7-0.2-1.3-0.3-2c0,0,0,0-0.1,0c-0.1,0.6-0.2,1.3-0.3,1.9
		C67.8,328.3,68,328.3,68.2,328.3z"/>
	<path class="st14" d="M97.9,329.6c0.1-0.5,0.2-1,0.3-1.4c0.2-1,0.4-1.9,0.5-2.9c0-0.2,0.1-0.3,0.3-0.2c0.2,0,0.4,0,0.5,0
		c0.1,0,0.2,0,0.2,0.2c0.2,1.4,0.5,2.8,0.8,4.1c0,0.1,0,0.1,0.1,0.2c0,0-0.1,0.1-0.1,0.1c-0.2,0-0.5,0-0.7,0c0-0.2,0-0.3,0-0.5
		c0,0-0.1-0.1-0.1-0.1c-0.3,0-0.5,0-0.8,0c-0.1,0-0.1,0.3-0.1,0.5c0,0,0,0,0,0.1C98.5,329.6,98.2,329.6,97.9,329.6z M99.3,326.4
		C99.3,326.4,99.3,326.4,99.3,326.4c-0.2,0.6-0.3,1.3-0.4,1.9c0.2,0,0.4,0,0.7,0C99.5,327.7,99.4,327,99.3,326.4z"/>
	<path class="st14" d="M96,329.6c0-0.3,0-0.6,0-1c0-1.1,0-2.3,0-3.4c0-0.1,0-0.1,0-0.2c0.3,0,0.5,0,0.8,0c0,1.5,0,3,0,4.6
		C96.6,329.6,96.3,329.6,96,329.6z"/>
	<path class="st14" d="M85.9,329.6c0-1.5,0-3,0-4.6c0.3,0,0.5,0,0.8,0c0,1.5,0,3,0,4.6C86.5,329.6,86.2,329.6,85.9,329.6z"/>
	<path class="st14" d="M82.1,329.6c0-1.5,0-3,0-4.6c0.3,0,0.5,0,0.8,0c0,0.1,0,0.2,0,0.2c0,1.3,0,2.7,0,4c0,0.1,0,0.2,0,0.3
		C82.7,329.6,82.4,329.6,82.1,329.6z"/>
	<path class="st14" d="M76.9,309c-0.4,0.5-0.7,1-1.1,1.5c-0.1,0.1-0.2,0.3-0.3,0.4c-0.3,0.3-0.3,0.6-0.2,0.9
		c0.5,1.8,1.3,3.4,2.5,4.8c0.1,0.2,0.2,0.2,0.3,0c0.3-0.4,0.7-0.7,1.1-1.1c0.1-0.1,0.1-0.2,0.1-0.3c-0.3-0.8-0.6-1.6-0.9-2.4
		c-0.1-0.4-0.2-0.8-0.2-1.3c0-0.1-0.1-0.3-0.2-0.4c-0.2-0.3-0.3-0.7,0-1.1c0.3,0.3,0.4,0.7,0.3,1.1c0,0.1-0.1,0.3,0,0.5
		c0.2,1.3,0.6,2.5,1.2,3.6c1.5-1.5,3.1-3,4.6-4.5c1.5,1.5,3,3,4.5,4.6c0.2-0.4,0.3-0.7,0.5-1.1c0.3-0.8,0.6-1.7,0.8-2.6
		c0-0.1,0-0.3,0-0.4c-0.2-0.5-0.1-0.9,0.3-1.2c0.2,0.3,0.2,0.6,0.1,0.8c-0.4,0.7-0.4,1.5-0.6,2.3c-0.2,0.6-0.5,1.2-0.7,1.9
		c0,0.1-0.1,0.2-0.1,0.3c0,0.1,0,0.2,0,0.2c0.4,0.4,0.9,0.8,1.3,1.3c0.2-0.3,0.5-0.7,0.7-1c0.9-1.3,1.5-2.7,1.9-4.2
		c0.1-0.2,0-0.4-0.1-0.5c-0.5-0.7-1-1.4-1.5-2.1c0,0,0,0,0.1-0.1c0.1,0.1,0.2,0.1,0.2,0.2c0.7,0.7,1.4,1.3,2.1,2
		c0.1,0.1,0.1,0.2,0.1,0.3c-0.6,2.4-1.6,4.4-3.2,6.3c-1.8,2-3.8,3.6-6.1,5c-0.1,0.1-0.2,0.1-0.3,0c-1.6-1-3.1-2.1-4.5-3.3
		c-1.4-1.3-2.7-2.7-3.6-4.4c-0.6-1-1-2.1-1.3-3.3c-0.1-0.3,0-0.5,0.2-0.7C75.4,310.4,76.1,309.7,76.9,309
		C76.8,309,76.8,309,76.9,309z M78.7,317.7c1.8-1.8,3.6-3.6,5.3-5.4c1.8,1.8,3.6,3.6,5.3,5.4c0.3-0.2,0.3-0.2,0.1-0.4
		c-1.5-1.5-3-3.1-4.5-4.6c-0.3-0.3-0.6-0.6-0.9-1c-1.9,1.9-3.8,3.8-5.6,5.7C78.5,317.5,78.6,317.6,78.7,317.7z M79.1,318.2
		c0.1,0.1,0.2,0.2,0.3,0.3c1.5-1.6,3.1-3.1,4.6-4.7c1.5,1.6,3.1,3.1,4.6,4.7c0.1-0.1,0.2-0.2,0.3-0.4c-1.7-1.6-3.3-3.2-5-4.8
		C82.4,314.9,80.7,316.5,79.1,318.2z M84,314.8c-1.4,1.4-2.7,2.8-4.1,4.2c0.1,0.1,0.2,0.2,0.3,0.3c0.3-0.3,0.5-0.5,0.8-0.8
		c1-1,1.9-1.9,2.9-2.9c0.1-0.1,0.2-0.2,0.3,0c1,1,2,2.1,3,3.1c0.2,0.2,0.4,0.4,0.6,0.6c0.1-0.1,0.2-0.2,0.3-0.2
		C86.7,317.5,85.4,316.2,84,314.8z M84,319.5c-0.5,0.5-1,1-1.5,1.5c0.4,0.2,0.7,0.5,1.1,0.7c0.3,0.2,0.5,0.2,0.8,0
		c0.3-0.3,0.7-0.5,1.1-0.7C85,320.5,84.5,320,84,319.5z M86.9,319.9c0.4-0.2,0.4-0.2,0.1-0.5c-0.5-0.5-1.1-1.1-1.6-1.6
		c-0.5-0.5-1-1-1.4-1.4c-1.1,1.1-2.2,2.2-3.4,3.2c0.2,0.1,0.2,0.4,0.5,0.1c0.7-0.7,1.4-1.4,2.1-2.1c0.2-0.3,0.5-0.5,0.7-0.8
		C85,317.9,86,318.9,86.9,319.9z M84.1,318.5c0.7,0.7,1.4,1.4,2,2.1c0.1-0.1,0.2-0.2,0.3-0.2c-0.8-0.8-1.6-1.6-2.4-2.4
		c-0.8,0.8-1.6,1.6-2.4,2.4c0.1,0.1,0.2,0.1,0.3,0.2C82.6,319.9,83.3,319.2,84.1,318.5z"/>
	<path class="st14" d="M78.1,313.2c-0.5,0.1-1-0.3-1.1-0.8C77.5,312.3,78,312.6,78.1,313.2z"/>
	<path class="st14" d="M77.9,312.1c-0.5,0-0.9-0.4-1-0.9C77.2,311.1,77.8,311.6,77.9,312.1z"/>
	<path class="st14" d="M89.8,313.2c0.1-0.5,0.6-0.8,1.1-0.8C90.8,312.9,90.3,313.3,89.8,313.2z"/>
	<path class="st14" d="M90.1,312.1c0.1-0.6,0.5-0.9,1-0.9C91,311.7,90.6,312.1,90.1,312.1z"/>
	<path class="st14" d="M89.5,314.2c0.3-0.6,0.6-0.8,1.1-0.7C90.6,313.9,90.1,314.3,89.5,314.2z"/>
	<path class="st14" d="M77.6,314.6c0.4-0.1,0.9,0.2,1.1,0.6C78.3,315.4,77.8,315.1,77.6,314.6z"/>
	<path class="st14" d="M78.4,314.2c-0.6,0.1-1-0.2-1.1-0.7C77.8,313.4,78.2,313.7,78.4,314.2z"/>
	<path class="st14" d="M78.5,312c-0.1-0.5,0.2-1,0.7-1C79.3,311.4,79,311.9,78.5,312z"/>
	<path class="st14" d="M89.4,311.9c-0.5-0.1-0.8-0.6-0.7-1C89.2,310.9,89.5,311.4,89.4,311.9z"/>
	<path class="st14" d="M78.8,312.9c-0.2-0.4,0.2-1,0.7-1C79.5,312.3,79.2,312.8,78.8,312.9z"/>
	<path class="st14" d="M89.2,312.9c-0.4-0.1-0.7-0.6-0.7-1C88.9,312,89.4,312.5,89.2,312.9z"/>
	<path class="st14" d="M89.2,315.2c0.2-0.4,0.6-0.7,1.1-0.7C90.2,315,89.8,315.3,89.2,315.2z"/>
	<path class="st14" d="M88.9,313.9c-0.4-0.2-0.7-0.6-0.6-1.1C88.7,312.9,89.1,313.5,88.9,313.9z"/>
	<path class="st14" d="M79,313.9c-0.2-0.4,0.1-0.9,0.6-1C79.8,313.2,79.5,313.7,79,313.9z"/>
	<path class="st14" d="M79.9,313.7c0.1,0.5-0.1,0.8-0.5,1C79.2,314.4,79.5,313.9,79.9,313.7z"/>
	<path class="st14" d="M88,313.7c0.4,0.1,0.7,0.7,0.5,1C88.1,314.5,87.9,314.2,88,313.7z"/>
	<path class="st14" d="M81.6,305.5c0.2-0.9,0.9-1.4,1.8-1.4c0.6,0,1.2,0,1.8,0c0.1,0,0.1,0,0.2,0.1c-0.1,0.3-0.2,0.6-0.3,0.9
		c-0.1,0.2-0.1,0.4,0,0.6c0.2,0.4,0.3,0.9,0.4,1.3c0,0,0,0.1,0,0.2c0,0,0,0-0.1,0c-0.5,0.5-1,0.9-1.5,1.4c-0.5-0.5-0.9-0.9-1.4-1.4
		c0,0-0.1-0.2,0-0.2c0.2-0.5,0.3-1.1,0.5-1.6C82.6,305.2,82.1,305.3,81.6,305.5z"/>
</g>
</svg>
